<svg width="24" height="24" viewBox="0 0 24 24" fill="none" xmlns="http://www.w3.org/2000/svg">
<g clip-path="url(#clip0_6605_2567)">
<mask id="mask0_6605_2567" style="mask-type:luminance" maskUnits="userSpaceOnUse" x="0" y="0" width="24" height="24">
<path d="M23.1943 0H0V23.1943H23.1943V0Z" fill="white"/>
</mask>
<g mask="url(#mask0_6605_2567)">
<path d="M20.4878 17.0825L15.0855 14.7631C14.9082 14.6872 14.7122 14.6659 14.5226 14.7023C14.3332 14.7386 14.159 14.8309 14.0224 14.9671L11.7668 17.1899C10.5889 16.4815 9.49438 15.6428 8.50408 14.6897C7.55215 13.7002 6.71328 12.6079 6.00297 11.4329L8.22575 9.18104C8.36147 9.04411 8.45314 8.86971 8.48895 8.68027C8.52478 8.49083 8.50312 8.29501 8.42676 8.11797L6.10734 2.71564C6.01613 2.50345 5.85195 2.33094 5.64452 2.22936C5.4371 2.12777 5.20017 2.10383 4.97661 2.16187L0.724329 3.28583C0.511695 3.34061 0.324056 3.46618 0.192309 3.64184C0.0605628 3.8175 -0.00743705 4.03279 -0.000492866 4.25225C0.270182 9.19431 2.32547 13.8701 5.78359 17.4112C9.32556 20.8706 14.0035 22.9257 18.9473 23.1943C19.1666 23.2013 19.3819 23.1334 19.5575 23.0018C19.7331 22.8703 19.8588 22.6829 19.9137 22.4704L21.0367 18.2181C21.0963 17.9945 21.0738 17.7569 20.9731 17.5484C20.8723 17.34 20.7002 17.1747 20.4878 17.0825Z" fill="#3891FF"/>
<path d="M17.3956 9.66426C17.3956 9.92058 17.4975 10.1664 17.6787 10.3477C17.8599 10.5289 18.1057 10.6307 18.3621 10.6307C18.6184 10.6307 18.8641 10.5289 19.0454 10.3477C19.2266 10.1664 19.3285 9.92058 19.3285 9.66426C19.327 8.12688 18.7155 6.65289 17.6284 5.56578C16.5413 4.47866 15.0673 3.86725 13.5299 3.86572C13.2736 3.86572 13.0278 3.96754 12.8466 4.14878C12.6653 4.33002 12.5635 4.57583 12.5635 4.83214C12.5635 5.08845 12.6653 5.33427 12.8466 5.51551C13.0278 5.69676 13.2736 5.79858 13.5299 5.79858C14.5552 5.79858 15.5384 6.20586 16.2634 6.93082C16.9883 7.65578 17.3956 8.63903 17.3956 9.66426Z" fill="#3891FF"/>
<path d="M13.5299 0C13.2736 0 13.0278 0.10182 12.8466 0.283061C12.6653 0.464301 12.5635 0.710116 12.5635 0.966432C12.5635 1.22274 12.6653 1.46856 12.8466 1.6498C13.0278 1.83104 13.2736 1.93285 13.5299 1.93285C15.5797 1.93516 17.5449 2.75046 18.9943 4.19988C20.4437 5.64931 21.2591 7.61449 21.2614 9.66432C21.2614 9.92064 21.3631 10.1664 21.5444 10.3476C21.7256 10.5289 21.9715 10.6308 22.2278 10.6308C22.4841 10.6308 22.7299 10.5289 22.9111 10.3476C23.0924 10.1664 23.1942 9.92064 23.1942 9.66432C23.1913 7.10202 22.1723 4.64551 20.3605 2.83371C18.5487 1.02192 16.0921 0.00281385 13.5299 0Z" fill="#3891FF"/>
</g>
</g>
<defs>
<clipPath id="clip0_6605_2567">
<rect width="24" height="24" fill="white"/>
</clipPath>
</defs>
</svg>
