<svg width="568" height="79" viewBox="0 0 568 79" fill="none" xmlns="http://www.w3.org/2000/svg">
<path d="M40.0345 73.5327C36.6311 73.6577 32.2195 74.1554 29.0971 73.8535L25.4982 73.5043C25.1193 73.469 23.6162 73.2543 23.9706 73.2L25.7854 72.9288L27.7101 72.641C28.1561 72.575 26.8546 72.2023 26.3169 71.9121L33.8204 70.7563L31.4007 70.4331C30.8813 70.3647 31.4557 70.0203 31.6145 69.7915L29.4087 69.1405C33.4049 68.73 36.5822 68.3078 39.3929 68.7253L34.2053 69.2584C36.7777 69.5485 39.5335 69.3881 41.8065 69.0319C41.9348 68.7135 41.8065 68.5201 42.1731 68.5012L44.3056 68.3998C44.8861 68.3715 47.0674 68.3927 46.8902 68.2346L46.102 67.5246C45.7048 67.1661 45.2893 66.6849 45.3871 66.3995C45.4849 66.114 48.7294 66.2202 49.6337 66.3523L54.7725 65.8357L53.3549 65.6258C53.141 65.5951 52.3039 65.5173 52.4567 65.4654C52.6889 65.3852 53.416 65.1328 53.2938 65.1729L48.9799 64.1821C34.3947 63.741 41.3299 64.1137 28.8894 62.5545L33.8265 61.986L32.5189 61.4671C32.195 61.3397 33.5087 60.9812 34.0159 60.9128L39.0508 60.2452C36.4661 60.0329 33.967 59.797 31.1257 59.4691L37.3277 59.2403L34.1686 58.6082C36.9244 58.3534 39.1791 57.8439 40.4378 57.2495C38.3236 57.1999 37.5415 57.1999 35.9528 56.8886L42.7658 56.5394C40.5478 56.3248 38.3114 56.1856 35.8184 56.0606C36.3072 55.978 39.7901 55.794 39.5457 55.577L38.4092 54.5556L47.8068 54.6052C48.2406 54.6052 49.2793 54.5981 49.3404 54.5037C49.4015 54.4094 49.5054 54.1358 49.4749 54.0391C49.4321 53.8928 48.0512 53.8881 47.5868 53.9353L42.7841 54.4188L43.2852 53.3833L38.6353 53.2724L42.0387 53.8338C39.1363 54.3363 30.7836 54.1499 29.9587 53.296C29.5187 52.836 34.6086 52.3737 34.8591 52.4421L36.9244 53.0059L44.4645 52.4044C44.7394 52.3831 45.3688 52.8242 45.6499 52.8431C45.9309 52.862 46.9391 52.8313 46.7986 52.7582L45.827 52.2605L38.4519 51.8005L43.2363 50.8971L39.6373 50.364C23.7384 50.7013 33.2521 50.555 20.4755 49.6115C22.052 49.0312 26.5675 49.602 28.6266 49.4157C35.0485 48.8307 41.4765 48.4321 47.764 49.2223L53.6482 48.2882L43.3341 48.3401C40.7738 48.3518 37.1443 47.1889 34.0953 47.9485C33.3499 47.2668 32.3233 47.0498 30.3131 46.6582C28.6083 46.3256 25.9014 45.3066 23.8912 45.3396C18.4164 45.4269 13.3448 45.3726 10.2897 44.0894C10.9557 42.1716 7.36288 41.7871 9.01265 40.5983C7.314 40.1572 6.98404 39.275 8.52383 38.598L6.09805 37.1473C4.24053 36.5222 3.12845 36.0811 3.04902 35.3404L2.35245 34.8026C2.19969 34.6846 3.11013 34.4818 3.83114 34.2766L0 33.7222L5.5909 33.0193L13.9009 31.9554C14.4569 31.8847 16.4305 31.9672 17.567 31.9248L12.4161 29.139L10.2225 28.0232L15.6667 27.0325C12.6849 26.1409 11.249 25.7729 10.9802 24.8789L7.19179 24.5345L11.6095 23.6735L8.11444 23.1357L16.3205 21.7699C13.7603 21.4774 12.0678 21.6142 8.29775 21.7463L12.7094 20.3617H8.68269C9.86809 19.9371 10.6746 19.503 10.9129 18.8638C11.6034 17.005 21.9359 18.7789 17.8787 17.189L25.4921 16.6347C29.6409 16.3327 36.0262 16.1794 39.4785 16.4011C39.7657 16.42 41.2138 16.1464 40.9266 16.1251C30.9424 15.4198 22.0581 17.1678 21.386 14.4291C24.5144 13.7427 31.529 13.5634 35.1463 13.6035C35.4396 13.6059 36.9488 13.2874 36.6616 13.2733C36.3745 13.2591 34.8835 13.12 34.4986 13.1318L21.6365 13.5516C19.1863 13.6318 17.5976 14.7075 14.6647 13.7616L26.3475 12.6954L17.677 12.6553L23.4634 11.0961C21.2271 10.997 19.6018 11.0206 16.1128 11.0796L19.6323 9.79633L16.4427 9.69018C17.7076 9.29389 18.2942 8.77259 18.2942 8.20646C18.2942 7.14498 22.3392 7.39737 24.4533 7.28887L35.3113 6.73218C37.8104 6.6048 40.8961 6.93504 43.0285 7.16856L49.7498 6.48921C48.4911 5.08334 44.6661 5.55039 40.1384 5.22487C43.3707 5.15646 46.4503 5.11164 50.037 5.09041C58.4142 5.04088 51.0635 3.63264 67.8057 4.72007C68.154 4.74366 70.0909 4.50777 69.7976 4.44409C64.445 3.29768 65.1416 4.36389 61.396 3.543L80.124 4.03365L71.4352 4.6092L101.223 4.89463C104.913 4.93001 108.72 5.13523 112.117 4.79791C111.494 4.46296 110.944 4.29548 111.17 4.22235C111.396 4.14923 112.197 3.89447 112.13 3.9157L107.81 3.2623L111.048 2.99575L104.382 2.61597L123.929 2.45085C128.499 2.41311 135.746 3.8237 139.43 2.70325L151.663 3.04057L151.089 2.3848C150.997 2.2763 152.714 2.28101 152.757 2.39188L152.983 3.02877C155.445 3.05708 158.788 2.95565 161.281 2.78817L157.908 1.77386C164.855 1.42711 168.656 3.35901 169.853 2.19138L172.902 2.35414C173.556 2.38952 174.106 1.8517 174.674 1.47429L183.84 1.52146L222.243 1.84934C222.744 1.99559 223.178 2.15128 223.44 2.12533L224.614 2.01682C224.992 1.98144 224.161 1.7833 223.184 1.46721L233.871 1.52146C235.276 1.49316 235.282 1.40824 233.602 1.0662L247.539 1.01902C244.606 0.743038 242.633 0.651043 240.623 0.323162C247.894 0.129736 253.747 0.627457 260.23 0.561409L284.702 0.318447C304.2 0.125021 308.935 0.872779 333.059 0.672276L380.664 0.275986L422.061 0.0518951L450.077 0L475.214 0.24532C482.388 0.316085 493.765 1.04026 496.68 3.35901C501.873 2.90375 508.094 3.05236 510.825 4.46768L511.564 6.28635L512.224 7.87387L513.648 8.95658C513.984 9.21134 512.756 9.71142 511.711 9.95438L514.503 10.7139C524.555 11.2022 534.973 11.03 541.731 13.8701C546.558 13.6979 553.004 13.5092 556.493 14.9127L558.247 17.3659C558.424 17.6089 558.931 18.0759 558.393 18.1561L556.108 18.4982L559.774 18.9251C560.446 19.003 559.53 19.4747 559.145 19.72L559.835 20.0951C560.049 20.2107 558.626 20.4065 557.843 20.5527L559.835 20.9466C560.398 21.0575 560.184 21.5175 560.312 21.7935C563.343 22.5035 566.172 23.7136 564.143 24.919L567.113 25.4474L553.45 27.1646C551.073 27.1009 546.393 26.7046 544.297 26.9169L537.747 27.5774C546.594 29.2711 550.725 26.3862 556.383 31.0426C557.263 31.7691 544.046 31.972 543.173 31.972C539.36 31.9696 535.602 31.6653 532.003 32.0309L533.133 33.2127C540.154 32.682 547.193 32.8046 554.153 33.1915C553.016 35.0031 541.004 35.0267 536.836 34.8828C535.211 35.0196 535.235 35.0738 537.05 35.3239L552.607 34.9701C555.014 34.9158 557.312 33.7317 560.599 34.6516L548.293 35.7603L556.2 35.8664L550.071 37.5672L558.949 37.3784L554.575 38.7607L559.072 38.6947C556.811 39.2089 556.346 39.5627 556.408 40.235C556.499 41.2375 552.112 41.1786 549.937 41.2446L542.427 41.4758L543.417 41.8037C547.059 43.0114 527.317 42.5797 525.08 42.7967L527.708 43.3888C525.154 43.436 523.809 43.469 521.952 43.561C521.707 43.5327 521.2 43.4737 520.925 43.4549C520.528 43.4289 520.235 43.6601 519.966 43.7568C519.434 43.9479 532.241 44.2239 533.25 43.16L543.808 43.0727L553.927 43.0491C555.534 43.0444 556.89 43.2897 558.033 43.6223C562.108 44.8112 562.891 46.0142 563.654 47.6041L565.701 51.8571L567.07 55.6525C567.638 57.2306 568.28 58.7426 567.87 60.3042C566.386 66.0268 570.926 70.2798 557.55 73.7355L540.704 76.0708C538.107 76.4293 533.292 76 530.402 76.2618C520.394 77.1676 510.953 77.5427 500.853 77.8258C506.047 78.3754 510.483 77.6842 515.224 78.6183C510.244 78.9675 498.623 78.6561 494.058 78.4863L493.802 77.9461C494.449 78.7386 482.168 78.3164 482.382 78.3376L478.905 78.0003L471.334 77.7857C466.544 77.6488 462.474 78.4367 456.346 78.432L446.673 78.4273C444.486 78.4273 440.936 78.1631 438.479 77.9201C436.133 77.6889 433.842 78.1253 431.923 78.1206C424.707 78.0947 417.558 77.972 410.39 77.7927C407.329 77.7173 404.415 77.6229 401.237 77.6182L385.784 77.5993L373.576 77.6394L366.293 77.5168C362.021 77.7196 358.148 77.3233 353.834 77.3965L334.88 77.7196C333.755 77.7385 331.183 77.3658 330.156 77.2691C327.162 77.8069 324.382 78.0168 321.089 77.4837L328.592 76.1887C332.038 76.9082 335.876 76.8869 340.196 76.6511L341.796 76.5638C342.206 76.5402 342.597 76.2359 342.23 76.1816C341.864 76.1274 340.666 76.0661 340.153 76.1132C337.318 76.3704 332.998 76.0731 329.906 76.1156L302.397 76.4977C299.477 76.5378 295.157 77.5922 292.114 76.802L293.379 76.2713L281.378 76.0637L294.76 75.8113C288.063 75.6061 281.885 75.632 274.681 75.7453L281.018 76.0613C277.18 77.0709 272.946 75.7311 271.657 76.2241L270.355 76.7242L267.764 76.125L262.357 75.8703C261.049 75.8089 258.727 75.7995 257.181 75.7712L258.202 76.3727C258.446 76.5166 257.346 76.8468 257.01 76.9719L255.855 77.4554C255.55 77.5828 253.356 77.3729 253.644 77.354L255.782 76.125L246.183 75.8137C235.575 75.4693 237.341 75.9552 226.777 75.2428C226.483 75.224 225.384 75.3914 225.102 75.4244C224.681 75.4763 225.744 75.6721 227.064 75.9528C224.607 76.0944 221.791 76.1392 219.023 76.059L207.7 75.7335L212.143 76.4789C203.662 77.17 207.236 76.2453 197.325 76.0944L196.39 76.5591C196.073 76.7171 194.301 76.7336 193.628 76.6959L189.308 76.4576C186.724 76.3161 183.901 76.2972 181.756 76.4458L187.274 76.9247C179.703 77.4625 173.33 77.4649 166.144 77.1134C169.004 76.5685 171.179 76.677 174.204 76.4906L164.452 76.4364C164.372 76.5826 164.25 76.7949 164.238 76.8728C164.214 76.9907 162.802 76.9907 162.619 76.8917L160.932 75.9764C158.965 76.2595 157.175 76.4458 155.238 76.434L142.547 76.3515C126.959 76.2501 135.752 76.9719 128.108 76.9978L113.126 77.0497L89.3261 77.2125C87.2119 77.2266 85.4522 77.2974 83.3075 77.2007C73.806 76.7737 77.5272 77.8211 63.9807 77.6418C61.9643 77.6158 59.5813 77.8116 57.3632 77.4366C52.7622 76.6628 55.6768 76.0189 51.8762 73.2708C51.1858 72.7707 46.4136 72.6622 44.9594 72.976C43.5051 73.2897 41.7637 73.4619 40.0162 73.5279L40.0345 73.5327ZM530.335 42.1976C531.05 42.1834 530.989 41.3885 530.292 41.3413C529.706 41.3036 528.16 41.346 527.555 41.4145L520.846 42.1811C522.844 42.2235 527.94 42.2424 530.335 42.1976ZM45.3016 70.8294L49.316 71.714C49.3893 71.7045 47.8434 71.9098 46.9819 72.023C47.5624 72.2636 49.371 72.6905 49.8782 72.5278L52.3223 71.7517C50.7825 70.4284 45.992 70.4496 42.4603 70.4944L33.5148 69.742L36.7227 71.4073L35.6962 71.8272L42.0692 71.5441L37.9387 70.9945L45.3016 70.8294ZM370.399 76.1439C367.007 75.5117 363.628 76.4482 360.787 76.3609C356.131 76.2194 351.897 75.75 347.699 76.1982C350.363 76.9601 370.142 76.9695 370.399 76.1439Z" fill="#A0693C"/>
</svg>
