<svg width="36" height="117" viewBox="0 0 36 117" fill="none" xmlns="http://www.w3.org/2000/svg">
<rect width="36" height="117" fill="#AB6520"/>
<path d="M24 9H22C21.7348 9 21.4804 9.10536 21.2929 9.29289C21.1054 9.48043 21 9.73478 21 10C21 10.2652 21.1054 10.5196 21.2929 10.7071C21.4804 10.8946 21.7348 11 22 11H24V21H12V11H14C14.2652 11 14.5196 10.8946 14.7071 10.7071C14.8946 10.5196 15 10.2652 15 10C15 9.73478 14.8946 9.48043 14.7071 9.29289C14.5196 9.10536 14.2652 9 14 9H12C11.4696 9 10.9609 9.21071 10.5858 9.58579C10.2107 9.96086 10 10.4696 10 11V21C10 21.5304 10.2107 22.0391 10.5858 22.4142C10.9609 22.7893 11.4696 23 12 23H24C24.5304 23 25.0391 22.7893 25.4142 22.4142C25.7893 22.0391 26 21.5304 26 21V11C26 10.4696 25.7893 9.96086 25.4142 9.58579C25.0391 9.21071 24.5304 9 24 9Z" fill="white"/>
<path d="M14.5 14C14.401 13.9998 14.3041 14.0291 14.2217 14.084C14.1393 14.1389 14.0751 14.2171 14.0372 14.3085C13.9993 14.4 13.9894 14.5007 14.0087 14.5978C14.0281 14.6949 14.0759 14.7841 14.146 14.854L17.646 18.354C17.6924 18.4006 17.7476 18.4375 17.8083 18.4627C17.8691 18.4879 17.9342 18.5009 18 18.5009C18.0657 18.5009 18.1309 18.4879 18.1916 18.4627C18.2524 18.4375 18.3075 18.4006 18.354 18.354L21.854 14.854C21.9241 14.7841 21.9719 14.6949 21.9912 14.5978C22.0106 14.5007 22.0007 14.4 21.9628 14.3085C21.9248 14.2171 21.8606 14.1389 21.7782 14.084C21.6958 14.0291 21.599 13.9998 21.5 14H19V10C19 9.73478 18.8946 9.48043 18.7071 9.29289C18.5195 9.10536 18.2652 9 18 9C17.7348 9 17.4804 9.10536 17.2929 9.29289C17.1053 9.48043 17 9.73478 17 10V14H14.5Z" fill="white"/>
<path d="M23.18 100.849C23.18 101.959 22.99 102.904 22.61 103.684C22.22 104.454 21.63 105.039 20.84 105.439C20.05 105.839 19.05 106.039 17.84 106.039C16.06 106.039 14.73 105.594 13.85 104.704C12.96 103.804 12.515 102.519 12.515 100.849C12.515 99.9194 12.675 99.0944 12.995 98.3744C13.305 97.6544 13.775 97.0944 14.405 96.6944C15.025 96.2844 15.8 96.0794 16.73 96.0794L16.73 98.7044C16.29 98.7044 15.915 98.7944 15.605 98.9744C15.285 99.1444 15.04 99.3894 14.87 99.7094C14.7 100.019 14.615 100.399 14.615 100.849C14.615 101.409 14.73 101.869 14.96 102.229C15.19 102.589 15.52 102.854 15.95 103.024C16.38 103.194 16.9 103.279 17.51 103.279H18.185C18.795 103.279 19.32 103.194 19.76 103.024C20.19 102.854 20.52 102.594 20.75 102.244C20.97 101.884 21.08 101.424 21.08 100.864C21.08 100.384 21 99.9794 20.84 99.6494C20.68 99.3094 20.445 99.0544 20.135 98.8844C19.815 98.7044 19.435 98.6144 18.995 98.6144V96.0794C19.925 96.0794 20.7 96.2794 21.32 96.6794C21.94 97.0694 22.405 97.6244 22.715 98.3444C23.025 99.0544 23.18 99.8894 23.18 100.849ZM23 95.4762L12.695 91.6062V88.3812L23 84.5112V87.3762L21.215 87.9912V92.1012L23 92.7162V95.4762ZM19.205 91.4562V88.6512L17.03 89.3862C16.92 89.4262 16.785 89.4762 16.625 89.5362C16.455 89.5862 16.28 89.6412 16.1 89.7012C15.91 89.7512 15.72 89.8012 15.53 89.8512C15.34 89.9012 15.175 89.9512 15.035 90.0012V90.1062C15.225 90.1462 15.44 90.2062 15.68 90.2862C15.92 90.3562 16.16 90.4312 16.4 90.5112C16.64 90.5812 16.85 90.6462 17.03 90.7062L19.205 91.4562ZM23 81.9303H14.9L14.9 85.2753H12.695L12.695 75.9003H14.9V79.2453H23V81.9303ZM23 76.6237L12.695 72.7537V69.5287L23 65.6587V68.5237L21.215 69.1387V73.2487L23 73.8637V76.6237ZM19.205 72.6037V69.7987L17.03 70.5337C16.92 70.5737 16.785 70.6237 16.625 70.6837C16.455 70.7337 16.28 70.7887 16.1 70.8487C15.91 70.8987 15.72 70.9487 15.53 70.9987C15.34 71.0487 15.175 71.0987 15.035 71.1487V71.2537C15.225 71.2937 15.44 71.3537 15.68 71.4337C15.92 71.5037 16.16 71.5787 16.4 71.6587C16.64 71.7287 16.85 71.7937 17.03 71.8537L19.205 72.6037ZM23 64.4272H12.695L12.695 61.7422H20.795V56.5072H23V64.4272ZM23.18 50.5856C23.18 51.7156 22.985 52.6856 22.595 53.4956C22.195 54.2956 21.6 54.9106 20.81 55.3406C20.02 55.7706 19.03 55.9856 17.84 55.9856C16.65 55.9856 15.665 55.7706 14.885 55.3406C14.095 54.9106 13.505 54.2956 13.115 53.4956C12.715 52.6856 12.515 51.7156 12.515 50.5856C12.515 49.4556 12.715 48.4906 13.115 47.6906C13.505 46.8806 14.095 46.2606 14.885 45.8306C15.665 45.4006 16.65 45.1856 17.84 45.1856C19.03 45.1856 20.02 45.4006 20.81 45.8306C21.6 46.2606 22.195 46.8806 22.595 47.6906C22.985 48.4906 23.18 49.4556 23.18 50.5856ZM21.08 50.5856C21.08 50.1556 21.015 49.7756 20.885 49.4456C20.755 49.1156 20.565 48.8406 20.315 48.6206C20.065 48.3906 19.76 48.2206 19.4 48.1106C19.04 48.0006 18.635 47.9456 18.185 47.9456H17.525C17.065 47.9456 16.655 48.0006 16.295 48.1106C15.935 48.2206 15.63 48.3906 15.38 48.6206C15.13 48.8406 14.94 49.1156 14.81 49.4456C14.68 49.7756 14.615 50.1556 14.615 50.5856C14.615 51.0256 14.68 51.4106 14.81 51.7406C14.94 52.0706 15.13 52.3456 15.38 52.5656C15.63 52.7856 15.935 52.9506 16.295 53.0606C16.655 53.1706 17.065 53.2256 17.525 53.2256H18.185C18.635 53.2256 19.04 53.1706 19.4 53.0606C19.76 52.9506 20.065 52.7856 20.315 52.5656C20.565 52.3456 20.755 52.0706 20.885 51.7406C21.015 51.4106 21.08 51.0256 21.08 50.5856ZM23.18 38.6971C23.18 40.3571 22.74 41.6221 21.86 42.4921C20.98 43.3521 19.64 43.7821 17.84 43.7821C16.65 43.7821 15.665 43.5721 14.885 43.1521C14.095 42.7221 13.505 42.1021 13.115 41.2921C12.715 40.4721 12.515 39.4871 12.515 38.3371C12.515 37.6471 12.595 36.9971 12.755 36.3871C12.915 35.7771 13.155 35.2371 13.475 34.7671C13.785 34.2971 14.18 33.9321 14.66 33.6721C15.13 33.4121 15.685 33.2821 16.325 33.2821V35.9221C16.055 35.9221 15.815 35.9821 15.605 36.1021C15.385 36.2221 15.205 36.3921 15.065 36.6121C14.915 36.8221 14.805 37.0671 14.735 37.3471C14.655 37.6271 14.615 37.9221 14.615 38.2321C14.615 38.6921 14.675 39.1021 14.795 39.4621C14.915 39.8121 15.1 40.1021 15.35 40.3321C15.6 40.5621 15.905 40.7371 16.265 40.8571C16.625 40.9671 17.045 41.0221 17.525 41.0221H18.185C18.825 41.0221 19.36 40.9221 19.79 40.7221C20.22 40.5221 20.545 40.2221 20.765 39.8221C20.975 39.4121 21.08 38.9121 21.08 38.3221C21.08 37.8621 21.01 37.4521 20.87 37.0921C20.73 36.7221 20.53 36.4321 20.27 36.2221C20 36.0021 19.68 35.8921 19.31 35.8921H19.235V38.6671H17.345V33.2821H23V34.8421L21.92 35.0971C22.2 35.4071 22.435 35.7421 22.625 36.1021C22.815 36.4521 22.955 36.8421 23.045 37.2721C23.135 37.6921 23.18 38.1671 23.18 38.6971Z" fill="white"/>
</svg>
