<svg width="35" height="35" viewBox="0 0 35 35" fill="none" xmlns="http://www.w3.org/2000/svg">
<path d="M11.5797 31.4214C11.1695 31.0111 10.9391 30.4548 10.9391 29.8747C10.9391 29.2946 11.1695 28.7383 11.5797 28.3281L22.4078 17.5L11.5797 6.67184C11.1937 6.25726 10.9836 5.70915 10.9936 5.14283C11.0036 4.5765 11.2328 4.03612 11.6331 3.63539C12.0334 3.23465 12.5735 3.0048 13.1399 2.99421C13.7062 2.98361 14.2545 3.1931 14.6695 3.57858L27.046 15.9516C27.4561 16.3618 27.6865 16.9182 27.6865 17.4983C27.6865 18.0783 27.4561 18.6347 27.046 19.0449L14.6729 31.4214C14.2627 31.8315 13.7064 32.0619 13.1263 32.0619C12.5462 32.0619 11.9899 31.8315 11.5797 31.4214Z" fill="#C76E00"/>
</svg>
