<svg width="312" height="62" viewBox="0 0 312 62" fill="none" xmlns="http://www.w3.org/2000/svg">
<path d="M311.991 18.7038C311.995 18.7061 312 18.7031 312 18.6983V6.6294C312 5.04471 310.645 3.57476 309.174 4.16458C308.964 4.24855 308.756 4.32772 308.536 4.37856C308.047 4.49189 307.556 4.60548 307.065 4.72051C306.659 4.81561 306.241 4.84541 305.825 4.82533C305.742 4.82132 305.659 4.8177 305.576 4.81433C305.275 4.80211 304.977 4.7572 304.685 4.68454C300.992 3.76551 297.411 3.71777 294.065 5.32856C293.53 5.58599 292.959 5.77009 292.367 5.81385L288.586 6.09342C287.599 6.1664 286.65 5.78279 285.711 5.47075C285.399 5.36714 285.07 5.30184 284.72 5.28099C284.191 5.24954 283.687 5.46074 283.184 5.62483C282.318 5.90723 281.326 6.00013 280.506 6.34743C279.737 6.67341 278.964 7.238 278.151 7.04793C277.381 6.868 276.616 6.62662 275.827 6.68854C275.612 6.70544 275.399 6.72729 275.191 6.76322C274.358 6.90709 273.432 7.03606 272.682 7.42597C272.641 7.44706 272.602 7.46952 272.564 7.49318C271.729 8.0082 270.847 8.4291 269.903 8.16533C269.701 8.109 269.506 8.03105 269.326 7.92397C268.166 7.23304 266.953 6.23714 265.552 6.75395C263.334 7.60567 261.142 6.95527 258.972 7.22885H258.203C257.865 7.22885 257.53 7.1596 257.221 7.0221C257.072 6.95583 256.924 6.88932 256.777 6.82233C256.555 6.7219 256.307 6.69663 256.069 6.74577C255.908 6.77902 255.741 6.77995 255.579 6.75205C255.096 6.66894 254.639 6.67047 254.256 6.90616C254.044 7.03644 253.82 7.15351 253.571 7.16002C253.405 7.16437 253.237 7.12446 253.082 7.0666C252.417 6.81939 251.925 7.12408 251.423 7.38673C251.057 7.57833 250.641 7.6232 250.228 7.61145C249.881 7.60159 249.534 7.59369 249.188 7.5869C248.32 7.56991 247.463 7.22583 246.598 7.16269C246.302 7.14112 246 7.14087 245.703 7.11846C245.379 7.09396 245.054 7.05858 244.729 7.07244C244.189 7.0955 243.649 7.12413 243.109 7.14878C242.454 7.17866 241.812 7.00844 241.183 6.82521C240.07 6.50144 238.903 6.537 237.772 6.883C237.032 7.11509 236.345 7.30646 235.635 7.27105C234.963 7.23753 234.266 7.17878 233.633 7.4053C233.413 7.48395 233.184 7.54147 232.952 7.56757C232.557 7.61202 232.162 7.65648 231.774 7.70093C231.608 7.7199 231.425 7.71911 231.258 7.7186C230.531 7.71639 229.833 8.12415 229.106 8.16275C228.852 8.17626 228.598 8.18993 228.344 8.20444L225.018 8.15781C224.79 8.1546 224.571 8.0666 224.406 7.90816C224.199 7.70925 223.911 7.61706 223.626 7.65198C223.345 7.68642 223.062 7.71694 222.785 7.76053C222.242 7.85114 221.768 7.99089 221.412 8.21462C220.599 8.72433 220.297 9.83423 219.571 10.4602C218.619 11.1257 217.598 11.604 216.304 11.4701C216.035 11.4422 215.764 11.4138 215.494 11.4184C214.578 11.434 213.714 11.0536 212.875 10.6846C211.729 10.1807 210.583 10.3215 209.438 11.1069C209.131 11.3172 208.817 11.5202 208.472 11.6591C208.248 11.7494 208.024 11.8384 207.799 11.9304C207.789 11.9344 207.779 11.9365 207.768 11.9365C207.761 11.9365 207.755 11.9373 207.748 11.9389C207.115 12.0953 206.472 12.2332 205.827 12.384C205.466 12.4684 205.096 12.5105 204.728 12.4745C204.216 12.4245 203.698 12.3557 203.208 12.4165C202.43 12.5126 201.671 12.855 200.962 13.1876C200.814 13.2571 200.674 13.3358 200.54 13.4222C199.89 13.842 199.194 14.2208 198.423 14.28C197.513 14.4513 196.645 14.3278 195.799 14.0951C195.451 13.9997 195.132 13.8246 194.801 13.6834C193.827 13.2686 192.734 13.3893 191.646 13.4644C191.026 13.5958 190.406 13.7618 189.787 13.8994C189.76 13.9054 189.728 13.9149 189.704 13.9281C189.487 14.0478 189.296 14.2047 189.052 14.1642C188.657 14.0987 188.294 14.1297 187.96 14.2506C187.398 14.4539 186.814 14.6892 186.227 14.5804C185.812 14.5036 185.398 14.4272 184.986 14.3497C184.795 14.3139 184.61 14.2392 184.417 14.2264C184.242 14.2148 184.076 14.2627 183.924 14.3588C183.92 14.3613 183.915 14.3655 183.913 14.3698C183.907 14.3866 183.894 14.3944 183.877 14.3886C183.599 14.294 183.323 14.207 183.049 14.1228C182.747 14.03 182.544 13.778 182.303 13.5735C182.185 13.4733 182.011 13.4353 181.856 13.4257C181.819 13.4234 181.782 13.4206 181.745 13.4174C181.611 13.4062 181.481 13.3711 181.358 13.3189C179.848 12.6789 178.352 12.006 176.548 12.8192C174.215 13.6874 171.699 12.8004 169.289 12.9271C167.965 12.9968 166.466 12.8111 165.189 13.1684C164.964 13.2314 164.739 13.3053 164.513 13.3714C164.284 13.4386 164.049 13.4607 163.81 13.4503C163.199 13.4239 162.639 13.077 162.038 12.9587C161.957 12.9426 161.873 12.9331 161.787 12.9306C161.245 12.9144 160.702 13.0675 160.161 13.0406C159.853 13.0253 159.547 13.0128 159.244 12.9959C159.17 12.9918 159.096 12.9809 159.024 12.9638C158.914 12.9377 158.806 12.9125 158.696 12.8909C158.561 12.8647 158.424 12.903 158.318 12.9884C158.235 13.0542 158.153 13.1204 158.071 13.1858C158.016 13.2302 157.934 13.2458 157.883 13.1965C157.865 13.1798 157.84 13.1544 157.818 13.1445C157.625 13.0579 157.405 12.9972 157.173 12.9387C157.129 12.9278 157.08 12.9221 157.036 12.9312C156.952 12.9489 156.881 12.9026 156.809 12.8547C156.4 12.5818 155.712 12.7563 155.184 12.6827C154.82 12.6319 154.458 12.4456 154.09 12.4577C153.719 12.47 153.387 12.6793 153.044 12.8225C152.681 12.9741 152.241 12.9969 151.835 13.0701C151.758 13.0841 151.68 13.0926 151.602 13.1003C151.438 13.1165 151.268 13.106 151.105 13.1285C150.298 13.2396 149.491 13.3022 148.672 13.3818H146.561C146.203 13.3818 145.882 13.2204 145.556 13.0742C144.88 12.7711 144.32 12.2086 143.882 11.6114C143.719 11.3897 143.483 11.2123 143.143 11.0975C142.62 10.9205 142.084 10.7269 141.705 10.325C141.254 9.84623 140.606 9.60167 139.954 9.6929C139.756 9.72059 139.559 9.7488 139.36 9.77587C139.168 9.80215 138.966 9.77376 138.795 9.68205C138.615 9.58556 138.42 9.52795 138.216 9.52379C138.214 9.52375 138.212 9.52371 138.209 9.52367C138.021 9.51967 137.842 9.44974 137.674 9.3621C136.917 8.96547 136.066 9.01463 135.222 9.04895C134.54 9.07669 133.896 8.81015 133.245 8.60192C132.439 8.34369 131.585 8.37481 130.701 8.61666C130.526 8.66466 130.34 8.68844 130.16 8.66653C129.924 8.63791 129.691 8.67797 129.475 8.77658C129.095 8.94989 128.719 9.12767 128.341 9.30675C128.034 9.45233 127.71 9.55812 127.376 9.62044C126.968 9.69655 126.56 9.77112 126.149 9.8435C125.678 9.92661 125.196 9.82201 124.794 9.56203C123.655 9.01931 123.07 7.62652 121.288 8.10761C121.166 8.14075 121.082 8.25001 121.068 8.37636C121.055 8.49849 120.963 8.5954 120.844 8.62619C120.446 8.72937 120.042 8.83822 119.64 8.94699C119.349 9.02587 119.076 9.16172 118.837 9.34666L118.54 9.57751C118.547 9.68075 118.551 9.78399 118.558 9.88723C118.572 9.90928 118.589 9.9304 118.606 9.95137C118.634 9.98621 118.61 10.0369 118.565 10.0369C118.673 10.1866 118.617 10.3105 118.554 10.4396C118.554 10.4568 118.554 10.4704 118.554 10.4865C118.554 10.4919 118.55 10.4963 118.545 10.4963C118.537 10.4963 118.532 10.4885 118.536 10.4819C118.542 10.4696 118.55 10.4518 118.554 10.4396C118.562 10.3053 118.565 10.1711 118.565 10.0369C118.565 9.98531 118.558 9.93885 118.558 9.88723C118.495 9.79432 118.462 9.69624 118.54 9.57751C118.055 9.54078 117.532 9.58247 117.113 9.40125C116.763 9.25044 116.489 8.95708 116.157 8.77155C116.127 8.75466 116.097 8.73774 116.066 8.7208C115.272 8.27615 114.301 8.28416 113.529 8.76486C113.407 8.8405 113.286 8.91641 113.164 8.99242C112.996 9.09793 112.797 9.15464 112.598 9.15169C112.09 9.14411 111.726 9.60307 111.297 9.87451C110.81 10.182 110.03 9.95896 109.375 9.96425C109.277 9.96504 109.18 9.94159 109.082 9.9347C108.933 9.92417 108.824 10.0034 108.717 10.0862C108.687 10.1092 108.643 10.1162 108.608 10.1034C108.59 10.0967 108.571 10.0878 108.552 10.0864C108.476 10.0809 108.399 10.0749 108.322 10.0687C108.067 10.0485 107.851 9.87199 107.627 9.74817C107.36 9.60069 107.001 9.59319 106.679 9.51041C106.457 9.44687 106.235 9.38334 106.011 9.31981C105.622 9.20919 105.257 9.02516 104.883 8.87147C104.157 8.57344 103.378 8.55164 102.589 8.58977C101.62 8.63656 100.65 8.18702 99.683 8.25987C99.2334 8.29374 98.7797 8.43141 98.3269 8.51947C97.7076 8.6399 97.037 8.72925 96.4061 8.73151C95.7492 8.73385 95.0942 9.02254 94.4385 9.06428C94.0089 9.09163 93.5786 9.11898 93.152 9.14634C93.0708 9.15154 92.9896 9.17019 92.9226 9.21639C92.9105 9.22469 92.899 9.23316 92.888 9.2418C92.7058 9.3847 92.5356 9.58359 92.3047 9.60151C92.1855 9.61076 92.0662 9.61794 91.9491 9.62475C91.9048 9.62733 91.8695 9.60373 91.8746 9.55962C91.8788 9.52343 91.8513 9.48922 91.8162 9.47958C90.9267 9.23553 90.1717 8.72847 89.2037 8.61224C88.9963 8.59675 88.8001 8.5761 88.5964 8.5761C88.7371 8.73612 88.6742 8.9013 88.5853 9.04584C88.5853 9.0498 88.5853 9.05682 88.5853 9.0622C88.5853 9.06457 88.5834 9.06649 88.581 9.06649C88.5778 9.06649 88.5758 9.0632 88.5772 9.06038C88.5797 9.05545 88.5831 9.04887 88.5853 9.04584C88.5964 8.88582 88.5964 8.73612 88.5964 8.5761C88.0705 7.41984 86.3523 7.76053 85.4636 7.06367C84.7216 6.5748 83.7771 6.87596 82.9605 6.67326C82.9594 6.67298 82.9596 6.67136 82.9607 6.67136C82.9617 6.67136 82.962 6.67008 82.9612 6.66956C82.651 6.46866 82.362 6.42884 82.0848 6.54222C81.9594 6.59355 81.8114 6.58107 81.7026 6.50012C81.3785 6.2589 80.9592 6.15966 80.4903 6.12937H79.7425C79.4476 6.12937 79.1875 5.93655 79.1017 5.65446C78.9054 4.44658 77.7352 4.70467 76.7132 4.73565C76.4101 4.73565 76.0967 4.7193 75.7963 4.74432C75.0923 4.80294 74.3697 5.08509 73.6708 4.98268C73.6273 4.97631 73.5838 4.96994 73.5402 4.96359C73.208 4.9151 72.8965 4.78437 72.6383 4.56962C72.4411 4.40554 72.215 4.26643 71.9659 4.20528C70.4759 3.83958 68.8874 4.13508 67.3777 3.86845L63.8569 3.18115C63.8251 3.17494 63.7888 3.17688 63.7701 3.20332C63.7505 3.23107 63.746 3.26646 63.7303 3.29872C63.7172 3.32553 63.6829 3.32429 63.6602 3.3049C63.6372 3.28518 63.6466 3.2487 63.6744 3.23634L63.7297 3.21166C63.7754 3.19126 63.8009 3.14186 63.7911 3.09274C63.639 2.33023 63.4901 1.56697 62.4604 1.36171C62.0834 1.28656 61.7116 1.13412 61.4587 0.844531C61.2226 0.574097 60.8806 0.390548 60.5303 0.469084C60.5136 0.472844 60.497 0.476862 60.4805 0.481147C60.0387 0.596409 59.6113 0.856299 59.1558 0.888462C57.7524 0.987567 56.4805 1.43188 55.2228 1.90525C54.8309 2.05276 54.4752 2.2829 54.099 2.46667C53.8225 2.60171 53.5319 2.68844 53.2319 2.73799C53.2131 2.74051 53.1944 2.74286 53.1756 2.74503C52.2081 2.85708 51.2198 2.41895 50.2471 2.36853C49.0445 2.30619 47.9261 2.04184 46.9292 1.24621C45.8933 0.408459 44.4911 -0.00598626 42.955 0.051265C42.6001 0.0644937 42.2445 0.0170474 41.8896 0.00172832C41.3865 -0.0199913 41.0294 0.169733 40.7626 0.494191C40.5877 0.70677 40.3477 0.857441 40.0737 0.88349C39.9655 0.893773 39.8542 0.886343 39.7461 0.875294C39.102 0.809461 38.5133 1.3708 37.8607 1.25773C37.5168 1.19815 37.1874 1.03727 36.8385 1.03007C36.0064 1.01289 35.1758 0.986995 34.343 0.973779C34.308 0.973223 34.2852 0.936746 34.3001 0.905053C34.3148 0.8736 34.2926 0.837303 34.2579 0.835845C33.1908 0.791017 32.0478 0.425577 31.0663 0.888863C30.6551 1.08293 30.2469 1.29863 29.7953 1.35144C29.7584 1.35576 29.7217 1.36044 29.6852 1.36559C28.9827 1.46481 28.283 1.79792 27.5992 1.98687C27.3226 2.06331 27.0624 2.1662 26.8193 2.29569C26.3569 2.54197 25.9101 2.82781 25.4137 2.99538C25.2698 3.04398 25.1259 3.09263 24.9819 3.14119C24.5648 3.28183 24.1269 3.35021 23.6868 3.34588C22.2383 3.33166 20.7898 3.31612 19.3412 3.31612C18.2821 3.18191 17.2083 3.04255 16.1492 2.87221C15.553 2.8051 14.942 2.738 14.3458 2.65025C13.3237 2.59863 12.298 2.51603 11.2759 2.44893C11.0375 2.42949 10.8007 2.41299 10.5643 2.39611C9.79509 2.34117 9.09342 1.97714 8.37862 1.68763C7.82764 1.46447 7.21778 1.37528 6.54286 1.43637C6.31891 1.45664 6.09347 1.46348 5.87054 1.434C5.33162 1.36274 4.84801 1.06621 4.35122 0.845488C4.14494 0.753836 3.9221 0.6865 3.68949 0.634213C3.27259 0.540505 2.88041 0.369627 2.48585 0.205597C1.2029 -0.327768 0 1.04076 0 2.43016V57.9141C0 60.1232 1.79086 61.9141 4 61.9141H307.982C310.191 61.9141 311.982 60.1232 311.982 57.9141V18.7092C311.982 18.7044 311.987 18.7015 311.991 18.7038Z" fill="white"/>
<path d="M311.991 18.7038C311.995 18.7061 312 18.7031 312 18.6983V6.6294C312 5.04471 310.645 3.57476 309.174 4.16458C308.964 4.24855 308.756 4.32772 308.536 4.37856C308.047 4.49189 307.556 4.60548 307.065 4.72051C306.659 4.81561 306.241 4.84541 305.825 4.82533C305.742 4.82132 305.659 4.8177 305.576 4.81433C305.275 4.80211 304.977 4.7572 304.685 4.68454C300.992 3.76551 297.411 3.71777 294.065 5.32856C293.53 5.58599 292.959 5.77009 292.367 5.81385L288.586 6.09342C287.599 6.1664 286.65 5.78279 285.711 5.47075C285.399 5.36714 285.07 5.30184 284.72 5.28099C284.191 5.24954 283.687 5.46074 283.184 5.62483C282.318 5.90723 281.326 6.00013 280.506 6.34743C279.737 6.67341 278.964 7.238 278.151 7.04793C277.381 6.868 276.616 6.62662 275.827 6.68854C275.612 6.70544 275.399 6.72729 275.191 6.76322C274.358 6.90709 273.432 7.03606 272.682 7.42597C272.641 7.44706 272.602 7.46952 272.564 7.49318C271.729 8.0082 270.847 8.4291 269.903 8.16533C269.701 8.109 269.506 8.03105 269.326 7.92397C268.166 7.23304 266.953 6.23714 265.552 6.75395C263.334 7.60567 261.142 6.95527 258.972 7.22885H258.203C257.865 7.22885 257.53 7.1596 257.221 7.0221C257.072 6.95583 256.924 6.88932 256.777 6.82233C256.555 6.7219 256.307 6.69663 256.069 6.74577C255.908 6.77902 255.741 6.77995 255.579 6.75205C255.096 6.66894 254.639 6.67047 254.256 6.90616C254.044 7.03644 253.82 7.15351 253.571 7.16002C253.405 7.16437 253.237 7.12446 253.082 7.0666C252.417 6.81939 251.925 7.12408 251.423 7.38673C251.057 7.57833 250.641 7.6232 250.228 7.61145C249.881 7.60159 249.534 7.59369 249.188 7.5869C248.32 7.56991 247.463 7.22583 246.598 7.16269C246.302 7.14112 246 7.14087 245.703 7.11846C245.379 7.09396 245.054 7.05858 244.729 7.07244C244.189 7.0955 243.649 7.12413 243.109 7.14878C242.454 7.17866 241.812 7.00844 241.183 6.82521C240.07 6.50144 238.903 6.537 237.772 6.883C237.032 7.11509 236.345 7.30646 235.635 7.27105C234.963 7.23753 234.266 7.17878 233.633 7.4053C233.413 7.48395 233.184 7.54147 232.952 7.56757C232.557 7.61202 232.162 7.65648 231.774 7.70093C231.608 7.7199 231.425 7.71911 231.258 7.7186C230.531 7.71639 229.833 8.12415 229.106 8.16275C228.852 8.17626 228.598 8.18993 228.344 8.20444L225.018 8.15781C224.79 8.1546 224.571 8.0666 224.406 7.90816C224.199 7.70925 223.911 7.61706 223.626 7.65198C223.345 7.68642 223.062 7.71694 222.785 7.76053C222.242 7.85114 221.768 7.99089 221.412 8.21462C220.599 8.72433 220.297 9.83423 219.571 10.4602C218.619 11.1257 217.598 11.604 216.304 11.4701C216.035 11.4422 215.764 11.4138 215.494 11.4184C214.578 11.434 213.714 11.0536 212.875 10.6846C211.729 10.1807 210.583 10.3215 209.438 11.1069C209.131 11.3172 208.817 11.5202 208.472 11.6591C208.248 11.7494 208.024 11.8384 207.799 11.9304C207.789 11.9344 207.779 11.9365 207.768 11.9365C207.761 11.9365 207.755 11.9373 207.748 11.9389C207.115 12.0953 206.472 12.2332 205.827 12.384C205.466 12.4684 205.096 12.5105 204.728 12.4745C204.216 12.4245 203.698 12.3557 203.208 12.4165C202.43 12.5126 201.671 12.855 200.962 13.1876C200.814 13.2571 200.674 13.3358 200.54 13.4222C199.89 13.842 199.194 14.2208 198.423 14.28C197.513 14.4513 196.645 14.3278 195.799 14.0951C195.451 13.9997 195.132 13.8246 194.801 13.6834C193.827 13.2686 192.734 13.3893 191.646 13.4644C191.026 13.5958 190.406 13.7618 189.787 13.8994C189.76 13.9054 189.728 13.9149 189.704 13.9281C189.487 14.0478 189.296 14.2047 189.052 14.1642C188.657 14.0987 188.294 14.1297 187.96 14.2506C187.398 14.4539 186.814 14.6892 186.227 14.5804C185.812 14.5036 185.398 14.4272 184.986 14.3497C184.795 14.3139 184.61 14.2392 184.417 14.2264C184.242 14.2148 184.076 14.2627 183.924 14.3588C183.92 14.3613 183.915 14.3655 183.913 14.3698C183.907 14.3866 183.894 14.3944 183.877 14.3886C183.599 14.294 183.323 14.207 183.049 14.1228C182.747 14.03 182.544 13.778 182.303 13.5735C182.185 13.4733 182.011 13.4353 181.856 13.4257C181.819 13.4234 181.782 13.4206 181.745 13.4174C181.611 13.4062 181.481 13.3711 181.358 13.3189C179.848 12.6789 178.352 12.006 176.548 12.8192C174.215 13.6874 171.699 12.8004 169.289 12.9271C167.965 12.9968 166.466 12.8111 165.189 13.1684C164.964 13.2314 164.739 13.3053 164.513 13.3714C164.284 13.4386 164.049 13.4607 163.81 13.4503C163.199 13.4239 162.639 13.077 162.038 12.9587C161.957 12.9426 161.873 12.9331 161.787 12.9306C161.245 12.9144 160.702 13.0675 160.161 13.0406C159.853 13.0253 159.547 13.0128 159.244 12.9959C159.17 12.9918 159.096 12.9809 159.024 12.9638C158.914 12.9377 158.806 12.9125 158.696 12.8909C158.561 12.8647 158.424 12.903 158.318 12.9884C158.235 13.0542 158.153 13.1204 158.071 13.1858C158.016 13.2302 157.934 13.2458 157.883 13.1965C157.865 13.1798 157.84 13.1544 157.818 13.1445C157.625 13.0579 157.405 12.9972 157.173 12.9387C157.129 12.9278 157.08 12.9221 157.036 12.9312C156.952 12.9489 156.881 12.9026 156.809 12.8547C156.4 12.5818 155.712 12.7563 155.184 12.6827C154.82 12.6319 154.458 12.4456 154.09 12.4577C153.719 12.47 153.387 12.6793 153.044 12.8225C152.681 12.9741 152.241 12.9969 151.835 13.0701C151.758 13.0841 151.68 13.0926 151.602 13.1003C151.438 13.1165 151.268 13.106 151.105 13.1285C150.298 13.2396 149.491 13.3022 148.672 13.3818H146.561C146.203 13.3818 145.882 13.2204 145.556 13.0742C144.88 12.7711 144.32 12.2086 143.882 11.6114C143.719 11.3897 143.483 11.2123 143.143 11.0975C142.62 10.9205 142.084 10.7269 141.705 10.325C141.254 9.84623 140.606 9.60167 139.954 9.6929C139.756 9.72059 139.559 9.7488 139.36 9.77587C139.168 9.80215 138.966 9.77376 138.795 9.68205C138.615 9.58556 138.42 9.52795 138.216 9.52379C138.214 9.52375 138.212 9.52371 138.209 9.52367C138.021 9.51967 137.842 9.44974 137.674 9.3621C136.917 8.96547 136.066 9.01463 135.222 9.04895C134.54 9.07669 133.896 8.81015 133.245 8.60192C132.439 8.34369 131.585 8.37481 130.701 8.61666C130.526 8.66466 130.34 8.68844 130.16 8.66653C129.924 8.63791 129.691 8.67797 129.475 8.77658C129.095 8.94989 128.719 9.12767 128.341 9.30675C128.034 9.45233 127.71 9.55812 127.376 9.62044C126.968 9.69655 126.56 9.77112 126.149 9.8435C125.678 9.92661 125.196 9.82201 124.794 9.56203C123.655 9.01931 123.07 7.62652 121.288 8.10761C121.166 8.14075 121.082 8.25001 121.068 8.37636C121.055 8.49849 120.963 8.5954 120.844 8.62619C120.446 8.72937 120.042 8.83822 119.64 8.94699C119.349 9.02587 119.076 9.16172 118.837 9.34666L118.54 9.57751C118.547 9.68075 118.551 9.78399 118.558 9.88723C118.572 9.90928 118.589 9.9304 118.606 9.95137C118.634 9.98621 118.61 10.0369 118.565 10.0369C118.673 10.1866 118.617 10.3105 118.554 10.4396C118.554 10.4568 118.554 10.4704 118.554 10.4865C118.554 10.4919 118.55 10.4963 118.545 10.4963C118.537 10.4963 118.532 10.4885 118.536 10.4819C118.542 10.4696 118.55 10.4518 118.554 10.4396C118.562 10.3053 118.565 10.1711 118.565 10.0369C118.565 9.98531 118.558 9.93885 118.558 9.88723C118.495 9.79432 118.462 9.69624 118.54 9.57751C118.055 9.54078 117.532 9.58247 117.113 9.40125C116.763 9.25044 116.489 8.95708 116.157 8.77155C116.127 8.75466 116.097 8.73774 116.066 8.7208C115.272 8.27615 114.301 8.28416 113.529 8.76486C113.407 8.8405 113.286 8.91641 113.164 8.99242C112.996 9.09793 112.797 9.15464 112.598 9.15169C112.09 9.14411 111.726 9.60307 111.297 9.87451C110.81 10.182 110.03 9.95896 109.375 9.96425C109.277 9.96504 109.18 9.94159 109.082 9.9347C108.933 9.92417 108.824 10.0034 108.717 10.0862C108.687 10.1092 108.643 10.1162 108.608 10.1034C108.59 10.0967 108.571 10.0878 108.552 10.0864C108.476 10.0809 108.399 10.0749 108.322 10.0687C108.067 10.0485 107.851 9.87199 107.627 9.74817C107.36 9.60069 107.001 9.59319 106.679 9.51041C106.457 9.44687 106.235 9.38334 106.011 9.31981C105.622 9.20919 105.257 9.02516 104.883 8.87147C104.157 8.57344 103.378 8.55164 102.589 8.58977C101.62 8.63656 100.65 8.18702 99.683 8.25987C99.2334 8.29374 98.7797 8.43141 98.3269 8.51947C97.7076 8.6399 97.037 8.72925 96.4061 8.73151C95.7492 8.73385 95.0942 9.02254 94.4385 9.06428C94.0089 9.09163 93.5786 9.11898 93.152 9.14634C93.0708 9.15154 92.9896 9.17019 92.9226 9.21639C92.9105 9.22469 92.899 9.23316 92.888 9.2418C92.7058 9.3847 92.5356 9.58359 92.3047 9.60151C92.1855 9.61076 92.0662 9.61794 91.9491 9.62475C91.9048 9.62733 91.8695 9.60373 91.8746 9.55962C91.8788 9.52343 91.8513 9.48922 91.8162 9.47958C90.9267 9.23553 90.1717 8.72847 89.2037 8.61224C88.9963 8.59675 88.8001 8.5761 88.5964 8.5761C88.7371 8.73612 88.6742 8.9013 88.5853 9.04584C88.5853 9.0498 88.5853 9.05682 88.5853 9.0622C88.5853 9.06457 88.5834 9.06649 88.581 9.06649C88.5778 9.06649 88.5758 9.0632 88.5772 9.06038C88.5797 9.05545 88.5831 9.04887 88.5853 9.04584C88.5964 8.88582 88.5964 8.73612 88.5964 8.5761C88.0705 7.41984 86.3523 7.76053 85.4636 7.06367C84.7216 6.5748 83.7771 6.87596 82.9605 6.67326C82.9594 6.67298 82.9596 6.67136 82.9607 6.67136C82.9617 6.67136 82.962 6.67008 82.9612 6.66956C82.651 6.46866 82.362 6.42884 82.0848 6.54222C81.9594 6.59355 81.8114 6.58107 81.7026 6.50012C81.3785 6.2589 80.9592 6.15966 80.4903 6.12937H79.7425C79.4476 6.12937 79.1875 5.93655 79.1017 5.65446C78.9054 4.44658 77.7352 4.70467 76.7132 4.73565C76.4101 4.73565 76.0967 4.7193 75.7963 4.74432C75.0923 4.80294 74.3697 5.08509 73.6708 4.98268C73.6273 4.97631 73.5838 4.96994 73.5402 4.96359C73.208 4.9151 72.8965 4.78437 72.6383 4.56962C72.4411 4.40554 72.215 4.26643 71.9659 4.20528C70.4759 3.83958 68.8874 4.13508 67.3777 3.86845L63.8569 3.18115C63.8251 3.17494 63.7888 3.17688 63.7701 3.20332C63.7505 3.23107 63.746 3.26646 63.7303 3.29872C63.7172 3.32553 63.6829 3.32429 63.6602 3.3049C63.6372 3.28518 63.6466 3.2487 63.6744 3.23634L63.7297 3.21166C63.7754 3.19126 63.8009 3.14186 63.7911 3.09274C63.639 2.33023 63.4901 1.56697 62.4604 1.36171C62.0834 1.28656 61.7116 1.13412 61.4587 0.844531C61.2226 0.574097 60.8806 0.390548 60.5303 0.469084C60.5136 0.472844 60.497 0.476862 60.4805 0.481147C60.0387 0.596409 59.6113 0.856299 59.1558 0.888462C57.7524 0.987567 56.4805 1.43188 55.2228 1.90525C54.8309 2.05276 54.4752 2.2829 54.099 2.46667C53.8225 2.60171 53.5319 2.68844 53.2319 2.73799C53.2131 2.74051 53.1944 2.74286 53.1756 2.74503C52.2081 2.85708 51.2198 2.41895 50.2471 2.36853C49.0445 2.30619 47.9261 2.04184 46.9292 1.24621C45.8933 0.408459 44.4911 -0.00598626 42.955 0.051265C42.6001 0.0644937 42.2445 0.0170474 41.8896 0.00172832C41.3865 -0.0199913 41.0294 0.169733 40.7626 0.494191C40.5877 0.70677 40.3477 0.857441 40.0737 0.88349C39.9655 0.893773 39.8542 0.886343 39.7461 0.875294C39.102 0.809461 38.5133 1.3708 37.8607 1.25773C37.5168 1.19815 37.1874 1.03727 36.8385 1.03007C36.0064 1.01289 35.1758 0.986995 34.343 0.973779C34.308 0.973223 34.2852 0.936746 34.3001 0.905053C34.3148 0.8736 34.2926 0.837303 34.2579 0.835845C33.1908 0.791017 32.0478 0.425577 31.0663 0.888863C30.6551 1.08293 30.2469 1.29863 29.7953 1.35144C29.7584 1.35576 29.7217 1.36044 29.6852 1.36559C28.9827 1.46481 28.283 1.79792 27.5992 1.98687C27.3226 2.06331 27.0624 2.1662 26.8193 2.29569C26.3569 2.54197 25.9101 2.82781 25.4137 2.99538C25.2698 3.04398 25.1259 3.09263 24.9819 3.14119C24.5648 3.28183 24.1269 3.35021 23.6868 3.34588C22.2383 3.33166 20.7898 3.31612 19.3412 3.31612C18.2821 3.18191 17.2083 3.04255 16.1492 2.87221C15.553 2.8051 14.942 2.738 14.3458 2.65025C13.3237 2.59863 12.298 2.51603 11.2759 2.44893C11.0375 2.42949 10.8007 2.41299 10.5643 2.39611C9.79509 2.34117 9.09342 1.97714 8.37862 1.68763C7.82764 1.46447 7.21778 1.37528 6.54286 1.43637C6.31891 1.45664 6.09347 1.46348 5.87054 1.434C5.33162 1.36274 4.84801 1.06621 4.35122 0.845488C4.14494 0.753836 3.9221 0.6865 3.68949 0.634213C3.27259 0.540505 2.88041 0.369627 2.48585 0.205597C1.2029 -0.327768 0 1.04076 0 2.43016V57.9141C0 60.1232 1.79086 61.9141 4 61.9141H307.982C310.191 61.9141 311.982 60.1232 311.982 57.9141V18.7092C311.982 18.7044 311.987 18.7015 311.991 18.7038Z" fill="url(#paint0_linear_2570_3159)" fill-opacity="0.2"/>
<defs>
<linearGradient id="paint0_linear_2570_3159" x1="156" y1="-0.0859375" x2="156" y2="61.9141" gradientUnits="userSpaceOnUse">
<stop stop-color="white" stop-opacity="0"/>
<stop offset="1" stop-color="#C76E00"/>
</linearGradient>
</defs>
</svg>
