<svg width="944" height="142" viewBox="0 0 944 142" fill="none" xmlns="http://www.w3.org/2000/svg">
<g filter="url(#filter0_d_2570_3118)">
<path d="M944.972 40.424C944.985 40.4293 945 40.4195 945 40.4051V16.9058C945 12.057 940.911 7.65962 936.269 9.06141C935.767 9.21312 935.291 9.34082 934.773 9.42663C933.164 9.69331 931.555 9.96052 929.942 10.2315C928.83 10.4182 927.702 10.4767 926.575 10.4357C926.212 10.4225 925.85 10.4112 925.489 10.401C924.671 10.3777 923.856 10.2892 923.051 10.1447C911.858 8.13608 901.003 8.02275 890.865 11.5305C889.283 12.0779 887.644 12.4667 885.973 12.5553L874.07 13.1859C871.252 13.3352 868.496 12.4948 865.753 11.8335C864.756 11.5932 863.7 11.4459 862.573 11.4077C861.071 11.3569 859.608 11.7979 858.147 12.1435C855.68 12.7266 852.866 12.9369 850.471 13.5873C847.931 14.2769 845.297 15.6708 842.708 15.197C840.511 14.7949 838.408 14.3244 836.178 14.4406C835.39 14.4817 834.608 14.5344 833.85 14.6338C831.461 14.9474 828.937 15.2145 826.648 15.968C826.602 15.9831 826.557 15.9986 826.512 16.0145C823.705 17.0093 820.984 18.2378 818.064 17.6532C817.435 17.5274 816.818 17.3499 816.229 17.0975C812.748 15.6055 809.11 13.487 804.912 14.597C798.222 16.4378 791.61 15.0321 785.066 15.6234H782.699C781.706 15.6234 780.719 15.474 779.773 15.1724C779.341 15.0344 778.91 14.8959 778.481 14.7564C777.781 14.5289 777.037 14.4718 776.309 14.5796C775.821 14.6516 775.324 14.6537 774.836 14.5933C773.438 14.4207 772.113 14.4162 770.987 14.8652C770.26 15.1552 769.528 15.4597 768.745 15.4752C768.261 15.4848 767.769 15.3971 767.3 15.2724C765.246 14.7254 763.738 15.4303 762.186 16.0065C761.135 16.3966 760.007 16.4777 758.886 16.4542C757.701 16.4295 756.516 16.4103 755.331 16.3941C752.834 16.3598 750.347 15.6278 747.854 15.4863C746.879 15.4309 745.876 15.4355 744.898 15.3762C744.022 15.3231 743.144 15.2542 742.266 15.2806C740.496 15.3339 738.728 15.4021 736.959 15.4589C735.145 15.5171 733.35 15.1695 731.576 14.7855C728.172 14.0489 724.593 14.116 721.125 14.8759C718.871 15.3831 716.776 15.8004 714.609 15.7118C712.62 15.6305 710.592 15.5058 708.663 15.9992C707.985 16.1729 707.293 16.2988 706.595 16.355C705.145 16.4719 703.696 16.5887 702.284 16.7055C699.667 16.57 697 17.5644 694.381 17.6651C693.818 17.6868 693.254 17.7088 692.69 17.7319L682.541 17.6299C681.92 17.6236 681.315 17.4361 680.804 17.0839C680.172 16.6486 679.403 16.4537 678.639 16.5221C677.733 16.6032 676.819 16.6716 675.926 16.7725C674.466 16.9469 673.173 17.2056 672.148 17.6018C669.797 18.5107 668.377 21.2827 666.232 22.6072C663.351 24.051 660.257 25.0871 656.332 24.7865C655.552 24.7267 654.767 24.668 653.985 24.6776C651.155 24.7126 648.414 23.7745 645.696 22.9895C642.418 22.0432 639.139 22.3506 635.863 23.9116C634.815 24.411 633.761 24.9095 632.646 25.2309C632.008 25.4148 631.37 25.5966 630.728 25.7843C630.698 25.7934 630.666 25.798 630.633 25.798C630.614 25.798 630.594 25.7997 630.574 25.8031C628.613 26.1499 626.624 26.4545 624.629 26.7904C623.64 26.9569 622.638 27.0405 621.637 26.9727C620 26.8616 618.342 26.6917 616.776 26.845C614.573 27.0605 612.392 27.7692 610.284 28.4441C609.907 28.5646 609.547 28.6991 609.202 28.8457C607.024 29.7702 604.81 30.7331 602.448 30.863C599.706 31.233 597.088 30.9663 594.535 30.4636C593.488 30.2575 592.489 29.8626 591.467 29.5562C588.546 28.6804 585.269 28.9388 582.009 29.1002C580.099 29.3903 578.189 29.7585 576.28 30.0597C575.588 30.2549 574.983 30.7137 574.271 30.6233C573.064 30.4702 571.955 30.53 570.934 30.7886C569.248 31.2155 567.532 31.76 565.808 31.5311C564.467 31.353 563.124 31.1759 561.792 30.9961C561.302 30.93 560.822 30.7973 560.33 30.7554C559.756 30.7065 559.212 30.8095 558.717 31.0337C558.706 31.0388 558.692 31.048 558.687 31.0591C558.668 31.0966 558.64 31.1131 558.6 31.1032C557.726 30.8893 556.856 30.6935 555.994 30.504C555.134 30.3149 554.504 29.7074 553.734 29.279C553.445 29.1185 553.025 29.0356 552.695 29.0247C552.513 29.0187 552.33 29.0098 552.148 28.9988C551.744 28.9744 551.346 28.8965 550.958 28.7789C546.411 27.3978 541.905 25.9509 536.475 27.7057C529.247 29.6326 521.44 27.5592 513.993 27.966C510.311 28.1671 506.381 27.7116 502.75 28.3587C501.876 28.5144 501.007 28.7259 500.132 28.9084C499.466 29.0475 498.797 29.0925 498.116 29.0717C496.212 29.0132 494.379 28.176 492.484 27.9793C492.261 27.9561 492.033 27.9445 491.801 27.9449C490.277 27.9472 488.755 28.2464 487.233 28.1909C486.129 28.1506 485.031 28.12 483.949 28.0739C483.486 27.9956 483.04 27.9173 482.584 27.8544C482.201 27.8017 481.813 27.8856 481.478 28.0781C481.228 28.2217 480.978 28.3661 480.728 28.5089C480.56 28.6048 480.358 28.6365 480.195 28.5322C480.13 28.4907 480.046 28.4289 479.973 28.4054C479.389 28.2186 478.723 28.0877 478.02 27.9611C477.9 27.9395 477.765 27.9277 477.644 27.9452C477.375 27.9841 477.138 27.8702 476.89 27.7588C475.666 27.2102 473.664 27.5579 472.103 27.4167C470.995 27.3166 469.875 26.8979 468.763 26.924C467.611 26.951 466.524 27.4638 465.411 27.762C464.352 28.0457 463.102 28.0981 461.942 28.2477C461.707 28.278 461.471 28.2967 461.234 28.3134C460.737 28.3485 460.231 28.3254 459.735 28.3744C457.303 28.6144 454.869 28.7497 452.397 28.9217H445.722C444.827 28.9217 444.07 28.6454 443.23 28.3359C441.051 27.5331 439.078 25.4665 436.998 24.4338C436.511 24.1921 435.91 24.0002 435.169 23.869C433.88 23.6409 432.609 23.244 431.567 22.4517C431.499 22.3996 431.43 22.3476 431.362 22.2957C429.988 21.2518 428.28 20.7334 426.564 20.9031C425.794 20.9792 425.026 21.0588 424.254 21.1341C423.708 21.1873 423.134 21.1265 422.621 20.9303C422.065 20.7174 421.498 20.5919 420.902 20.5839C420.885 20.5837 420.868 20.5835 420.85 20.5832C420.272 20.5746 419.712 20.4109 419.169 20.2116C416.843 19.3575 414.227 19.4895 411.642 19.5626C409.696 19.6176 407.809 19.0415 405.913 18.6005C403.472 18.0328 400.884 18.097 398.209 18.6208C397.673 18.7258 397.113 18.7783 396.569 18.7309C395.85 18.6684 395.141 18.7583 394.455 18.9829C393.315 19.3561 392.186 19.7387 391.052 20.124C390.143 20.4328 389.207 20.6533 388.256 20.7806C386.945 20.956 385.635 21.1276 384.316 21.2937C382.971 21.4631 381.612 21.2362 380.382 20.666C376.915 19.4825 375.15 16.4284 369.663 17.5517C369.387 17.6083 369.186 17.8384 369.143 18.1173C369.103 18.3733 368.895 18.5647 368.64 18.6118C367.312 18.8572 365.963 19.1183 364.623 19.3784C363.883 19.522 363.171 19.7815 362.512 20.1475L361.518 20.6995C361.541 20.9226 361.552 21.1458 361.574 21.3689C361.606 21.4043 361.641 21.4387 361.679 21.4726C361.766 21.5522 361.715 21.6924 361.597 21.6924C361.92 22.016 361.753 22.2837 361.563 22.5626C361.563 22.598 361.563 22.6263 361.563 22.6588C361.563 22.6734 361.551 22.6853 361.536 22.6853C361.515 22.6853 361.502 22.6608 361.514 22.6428C361.531 22.6174 361.552 22.5856 361.563 22.5626C361.585 22.2726 361.597 21.9825 361.597 21.6924C361.597 21.5809 361.574 21.4804 361.574 21.3689C361.384 21.1681 361.284 20.9561 361.518 20.6995C360.188 20.6273 358.765 20.6953 357.566 20.4136C356.323 20.1215 355.245 19.3234 354.059 18.8479C354.03 18.8363 354.001 18.8246 353.973 18.813C351.551 17.8407 348.842 17.8573 346.459 18.9192C346.051 19.1012 345.642 19.284 345.236 19.467C344.771 19.6759 344.254 19.7854 343.744 19.7806C342.103 19.7651 340.644 21.179 339.045 21.5492C337.584 21.8878 335.579 21.5232 333.861 21.5354C333.575 21.5375 333.29 21.488 333.004 21.4719C332.552 21.4466 332.221 21.6172 331.897 21.7964C331.801 21.8501 331.678 21.8643 331.571 21.8374C331.512 21.8226 331.454 21.8023 331.393 21.7992C331.18 21.7881 330.963 21.776 330.745 21.7636C329.935 21.7175 329.183 21.2491 328.411 20.9987C327.632 20.746 326.643 20.7194 325.745 20.5544C325.07 20.4159 324.394 20.2773 323.713 20.1387C322.548 19.9016 321.426 19.4915 320.284 19.1603C318.025 18.5051 315.601 18.4802 313.145 18.5744C310.357 18.6813 307.562 17.7246 304.774 17.8455C303.327 17.9082 301.865 18.2388 300.406 18.4332C298.599 18.6742 296.691 18.8689 294.867 18.8708C292.839 18.873 290.818 19.4995 288.792 19.5919C287.47 19.6522 286.146 19.7125 284.835 19.7728C284.664 19.7807 284.421 19.8389 284.268 19.9136C283.642 20.2189 283.098 20.712 282.403 20.7508C282.016 20.7724 281.628 20.7888 281.249 20.8046C281.155 20.8085 281.079 20.762 281.095 20.6695C281.109 20.5861 281.041 20.5113 280.958 20.4952C278.258 19.9706 275.974 18.8656 273.041 18.6133C272.415 18.5798 271.823 18.5351 271.209 18.5351C271.633 18.881 271.444 19.238 271.175 19.5504C271.175 19.5584 271.175 19.5721 271.175 19.5833C271.175 19.5898 271.17 19.595 271.164 19.595C271.154 19.595 271.149 19.5847 271.154 19.5771C271.161 19.5673 271.17 19.556 271.175 19.5504C271.209 19.2045 271.209 18.881 271.209 18.5351C269.623 16.0361 264.441 16.7725 261.76 15.2663C259.523 14.2098 256.674 14.8606 254.211 14.4226C254.209 14.4222 254.209 14.4184 254.212 14.4184C254.214 14.4184 254.215 14.4153 254.213 14.4143C253.185 13.9375 252.235 13.8807 251.324 14.2215C251.089 14.3093 250.825 14.2863 250.61 14.1574C249.609 13.5564 248.27 13.3169 246.761 13.247H243.991C243.395 13.247 242.857 12.891 242.625 12.3428C242.59 12.2615 242.563 12.1754 242.54 12.0903C241.861 9.62886 238.399 10.169 235.369 10.2348C234.481 10.2348 233.564 10.2015 232.682 10.2491C230.545 10.3645 228.362 10.9966 226.234 10.773C226.028 10.7514 225.821 10.7297 225.615 10.7082C224.727 10.6156 223.872 10.3479 223.105 9.89126C222.491 9.52588 221.825 9.22728 221.122 9.10116C216.608 8.29138 211.79 8.93984 207.213 8.36054L196.567 6.87137C196.488 6.86023 196.4 6.86036 196.341 6.91477C196.265 6.98436 196.259 7.07896 196.189 7.15913C196.15 7.20376 196.083 7.19285 196.032 7.16159C195.955 7.11385 195.979 7.01483 196.066 6.98722L196.222 6.93745C196.347 6.89736 196.418 6.76513 196.383 6.63829C195.916 4.9594 195.433 3.29041 192.115 2.90831C191.118 2.79349 190.137 2.46167 189.361 1.82497C188.638 1.23174 187.736 0.865172 186.808 0.978663C186.702 0.991651 186.598 1.00683 186.496 1.02436C185.167 1.2526 183.851 1.85081 182.504 1.91554C178.266 2.11925 174.428 3.07364 170.634 4.09567C169.396 4.42921 168.225 4.97927 167.009 5.38384C166.221 5.64563 165.398 5.81681 164.549 5.91729C164.445 5.92724 164.342 5.93598 164.239 5.94336C161.445 6.14284 158.618 5.21525 155.819 5.12807C152.088 5.01188 148.622 4.45569 145.54 2.69312C142.352 0.845803 138.014 -0.0491693 133.271 0.11928C132.385 0.150761 131.498 0.0735911 130.612 0.0164921C129.101 -0.0810129 128.007 0.254227 127.18 0.8742C126.475 1.40336 125.688 1.84826 124.808 1.91307C124.517 1.93457 124.218 1.92045 123.926 1.89553C121.822 1.71569 119.917 3.15017 117.756 2.64047C117.048 2.4736 116.345 2.24322 115.618 2.23327C112.92 2.19636 110.228 2.13405 107.529 2.10375C107.453 2.1029 107.408 2.01909 107.45 1.95601C107.491 1.89326 107.447 1.80973 107.372 1.80764C103.978 1.71295 100.324 0.83214 97.2534 2.08592C96.364 2.44903 95.4606 2.81126 94.502 2.87393C94.2037 2.89343 93.9067 2.91478 93.6147 2.9429C91.5101 3.14556 89.386 3.8784 87.3102 4.28016C86.5296 4.43124 85.792 4.63202 85.0991 4.88277C83.5894 5.42908 82.1211 6.11722 80.5607 6.49481C80.108 6.60434 79.6556 6.71397 79.2026 6.82335C78.0354 7.10521 76.8379 7.24094 75.6372 7.23251C71.2027 7.2014 66.7682 7.1668 62.3336 7.1668C59.1394 6.87674 55.9005 6.57553 52.7063 6.20737C50.9082 6.06234 49.0653 5.91731 47.2672 5.72766C44.1847 5.61609 41.091 5.43757 38.0084 5.29254C37.25 5.24824 36.4968 5.21097 35.7448 5.17236C33.4843 5.05631 31.3358 4.22703 29.1568 3.61479C27.5026 3.15003 25.6737 2.97019 23.6521 3.10955C23.0306 3.15239 22.407 3.16546 21.7868 3.10668C20.091 2.94595 18.4865 2.21564 16.8497 1.74413C16.1905 1.55425 15.4809 1.41767 14.7437 1.31211C13.7227 1.16592 12.8098 0.877823 11.8319 0.549858C7.73713 -0.823395 4 3.31589 4 7.63475V118.814C4 127.098 10.7157 133.814 19 133.814H929.944C938.228 133.814 944.944 127.098 944.944 118.814V40.4429C944.944 40.4285 944.959 40.4186 944.972 40.424Z" fill="white"/>
<path d="M944.972 40.424C944.985 40.4293 945 40.4195 945 40.4051V16.9058C945 12.057 940.911 7.65962 936.269 9.06141C935.767 9.21312 935.291 9.34082 934.773 9.42663C933.164 9.69331 931.555 9.96052 929.942 10.2315C928.83 10.4182 927.702 10.4767 926.575 10.4357C926.212 10.4225 925.85 10.4112 925.489 10.401C924.671 10.3777 923.856 10.2892 923.051 10.1447C911.858 8.13608 901.003 8.02275 890.865 11.5305C889.283 12.0779 887.644 12.4667 885.973 12.5553L874.07 13.1859C871.252 13.3352 868.496 12.4948 865.753 11.8335C864.756 11.5932 863.7 11.4459 862.573 11.4077C861.071 11.3569 859.608 11.7979 858.147 12.1435C855.68 12.7266 852.866 12.9369 850.471 13.5873C847.931 14.2769 845.297 15.6708 842.708 15.197C840.511 14.7949 838.408 14.3244 836.178 14.4406C835.39 14.4817 834.608 14.5344 833.85 14.6338C831.461 14.9474 828.937 15.2145 826.648 15.968C826.602 15.9831 826.557 15.9986 826.512 16.0145C823.705 17.0093 820.984 18.2378 818.064 17.6532C817.435 17.5274 816.818 17.3499 816.229 17.0975C812.748 15.6055 809.11 13.487 804.912 14.597C798.222 16.4378 791.61 15.0321 785.066 15.6234H782.699C781.706 15.6234 780.719 15.474 779.773 15.1724C779.341 15.0344 778.91 14.8959 778.481 14.7564C777.781 14.5289 777.037 14.4718 776.309 14.5796C775.821 14.6516 775.324 14.6537 774.836 14.5933C773.438 14.4207 772.113 14.4162 770.987 14.8652C770.26 15.1552 769.528 15.4597 768.745 15.4752C768.261 15.4848 767.769 15.3971 767.3 15.2724C765.246 14.7254 763.738 15.4303 762.186 16.0065C761.135 16.3966 760.007 16.4777 758.886 16.4542C757.701 16.4295 756.516 16.4103 755.331 16.3941C752.834 16.3598 750.347 15.6278 747.854 15.4863C746.879 15.4309 745.876 15.4355 744.898 15.3762C744.022 15.3231 743.144 15.2542 742.266 15.2806C740.496 15.3339 738.728 15.4021 736.959 15.4589C735.145 15.5171 733.35 15.1695 731.576 14.7855C728.172 14.0489 724.593 14.116 721.125 14.8759C718.871 15.3831 716.776 15.8004 714.609 15.7118C712.62 15.6305 710.592 15.5058 708.663 15.9992C707.985 16.1729 707.293 16.2988 706.595 16.355C705.145 16.4719 703.696 16.5887 702.284 16.7055C699.667 16.57 697 17.5644 694.381 17.6651C693.818 17.6868 693.254 17.7088 692.69 17.7319L682.541 17.6299C681.92 17.6236 681.315 17.4361 680.804 17.0839C680.172 16.6486 679.403 16.4537 678.639 16.5221C677.733 16.6032 676.819 16.6716 675.926 16.7725C674.466 16.9469 673.173 17.2056 672.148 17.6018C669.797 18.5107 668.377 21.2827 666.232 22.6072C663.351 24.051 660.257 25.0871 656.332 24.7865C655.552 24.7267 654.767 24.668 653.985 24.6776C651.155 24.7126 648.414 23.7745 645.696 22.9895C642.418 22.0432 639.139 22.3506 635.863 23.9116C634.815 24.411 633.761 24.9095 632.646 25.2309C632.008 25.4148 631.37 25.5966 630.728 25.7843C630.698 25.7934 630.666 25.798 630.633 25.798C630.614 25.798 630.594 25.7997 630.574 25.8031C628.613 26.1499 626.624 26.4545 624.629 26.7904C623.64 26.9569 622.638 27.0405 621.637 26.9727C620 26.8616 618.342 26.6917 616.776 26.845C614.573 27.0605 612.392 27.7692 610.284 28.4441C609.907 28.5646 609.547 28.6991 609.202 28.8457C607.024 29.7702 604.81 30.7331 602.448 30.863C599.706 31.233 597.088 30.9663 594.535 30.4636C593.488 30.2575 592.489 29.8626 591.467 29.5562C588.546 28.6804 585.269 28.9388 582.009 29.1002C580.099 29.3903 578.189 29.7585 576.28 30.0597C575.588 30.2549 574.983 30.7137 574.271 30.6233C573.064 30.4702 571.955 30.53 570.934 30.7886C569.248 31.2155 567.532 31.76 565.808 31.5311C564.467 31.353 563.124 31.1759 561.792 30.9961C561.302 30.93 560.822 30.7973 560.33 30.7554C559.756 30.7065 559.212 30.8095 558.717 31.0337C558.706 31.0388 558.692 31.048 558.687 31.0591C558.668 31.0966 558.64 31.1131 558.6 31.1032C557.726 30.8893 556.856 30.6935 555.994 30.504C555.134 30.3149 554.504 29.7074 553.734 29.279C553.445 29.1185 553.025 29.0356 552.695 29.0247C552.513 29.0187 552.33 29.0098 552.148 28.9988C551.744 28.9744 551.346 28.8965 550.958 28.7789C546.411 27.3978 541.905 25.9509 536.475 27.7057C529.247 29.6326 521.44 27.5592 513.993 27.966C510.311 28.1671 506.381 27.7116 502.75 28.3587C501.876 28.5144 501.007 28.7259 500.132 28.9084C499.466 29.0475 498.797 29.0925 498.116 29.0717C496.212 29.0132 494.379 28.176 492.484 27.9793C492.261 27.9561 492.033 27.9445 491.801 27.9449C490.277 27.9472 488.755 28.2464 487.233 28.1909C486.129 28.1506 485.031 28.12 483.949 28.0739C483.486 27.9956 483.04 27.9173 482.584 27.8544C482.201 27.8017 481.813 27.8856 481.478 28.0781C481.228 28.2217 480.978 28.3661 480.728 28.5089C480.56 28.6048 480.358 28.6365 480.195 28.5322C480.13 28.4907 480.046 28.4289 479.973 28.4054C479.389 28.2186 478.723 28.0877 478.02 27.9611C477.9 27.9395 477.765 27.9277 477.644 27.9452C477.375 27.9841 477.138 27.8702 476.89 27.7588C475.666 27.2102 473.664 27.5579 472.103 27.4167C470.995 27.3166 469.875 26.8979 468.763 26.924C467.611 26.951 466.524 27.4638 465.411 27.762C464.352 28.0457 463.102 28.0981 461.942 28.2477C461.707 28.278 461.471 28.2967 461.234 28.3134C460.737 28.3485 460.231 28.3254 459.735 28.3744C457.303 28.6144 454.869 28.7497 452.397 28.9217H445.722C444.827 28.9217 444.07 28.6454 443.23 28.3359C441.051 27.5331 439.078 25.4665 436.998 24.4338C436.511 24.1921 435.91 24.0002 435.169 23.869C433.88 23.6409 432.609 23.244 431.567 22.4517C431.499 22.3996 431.43 22.3476 431.362 22.2957C429.988 21.2518 428.28 20.7334 426.564 20.9031C425.794 20.9792 425.026 21.0588 424.254 21.1341C423.708 21.1873 423.134 21.1265 422.621 20.9303C422.065 20.7174 421.498 20.5919 420.902 20.5839C420.885 20.5837 420.868 20.5835 420.85 20.5832C420.272 20.5746 419.712 20.4109 419.169 20.2116C416.843 19.3575 414.227 19.4895 411.642 19.5626C409.696 19.6176 407.809 19.0415 405.913 18.6005C403.472 18.0328 400.884 18.097 398.209 18.6208C397.673 18.7258 397.113 18.7783 396.569 18.7309C395.85 18.6684 395.141 18.7583 394.455 18.9829C393.315 19.3561 392.186 19.7387 391.052 20.124C390.143 20.4328 389.207 20.6533 388.256 20.7806C386.945 20.956 385.635 21.1276 384.316 21.2937C382.971 21.4631 381.612 21.2362 380.382 20.666C376.915 19.4825 375.15 16.4284 369.663 17.5517C369.387 17.6083 369.186 17.8384 369.143 18.1173C369.103 18.3733 368.895 18.5647 368.64 18.6118C367.312 18.8572 365.963 19.1183 364.623 19.3784C363.883 19.522 363.171 19.7815 362.512 20.1475L361.518 20.6995C361.541 20.9226 361.552 21.1458 361.574 21.3689C361.606 21.4043 361.641 21.4387 361.679 21.4726C361.766 21.5522 361.715 21.6924 361.597 21.6924C361.92 22.016 361.753 22.2837 361.563 22.5626C361.563 22.598 361.563 22.6263 361.563 22.6588C361.563 22.6734 361.551 22.6853 361.536 22.6853C361.515 22.6853 361.502 22.6608 361.514 22.6428C361.531 22.6174 361.552 22.5856 361.563 22.5626C361.585 22.2726 361.597 21.9825 361.597 21.6924C361.597 21.5809 361.574 21.4804 361.574 21.3689C361.384 21.1681 361.284 20.9561 361.518 20.6995C360.188 20.6273 358.765 20.6953 357.566 20.4136C356.323 20.1215 355.245 19.3234 354.059 18.8479C354.03 18.8363 354.001 18.8246 353.973 18.813C351.551 17.8407 348.842 17.8573 346.459 18.9192C346.051 19.1012 345.642 19.284 345.236 19.467C344.771 19.6759 344.254 19.7854 343.744 19.7806C342.103 19.7651 340.644 21.179 339.045 21.5492C337.584 21.8878 335.579 21.5232 333.861 21.5354C333.575 21.5375 333.29 21.488 333.004 21.4719C332.552 21.4466 332.221 21.6172 331.897 21.7964C331.801 21.8501 331.678 21.8643 331.571 21.8374C331.512 21.8226 331.454 21.8023 331.393 21.7992C331.18 21.7881 330.963 21.776 330.745 21.7636C329.935 21.7175 329.183 21.2491 328.411 20.9987C327.632 20.746 326.643 20.7194 325.745 20.5544C325.07 20.4159 324.394 20.2773 323.713 20.1387C322.548 19.9016 321.426 19.4915 320.284 19.1603C318.025 18.5051 315.601 18.4802 313.145 18.5744C310.357 18.6813 307.562 17.7246 304.774 17.8455C303.327 17.9082 301.865 18.2388 300.406 18.4332C298.599 18.6742 296.691 18.8689 294.867 18.8708C292.839 18.873 290.818 19.4995 288.792 19.5919C287.47 19.6522 286.146 19.7125 284.835 19.7728C284.664 19.7807 284.421 19.8389 284.268 19.9136C283.642 20.2189 283.098 20.712 282.403 20.7508C282.016 20.7724 281.628 20.7888 281.249 20.8046C281.155 20.8085 281.079 20.762 281.095 20.6695C281.109 20.5861 281.041 20.5113 280.958 20.4952C278.258 19.9706 275.974 18.8656 273.041 18.6133C272.415 18.5798 271.823 18.5351 271.209 18.5351C271.633 18.881 271.444 19.238 271.175 19.5504C271.175 19.5584 271.175 19.5721 271.175 19.5833C271.175 19.5898 271.17 19.595 271.164 19.595C271.154 19.595 271.149 19.5847 271.154 19.5771C271.161 19.5673 271.17 19.556 271.175 19.5504C271.209 19.2045 271.209 18.881 271.209 18.5351C269.623 16.0361 264.441 16.7725 261.76 15.2663C259.523 14.2098 256.674 14.8606 254.211 14.4226C254.209 14.4222 254.209 14.4184 254.212 14.4184C254.214 14.4184 254.215 14.4153 254.213 14.4143C253.185 13.9375 252.235 13.8807 251.324 14.2215C251.089 14.3093 250.825 14.2863 250.61 14.1574C249.609 13.5564 248.27 13.3169 246.761 13.247H243.991C243.395 13.247 242.857 12.891 242.625 12.3428C242.59 12.2615 242.563 12.1754 242.54 12.0903C241.861 9.62886 238.399 10.169 235.369 10.2348C234.481 10.2348 233.564 10.2015 232.682 10.2491C230.545 10.3645 228.362 10.9966 226.234 10.773C226.028 10.7514 225.821 10.7297 225.615 10.7082C224.727 10.6156 223.872 10.3479 223.105 9.89126C222.491 9.52588 221.825 9.22728 221.122 9.10116C216.608 8.29138 211.79 8.93984 207.213 8.36054L196.567 6.87137C196.488 6.86023 196.4 6.86036 196.341 6.91477C196.265 6.98436 196.259 7.07896 196.189 7.15913C196.15 7.20376 196.083 7.19285 196.032 7.16159C195.955 7.11385 195.979 7.01483 196.066 6.98722L196.222 6.93745C196.347 6.89736 196.418 6.76513 196.383 6.63829C195.916 4.9594 195.433 3.29041 192.115 2.90831C191.118 2.79349 190.137 2.46167 189.361 1.82497C188.638 1.23174 187.736 0.865172 186.808 0.978663C186.702 0.991651 186.598 1.00683 186.496 1.02436C185.167 1.2526 183.851 1.85081 182.504 1.91554C178.266 2.11925 174.428 3.07364 170.634 4.09567C169.396 4.42921 168.225 4.97927 167.009 5.38384C166.221 5.64563 165.398 5.81681 164.549 5.91729C164.445 5.92724 164.342 5.93598 164.239 5.94336C161.445 6.14284 158.618 5.21525 155.819 5.12807C152.088 5.01188 148.622 4.45569 145.54 2.69312C142.352 0.845803 138.014 -0.0491693 133.271 0.11928C132.385 0.150761 131.498 0.0735911 130.612 0.0164921C129.101 -0.0810129 128.007 0.254227 127.18 0.8742C126.475 1.40336 125.688 1.84826 124.808 1.91307C124.517 1.93457 124.218 1.92045 123.926 1.89553C121.822 1.71569 119.917 3.15017 117.756 2.64047C117.048 2.4736 116.345 2.24322 115.618 2.23327C112.92 2.19636 110.228 2.13405 107.529 2.10375C107.453 2.1029 107.408 2.01909 107.45 1.95601C107.491 1.89326 107.447 1.80973 107.372 1.80764C103.978 1.71295 100.324 0.83214 97.2534 2.08592C96.364 2.44903 95.4606 2.81126 94.502 2.87393C94.2037 2.89343 93.9067 2.91478 93.6147 2.9429C91.5101 3.14556 89.386 3.8784 87.3102 4.28016C86.5296 4.43124 85.792 4.63202 85.0991 4.88277C83.5894 5.42908 82.1211 6.11722 80.5607 6.49481C80.108 6.60434 79.6556 6.71397 79.2026 6.82335C78.0354 7.10521 76.8379 7.24094 75.6372 7.23251C71.2027 7.2014 66.7682 7.1668 62.3336 7.1668C59.1394 6.87674 55.9005 6.57553 52.7063 6.20737C50.9082 6.06234 49.0653 5.91731 47.2672 5.72766C44.1847 5.61609 41.091 5.43757 38.0084 5.29254C37.25 5.24824 36.4968 5.21097 35.7448 5.17236C33.4843 5.05631 31.3358 4.22703 29.1568 3.61479C27.5026 3.15003 25.6737 2.97019 23.6521 3.10955C23.0306 3.15239 22.407 3.16546 21.7868 3.10668C20.091 2.94595 18.4865 2.21564 16.8497 1.74413C16.1905 1.55425 15.4809 1.41767 14.7437 1.31211C13.7227 1.16592 12.8098 0.877823 11.8319 0.549858C7.73713 -0.823395 4 3.31589 4 7.63475V118.814C4 127.098 10.7157 133.814 19 133.814H929.944C938.228 133.814 944.944 127.098 944.944 118.814V40.4429C944.944 40.4285 944.959 40.4186 944.972 40.424Z" fill="url(#paint0_linear_2570_3118)" fill-opacity="0.2"/>
</g>
<defs>
<filter id="filter0_d_2570_3118" x="0" y="0" width="949" height="141.814" filterUnits="userSpaceOnUse" color-interpolation-filters="sRGB">
<feFlood flood-opacity="0" result="BackgroundImageFix"/>
<feColorMatrix in="SourceAlpha" type="matrix" values="0 0 0 0 0 0 0 0 0 0 0 0 0 0 0 0 0 0 127 0" result="hardAlpha"/>
<feOffset dy="4"/>
<feGaussianBlur stdDeviation="2"/>
<feComposite in2="hardAlpha" operator="out"/>
<feColorMatrix type="matrix" values="0 0 0 0 0 0 0 0 0 0 0 0 0 0 0 0 0 0 0.25 0"/>
<feBlend mode="normal" in2="BackgroundImageFix" result="effect1_dropShadow_2570_3118"/>
<feBlend mode="normal" in="SourceGraphic" in2="effect1_dropShadow_2570_3118" result="shape"/>
</filter>
<linearGradient id="paint0_linear_2570_3118" x1="474.5" y1="-0.186035" x2="474.5" y2="133.814" gradientUnits="userSpaceOnUse">
<stop stop-color="#C76E00"/>
<stop offset="1" stop-color="white" stop-opacity="0"/>
</linearGradient>
</defs>
</svg>
