<svg width="75" height="65" viewBox="0 0 75 65" fill="none" xmlns="http://www.w3.org/2000/svg">
<path d="M60.1073 39.5284H14.2461V63.0563H60.1073V39.5284Z" stroke="#C76E00" stroke-width="3" stroke-linejoin="round"/>
<path d="M55.9339 13.1125H18.4043V26.071H55.9339V13.1125Z" stroke="#C76E00" stroke-width="3" stroke-linejoin="round"/>
<path d="M36.6104 45.4863H37.7444C41.5548 45.4863 44.6395 48.5861 44.6395 52.3814V63.0566H29.7002V52.3814C29.7002 48.571 32.7999 45.4863 36.5952 45.4863H36.6104Z" stroke="#C76E00" stroke-width="3" stroke-linejoin="round"/>
<path d="M56.0102 26.0712H18.3445C18.3445 26.0712 8.37993 34.5388 1.5 32.7546C1.5 32.7546 3.79837 39.5286 15.4565 39.5286H58.9134C70.5715 39.5286 72.8699 32.7546 72.8699 32.7546C65.9899 34.5539 56.0254 26.0712 56.0254 26.0712H56.0102Z" stroke="#C76E00" stroke-width="3" stroke-linecap="round" stroke-linejoin="round"/>
<path d="M49.9614 1.5H24.3922C24.3922 1.5 17.6181 8.81843 12.9609 7.26099C12.9609 7.26099 14.5184 13.1127 22.4416 13.1127H51.9422C59.8654 13.1127 61.4229 7.26099 61.4229 7.26099C56.7506 8.80331 49.9916 1.5 49.9916 1.5H49.9614Z" stroke="#C76E00" stroke-width="3" stroke-linecap="round" stroke-linejoin="round"/>
</svg>
