<svg width="18" height="18" viewBox="0 0 18 18" fill="none" xmlns="http://www.w3.org/2000/svg">
<g clip-path="url(#clip0_2583_4805)">
<path d="M6.74906 7.50003C6.55015 7.50003 6.35938 7.57905 6.21873 7.71971C6.07808 7.86036 5.99906 8.05112 5.99906 8.25003V11.25H7.49906V9.00003H9.74906V10.875L12.3741 8.25003L9.74906 5.62503V7.50003H6.74906ZM9.52931 1.04479L16.9543 8.46979C17.0949 8.61043 17.1739 8.80116 17.1739 9.00003C17.1739 9.19891 17.0949 9.38964 16.9543 9.53028L9.52931 16.9553C9.38866 17.0959 9.19793 17.1749 8.99906 17.1749C8.80018 17.1749 8.60945 17.0959 8.46881 16.9553L1.04381 9.53028C0.903205 9.38964 0.824219 9.19891 0.824219 9.00003C0.824219 8.80116 0.903205 8.61043 1.04381 8.46979L8.46881 1.04479C8.60945 0.904182 8.80018 0.825195 8.99906 0.825195C9.19793 0.825195 9.38866 0.904182 9.52931 1.04479Z" fill="white"/>
</g>
<defs>
<clipPath id="clip0_2583_4805">
<rect width="18" height="18" fill="white"/>
</clipPath>
</defs>
</svg>
