<svg width="24" height="18" viewBox="0 0 24 18" fill="none" xmlns="http://www.w3.org/2000/svg">
<path d="M1.37267 10.183C1.1301 9.8362 1 9.42321 1 9C1 8.57679 1.1301 8.1638 1.37267 7.817C2.94567 5.59 6.81867 1 11.9997 1C17.1807 1 21.0537 5.59 22.6267 7.817C22.8692 8.1638 22.9993 8.57679 22.9993 9C22.9993 9.42321 22.8692 9.8362 22.6267 10.183C21.0537 12.41 17.1807 17 11.9997 17C6.81867 17 2.94567 12.41 1.37267 10.183Z" stroke="#F7F7F7" stroke-width="2" stroke-linecap="round" stroke-linejoin="round"/>
<path d="M12 13C14.2091 13 16 11.2091 16 9C16 6.79086 14.2091 5 12 5C9.79086 5 8 6.79086 8 9C8 11.2091 9.79086 13 12 13Z" stroke="#F7F7F7" stroke-width="2" stroke-linecap="round" stroke-linejoin="round"/>
</svg>
