<svg width="18" height="19" viewBox="0 0 18 19" fill="none" xmlns="http://www.w3.org/2000/svg">
<path d="M17.25 0H0.75C0.335786 0 0 0.335996 0 0.750469V17.2608C0 17.6753 0.335786 18.0113 0.75 18.0113H8.61436C9.16664 18.0113 9.61436 17.5635 9.61436 17.0113V12.0364C9.61436 11.4841 9.16664 11.0364 8.61436 11.0364H8.26863C7.71634 11.0364 7.26862 10.5886 7.26862 10.0364V9.3181C7.26862 8.76581 7.71634 8.3181 8.26863 8.3181H8.61436C9.16664 8.3181 9.61436 7.87038 9.61436 7.3181V6.31346C9.61436 3.98709 11.0343 2.72034 13.1083 2.72034C13.5595 2.72034 13.9819 2.73561 14.332 2.75538C14.8325 2.78365 15.2044 3.20194 15.2044 3.70329V4.25908C15.2044 4.81119 14.757 5.25883 14.2049 5.25908L13.766 5.25928C12.6381 5.25928 12.4197 5.7956 12.4197 6.58261V7.3181C12.4197 7.87038 12.8674 8.3181 13.4197 8.3181H13.9726C14.5756 8.3181 15.0415 8.84782 14.9644 9.44589L14.8719 10.1642C14.8076 10.6629 14.3829 11.0364 13.8801 11.0364H13.4197C12.8674 11.0364 12.4197 11.4841 12.4197 12.0364V17.0113C12.4197 17.5635 12.8674 18.0113 13.4197 18.0113H17.25C17.6642 18.0113 18 17.6753 18 17.2608V0.750469C18 0.335996 17.6642 0 17.25 0Z" fill="#AFAFAF"/>
</svg>
