<svg xmlns="http://www.w3.org/2000/svg" width="1600" height="280" viewBox="0 0 1600 280" fill="none">
<path d="M-24.2799 0.766844C-24.4199 22.9368 -26.2899 44.9968 -21.0399 67.5768C-17.8799 69.0168 -7.99989 63.7268 -6.54989 67.4968C-5.68989 69.7368 -5.27989 71.8568 -6.23989 73.7968C-7.87989 77.0968 -15.8999 73.4768 -17.8399 76.8268C-21.8599 83.7868 16.7001 95.5869 26.7001 96.9669C33.2901 97.8769 37.0401 105.657 42.8101 107.557C53.4601 111.057 66.1201 108.517 77.2801 108.707C86.7001 108.867 89.7501 97.8568 94.3701 92.9568C112.94 73.2368 102.83 81.5968 124.92 67.5068C136.47 74.8768 152.77 78.4068 160.97 66.1068C163.01 66.4368 165.47 66.7569 167.03 65.2869C169.8 62.6769 167.67 53.7569 170 52.8369C176 50.4669 184.33 62.2968 198.2 49.8668C201.16 47.2168 206.53 49.2168 209.89 46.8268C217.33 41.5468 224.42 34.9968 233.4 34.7368C233.74 42.8868 228.9 45.8069 227.51 50.7869C225.68 57.3669 231.72 62.8168 232.26 68.6368C233.04 77.0268 233.32 82.6169 238.44 88.7769C242.13 93.2269 242.92 101.217 248.58 102.437C249.43 105.517 251.25 108.047 252.59 110.867C255.72 122.017 250.81 133.747 264.39 137.947C275.26 143.957 286.35 149.917 299.25 150.307C310.9 167.327 349.57 164.077 364.04 160.737C366.29 160.217 369.38 161.817 370.75 158.727C371.69 156.607 371.66 154.227 371.5 152.047C371.89 148.897 374 147.037 376.04 145.307C379.35 144.467 382.86 142.617 383.54 138.537L391.88 133.537C414.8 119.787 405 135.997 413.74 125.447L417.51 125.527C421.03 130.817 438.63 119.067 446.65 130.367C449.42 134.267 454.33 138.447 455.99 142.537C459.12 150.267 463.05 154.907 467.53 160.877C472.31 167.267 475.55 169.627 483.07 171.287C489.37 172.667 495.09 178.127 501.77 169.967C507.48 184.577 521.15 185.337 532.43 189.627C540.47 192.687 544.36 194.177 552.86 190.437C583.15 177.107 584.2 166.007 598.21 158.727C603.4 156.027 608.88 151.277 614.09 149.617C633.81 143.347 655.83 146.227 675.91 145.477C693.62 124.397 696.71 129.397 708.04 126.017C711.8 124.897 712.9 117.257 720.79 120.007C725.67 121.707 737.53 120.677 740.21 114.857C744.8 104.877 751.89 103.077 759.9 103.097C767.63 97.7769 778.92 86.3268 786.8 90.7568C791.68 93.4968 790.9 98.2468 793.16 103.257C795.3 107.987 802.88 105.607 806.39 107.777C815.05 113.127 823.28 114.687 832.67 117.877C838.16 119.747 843.43 131.137 850.25 130.517C864.6 129.227 878.21 128.017 892.3 133.547C895.61 134.847 902.51 127.917 905.63 133.607C910.23 141.977 914.65 149.977 921.02 157.827C920.67 168.507 922.02 183.797 930.15 190.547C938.85 197.767 951.33 192.547 961.23 193.707C975.27 204.197 976.6 208.797 992.41 211.837C1029.35 218.947 1039.68 188.967 1045.44 185.737C1063.87 175.387 1068.62 176.397 1089.94 175.287C1098.64 207.627 1105.5 181.677 1105.11 203.077C1104.81 219.177 1114.26 229.277 1127.7 230.037C1133.26 230.347 1145.04 243.897 1152.17 242.517C1153.28 242.297 1154.49 243.067 1155.61 242.947C1154.74 244.117 1155.26 245.117 1156 245.947C1157.24 247.327 1158.81 247.267 1160.21 247.087C1160.78 247.017 1161.53 247.117 1162.1 247.267C1160.94 258.377 1191.88 254.677 1200.78 255.267C1207.11 255.687 1211.93 254.117 1213.94 247.687C1217.3 247.267 1219 243.697 1221.04 239.927C1224.81 232.977 1230.57 228.797 1235.32 224.337C1240.75 226.827 1243.63 217.657 1248.1 216.427C1249.75 215.967 1284.04 212.727 1283.21 205.017C1285.93 204.307 1288.73 203.907 1291.16 202.227C1300.56 206.247 1303.51 192.927 1308.42 190.537C1314.24 187.707 1325.44 192.937 1330.94 183.977L1346.67 184.047C1343.2 190.587 1360.39 188.397 1361.43 188.097C1362.59 187.767 1364.4 186.407 1363.25 184.137C1365.14 184.327 1367.07 183.827 1368.95 183.847C1371.41 186.067 1374.27 184.437 1376.41 183.987C1379.87 183.257 1377.67 176.717 1378.83 175.067C1384.46 166.997 1393.85 173.157 1400.51 173.807C1428.52 176.537 1428.25 183.277 1448.01 183.067C1457.01 182.967 1459.71 186.737 1466.08 190.787C1472.45 194.837 1483.16 196.927 1490.07 194.997C1493.07 194.157 1496.76 195.447 1499.83 194.987C1501.11 196.067 1503.12 198.717 1505.13 197.457C1506.6 196.537 1507.13 194.317 1506.23 192.777C1506.71 192.677 1507.26 192.647 1507.75 192.687C1508.62 192.757 1509.63 192.857 1510.83 192.487C1512.23 192.047 1511.64 189.407 1512.09 188.307C1514.71 186.247 1517.39 183.457 1518.11 179.717C1518.97 179.497 1519.95 179.317 1520.68 178.767C1521.9 177.857 1522.14 176.087 1522.08 174.577C1526.88 169.927 1531.67 164.337 1538.15 163.577C1540.81 167.737 1545.53 164.557 1549.33 162.367C1555.3 158.927 1562.54 162.987 1568.16 159.027C1570.59 157.317 1571.52 153.027 1573.44 152.247C1578.64 150.117 1591.31 159.227 1593.67 147.517C1594.13 145.237 1614.51 127.887 1605.72 134.057C1607.38 132.897 1607.79 94.3468 1606.86 85.7968C1609.07 82.7568 1614.99 84.5069 1617.6 84.2269V102.347C1616.13 102.037 1614.49 102.237 1613.53 103.557C1611.7 106.087 1612.92 164.677 1614.68 165.697C1615.47 166.147 1616.75 165.807 1617.59 165.767V192.947C1616.75 192.917 1615.42 192.527 1614.7 193.047C1613.77 193.717 1613.49 195.367 1613.49 197.317V227.087C1613.49 229.037 1613.77 230.687 1614.7 231.357C1615.41 231.877 1616.75 231.487 1617.59 231.457V279.017H-30.6699L-30.2199 44.0768C-30.1899 31.0168 -24.8299 19.7969 -30.7199 6.77685C-31.3799 5.30685 -30.0299 1.33684 -29.1099 0.356841C-27.9999 -0.83316 -25.3899 1.38684 -24.2799 0.766844Z" fill="#FCF8F5"/>
</svg>