<svg xmlns="http://www.w3.org/2000/svg" width="1600" height="253" viewBox="0 0 1600 253" fill="none">
<path d="M1626.76 252.17C1626.9 232.08 1628.79 212.09 1623.49 191.62C1620.3 190.32 1610.3 195.11 1608.84 191.7C1607.97 189.67 1607.56 187.75 1608.53 185.99C1610.18 183 1618.3 186.28 1620.26 183.24C1624.32 176.94 1585.33 166.24 1575.22 164.98C1568.55 164.15 1564.77 157.1 1558.93 155.38C1548.16 152.2 1535.36 154.51 1524.07 154.33C1514.55 154.19 1511.46 164.16 1506.79 168.6C1488.01 186.47 1498.24 178.9 1475.9 191.66C1464.22 184.98 1447.74 181.78 1439.44 192.93C1437.38 192.63 1434.89 192.34 1433.32 193.67C1430.52 196.03 1432.68 204.12 1430.32 204.96C1424.25 207.11 1415.83 196.39 1401.81 207.65C1398.81 210.06 1393.38 208.24 1389.99 210.4C1382.46 215.19 1375.3 221.12 1366.22 221.35C1365.88 213.97 1370.77 211.31 1372.17 206.8C1374.02 200.83 1367.92 195.89 1367.37 190.62C1366.58 183.01 1366.3 177.95 1361.12 172.36C1357.38 168.33 1356.59 161.08 1350.87 159.98C1350.01 157.19 1348.17 154.9 1346.82 152.34C1343.66 142.24 1348.62 131.6 1334.88 127.8C1323.89 122.35 1312.67 116.96 1299.63 116.6C1287.85 101.17 1248.75 104.12 1234.12 107.15C1231.84 107.62 1228.72 106.17 1227.33 108.97C1226.38 110.89 1226.41 113.05 1226.57 115.03C1226.17 117.89 1224.04 119.57 1221.98 121.13C1218.63 121.9 1215.08 123.57 1214.39 127.27L1205.96 131.8C1182.78 144.26 1192.69 129.57 1183.85 139.13L1180.04 139.05C1176.48 134.25 1158.69 144.91 1150.58 134.67C1147.78 131.14 1142.81 127.34 1141.14 123.64C1137.97 116.63 1134 112.43 1129.48 107.02C1124.64 101.23 1121.37 99.09 1113.76 97.59C1107.39 96.33 1101.6 91.39 1094.85 98.79C1089.08 85.55 1075.26 84.86 1063.85 80.97C1055.72 78.2 1051.78 76.85 1043.19 80.24C1012.56 92.32 1011.5 102.38 997.33 108.98C992.09 111.43 986.54 115.74 981.27 117.24C961.33 122.92 939.06 120.32 918.76 120.99C900.85 140.09 897.73 135.56 886.27 138.62C882.47 139.64 881.36 146.56 873.37 144.07C868.44 142.53 856.45 143.46 853.74 148.74C849.1 157.78 841.93 159.41 833.83 159.4C826.02 164.22 814.6 174.6 806.63 170.59C801.7 168.11 802.49 163.8 800.2 159.26C798.04 154.97 790.37 157.13 786.82 155.16C778.06 150.31 769.75 148.9 760.25 146C754.7 144.31 749.37 133.99 742.48 134.54C727.96 135.71 714.21 136.8 699.96 131.8C696.61 130.62 689.64 136.9 686.48 131.75C681.83 124.16 677.36 116.91 670.91 109.8C671.27 100.12 669.9 86.27 661.68 80.15C652.89 73.61 640.26 78.34 630.25 77.28C616.05 67.77 614.71 63.61 598.72 60.85C561.37 54.41 550.92 81.57 545.1 84.51C526.46 93.89 521.66 92.98 500.1 93.98C491.3 64.67 484.36 88.19 484.76 68.79C485.06 54.2 475.51 45.04 461.92 44.35C456.3 44.07 444.38 31.78 437.18 33.04C436.06 33.24 434.83 32.54 433.7 32.65C434.58 31.59 434.06 30.68 433.3 29.93C432.05 28.68 430.46 28.73 429.04 28.89C428.46 28.95 427.7 28.86 427.13 28.72C428.3 18.65 397.02 22.01 388.01 21.47C381.61 21.09 376.73 22.51 374.71 28.34C371.31 28.72 369.59 31.96 367.53 35.37C363.72 41.67 357.89 45.46 353.09 49.5C347.59 47.24 344.69 55.55 340.17 56.67C338.5 57.08 303.83 60.03 304.67 67.01C301.92 67.66 299.09 68.02 296.63 69.54C287.13 65.9 284.14 77.97 279.18 80.14C273.3 82.7 261.97 77.96 256.4 86.08L240.49 86.02C244 80.1 226.62 82.08 225.57 82.35C224.4 82.65 222.57 83.88 223.73 85.94C221.82 85.77 219.87 86.22 217.96 86.2C215.47 84.19 212.58 85.67 210.42 86.08C206.92 86.74 209.15 92.66 207.98 94.17C202.28 101.48 192.79 95.9 186.05 95.31C157.73 92.84 158 86.73 138.02 86.92C128.92 87.01 126.19 83.6 119.75 79.93C113.04 76.11 102.48 74.36 95.49 76.12C92.45 76.88 88.72 75.71 85.63 76.13C84.34 75.15 82.3 72.75 80.27 73.89C78.78 74.73 78.25 76.73 79.16 78.13C78.67 78.22 78.12 78.25 77.62 78.21C76.74 78.15 75.72 78.05 74.51 78.39C73.09 78.79 73.69 81.18 73.24 82.18C70.59 84.04 67.88 86.58 67.15 89.97C66.28 90.17 65.29 90.33 64.55 90.83C63.32 91.66 63.07 93.26 63.14 94.63C58.29 98.84 53.44 103.91 46.89 104.6C44.2 100.83 39.43 103.71 35.58 105.7C29.54 108.82 22.22 105.14 16.54 108.73C14.08 110.28 13.15 114.17 11.21 114.88C5.95004 116.81 -6.85996 108.55 -9.24996 119.17C-9.70996 121.23 -30.33 136.96 -21.44 131.37C-23.11 132.42 -23.53 167.36 -22.59 175.11C-24.83 177.86 -30.81 176.28 -33.45 176.54V160.12C-31.96 160.4 -30.3 160.22 -29.34 159.03C-27.49 156.73 -28.73 103.63 -30.51 102.71C-31.31 102.3 -32.6 102.61 -33.46 102.64V78.01C-32.61 78.04 -31.26 78.39 -30.54 77.92C-29.6 77.31 -29.32 75.82 -29.32 74.05V47.07C-29.32 45.31 -29.6 43.81 -30.54 43.2C-31.26 42.73 -32.62 43.09 -33.46 43.11V0H1633.21L1632.75 212.93C1632.72 224.76 1627.3 234.94 1633.25 246.73C1633.92 248.06 1632.56 251.66 1631.62 252.55C1630.49 253.63 1627.85 251.61 1626.73 252.18L1626.76 252.17Z" fill="#FCF8F5"/>
</svg>