<svg width="100" height="100" viewBox="0 0 100 100" fill="none" xmlns="http://www.w3.org/2000/svg">
<path d="M52.0827 29.1666C52.0827 24.5416 55.791 20.8333 60.416 20.8333H74.9993C79.5827 20.8333 83.3327 24.5833 83.3327 29.1666V38.1666C78.4993 39.8749 74.9993 44.4583 74.9993 49.8749V58.3333H52.0827V29.1666ZM24.9993 49.8333V58.3333H47.916V29.1666C47.916 24.5416 44.2077 20.8333 39.5827 20.8333H24.9993C20.416 20.8333 16.666 24.5833 16.666 29.1666V38.1249C21.4993 39.8333 24.9993 44.4583 24.9993 49.8333ZM86.0827 41.7916C81.9993 42.4583 79.166 46.3333 79.166 50.4999V62.4999H20.8327V49.9999C20.8327 47.7898 19.9547 45.6702 18.3919 44.1074C16.8291 42.5446 14.7095 41.6666 12.4993 41.6666C10.2892 41.6666 8.1696 42.5446 6.60679 44.1074C5.04399 45.6702 4.16602 47.7898 4.16602 49.9999V70.8333C4.16602 75.4166 7.91602 79.1666 12.4993 79.1666V87.4999H20.8327V79.1666H79.166V87.4999H87.4993V79.1666C92.0827 79.1666 95.8327 75.4166 95.8327 70.8333V49.9999C95.8327 44.9583 91.291 40.9166 86.0827 41.7916Z" fill="black"/>
</svg>
