<svg width="100" height="100" viewBox="0 0 100 100" fill="none" xmlns="http://www.w3.org/2000/svg">
<path d="M48.4375 17.1875V23.5648C47.4049 23.7277 46.3643 24.043 45.3125 24.4691V20.3125H42.1875V26.0078C41.856 26.1953 41.523 26.3893 41.1885 26.5898C40.4857 27.0117 39.7764 27.4648 39.0625 27.9385V23.4375H35.9375V30.1152C34.8977 30.8672 33.8547 31.6437 32.8125 32.4242V29.6875H29.6875V34.7588C28.6324 35.5416 27.5879 36.3018 26.5625 37.0229V32.8125H23.4375V39.1041C23.2344 39.2305 23.0293 39.3604 22.8291 39.4807C21.9604 40.0021 21.117 40.4578 20.3125 40.8404V39.0625H17.1875V41.9869C16.623 42.1178 16.0986 42.1875 15.625 42.1875H14.0625V35.9375H4.6875V95.3125H14.0625V45.3125H15.625C16.1441 45.3125 16.6648 45.2676 17.1875 45.1852V95.3125H20.3125V44.2807C21.3422 43.8631 22.3828 43.3393 23.4375 42.7422V95.3125H26.5625V40.8115C27.5965 40.1256 28.64 39.3928 29.6875 38.635V95.3125H32.8125V67.1875H35.9375V95.3125H39.0625V31.7271C40.1293 30.9775 41.1738 30.2766 42.1875 29.6459V57.8125H45.3125V27.9098C46.4439 27.3719 47.4977 26.9811 48.4375 26.7633V57.8125H51.5625V26.7631C52.5023 26.9811 53.5561 27.3719 54.6875 27.9096V57.8125H57.8125V29.6459C58.8262 30.2768 59.8707 30.9775 60.9375 31.7271V95.3125H64.0625V67.1875H67.1875V95.3125H70.3125V38.6348C71.36 39.3926 72.4035 40.1256 73.4375 40.8115V95.3125H76.5625V42.7422C77.6172 43.3391 78.6578 43.8633 79.6875 44.2807V95.3125H82.8125V45.1852C83.3352 45.2676 83.8559 45.3125 84.375 45.3125H85.9375V95.3125H95.3125V35.9375H85.9375V42.1875H84.375C83.9014 42.1875 83.377 42.1178 82.8125 41.9869V39.0625H79.6875V40.8402C78.8828 40.4574 78.0396 40.002 77.1709 39.4809C76.9705 39.3604 76.7656 39.2305 76.5625 39.1039V32.8125H73.4375V37.0229C72.4117 36.3021 71.3676 35.5416 70.3125 34.7588V29.6875H67.1875V32.4242C66.1453 31.6437 65.1023 30.8676 64.0625 30.115V23.4375H60.9375V27.9385C60.2238 27.465 59.5143 27.0115 58.8115 26.59C58.481 26.3918 58.148 26.1978 57.8125 26.008V20.3125H54.6875V24.4693C53.6357 24.043 52.5951 23.7277 51.5625 23.565V17.1875H48.4375ZM9.375 23.4375C6.76758 23.4375 4.6875 25.5176 4.6875 28.125C4.6875 30.7324 6.76758 32.8125 9.375 32.8125C11.9824 32.8125 14.0625 30.7324 14.0625 28.125C14.0625 25.5176 11.9824 23.4375 9.375 23.4375ZM90.625 23.4375C88.0176 23.4375 85.9375 25.5176 85.9375 28.125C85.9375 30.7324 88.0176 32.8125 90.625 32.8125C93.2324 32.8125 95.3125 30.7324 95.3125 28.125C95.3125 25.5176 93.2324 23.4375 90.625 23.4375ZM35.9375 33.9912V64.0625H32.8125V36.3258C33.125 36.0918 33.4381 35.859 33.75 35.625C34.4824 35.0762 35.2117 34.5297 35.9375 33.9912ZM64.0625 33.9912C64.7883 34.5297 65.5176 35.0762 66.25 35.625C66.5619 35.8594 66.875 36.0918 67.1875 36.3258V64.0625H64.0625V33.9912ZM42.1875 60.9375V67.1875H57.8125V60.9375H42.1875ZM42.1875 70.3125V95.3125H45.3125V70.3125H42.1875ZM48.4375 70.3125V95.3125H51.5625V70.3125H48.4375ZM54.6875 70.3125V95.3125H57.8125V70.3125H54.6875Z" fill="black"/>
</svg>
