<svg width="312" height="1067" viewBox="0 0 312 1067" fill="none" xmlns="http://www.w3.org/2000/svg">
<g opacity="0.2">
<path d="M222.578 696.405L222.011 696.718C221.905 696.636 221.804 696.595 221.69 696.524C221.985 696.509 222.285 696.441 222.578 696.405Z" fill="#C76E00"/>
<path d="M176.391 549.393L177.628 548.71C177.271 548.924 176.874 549.163 176.391 549.393Z" fill="#C76E00"/>
<path d="M141.662 577.28C138.008 580.248 133.721 580.365 129.434 579.705C128.825 579.246 128.017 579.259 127.003 578.712C125.498 577.894 124.046 576.814 122.707 575.348C122.266 574.869 121.556 574.029 121.135 573.016C118.342 566.253 120.437 558.875 127.11 555.177C129.585 553.811 132.186 553.399 135.157 553.048C135.63 553.001 136.239 553.364 136.989 553.23C141.343 554.532 145.748 556.956 147.303 561.857C149.169 567.742 146.294 573.522 141.673 577.289L141.662 577.28ZM137.372 556.985C133.015 555.662 128.924 557.565 125.591 560.633C123.475 562.583 122.87 565.83 123.303 568.258C123.866 571.395 125.776 573.612 128.565 575.359C132.898 578.069 138.637 576.317 141.993 572.129C144.286 569.273 144.859 566.19 144.085 563.419C143.2 560.258 140.596 557.934 137.369 556.964L137.372 556.985Z" fill="#C76E00"/>
<path d="M178.83 554.474C181.483 553.001 184.273 552.566 187.454 552.19C187.957 552.128 188.613 552.528 189.405 552.389C194.068 553.781 198.793 556.379 200.465 561.638C202.478 567.942 199.388 574.142 194.427 578.175C190.512 581.356 185.917 581.478 181.326 580.769C180.681 580.283 179.808 580.283 178.726 579.702C177.108 578.834 175.56 577.659 174.124 576.098C173.656 575.58 172.877 574.684 172.436 573.599C169.456 566.348 171.687 558.431 178.841 554.483L178.83 554.474ZM174.725 568.518C175.315 571.885 177.371 574.255 180.367 576.126C185.013 579.043 191.171 577.144 194.769 572.67C197.219 569.615 197.85 566.311 197.009 563.336C196.065 559.959 193.259 557.457 189.821 556.417C185.143 554.994 180.771 557.038 177.189 560.328C174.92 562.425 174.268 565.901 174.734 568.506L174.725 568.518Z" fill="#C76E00"/>
<path d="M292.126 657.611C290.098 657.219 288.892 656.237 288.194 654.171C284.293 642.592 292.764 626.707 300.423 617.459C296.422 617.914 292.835 617.669 289.915 615.192C286.53 612.314 285.904 607.609 287.908 603.691C290.711 598.197 295.969 595.023 301.947 593.571L329.168 586.958C334.112 585.761 338.804 584.327 343.886 584.092C348.885 583.867 352.362 587.938 352.538 592.804C352.723 597.733 352.218 602.426 351.984 607.332C351.703 612.807 351.645 618.021 351.8 623.497C351.941 628.069 351.95 632.519 351.589 637.077C351.197 641.991 348.726 646.626 345.054 649.617C341.586 652.446 337.429 652.494 333.556 650.335C329.98 648.331 328.539 644.279 327.992 639.693C319.29 648.865 313.448 654.847 301.491 657.654C298.333 658.39 295.277 658.218 292.147 657.609L292.126 657.611ZM316.537 646.804C324.302 640.961 328.462 631.479 330.461 631.811C334.276 632.443 327.833 645.132 336.631 648.129C340.687 649.52 345.253 646.09 346.893 641.716C348.579 637.188 348.727 632.368 348.533 627.45C348.059 616.2 348.834 605.244 349.222 594.081C349.301 592.016 348.339 589.971 347.257 588.953C345.767 587.558 343.866 587.076 341.721 587.561L308.595 595.265C303.646 596.421 299.049 597.587 294.917 600.56C290.503 603.748 288.754 610.467 292.181 613.074C297.306 616.955 305.071 611.378 306.211 613.657C307.219 615.642 305.219 617.493 303.956 618.84C295.951 627.438 289.832 638.234 290.721 650.265C290.936 653.167 292.827 654.8 295.806 654.778C303.34 654.735 310.243 651.521 316.525 646.795L316.537 646.804Z" fill="#C76E00"/>
<path d="M274.326 655.976C274.391 655.892 274.445 655.799 274.486 655.697C274.501 655.727 274.457 655.808 274.326 655.976Z" fill="#C76E00"/>
<path d="M269.233 698.724C266.614 700.736 265.888 706.585 262.639 709.813C257.975 708.325 271.261 685.37 274.9 684.65C276.522 690.629 270.532 693.647 270.367 697.106C269.797 697.229 269.905 698.206 269.233 698.724Z" fill="#C76E00"/>
<path d="M337.613 761.896C341.655 765.536 342.062 770.981 339.808 775.653C335.44 784.649 323.389 785.104 314.446 782.753C314.199 786.584 313.331 790.044 310.413 792.316C304.026 797.32 294.793 789.786 290.602 785.27C279.689 773.554 272.745 756.819 270.833 740.93C269.313 728.178 269.692 715.279 274.352 703.17C276.739 696.97 279.878 695.896 279.062 698.295C276.295 706.362 273.74 714.499 273.278 723.042C272.992 728.305 273.507 733.151 274.03 738.593C274.957 748.223 277.693 757.143 281.591 765.816C284.485 772.279 288.745 777.798 293.247 783.202C296.337 786.894 303.151 791.794 307.605 789.718C312.826 787.294 309.411 781.278 310.842 779.646C311.347 779.073 312.133 778.53 313.107 778.837C319.978 781.047 330.16 782.034 335.28 776.151C338.784 772.136 338.6 766.067 334.133 763.14C332.272 761.929 327.415 761.657 327.674 759.677C328.09 756.528 341.269 753.785 337.302 740.35C336.881 738.9 335.171 736.574 333.481 736.865C330.195 737.424 325.98 748.287 312.749 747.629C303.181 747.142 293.877 741.736 288.359 733.751C283.578 726.836 281.954 712.084 281.743 703.698C281.623 699.123 281.241 688.287 286.528 685.876C286.709 688.942 286.023 691.709 285.643 694.619C284.91 700.235 285.11 705.556 285.571 711.101C285.836 714.327 286.498 717.143 286.982 720.331C288.881 732.793 298.449 742.639 311.035 744.217C318.551 745.166 325.18 741.889 329.153 735.336C330.092 733.774 331.75 732.699 333.214 732.478C334.867 732.235 336.66 733.145 337.891 734.603C344.512 742.369 341.191 752.793 333.906 758.823C335.164 760.32 336.486 760.862 337.622 761.885L337.613 761.896Z" fill="#C76E00"/>
<path d="M272.089 794.488C270.753 796.194 267.955 797.174 265.836 796.824C254.767 795.03 252.573 782.945 250.409 773.561C249.836 764.303 249.206 755.19 249.92 745.648C250.2 741.823 250.59 738.028 251.09 734.261C251.094 734.207 251.11 734.163 251.114 734.109C252.303 725.414 254.271 716.912 258.01 708.694C259.226 710.026 259.15 712.112 258.616 713.764C255.826 722.515 254.278 731.233 253.641 740.436L253.032 749.529C252.355 759.535 252.705 789.201 264.134 792.815C266.071 793.42 267.972 793.2 269.05 792.259C270.646 790.851 271.365 789.231 271.161 787.211C270.025 776.296 261.02 764.156 258.971 740.926C258.338 733.709 259.121 720.804 262.549 713.711C263.751 714.576 263.403 716.088 263.193 717.423C260.472 734.621 261.384 746.67 267.231 763.305L273.518 781.195C275.096 785.678 275.283 790.457 272.089 794.488Z" fill="#C76E00"/>
<path d="M157.953 711.263C159.094 706.993 162.963 704.307 167.193 703.803C179.685 702.326 186.846 707.535 208.68 704.431C216.886 703.263 225.171 701.871 232.879 697.654C242.452 692.411 247.588 689.028 255.954 681.909C258.039 680.143 259.838 678.04 262.704 677.702C262.542 682.321 259.543 685.061 255.911 686.983C252.73 688.669 250.061 690.889 246.987 692.924C235.762 700.349 223.527 705.862 210.126 707.652C202.77 708.632 195.621 709.034 188.248 708.387L172.643 707.027C169.049 706.719 164.941 706.825 162.318 709.859C160.33 712.156 161.34 715.909 163.684 717.668C170.736 722.944 186.147 721.835 194.609 719.88C202.292 718.093 213.157 715.589 220.225 712.067L231.78 706.306C235.805 704.294 252.015 694.431 254.033 692.024L257.989 688.572C259.921 685.718 264.91 682.619 265.822 683.2C266.631 683.719 266.576 684.322 265.784 685.164C263.448 687.663 261.074 689.943 258.593 692.311C253.424 697.263 242.099 704.21 235.598 707.929C229.933 711.163 224.418 714.059 218.231 716.335C214.124 717.846 210.117 719.835 205.992 720.763C191.658 723.987 188.288 725.696 172.942 724.539C165.182 723.949 155.969 718.671 157.953 711.263Z" fill="#C76E00"/>
<path d="M202.276 794.901C196.027 797.887 189.111 798.984 182.311 798.405C180.299 798.235 178.689 796.897 178.306 794.889C176.223 783.898 178.174 772.629 184.17 763.008L177.378 757.329C175.529 755.786 174.762 753.42 173.395 750.849C172.742 748.192 168.276 739.323 170.669 736.849C172.818 734.639 176.002 734.645 178.653 735.867C183.718 738.2 188.753 738.972 194.472 738.457C212.675 736.839 229.652 727.596 241.305 713.443C242.593 711.87 243.915 710.304 245.529 709.479C247.333 708.557 246.927 713.004 246.967 713.074C247.203 713.524 248.024 713.275 248.38 712.87L254.338 705.916C254.944 705.214 255.948 705.145 256.448 705.67C256.937 706.186 256.897 707.085 256.363 707.863L252.098 714.111C250.074 717.083 247.422 719.088 245.936 722.367C243.724 727.205 241.162 731.616 239.775 736.757C236.748 748.019 235.504 759.329 237.151 770.852C237.766 775.207 239.255 778.955 241.088 782.991C242.223 785.494 243.098 789.274 240.209 790.999C235.891 793.58 228.618 793.921 223.745 792.992C218.729 792.026 216.676 787.228 213.932 786.466C210.154 789.374 206.734 792.772 202.285 794.889L202.276 794.901ZM225.851 789.914C229.758 790.429 234.309 790.024 237.821 787.914C240.232 786.46 234.286 778.463 233.556 769.48C232.526 756.902 233.401 744.316 237.9 732.46C239.368 728.597 240.762 724.999 242.754 721.509C244.107 719.151 246.297 717.372 246.277 714.318C244.23 714.823 243.314 716.479 242.14 717.857C240.677 719.578 238.834 720.623 237.233 722.159C226.465 732.467 213.134 739.477 198.344 741.489C190.562 742.553 183.355 742.131 176.411 738.44C175.636 738.023 173.469 738.414 173.505 739.411C173.635 742.323 174.959 744.803 175.898 747.531C180.337 760.387 185.829 757.035 187.794 760.853C190.525 766.143 178.831 766.82 181.292 792.385C181.435 793.827 182.387 795.351 184.042 795.298C210.528 794.28 211.257 780.668 214.835 781.021C218.52 781.382 217.218 788.792 225.819 789.907L225.851 789.914Z" fill="#C76E00"/>
<path d="M241.835 674.212C252.531 672.07 258.576 666.266 262.906 664.664C263.313 664.508 263.968 665.248 264.148 665.503C264.33 665.779 263.923 666.371 263.582 666.807L255.395 676.971C254.033 677.062 253.146 678.437 252.098 679.534C250.945 680.739 249.484 681.417 248.207 682.392C242.878 686.459 237.134 689.575 230.742 691.651C227.301 692.773 224.214 694.096 220.566 694.657C212.415 695.926 204.095 696.853 195.967 696.127C188.818 695.485 181.603 694.031 174.493 692.127C169.803 690.866 165.604 688.907 161.273 686.921C156.019 684.515 148.103 677.918 149.198 671.864C150.14 666.564 155.517 664.643 161.258 664.125C160.708 661.36 159.338 659.546 158.56 657.266C156.873 652.243 155.866 647.201 157.094 642.068C158.719 635.29 165.395 630.474 172.159 632.601C174.495 633.328 175.691 635.898 178.181 636.5C180.681 629.477 186.392 624.076 193.641 623.183C196.861 622.781 199.772 624.737 201.706 627.334C203.094 629.199 203.271 632.319 201.76 634.515C196.764 641.767 195.961 651.353 201.424 658.972C206.937 666.65 215.313 672.392 224.655 674.354C230.381 675.553 236.243 675.34 241.868 674.219L241.835 674.212ZM201.252 664.647C197.682 661.301 195.742 656.82 194.689 652.104C192.056 640.264 200.671 633.53 198.807 629.146C198.105 627.495 196.169 626.719 194.402 626.817C188.077 627.161 183.442 631.867 181.876 637.988C181.529 639.33 180.978 641.633 179.455 641.807C177.702 642.01 176.531 639.916 175.504 638.828C171.824 634.92 166.747 634.324 162.723 638.274C161.011 639.952 159.965 643.348 160.067 645.934C160.558 660.388 167.213 662.485 166.673 665.841C166.574 666.428 166.033 667.314 165.251 667.366C161.536 667.552 153.736 667.33 152.648 672.211C152.344 673.568 152.642 675.928 154.026 677.24C156.613 679.683 159.303 682.454 162.724 684.05C177.532 690.938 193.714 693.622 210.027 692.841C219.016 692.418 227.259 689.626 235.514 686.237C241.576 683.199 247.659 680.425 252.264 674.424C242.289 677.682 232.919 680.483 222.213 677.207C214.306 674.793 207.367 670.367 201.264 664.656L201.252 664.647Z" fill="#C76E00"/>
<path d="M265.436 441.572C267.079 439.498 279.113 441.175 282.406 441.552C290.309 442.443 297.418 445.827 304.421 449.734C304.28 444.023 307.14 438.915 312.418 437.485C315.48 436.655 318.693 438.468 321.047 440.577C325.626 444.695 327.664 450.24 329.282 456.101L339.587 493.543C340.363 496.334 340.15 499.661 337.782 501.546C335.878 503.056 333.191 503.457 330.572 503.286L300.776 501.257C294.613 500.836 288.898 500.86 282.902 499.013C280.147 498.166 274.075 493.943 273.671 489.221C273.217 483.91 277.715 478.869 283.762 477.814C282.375 475.076 279.835 473.979 277.822 471.967C272.953 467.129 269.68 461.319 267.4 454.92C266.174 451.492 265.513 448.069 264.661 444.573C264.393 443.509 264.85 442.272 265.403 441.565L265.436 441.572ZM288.787 476.756C289.574 477.277 289.895 478.42 289.936 479.022C290.065 481.573 284.869 480.086 280.268 482.616C278.032 483.846 276.832 486.058 277.062 488.383C277.818 496 287.245 497.079 293.17 497.465L301.854 498.038C310.129 498.575 318.171 498.949 326.401 499.811C329.722 500.152 332.923 499.774 335.947 498.458C336.594 494.237 335.282 490.627 334.137 486.465L327.394 462.028C325.337 454.569 323.149 443.154 314.669 441.279C312.043 440.704 309.323 442.238 308.538 444.623C307.603 447.441 307.971 450.027 308.539 452.864C308.771 454.071 308.103 456.889 306.569 456.277C301.813 454.375 297.665 444.881 271.603 443.782C270.671 443.736 269.7 444.152 269.244 444.516C268.31 445.247 268.844 446.215 269.037 447.278C271.321 459.49 278.459 469.845 288.81 476.774L288.787 476.756Z" fill="#C76E00"/>
<path d="M267.529 358.74C264.99 360.891 263.009 362.814 261.773 365.871C260.863 368.101 259.635 370.178 259.197 372.702C258.223 378.261 257.61 383.99 258.476 389.624C259.113 393.806 259.735 397.957 261.405 401.79L269.21 419.56C266.916 420.041 265.82 418.822 264.834 417.196C255.48 401.669 250.621 380.719 259.062 363.805C260.226 361.47 262.116 359.324 263.962 357.427C269.868 351.363 279.105 349.388 286.834 352.441C291.834 354.42 294.951 359.29 297.507 358.425C301.691 357.011 302.715 352.478 300.828 348.875C295.557 338.804 285.636 339.18 286.515 335.464C286.872 333.94 292.538 333.858 294.501 328.465C295.173 326.637 294.347 324.225 292.779 322.882C288.227 318.996 282.436 317.784 276.646 318.147C265.304 318.835 263.822 325.82 261.441 324.107C259.305 322.568 262.439 317.522 259.699 314.161C255.168 310.879 248.929 312.809 245.341 316.93C236.542 327.052 237.285 347.342 238.973 360.074C240.075 368.341 242.273 376.081 245.856 383.652C248.133 388.455 250.217 393.067 253.368 397.433C255.303 400.126 257.21 403.195 257.174 406.66C257.053 407.42 255.214 406.568 254.811 405.968C249.706 398.496 244.997 391.03 241.606 382.679C238.13 374.147 235.859 365.723 235.068 356.598C234.01 344.226 233.876 330.432 239.485 319.123C240.16 317.752 241.323 316.727 242.214 315.468C245.599 310.733 251.26 308.256 256.826 309.101C261.696 309.84 264.648 313.271 264.26 318.568C269.328 314.981 274.876 314.54 280.622 314.863C289.126 315.351 300.849 320.601 297.681 329.569C296.731 332.261 295.215 334.245 292.446 335.988C297.852 341.038 305.023 344.052 305.012 352.721C305.007 356.437 303.427 359.377 300.189 361.208C297.489 362.74 294.217 362.361 291.853 359.997C285.197 353.342 274.61 352.703 267.487 358.745L267.529 358.74Z" fill="#C76E00"/>
<path d="M240.737 411.331L235.897 406.116C229.033 398.71 224.677 390.04 220.343 381.026C215.236 370.382 211.879 359.418 211.353 347.652C211.17 343.522 210.951 339.8 211.494 335.688C212.338 329.228 214.894 316.022 222.755 315.343C225.326 315.115 227.647 316.249 229.212 318.178C231.064 320.444 231.65 323.333 231.256 326.139L229.466 338.996C228.183 348.224 229.426 357.305 231.807 366.289C233.38 372.21 234.479 378.007 236.865 383.616L245.926 405.407C246.869 405.804 246.846 406.754 247.306 407.816C247.736 408.818 248.919 409.441 248.964 411.033C247.378 410.949 246.66 409.684 246.477 408.268C245.251 407.821 245.033 406.378 244.174 405.269C240.617 400.718 234.421 386.98 232.511 380.909C229.145 370.223 226.307 359.324 225.767 348.06C225.423 340.861 227.138 334.04 227.931 326.99C228.232 324.302 228.079 321.201 225.789 319.446C223.711 317.857 220.276 319.382 219.017 321.548C215.335 327.873 214.517 334.713 214.495 341.797C214.447 355.315 216.248 361.889 221.14 374.53C225.924 386.896 232.601 398.105 241.904 407.707C246.02 411.955 253.464 417.215 255.741 420.175C257.611 422.588 259.456 424.887 261.177 427.393C259.222 431.634 245.168 416.414 244.067 415.153L240.747 411.319L240.737 411.331Z" fill="#C76E00"/>
<path d="M136.48 425.327C137.908 421.927 140.373 419.434 143.44 417.335C151.389 411.864 160.404 409.734 170.066 409.155C187.127 408.123 204.075 411.066 220.178 416.784C222.437 417.585 224.207 418.04 226.268 419.312L234.044 424.148C236.116 425.429 249.204 431.216 249.25 434.745C246.852 434.462 244.971 433.009 242.935 432.554C239.87 431.862 237.1 430.282 233.789 429.322L210.904 422.736C204.349 420.85 202.179 421.391 196.19 420.916C194.854 421.75 177.682 419.675 159.918 429.365C154.537 432.309 143.939 440.072 138.081 434.46C135.489 431.975 135.252 428.277 136.489 425.315L136.48 425.327ZM155.161 428.336C166.662 421.698 179.314 418.295 192.62 418.444C195.03 418.47 197.501 418.127 199.567 419.004C200.282 418.576 201.144 418.663 202.085 418.868L211.242 420.874C220.386 422.871 223.447 425.362 231.709 426.402C228.13 424.378 224.855 422.668 221.23 420.968C218.814 419.836 212.996 418.488 210.774 417.034C198.544 413.741 186.207 411.941 173.304 412.222C167.485 412.355 162.185 412.819 156.628 414.751C152.347 416.241 147.93 417.566 144.503 420.731C141.64 423.368 137.103 428.872 140.221 431.921C143.207 434.848 151.831 430.285 155.172 428.345L155.161 428.336Z" fill="#C76E00"/>
<path d="M152.91 439.161C159.219 435.444 166.107 433.413 173.01 431.338C190.575 426.049 211.748 426.529 228.389 434.471C229.247 434.878 229.824 435.596 229.418 436.284C229.099 436.813 228.276 436.7 227.581 437.37C232.865 439.059 245.968 441.99 248.353 446.897C248.807 447.821 246.539 448.438 245.825 447.992C238.445 443.353 228.966 441.227 220.262 441.455C208.883 441.753 198.518 447.231 191.872 456.494C189.141 460.298 187.181 464.061 187.014 468.809C186.748 476.518 190.912 482.475 197.91 485.202C200.828 486.348 200.837 490.532 199.749 492.964C197.676 497.55 193.308 499.54 188.607 499.846C180.905 500.346 176.578 496.198 171.692 490.702C169.807 492.624 168.685 495.125 166.548 496.641C163 499.16 158.627 498.925 154.841 497.214C144.25 492.433 144.558 478.34 148.254 468.456C145.04 467.857 141.811 467.227 139.377 465.074C130.123 456.841 146.162 443.123 152.929 439.137L152.91 439.161ZM149.714 485.092C150.34 488.317 151.705 490.429 154.195 492.607C157.675 495.655 162.161 496.206 165.96 492.688C168.671 490.197 166.97 485.409 170.411 484.725C173.135 484.18 174.02 491.1 182.37 495.323C186.989 497.668 192.019 496.822 195.365 493.253C196.365 492.194 197.392 489.961 196.273 488.819C193.668 486.133 190.213 484.605 187.88 481.886C179.95 472.714 183.847 459.76 191.352 451.606C195.418 446.778 200.741 443.181 206.582 440.692C212.535 438.157 218.67 438.177 225.442 437.119C215.72 432.222 205.335 431.228 195.025 431.3C188.972 431.345 183.553 432.398 177.631 433.704C164.825 436.529 146.602 443.847 140.712 456.436C139.485 459.045 140.045 462.161 142.509 463.597C147.789 466.649 150.183 462.695 152.936 465.192C154.923 466.995 147.294 472.64 149.728 485.122L149.714 485.092Z" fill="#C76E00"/>
<path d="M392.953 666.981L393.82 638.839C393.977 633.741 394.519 628.83 393.757 623.79C393.087 619.336 381.759 616.636 376.546 603.896C375.03 600.183 374.984 596.047 375.986 592.198C376.298 590.999 377.65 590.388 377.745 588.981C370.637 587.269 364.093 585.297 358.294 581.04C348.439 573.817 345.496 572.12 339.982 560.758C338.712 560.998 338.065 562.333 336.981 562.965C325.24 569.643 312.657 560.569 305.155 551.504C298.524 551.267 292.421 552.127 285.918 553.376L237.306 562.719C231.512 563.839 226.004 564.52 220.222 564.435C217.119 564.398 215.043 563 212.49 561.266C210.735 560.063 206.81 559.04 206.647 556.482C206.361 551.853 211.052 549.888 214.591 548.957C219.574 547.637 223.871 546.199 228.952 545.165C240.289 542.859 251.658 541.7 263.276 541.532C270.961 541.417 278.145 541.214 285.774 540.296L299.145 538.691C302.733 538.254 304.396 536.955 306.758 534.229C311.207 529.131 317.274 525.092 323.333 522.374C327.785 520.373 332.512 521.151 336.117 524.62C340.094 510.741 348.291 499.351 360.915 492.225C355.693 488.856 353.808 483.698 353.945 478.165C354.339 463.114 367.504 459.905 366.517 449.696L364.888 432.719C364.546 429.204 364.138 425.942 363.693 422.461L362.817 415.699L358.825 384.283C358.093 378.527 357.628 373.131 357.773 367.587C357.803 366.604 358.653 365.979 358.614 364.961C356.74 362.07 360.725 357.368 362.757 355.598C365.924 352.838 369.906 360.361 370.58 361.174C371.729 362.567 374.156 362.911 374.985 364.737C377.296 369.812 378.731 382.745 378.967 388.626L379.807 410.757C380.036 416.842 379.999 422.66 380.073 428.699L380.24 441.627C380.289 445.444 380.361 449.183 381.381 452.924C381.837 454.572 383.834 455.32 384.979 456.16C385.109 456.261 385.222 456.407 385.368 456.464C389.019 461.184 393.283 463.061 397.061 469.342C400.365 474.796 399.598 481.619 394.818 486.268L403.315 488.365C417.268 491.811 427.72 502.71 434.482 515.41C442.167 505.84 456.92 512.798 463.688 519.066C467.563 522.651 472.127 523.927 477.169 522.75L486.611 520.536L511.049 515.465L527.598 511.982C535.666 510.287 544.256 510.35 552.625 509.821C556.281 509.589 558.388 511.505 561.239 513.149C563.577 514.505 567.056 515.445 566.793 519.15C566.612 521.685 564.239 524.327 561.858 525.234C559.935 525.969 557.726 525.056 557.372 523.107C556.72 519.502 558.156 515.463 557.241 514.328C554.299 510.714 522.856 516.414 517.051 517.621L489.777 523.281L474.729 526.497C471.034 527.287 467.432 526.383 464.655 523.601C462.277 521.207 459.269 520.029 456.611 518.138C452.274 515.045 447.424 512.994 441.922 514.42C440.136 514.882 437.421 516.192 437.114 518.402C436.596 522.191 439.048 526.333 442.295 528.249C444.224 529.399 446.704 529.746 447.868 531.873C449.68 535.209 437.26 538.85 439.902 548.495C440.895 552.101 448.359 551.225 451.093 549.891C472.092 539.659 461.156 529.5 482.022 530.688C496.669 531.526 527.662 530.012 541.905 527.172L556.294 524.314C556.669 524.247 557.156 524.837 557.301 525.065C557.533 525.398 557.061 525.978 556.574 526.261C552.374 528.763 547.991 529.413 543.328 530.204C538.79 530.98 534.616 531.85 529.937 532.344C515.411 533.899 501.076 534.141 486.459 534.163C482.754 534.166 479.324 534.594 475.722 534.394C469.727 534.048 467.556 542.106 462.765 546.139C456.654 552.537 446.237 557.062 437.475 552.347C433.493 565.481 424.821 575.949 412.912 583.084C415.444 584.991 417.818 587.172 417.959 590.264C418.771 607.437 405.029 615.7 404.823 622.412C404.584 630.598 405.579 638.516 407.371 646.507L412.708 670.242C413.729 674.782 413.998 679.094 414.422 683.717C415.21 692.118 414.335 700.243 413.261 708.572C412.905 711.331 413.319 713.687 410.881 715.879C409.711 716.937 408.479 717.928 406.905 717.853C402.747 717.635 402.359 712.433 399.496 713.058C397.371 710.559 396.178 707.669 395.624 704.255C393.566 691.802 392.54 679.607 392.929 666.963L392.953 666.981ZM330.496 524.889C324.978 524.516 319.51 527.279 315.356 530.766C311.463 534.04 307.603 536.884 304.951 541.168C300.875 542.495 296.98 542.426 292.904 542.975C284.649 544.085 276.708 544.721 268.367 544.778C255.928 544.854 246.42 545.116 234.21 547.688C230.068 548.564 226.038 549.129 221.973 550.295C219.958 550.881 218.014 550.744 215.762 550.88C217.8 555.551 214.824 558.309 216.381 560.079C218.403 562.346 232.176 560.372 235.673 559.713L249.756 557.051L259.972 555.159C274.529 552.451 288.793 549.438 303.473 547.662C305.593 547.404 306.56 548.352 307.983 549.808L311.831 553.695C323.721 565.739 337.231 562.307 337.327 556.971C337.465 548.212 329.741 548.619 326.334 543.976C328.498 539.102 332.677 538.615 333.945 531.273C334.353 528.934 333.419 525.108 330.489 524.921L330.496 524.889ZM334.333 538.488C333.595 538.897 330.415 543.394 330.456 543.73C330.511 544 334.72 546.651 335.098 546.7C336.041 546.831 335.916 546.505 335.537 545.582C335.374 545.378 335.505 544.968 335.381 544.739L334.322 538.479L334.333 538.488ZM365.192 360.125C364.58 359.646 363.699 359.753 363.22 360.365C362.74 360.977 362.848 361.859 363.46 362.338C364.072 362.817 364.953 362.71 365.432 362.098C365.911 361.486 365.804 360.605 365.192 360.125ZM388.697 465.451C383.301 462.061 379.326 457.827 376.8 452.736L376.224 449.835C375.798 432.509 375.488 415.084 375.261 397.553C374.817 389.174 373.999 380.787 372.937 372.493C372.291 367.45 370.509 364.441 365.539 367.612C363.463 368.492 362.07 368.332 361.368 367.118C360.733 367.323 360.32 367.075 359.744 367.422C360.568 369.377 361.74 371.396 360.896 373.298L361.965 373.775L370.616 444.874C371.256 450.312 371.617 455.816 367.819 460.133C361.828 466.909 354.823 476.898 360.286 485.998C363.41 491.197 369.214 485.337 371.007 481.616C372.263 475.915 374.433 473.799 377.497 475.268C388.242 493.479 403.21 478.923 388.709 465.46L388.697 465.451ZM371.646 488.002L381.445 486.011C379.377 484.069 377.755 482.722 376.176 480.423L371.658 488.011L371.646 488.002ZM443.774 532.179C441.979 531.343 440.477 530.813 438.929 529.638C438.289 530.941 438.979 531.975 439.325 533.157C439.729 534.556 439.015 535.686 439.81 537.581C441.573 536.323 442.999 534.478 443.786 532.188L443.774 532.179ZM425.557 567.905C442.229 546.614 438.484 515.829 417.193 499.156C395.902 482.484 365.116 486.23 348.444 507.521C331.772 528.812 335.517 559.597 356.808 576.27C378.099 592.942 408.885 589.196 425.557 567.905ZM396.706 594.639C398.689 592.47 399.748 590.414 401.438 587.674L390.852 589.41C392.538 591.717 394.541 592.602 396.706 594.639ZM410.816 707.113L411.192 696.813C411.859 678.577 409.077 666.563 404.639 649.342C402.678 641.712 402.263 634.191 401.237 626.458C399.863 616.211 407.36 613.329 411.648 603.682C413.48 599.573 415.091 595.309 414.516 590.758C414.285 588.944 413.219 587.008 411.517 586.32C404.64 583.537 399.671 598.442 396.811 598.481C394.792 598.514 392.486 592.778 386.777 590.661C384.703 589.892 382.631 589.845 381.075 590.887C379.332 592.046 378.272 594.273 378.42 596.629C378.814 602.672 382.518 607.642 386.333 612.129C391.575 618.284 397.234 617.096 397.477 625.489C397.672 631.811 397.205 637.863 397.028 644.199L396.436 664.449C396.047 677.625 396.483 690.574 398.937 703.564C399.411 706.062 399.924 708.704 401.356 710.755C402.596 712.542 404.311 705.551 410.818 707.134L410.816 707.113Z" fill="#C76E00"/>
<path d="M288.463 207.672C288.463 207.672 288.612 207.675 288.687 207.676C289.437 207.713 290.175 207.74 290.94 207.732L290.974 207.835C290.974 207.835 291.01 207.692 291.035 207.636C292.432 207.476 293.841 206.89 296.277 205.209L296.925 204.843C314.025 200.026 326.508 184.909 333.092 169.009C333.804 168.124 334.322 167.22 334.653 166.264C334.769 166.165 334.874 165.981 334.931 165.836C338.411 155.669 341.503 145.369 342.689 134.641C342.574 134.57 342.494 134.356 342.361 134.308C342.742 133.942 342.655 133.399 342.781 132.947C342.706 129.964 343.072 127.023 343.871 124.136C344.532 123.534 344.274 122.288 345.198 121.568C348.072 126.458 346.524 136.847 345.449 142.27C340.474 167.195 330.237 191.228 307.624 204.829C305.323 206.217 302.8 206.747 300.843 208.253C298.328 209.378 295.775 209.923 293.171 209.878C293.002 210.239 292.805 210.37 292.611 210.351C292.823 210.687 292.932 211.057 292.938 211.461C295.368 212.965 297.292 214.775 298.701 216.904C301.025 219.028 303.576 221.614 306.982 222.477C314.451 224.358 321.801 222.101 327.904 217.653C335.124 212.409 333.695 229.46 352.691 232.696C357.465 233.51 361.967 231.738 365.631 228.684C377.819 218.501 377.416 210.021 379.486 209.269C380.239 208.985 381.527 208.893 382.587 209.381C390.002 212.738 398.518 212.895 405.919 209.482C410.859 207.198 416.882 198.682 418.552 193.761C410.065 192.888 401.725 190.761 394.21 186.586C376.479 176.764 364.388 162.018 356.466 143.815C353.943 138.042 352.479 132.491 350.93 126.493L347.601 113.577C346.896 110.842 344.789 95.1043 346.838 92.5125C348.414 94.0883 349.013 96.209 349.369 98.3485L352.358 116.619C352.86 119.689 352.677 122.831 353.629 125.835C356.16 133.779 359.002 141.473 362.675 149.076C367.003 158.047 373.251 165.635 380.289 172.723C387.848 180.332 397.372 185.094 407.443 188.404C407.443 188.404 408.088 188.624 409.137 188.933C409.38 189.01 409.624 189.087 409.879 189.173C409.903 189.191 409.945 189.186 409.975 189.172C413.216 190.077 418.93 191.362 423.355 190.707C424.414 191.536 424.833 192.529 424.486 193.699L420.101 199.493C416.235 207.364 409.292 213.49 400.514 215.122L397.963 215.422C393.017 215.726 388.077 215.294 383.117 214.087C381.755 214.008 380.766 214.714 380.125 216.187C376.314 223.987 370.185 232.421 361.654 235.386C361.654 235.386 361.624 235.4 361.612 235.391C361.287 235.516 360.917 235.625 360.523 235.715C359.799 235.889 359.06 236.032 358.58 236.111C358.568 236.102 358.557 236.093 358.554 236.072C356.158 236.683 353.803 236.756 351.471 236.316C351.462 236.328 351.452 236.34 351.455 236.361C350.713 236.217 349.934 236.024 349.206 235.814C349.206 235.814 349.206 235.814 349.215 235.803C343.284 234.405 337.267 229.142 332.713 225.064C331.502 222.635 330.119 221.685 328.568 222.236C316.294 229.351 302.759 229.081 293.736 217.497C292.932 216.051 291.563 213.896 290.483 213.772C289.856 213.699 289.216 213.596 288.638 213.486C288.656 213.462 288.642 213.432 288.66 213.408C288.481 213.42 288.298 213.41 288.137 213.398C287.646 213.298 287.274 213.215 287.11 213.182C284.568 212.33 282.59 209.377 284.914 208.082C285.044 208.013 285.922 207.619 288.498 207.699L288.463 207.672Z" fill="#C76E00"/>
<path d="M438.806 83.8557C439.595 84.7393 440.329 85.6936 440.986 86.721C441.183 87.0271 441.359 87.3358 441.538 87.6655C441.645 87.8441 441.752 88.0228 441.849 88.2132C443.585 91.452 444.626 95.0203 444.996 98.9364C446.112 101.196 448.359 102.595 451.736 103.132L455.183 105.3C455.407 105.475 455.839 105.699 455.972 105.917C466.004 113.982 466.499 129.425 454.184 135.066L450.23 136.963C448.49 137.803 447.72 139.174 447.931 141.087L447.44 141.956C447.659 142.355 447.581 142.503 447.151 142.374C447.531 142.786 447.367 143.189 447.145 143.642C444.612 148.987 436.801 149.99 429.756 149.41C427.099 149.19 424.552 148.733 422.422 148.205C421.6 148.017 420.8 147.827 420.008 147.625C418.908 147.333 417.873 147.054 416.901 146.768C412.958 145.597 410.313 144.513 410.313 144.513C410.144 144.438 409.987 144.372 409.818 144.297C399.656 140.156 391.53 134.628 385.071 128.716C382.339 126.216 379.908 123.647 377.733 121.09C376.053 119.091 374.545 117.112 373.168 115.161C373.144 115.142 373.133 115.133 373.118 115.103C364.264 102.455 361.625 91.3506 361.6 91.2364C361.191 87.0803 361.668 83.5616 364.99 90.1318C369.504 103.425 371.183 104.797 378.478 116.357C382.29 122.399 394.679 132.594 401.325 136.545C411.495 142.591 428.095 147.749 439.831 144.787C447.403 142.876 440.527 136.77 446.904 134.397C453.769 131.836 460.878 127.511 459.5 118.99C458.327 111.711 452.574 106.693 445.505 104.955C442.762 104.287 440.699 102.654 440.751 99.751C440.919 90.3708 435.895 83.6455 427.165 80.4165C426.078 90.8242 426.547 93.0139 420.441 100.859C413.571 109.681 404.378 112.886 393.492 110.931C380.538 108.61 371.527 93.4467 366.843 82.1653C364.482 76.5002 372.679 78.4951 376.012 73.9474C381.912 65.9037 381.718 55.556 376.896 47.1663C374.452 42.917 371.996 39.1907 368.454 35.7138C361.254 28.6143 357.458 24.8063 348.725 18.841C346.39 17.2404 344.072 16.3937 341.699 14.4783C340.319 13.379 336.848 12.0657 335.343 13.2604C332.865 15.2123 331.245 17.7413 328.965 19.8289C325.737 22.7879 323.601 26.6787 320.597 29.9085C314.456 36.4909 308.079 46.0408 305.301 54.8015C302.007 65.1901 305.456 78.0487 315.427 83.1606C319.516 85.2612 325.34 84.0309 326.069 85.4755C327.817 88.9897 322.164 101.422 319.657 105.326C311.294 118.334 297.375 124.787 282.857 118.45C276.032 115.479 271.849 109.716 269.646 102.903C268.778 100.23 268.173 97.5347 266.683 95.1711C264.261 95.1357 262.788 96.944 261.139 98.1776C253.161 104.195 250.645 113.978 254.072 123.155C254.795 125.069 251.409 126.29 250.026 126.48C245.797 127.08 242.029 127.794 238.557 130.239C233.808 133.564 231.538 139.495 233.699 145.003C235.473 149.526 239.489 152.423 243.98 154.155C250.548 156.678 255.877 155.231 257.138 157.719C257.532 158.501 255.214 164.225 259.337 165.288C270.232 168.105 284.154 161.843 292.476 155.07C299.26 149.559 305.374 143.715 310.075 136.403C315.749 127.556 320.431 118.425 323.111 108.335C323.974 105.099 324.822 102.441 326.875 99.7951C327.446 99.0654 327.143 94.3852 329.124 94.4743C329.595 94.5021 329.99 94.9439 330.223 95.5438C331.844 99.9465 331.644 104.422 331.267 109.025C330.184 122.36 325.095 132.254 318.535 143.711C311.131 156.634 295.9 171.477 282.916 179.063C279.168 181.254 270.569 186.538 270.936 190.87C271.373 196.035 281.897 196.415 286.946 195.205C294.475 193.373 300.016 189.206 305.096 183.615C309.36 178.923 312.96 174.034 316.168 168.458C318.443 164.486 320.931 160.872 322.744 156.69C328.808 142.642 333.403 128.336 335.835 113.229C337.116 105.289 336.945 97.6754 337.213 89.7207C337.238 88.9616 337.429 88.0865 337.825 87.7508C338.29 87.3748 339.967 87.8523 340.2 88.7183C342.458 97.0367 338.248 115.384 337.232 124.101C336.3 127.814 335.292 131.525 334.222 135.243C333.805 135.752 333.297 137.177 333.516 137.842C327.216 157.04 317.071 179.379 300.913 192.377C293.066 198.687 280.825 202.487 271.515 197.38C263.506 192.988 267.368 185.703 272.993 181.526L274.322 180.63C274.51 180.511 274.707 180.381 274.886 180.274C274.886 180.274 274.895 180.262 274.892 180.241L280.635 176.327L283.004 174.707L289.509 170.328L289.813 170.11L292.771 168.078C303.398 159.065 313.218 148.149 319.538 135.592C319.573 135.524 319.616 135.444 319.65 135.376L321.566 130.99L322.991 127.74L323.39 126.818L325.854 119.938L327.279 115.984C327.428 115.455 327.548 114.961 327.66 114.479C328.511 110.532 327.993 108.114 327.764 107.364C327.71 107.19 327.679 107.108 327.679 107.108C324.826 116.038 320.939 124.177 318.279 129.271C318.211 129.407 318.151 129.532 318.071 129.659C316.738 132.185 315.752 133.881 315.399 134.477C311.633 140.281 307.491 145.885 302.761 150.858C300.048 153.499 297.442 155.712 295.098 157.541C294.719 157.832 294.369 158.109 294.007 158.376C292.886 159.226 291.839 159.982 290.886 160.641C290.859 160.676 290.807 160.693 290.768 160.719C288.429 162.324 286.709 163.332 285.911 163.77C277.815 168.119 268.157 171.53 259.428 168.834C254.858 167.42 252.658 165.526 252.365 160.493C243.165 158.397 232.016 154.45 229.604 144.341C228.178 138.402 230.49 133.073 234.507 129.156C234.516 129.144 234.526 129.133 234.535 129.121C234.807 128.821 235.133 128.526 235.504 128.247C237.067 127.002 239.204 125.923 240.019 125.536C242.474 124.534 244.991 123.696 247.574 123.041C249.009 122.494 249.638 121.278 249.48 119.37C249.501 119.101 249.498 118.814 249.415 118.483C248.913 116.457 248.847 114.868 248.878 113.81C248.878 113.81 248.888 113.798 248.909 113.796C249.181 105.18 256.188 96.5225 263.023 91.6979C266.513 89.2288 268.568 89.6603 270.462 93.5932L273.79 103.964L275.144 106.259C277.587 111.723 282.657 114.098 287.887 116.294L290.486 117C307.381 119.864 319.541 103.754 322.468 88.5224C310.946 87.9863 302.511 78.8755 301.06 67.9993C301.043 67.6819 301 67.3252 300.949 66.9055C300.924 66.7913 300.911 66.6864 300.896 66.5605C300.836 66.1525 300.778 65.7656 300.732 65.3878C300.678 64.9471 300.627 64.5274 300.597 64.1052C300.38 61.4482 300.583 59.3472 300.896 57.8077C301.133 56.6076 301.435 55.7616 301.649 55.2457C301.682 55.2524 301.724 55.2473 301.756 55.254C304.33 44.8144 310.521 36.8844 316.991 28.6223C319.885 24.9267 331.183 11.1044 334.176 9.27089C337.496 7.23783 343.482 10.6728 346.569 12.6719C357.762 19.9563 369.758 30.0713 377.486 41.0783C380.257 45.0324 382.545 49.748 383.363 54.5466C383.556 55.6092 383.686 56.8499 383.785 57.6684C383.785 57.6684 383.767 57.6919 383.758 57.7037C385.455 68.2411 380.714 77.0596 371.129 81.8568C375.234 93.6346 384.061 105.881 397.03 107.722C397.182 107.746 397.355 107.767 397.519 107.801C397.713 107.82 397.958 107.822 398.248 107.84C399.596 107.889 401.872 107.867 404.181 107.416C404.295 107.391 404.421 107.376 404.544 107.34C405.841 106.969 407.094 106.508 408.275 105.97C416.229 102.383 421.653 95.2385 422.909 86.3115C422.174 76.6793 424.375 73.5045 429.492 76.7898C429.522 76.7755 429.543 76.773 429.574 76.7586C429.686 76.8088 429.813 76.8892 429.937 76.9486C430.28 77.1412 430.679 77.3588 431.137 77.6225C433.573 78.8275 435.994 80.6094 437.748 82.6853C438.112 83.0458 438.466 83.418 438.813 83.8229L438.806 83.8557Z" fill="#C76E00"/>
<path d="M341.766 982.714C340.977 981.83 340.243 980.876 339.586 979.848C339.389 979.542 339.213 979.234 339.034 978.904C338.927 978.725 338.82 978.547 338.723 978.356C336.987 975.117 335.946 971.549 335.576 967.633C334.46 965.373 332.213 963.975 328.836 963.438L325.389 961.27C325.165 961.095 324.733 960.87 324.6 960.652C314.568 952.588 314.073 937.144 326.389 931.504L330.342 929.606C332.082 928.766 332.853 927.395 332.641 925.483L333.132 924.614C332.913 924.215 332.991 924.067 333.422 924.195C333.041 923.784 333.205 923.38 333.427 922.927C335.961 917.583 343.771 916.579 350.816 917.159C353.473 917.379 356.021 917.836 358.151 918.365C358.972 918.552 359.772 918.742 360.564 918.944C361.664 919.236 362.699 919.515 363.671 919.802C367.615 920.972 370.259 922.056 370.259 922.056C370.428 922.131 370.585 922.197 370.754 922.273C380.916 926.414 389.042 931.942 395.501 937.853C398.233 940.353 400.664 942.922 402.839 945.479C404.519 947.479 406.027 949.457 407.404 951.408C407.428 951.427 407.439 951.436 407.454 951.466C416.308 964.115 418.947 975.219 418.972 975.333C419.382 979.489 418.905 983.008 415.591 976.426C411.077 963.132 409.398 961.761 402.103 950.201C398.291 944.158 385.902 933.963 379.256 930.012C369.086 923.966 352.487 918.809 340.751 921.77C333.178 923.682 340.054 929.788 333.677 932.161C326.812 934.721 319.703 939.047 321.081 947.568C322.254 954.847 328.008 959.865 335.076 961.603C337.82 962.27 339.882 963.904 339.83 966.807C339.662 976.187 344.686 982.912 353.426 986.129C354.513 975.722 354.044 973.532 360.149 965.687C367.019 956.865 376.213 953.659 387.099 955.614C400.052 957.936 409.063 973.099 413.748 984.381C416.108 990.046 407.912 988.051 404.578 992.598C398.678 1000.64 398.872 1010.99 403.695 1019.38C406.139 1023.63 408.594 1027.36 412.137 1030.83C419.336 1037.93 423.133 1041.74 431.866 1047.7C434.201 1049.31 436.519 1050.15 438.892 1052.07C440.271 1053.17 443.743 1054.48 445.248 1053.29C447.726 1051.33 449.345 1048.8 451.626 1046.72C454.854 1043.76 456.989 1039.87 459.993 1036.64C466.135 1030.05 472.512 1020.51 475.299 1011.73C478.593 1001.34 475.144 988.485 465.173 983.374C461.084 981.273 455.26 982.503 454.53 981.059C452.782 977.544 458.436 965.112 460.942 961.208C469.305 948.2 483.225 941.747 497.743 948.084C504.568 951.055 508.751 956.818 510.953 963.631C511.822 966.304 512.426 968.999 513.917 971.363C516.339 971.398 517.812 969.59 519.461 968.357C527.439 962.339 529.954 952.556 526.527 943.379C525.805 941.465 529.191 940.244 530.574 940.054C534.803 939.454 538.57 938.74 542.042 936.295C546.791 932.97 549.062 927.039 546.901 921.531C545.126 917.009 541.111 914.111 536.62 912.379C530.051 909.856 524.722 911.303 523.462 908.815C523.068 908.033 525.385 902.309 521.263 901.246C510.368 898.429 496.446 904.691 488.123 911.464C481.34 916.975 475.226 922.819 470.525 930.131C464.85 938.978 460.169 948.109 457.488 958.199C456.626 961.435 455.778 964.093 453.725 966.739C453.154 967.469 453.457 972.149 451.476 972.06C451.004 972.032 450.61 971.59 450.377 970.99C448.755 966.588 448.956 962.112 449.333 957.509C450.415 944.174 455.505 934.28 462.065 922.823C469.469 909.9 484.7 895.057 497.684 887.471C501.431 885.28 510.031 879.996 509.664 875.664C509.227 870.5 498.703 870.119 493.654 871.329C486.125 873.161 480.584 877.328 475.504 882.919C471.24 887.611 467.64 892.5 464.431 898.076C462.157 902.048 459.668 905.662 457.856 909.844C451.792 923.892 447.197 938.198 444.765 953.305C443.484 961.245 443.654 968.859 443.387 976.813C443.362 977.572 443.17 978.448 442.775 978.783C442.309 979.159 440.633 978.682 440.4 977.816C438.142 969.497 442.352 951.15 443.368 942.433C444.3 938.72 445.307 935.009 446.378 931.291C446.795 930.782 447.303 929.357 447.084 928.692C453.384 909.494 463.529 887.155 479.687 874.157C487.534 867.847 499.775 864.047 509.085 869.154C517.094 873.546 513.231 880.831 507.606 885.008L506.278 885.904C506.09 886.023 505.893 886.153 505.714 886.26C505.714 886.26 505.696 886.284 505.708 886.293L499.965 890.207L497.596 891.827L491.09 896.206L490.787 896.424L487.829 898.456C477.202 907.469 467.382 918.385 461.062 930.942C461.027 931.01 460.984 931.09 460.949 931.158L459.034 935.544L457.609 938.794L457.21 939.716L454.746 946.596L453.321 950.55C453.172 951.079 453.051 951.573 452.94 952.055C452.089 956.002 452.607 958.42 452.836 959.17C452.889 959.344 452.921 959.426 452.921 959.426C455.774 950.496 459.66 942.357 462.32 937.263C462.389 937.127 462.448 937.002 462.529 936.875C463.861 934.349 464.848 932.653 465.201 932.057C468.967 926.253 473.109 920.649 477.838 915.676C480.552 913.035 483.158 910.823 485.501 908.993C485.881 908.702 486.231 908.426 486.592 908.158C487.713 907.308 488.761 906.552 489.713 905.893C489.741 905.858 489.792 905.841 489.832 905.815C492.171 904.21 493.89 903.202 494.689 902.765C502.785 898.415 512.443 895.004 521.172 897.7C525.742 899.114 527.942 901.008 528.235 906.041C537.435 908.138 548.584 912.084 550.996 922.194C552.421 928.132 550.109 933.461 546.093 937.378C546.083 937.39 546.074 937.402 546.065 937.413C545.793 937.713 545.466 938.008 545.096 938.287C543.533 939.532 541.396 940.611 540.581 940.998C538.126 942 535.608 942.838 533.026 943.493C531.591 944.04 530.962 945.256 531.119 947.165C531.099 947.433 531.102 947.72 531.185 948.051C531.687 950.077 531.752 951.666 531.721 952.724C531.721 952.724 531.712 952.736 531.691 952.739C531.419 961.354 524.412 970.012 517.577 974.836C514.086 977.305 512.032 976.874 510.137 972.941L506.81 962.57L505.455 960.275C503.012 954.811 497.942 952.436 492.713 950.24L490.114 949.534C473.219 946.67 461.059 962.78 458.131 978.012C469.654 978.548 478.088 987.659 479.539 998.535C479.557 998.852 479.6 999.209 479.651 999.629C479.676 999.743 479.688 999.848 479.704 999.974C479.764 1000.38 479.822 1000.77 479.868 1001.15C479.921 1001.59 479.972 1002.01 480.002 1002.43C480.219 1005.09 480.017 1007.19 479.704 1008.73C479.467 1009.93 479.165 1010.77 478.951 1011.29C478.918 1011.28 478.876 1011.29 478.843 1011.28C476.269 1021.72 470.079 1029.65 463.609 1037.91C460.715 1041.61 449.417 1055.43 446.424 1057.26C443.104 1059.3 437.117 1055.86 434.031 1053.86C422.837 1046.58 410.841 1036.46 403.113 1025.46C400.343 1021.5 398.055 1016.79 397.237 1011.99C397.044 1010.92 396.914 1009.68 396.814 1008.87C396.814 1008.87 396.833 1008.84 396.842 1008.83C395.145 998.293 399.886 989.474 409.471 984.677C405.365 972.899 396.539 960.653 383.569 958.812C383.417 958.788 383.244 958.767 383.08 958.734C382.886 958.715 382.641 958.712 382.352 958.694C381.004 958.645 378.728 958.667 376.419 959.118C376.305 959.143 376.179 959.158 376.056 959.194C374.759 959.565 373.505 960.026 372.325 960.564C364.371 964.151 358.947 971.296 357.69 980.223C358.426 989.855 356.224 993.03 351.108 989.744C351.077 989.759 351.056 989.761 351.026 989.775C350.914 989.725 350.787 989.645 350.662 989.585C350.32 989.393 349.92 989.175 349.462 988.912C347.026 987.707 344.605 985.925 342.851 983.849C342.488 983.488 342.134 983.116 341.787 982.711L341.766 982.714Z" fill="#C76E00"/>
<path d="M379.904 761.69C379.772 762.271 379.641 762.851 379.53 763.429C379.25 765.507 378.872 767.736 378.365 770.13C378.221 771.138 378.11 772.152 377.999 773.166C377.871 773.161 377.769 773.194 377.654 773.219C377.475 773.933 377.287 774.659 377.089 775.396C377.164 775.493 377.228 775.581 377.313 775.667C376.806 776.485 376.702 777.296 376.351 778.35L372.778 788.805C372.613 789.283 372.281 789.707 372.249 790.232C372.251 790.424 372.046 790.662 371.959 790.821C371.673 791.356 371.588 792.144 371.13 792.583C370.064 793.629 367.963 798.761 366.044 801.454C361.911 807.217 357.676 812.673 353.025 818.031C351.821 819.423 350.52 820.455 349.551 821.765C349.104 822.384 348.329 823.01 347.708 823.512L341.691 828.407C338.601 830.317 335.432 832.278 332.457 834.429C330.198 836.077 327.482 836.951 325.085 838.339C297.957 849.658 275.288 849.924 247.781 839.833C246.635 838.993 245.167 838.831 243.939 838.192C237.739 834.932 231.661 831.444 226.029 826.901C223.35 824.746 218.078 829.029 215.952 830.459C215.107 830.86 214.037 831.086 213.4 831.802C210.149 832.997 206.822 834.094 203.673 835.52C203.087 835.783 202.397 835.793 201.83 836.128C196.21 837.195 190.709 838.886 184.761 839.014C181.629 839.086 178.677 838.977 175.801 839.326C174.752 839.454 173.557 838.993 172.465 839.296C169.877 838.503 167.02 838.393 164.318 838.498C164.173 838.441 164.054 838.253 163.89 838.22L157.949 836.909C149.293 834.991 146.725 827.893 143.76 820.672C142.593 817.822 139.961 808.793 140.036 806.345C140.076 805.276 139.769 804.238 139.204 803.529C139.369 803.051 139.017 802.434 139.003 801.967C138.75 794.895 138.41 787.813 139.729 780.625C140.245 777.783 141.227 775.172 141.19 772.504C141.184 771.93 142.013 770.87 141.582 770.305C142.102 769.326 142.767 767.265 141.476 766.368C131.639 759.557 120.521 746.332 114.161 736.586C113.907 735.818 113.141 734.421 112.464 733.928C112.284 732.629 111.521 731.253 110.792 729.904C107.415 723.766 104.887 717.515 102.809 711.027C102.719 710.9 102.511 710.851 102.442 710.72C102.989 710.75 100.853 703.609 100.524 703.617C100.531 702.978 100.276 702.455 100.192 701.858C99.5156 696.733 98.7273 691.654 98.3326 686.485C98.2898 685.958 98.4343 685.482 98.2092 684.945C98.855 681.938 98.4039 678.756 98.4862 675.669C98.4986 675.071 98.7598 674.592 98.6295 673.958C99.6634 670.116 100.336 666.105 100.792 662.153C100.876 661.44 101.462 660.74 101.232 659.991L105.482 647.314C106.084 646.57 107.046 644.855 106.81 643.873C108.164 642.579 108.473 640.561 109.564 638.852L117.141 626.824C120.997 620.712 131.507 610.127 137.301 605.588C138.323 604.793 139.184 604.082 139.967 603.252L140.315 602.879C141.099 603.284 141.552 602.367 142.262 601.897L151.627 595.731C152.209 595.352 153.237 594.695 153.881 594.478C157.204 592.998 161.809 591.288 164.849 589.491C165.362 589.247 165.957 589.143 166.501 588.981C167.632 588.652 168.767 588.173 169.942 587.764L189.09 584.38C189.28 584.453 189.512 584.52 189.774 584.574C213.352 583.025 246.33 595.635 254.584 619.452C259.947 634.91 250.649 654.59 233.156 654.865C219.967 655.075 207.76 640.599 216.794 628.82C223.062 620.646 232.247 622.01 237.033 630.542C238.072 631.033 238.734 630.697 239.402 629.796C241.218 627.307 236.246 620.394 234.381 618.46C211.832 595.126 177.415 596.065 152.748 614.836C130.713 631.605 112.715 658.711 115.858 687.962C118.882 716.057 138.101 739.061 161.41 752.985C165.597 754.137 167.261 756.086 166.39 758.822C159.84 770.969 156.692 783.694 158.179 797.408C158.742 802.558 161.125 813.48 165.043 816.89C167.128 818.713 172.461 819.224 175.429 819.46C192.227 820.823 209.907 813.593 222.227 802.394C223.208 800.56 224.404 799.978 225.816 800.647C254.332 835.128 312.042 836.593 341.735 802.602C355.747 786.575 366.131 767.423 362.497 745.344C359.417 726.68 348.231 709.567 332.091 699.7C329.962 698.394 323.942 695.389 324.362 699.363C330.282 703.562 334.151 709.022 329.696 716.07C320.763 730.169 294.082 712.257 301.968 695.326C308.698 680.888 325.299 677.654 339.107 683.322C363.123 693.167 377.276 719.875 379.217 745.014C379.344 745.531 379.488 746.195 379.635 747.05L380.521 748.731C380.683 750.852 379.982 753.056 380.528 755.268C380.389 755.349 380.273 755.448 380.169 755.557C380.141 757.338 380.01 759.324 379.776 761.514C379.835 761.56 379.857 761.653 379.928 761.709L379.904 761.69ZM374.931 732.544C372.655 722.237 368.84 713.725 362.546 705.227C355.371 695.526 346.999 688.42 335.4 684.539C329.452 682.558 323.033 682.051 317.108 684.55C312.694 686.429 308.414 689.324 305.888 693.156C300.756 700.946 303.054 709.941 310.253 715.028C314.609 718.097 319.228 720.006 324.372 717.559C327.09 716.27 328.996 713.738 329.173 710.725C329.504 705.041 322.529 700.927 317.943 700.165C317.15 700.038 316.323 699.276 316.129 698.65C315.344 696.137 323.752 691.898 333.436 697.716C337.928 700.417 342.252 703.575 345.927 707.44C358.167 720.347 365.612 737.075 365.626 754.781C365.637 766.429 360.428 780.064 354.426 789.717C346.288 802.825 332.648 816.219 318.462 822.406C305.244 828.156 291.247 830.562 276.977 829.413C264.558 828.421 251.358 823.287 241.041 816.556C236.368 813.504 232.321 809.823 228.01 806.429C226.916 805.572 226.133 804.826 224.951 804.735C223.329 804.624 222.661 805.429 221.32 806.487C210.747 814.896 198.043 820.403 184.616 821.717C179.828 822.183 165.118 822.322 162.715 818.408C155.797 807.143 154.169 794.287 156.134 781.472C157.255 774.148 159.056 767.508 162.698 760.943C163.186 760.053 163.493 758.812 163.352 758.094C163.164 757.074 162.405 756.176 161.362 755.568C152.127 750.196 143.892 743.691 136.381 736.044C131.933 731.517 128.715 726.68 125.35 721.254C117.901 709.212 113.337 695.425 113.287 681.183C113.22 661.024 122.989 640.765 136.646 626.549C138.734 624.368 140.532 622.168 142.706 620.168C154.903 609.005 169.174 600.188 185.969 598.72C202.497 597.252 218.389 601.931 231.183 612.481C235.267 615.849 239.095 619.398 241.013 624.223C242.826 628.794 242.211 633.628 239.161 637.353C237.669 639.185 235.358 640.052 233.657 638.151C234.293 636.902 235.18 636.23 235.635 634.897C235.206 629.795 230.221 625.227 224.959 626.176C218.614 627.32 215.377 633.539 216.13 639.463C217.137 647.391 228.735 656.074 239.552 651.425C247.15 648.148 253.223 640.125 253.823 632.013C254.879 617.499 243.868 603.75 232.064 597.051C218.989 589.623 204.551 586.386 189.7 587.117C184.303 587.39 179.536 587.853 174.406 589.627C165.168 592.817 156.643 596.527 148.252 601.86C134.454 610.631 123.077 622.663 114.763 636.772C104.601 653.991 100.397 673.083 102.443 692.874C103.677 704.852 107.253 715.779 112.65 726.537C116.966 735.137 121.635 743.237 128.459 750.137L133.827 755.575C137.105 758.881 139.959 761.686 144.378 763.438C146.157 764.148 147.174 766.292 146.388 767.878C144.204 772.339 142.651 783.73 142.259 788.91C141.229 802.495 144.477 815.804 150.719 827.811C152.415 831.076 154.748 832.656 158.178 833.633C163.363 835.111 168.531 835.494 173.981 835.832C181.773 836.332 189.369 835.312 197.034 833.815C203.763 832.496 216.113 827.756 221.241 823.171C222.308 822.221 222.681 821.09 224.016 821.034C225.498 820.96 226.128 822.023 227.148 823.145C230.507 826.857 234.761 829.182 239.091 831.775C251.646 839.309 265.761 842.863 280.418 843.689C306.472 845.161 332.936 834.69 350.933 815.708C354.99 811.424 358.461 806.87 361.819 802C364.181 798.572 365.9 794.849 367.838 791.259C372.866 782.001 375.808 768.546 376.711 757.937C377.447 749.286 376.829 741.056 374.969 732.593L374.931 732.544Z" fill="#C76E00"/>
<path d="M319.929 285.663C322.419 287.575 324.603 289.684 326.511 291.975C326.899 292.279 327.173 292.779 327.645 292.977C332.337 297.847 336.416 303.548 339.748 309.404C339.991 310.258 340.7 310.928 341.073 311.713C343.148 314.421 344.408 317.685 345.45 320.913C345.52 322.885 346.901 324.782 347.578 326.585L348.529 329.855C349.64 330.668 349.994 332.616 348.829 333.279C349.185 333.406 349.469 333.553 349.516 333.76C349.921 335.425 350.472 338.648 350.706 340.654C350.402 340.606 350.327 341.307 350.257 342.391C351.84 356.978 349.437 371.709 344.144 385.621C337.874 402.089 324.691 419.676 305.276 417.896C293.033 416.777 281.868 405.262 285.118 392.067C286.869 384.933 292.155 379.541 298.844 377.715C303.162 376.54 307.116 377.529 310.713 379.966C315.924 383.496 317.172 390.34 313.124 395.145C312.903 395.427 313.162 395.896 313.279 396.063C314.424 397.776 322.489 387.308 323.591 385.512C328.187 378.043 330.92 369.607 332.276 360.891C334.226 348.387 332.037 335.908 326.182 324.716C324.126 320.771 321.465 317.453 319.087 313.749C316.75 310.115 313.395 307.488 310.768 304.273C308.94 302.025 306.767 300.798 304.832 299.245L298.473 294.151C287.111 285.045 272.416 278.741 257.409 278.533C232.567 278.18 205.468 291.401 190.702 311.64C188.31 314.912 186.001 317.813 184.135 321.383C182.945 323.679 179.27 323.668 177.413 322.233C175.476 320.754 173.73 319.88 171.548 318.836C153.197 310.048 133.611 314.475 115.798 322.627C114.762 325.841 113.865 328.708 113.674 331.862C112.866 345.526 113.723 360.627 123.452 371.359C125.615 373.736 127.6 375.784 130.19 377.641C132.208 379.089 131.673 382.22 129.81 383.533C127.455 385.183 125.909 387.181 124.009 389.243C111.503 402.765 104.531 417.488 102.404 435.891C99.8714 457.698 106.143 479.488 120.272 496.456C125.322 502.518 137.18 511.33 143.94 516.129C149.848 520.319 163.528 525.108 170.976 526.459C181.385 528.345 193.55 527.599 203.69 524.034C216.035 519.689 228.623 510.693 232.238 496.645C225.805 501.708 218.387 501.386 212.781 496.009C209.477 492.833 207.897 488.33 208.996 483.628C209.722 480.494 210.901 477.05 212.929 474.29C215.843 470.326 220.195 467.145 224.956 466.108C230.961 464.792 236.852 467.088 241.701 470.619C254.494 479.935 252.812 496.654 247.082 509.426C239.637 526.038 226.258 537.814 208.846 542.956C203.686 544.478 198.62 545.372 193.005 546.576C192.963 546.582 192.933 546.596 192.891 546.601C192.915 546.619 192.938 546.638 192.971 546.645L192.268 546.645L176.046 546.51C175.203 546.762 174.513 546.164 173.729 546.025C165.477 544.538 157.231 543.188 149.272 539.652C148.585 539.342 147.971 539.107 147.494 539.474L142.864 537.216C128.93 530.425 112.745 518.434 103.177 506.139L100.664 502.899C98.5413 499.015 96.1337 495.155 93.5249 491.479C93.5205 490.83 92.8226 490.17 92.6621 489.551C91.6113 485.728 89.6367 482.188 88.2809 478.222C87.3031 475.349 86.7568 472.433 85.5041 469.839C84.8621 468.501 84.9117 466.982 84.3537 465.634C84.1205 463.192 84.0961 460.629 83.1294 458.372C82.9212 457.886 82.9264 457.492 82.8862 456.985L82.1091 444.473C81.4926 434.592 84.6532 419.96 86.8792 410.862L88.3127 407.504C89.6961 404.258 94.1091 395.107 96.0457 391.858C97.1584 389.976 98.9671 388.563 99.0762 386.484C99.1776 386.355 99.2882 386.214 99.3543 386.057C99.7148 385.257 101.208 384.053 100.921 382.916C99.4846 379.513 97.6542 376.371 95.6839 373.48C95.6319 372.965 95.3193 372.322 95.1505 371.81C93.6338 366.958 92.2993 362.115 91.1855 357.161C90.8624 355.731 90.8131 354.363 90.7327 352.914C89.0653 341.66 90.6526 330.201 92.4112 319.275C92.7861 316.929 94.4568 307.207 96.0863 306.071C96.3228 305.915 96.4989 305.787 96.7855 305.954C97.4786 305.7 98.6012 305.212 99.0712 304.612C103.894 302.939 118.527 296.665 123.839 295.774L129.84 294.777C133.66 294.142 137.321 293.686 141.13 293.308C146.673 292.751 159.597 293.776 165.561 295.01C166.022 295.124 166.49 295.206 166.942 295.332L174.219 297.29C175.001 297.503 175.52 297.397 176.054 297.056C178.676 295.331 180.101 292.251 182.434 289.805L186.891 285.132L190.216 282.534C193.116 280.285 195.894 277.999 198.989 276.132C203.68 273.293 208.179 270.626 212.809 268.157C214 267.533 215.416 267.009 216.699 266.608C218.688 265.546 220.746 264.519 222.993 264.171C223.911 263.75 225.308 263.325 226.296 263.226C231.787 261.355 237.367 260.218 243.029 259.848C243.998 259.677 244.907 259.971 245.916 259.508C248.262 259.276 250.645 259.167 253.009 259.348C253.98 259.272 255.188 259.668 256.135 259.308C263.424 259.358 271.13 260.38 278.104 262.385C278.63 262.949 280.008 262.984 280.696 263.124C285.779 264.561 290.558 266.726 295.32 268.937C297.152 270.162 299.214 271.093 301.139 272.126L301.907 272.139C306.644 275.449 311.378 278.739 316.118 281.995L316.433 282.83C317.465 283.961 318.596 284.942 319.944 285.693L319.929 285.663ZM294.054 272.179C278.735 264.683 262.475 261.71 245.482 263.117C221.805 265.082 196.858 277.083 181.611 295.56C180.016 297.5 179.324 300.129 177.707 301.806C176.127 303.436 174.228 302.006 172.635 301.252C161.537 295.979 145.432 295.936 133.366 297.5C124.844 298.611 116.975 300.974 109.029 304.454C105.734 305.899 101.122 306.502 98.9306 309.495C96.3362 313.026 96.476 317.939 95.6457 322.055C93.921 330.634 93.4811 338.833 93.8866 347.505C94.347 357.415 95.9504 367.006 100.774 375.757C103.88 381.417 106.396 380.749 106.486 383.496C106.526 384.439 101.641 388.664 98.5126 394.017L96.0536 398.224C89.0853 410.178 86.3335 423.706 85.5931 437.575C84.6988 454.38 88.713 474.421 96.6103 489.358C101.847 499.23 108.255 507.874 116.453 515.566C120.324 519.205 124.301 522.661 128.849 525.387L136.889 530.202C141.919 533.21 146.805 535.48 152.409 537.343C165.634 541.718 166.401 541.806 180.187 542.918C194.738 544.098 209.275 540.615 222 533.53C229.899 529.14 236.952 521.733 241.274 513.764C247.205 502.82 251.77 487.656 243.36 476.817C241.138 473.957 238.946 471.955 235.619 470.603C230.385 468.461 224.262 468.109 219.691 471.934C216.453 474.639 213.523 478.041 212.507 482.029C211.361 486.524 212.281 491.459 215.932 494.508C219.047 497.099 223.94 497.665 227.398 495.721C231.425 493.464 231.315 488.27 233.609 488.13C234.624 488.07 235.057 488.827 235.433 489.995C236.563 493.595 235.47 497.125 234.282 500.581C232.29 506.349 227.418 512.16 222.95 516.313C217.248 521.607 210.992 525.498 203.37 527.789C193.343 530.797 182.57 531.608 172.201 529.962C146.196 525.832 121.496 507.743 108.494 484.898C105.895 480.338 104.253 475.597 102.462 470.587C99.1411 461.322 98.372 451.587 98.6286 441.707C99.0038 427.286 103.296 413.731 110.842 401.451C114.86 394.914 118.956 389.198 124.658 384.075C125.676 383.163 126.52 381.697 126.532 380.397C126.549 376.423 117.647 374.237 113.048 359.453C109.147 346.905 109.117 333.534 112.38 320.615C125.019 314.222 137.911 310.438 151.906 310.727C157.424 310.833 162.537 311.989 167.765 313.823C171.425 315.114 174.955 316.207 178.315 318.268C182.446 320.801 184.619 312.667 191.118 305.871C195.443 301.341 199.607 296.969 204.64 293.258C214.686 285.86 223.757 281.04 235.855 277.812C247.261 274.763 258.868 273.808 270.537 276.776C287.139 280.985 298.968 288.938 311.518 300.55C324.779 312.833 335.141 329.908 336.3 348.188C337.334 364.567 330.59 385.012 318.918 396.644C313.98 401.568 305.803 403.936 305.251 400.883C305.132 400.259 305.732 398.887 306.558 398.414C311.146 395.779 313.882 390.346 311.196 385.338C308.899 381.071 303.555 379.506 298.924 381.177C290.192 384.326 285.73 394.293 289.103 403.029C290.411 406.426 293.201 409.143 296.153 410.999C305.967 417.184 316.943 414.539 325.242 408.013C332.447 401.94 338.025 392.999 341.364 384.127C345.212 372.958 347.51 361.732 347.276 350.101C347.164 344.279 346.969 339 345.589 333.343C342.187 319.382 335.825 306.655 325.755 296.263C316.258 286.472 306.232 278.108 294.096 272.174L294.054 272.179Z" fill="#C76E00"/>
</g>
</svg>
