<svg width="104" height="104" viewBox="0 0 104 104" fill="none" xmlns="http://www.w3.org/2000/svg">
<g clip-path="url(#clip0_2506_5694)">
<path d="M53.2365 0C57.5293 0.826053 60.5736 3.86214 61.1315 8.25241C61.2587 9.24639 61.0149 10.2783 61.3563 11.2777L62.5777 32.9067L68.2246 11.0366C73.097 2.16128 86.4032 6.10739 85.4959 16.3287L81.8667 37.7818L87.7574 27.9369C92.9548 21.7483 102.67 24.6354 104 32.5032V35.1438C102.97 38.5293 101.554 41.8011 100.238 45.0917C95.2976 57.4338 90.4388 70.8051 84.9488 82.814C80.2444 93.103 71.6995 100.527 60.5816 103.129L55.4683 104.007H49.9865L43.4024 102.772C34.8981 100.494 28.7908 95.5514 23.6258 88.6343C15.7581 78.096 8.69462 66.8995 0.948671 56.2692L0.0305318 53.4227C0.0982411 52.6454 -0.0642614 51.7407 0.0305318 50.9851C0.797002 44.9076 7.40272 41.4923 12.9278 43.8729C16.1075 45.2433 21.2723 51.9629 24.0294 54.7065C24.2082 54.8851 24.2028 55.1506 24.601 55.0477L18.5125 15.9442C18.0195 6.0478 30.8193 2.32107 35.735 10.9039L42.2676 33.3129L42.4653 20.6107C42.9501 16.6375 42.533 12.4151 42.8824 8.43388C43.2453 4.28735 46.5956 0.528133 50.799 0H53.2365ZM57.7027 55.2509L55.0512 8.64512C54.3606 5.18383 49.3988 5.29216 48.9654 8.832C48.5782 12.0035 48.8842 15.9524 48.7759 19.2051C48.44 29.2748 48.0175 39.3852 47.7439 49.4549C47.6925 51.3833 47.8009 53.3251 47.7521 55.2535H41.6609L30.5891 14.4275C29.5978 11.3616 25.5379 11.4781 24.6496 14.571L32.5229 67.4412H27.7508L10.9453 49.7203C7.90378 47.7135 4.63476 51.3886 6.85292 54.2216C14.3633 64.2427 20.996 74.9569 28.501 84.9752C42.6089 103.815 69.5004 101.986 79.4049 80.3114C86.0836 65.6943 90.9832 50.1672 97.5401 35.4824C99.1001 32.124 95.5251 29.0879 92.6298 31.585L78.8252 55.2535H72.7341L79.4373 15.5352C79.6079 11.6839 74.4187 10.9066 73.4004 14.5819L63.5987 55.2535H57.7107L57.7027 55.2509Z" fill="black"/>
<path d="M52.0175 79.6262C50.3346 79.6262 48.9705 78.262 48.9705 76.5793C48.9705 74.8965 50.3346 73.5323 52.0175 73.5323H52.727C53.4475 73.5323 54.7691 72.04 54.9669 71.3061C55.6196 68.8713 53.6073 67.2976 51.3079 67.4439C43.3101 67.9504 39.8163 78.2909 46.2323 83.4829C52.237 88.3397 61.5269 84.8204 65.2446 78.5579C66.1025 77.1129 67.7566 76.1428 69.3773 76.5869C71.0072 77.0334 71.9913 78.7313 71.2713 80.2603C66.1693 91.0973 50.3386 96.2224 41.1487 87.1473C32.0486 78.1609 38.1316 62.2736 50.7012 61.3474C58.2765 60.7895 63.6906 68.056 60.018 74.9326C58.8886 77.045 55.5979 79.6262 53.1361 79.6262H51.0546H52.1366H52.0175Z" fill="black"/>
</g>
<defs>
<clipPath id="clip0_2506_5694">
<rect width="104" height="104" fill="white"/>
</clipPath>
</defs>
</svg>
