<svg width="95" height="92" viewBox="0 0 95 92" fill="none" xmlns="http://www.w3.org/2000/svg">
<g clip-path="url(#clip0_2506_5697)">
<path d="M16.7275 0.00512112C19.4307 -0.0806898 22.0857 0.918149 24.2062 2.53139L50.2388 28.2472C50.7906 28.2472 51.7181 26.7645 52.1215 26.356C57.7349 20.6684 64.293 15.046 70.6272 10.1617C76.9612 5.27734 85.564 -2.18821 92.6566 6.5851C98.47 13.7761 92.1704 20.7302 87.7707 26.4383C82.0814 33.8249 75.713 40.6485 69.0169 47.129L82.2297 60.2822L83.6228 62.4549L92.3704 88.1638C92.9118 90.4498 90.7326 92.427 88.4741 91.8434C80.5264 88.6032 71.096 86.8492 63.3138 83.4648C58.9348 81.5598 55.3178 75.9821 51.6353 72.9375C50.7423 71.4993 50.994 69.5703 52.4525 68.6265C55.7867 66.4674 57.9556 70.7717 60.1692 72.5462L72.6993 60.0865L72.5994 59.5888L64.3414 51.3887C59.2107 56.1288 53.9249 60.6975 48.4355 65.0257C47.5528 65.7226 44.322 67.7992 43.8876 68.4101C43.4531 69.0211 42.5946 72.7076 42.0774 73.9296C37.0605 85.8023 24.7096 92.7668 11.883 91.9327C10.4899 91.8434 7.49361 91.531 6.53506 90.5288C5.5765 89.5265 5.31445 86.8526 5.22481 85.5037C4.29039 71.012 13.5794 56.3108 28.4232 53.6095C29.5507 53.4035 30.423 53.9802 30.8575 52.4665L2.74912 24.2862C-3.91594 15.8321 2.82842 8.64457 9.30382 3.11491C11.3864 1.3369 13.9207 0.0943645 16.7275 0.00512112ZM16.5171 6.33453C16.1068 6.38258 15.3585 6.60913 14.9724 6.78075C13.8587 7.26815 8.65905 12.4339 7.71773 13.6044C4.13177 18.0631 8.31079 20.9602 11.3244 23.8778L24.1097 11.3322C21.7858 9.37567 20.0341 5.92607 16.5171 6.33796V6.33453ZM83.7193 21.5128C85.1467 18.3275 90.0878 15.1285 88.1741 11.2464C87.0535 8.97751 84.4537 8.34251 82.2711 9.48551C80.0886 10.6285 77.9714 12.7532 75.9785 14.0952L83.7193 21.5128ZM34.8399 47.0295C38.1811 42.1177 41.9463 37.4668 45.9668 33.087L37.8949 25.0893L31.7333 30.9795C28.7611 32.4828 25.6958 29.4829 27.4508 26.5172C28.1439 25.3434 33.1539 21.0871 33.24 20.5963L28.5853 15.7806L15.9827 28.5081L34.8399 47.0295ZM70.9063 17.9567C57.5763 29.0023 45.353 41.6852 36.1192 56.3314C36.8985 57.0316 38.0052 57.7696 38.7259 58.4938C39.2431 59.0155 41.3567 61.8508 41.5981 61.9812C41.8015 62.091 41.8188 62.0292 41.9877 61.971C42.4326 61.8199 44.6772 59.9389 45.2668 59.4824C54.5592 52.2914 63.1483 43.9746 71.5167 35.7539V35.3627C70.0927 33.5057 66.2309 31.3432 66.4791 28.7929C66.6963 26.5722 69.0445 25.5184 71.0547 26.3147C72.2304 26.7816 75.544 30.8079 75.875 30.8079L79.461 26.6545L70.9063 17.9567ZM29.0369 59.9354C24.3993 60.4813 18.2756 65.4823 15.724 69.2409C12.5415 73.9296 10.9451 79.9054 11.783 85.5174C20.3548 86.3789 28.9646 82.6891 33.8952 75.6595C35.0227 74.053 37.6915 69.2236 37.3501 67.401C36.9847 65.4548 32.8781 61.4937 31.1298 60.5224C30.3368 60.0797 29.999 59.8222 29.0369 59.9354ZM77.5611 64.4388L64.6517 76.9981L84.1193 83.8218L77.5611 64.4388Z" fill="black"/>
</g>
<defs>
<clipPath id="clip0_2506_5697">
<rect width="95" height="92" fill="white"/>
</clipPath>
</defs>
</svg>
