<svg viewBox="0 0 7 7" fill="none" xmlns="http://www.w3.org/2000/svg">
  <path d="M6.05225 1.87792L3.50017 3.91959L0.948088 1.87792C0.88826 1.83005 0.819587 1.79442 0.745991 1.77308C0.672395 1.75174 0.595317 1.74511 0.519158 1.75356C0.442998 1.76201 0.369249 1.78538 0.30212 1.82233C0.234992 1.85928 0.175799 1.90909 0.127921 1.96892C0.0800432 2.02875 0.0444182 2.09742 0.0230801 2.17102C0.00174206 2.24462 -0.00489129 2.32169 0.00355885 2.39785C0.012009 2.47401 0.0353771 2.54776 0.072329 2.61489C0.109281 2.68202 0.159093 2.74121 0.218921 2.78909L3.13559 5.12242C3.23905 5.20526 3.36763 5.25039 3.50017 5.25039C3.63271 5.25039 3.76129 5.20526 3.86475 5.12242L6.78142 2.78909C6.90225 2.6924 6.97972 2.55166 6.99678 2.39785C7.01385 2.24404 6.96911 2.08975 6.87242 1.96892C6.82454 1.90909 6.76535 1.85928 6.69822 1.82233C6.63109 1.78538 6.55734 1.76201 6.48118 1.75356C6.32737 1.7365 6.17308 1.78123 6.05225 1.87792Z" fill="#FFFAF3"/>
</svg>