<svg width="88" height="88" viewBox="0 0 88 88" fill="none" xmlns="http://www.w3.org/2000/svg">
<g clip-path="url(#clip0_4019_1021)">
<g filter="url(#filter0_d_4019_1021)">
<path d="M28.4153 10.9133H20.6606V17.4913H17.9697V24.8504H20.5376V36.8343C20.5376 36.8343 21.0921 48.6128 34.1982 49.3115C47.4283 48.8182 47.8181 37.1013 47.8181 37.1013V30.1688C47.8181 30.1688 48.4965 25.0558 54.2274 25.4052C59.2401 25.569 59.5277 30.1124 59.5277 30.1124V49.4242H67.4878V29.783C67.4878 29.783 67.1074 21.9714 60.6574 18.7449C54.2066 15.5174 49.0509 19.0535 47.8181 20.1423V10.9125H39.7654V36.0524C39.7654 36.0524 40.3614 41.4999 34.219 41.7877C28.0766 42.0755 28.5288 36.7719 28.5288 36.6904V24.768H38.2276V17.5321H28.4162V10.9133H28.4153Z" fill="white" stroke="white" stroke-width="0.10052" stroke-miterlimit="10"/>
<path d="M67.5735 49.5097H59.4428V30.1122C59.4315 29.9353 59.0997 25.6503 54.2256 25.4907C54.0385 25.4795 53.8548 25.4734 53.6763 25.4734C48.5865 25.4734 47.9099 30.133 47.9038 30.1798V37.101C47.9038 37.1331 47.786 40.0892 46.0438 43.0644C44.435 45.8116 41.0753 49.1404 34.2025 49.397C27.3869 49.0338 24.0125 45.6382 22.3803 42.8537C20.6129 39.8387 20.4544 36.8678 20.4526 36.8384V24.9359H17.8848V17.4061H20.5757V10.8281H28.501V17.4468H38.3125V24.8536H28.6137V36.7118C28.5929 37.0785 28.5582 38.9735 29.8231 40.3103C30.705 41.2413 32.0245 41.7138 33.7451 41.7138C33.8967 41.7138 34.0535 41.7103 34.2146 41.7025C36.1249 41.6132 37.5691 41.0116 38.5065 39.9141C39.9039 38.2791 39.6822 36.0842 39.6796 36.0625V10.8281H47.903V19.9582C48.5978 19.3861 51.3658 17.3324 55.2747 17.3324C57.0993 17.3324 58.9221 17.7823 60.6946 18.6683C67.1152 21.881 67.5683 29.7004 67.5717 29.7793V49.5097H67.5735ZM59.6134 49.339H67.4028V29.7836C67.3993 29.7099 66.9497 21.9885 60.6193 18.8217C58.871 17.947 57.0733 17.5032 55.2756 17.5032C51.0548 17.5032 48.188 19.9296 47.8744 20.207L47.7323 20.3327V10.9989H39.8502V36.053C39.852 36.066 40.0815 38.3346 38.6365 40.0251C37.667 41.1598 36.1821 41.7814 34.2224 41.8733C34.0587 41.8811 33.8993 41.8846 33.7451 41.8846C31.976 41.8846 30.6149 41.3948 29.6992 40.4282C28.4187 39.075 28.4135 37.2345 28.4421 36.7031V24.6828H38.1418V17.6176H28.3304V10.9989H20.7463V17.5769H18.0554V24.7652H20.6233V36.8349C20.625 36.86 20.7827 39.7945 22.531 42.774C24.1424 45.5194 27.4753 48.8682 34.2042 49.2271C37.9451 49.0876 43.0176 47.8904 45.8939 42.9855C47.6171 40.0476 47.734 37.1288 47.7349 37.1002V30.1702C47.7418 30.1104 48.4401 25.3044 53.6781 25.3044C53.8591 25.3044 54.0471 25.3104 54.2351 25.3217C59.2643 25.4864 59.6126 30.0627 59.6152 30.1087V49.3407L59.6134 49.339Z" fill="white" stroke="white" stroke-width="0.10052" stroke-miterlimit="10"/>
<path d="M13.8188 66.436C11.432 66.436 9.72266 64.587 9.72266 62.2914C9.72266 59.9959 11.432 58.1156 13.8188 58.1156C15.7282 58.1156 17.1759 59.194 17.6376 60.9815H15.4666C15.1893 60.4423 14.5578 59.9794 13.8188 59.9794C12.6951 59.9794 11.7863 61.0275 11.7863 62.3062C11.7863 63.5848 12.6951 64.5869 13.8188 64.5869C14.5734 64.5869 15.2205 64.1249 15.4822 63.5701H17.6532C17.1915 65.3732 15.7438 66.436 13.8188 66.436Z" fill="white" stroke="white" stroke-width="0.10052" stroke-miterlimit="10"/>
<path d="M13.8187 66.5217C11.4345 66.5217 9.6377 64.703 9.6377 62.2913C9.6377 59.8796 11.4354 58.0305 13.8187 58.0305C15.7585 58.0305 17.2529 59.1531 17.7199 60.9606L17.7476 61.0672H15.4145L15.3903 61.0213C15.146 60.5454 14.5646 60.066 13.8187 60.066C12.7453 60.066 11.8711 61.0716 11.8711 62.3078C11.8711 63.544 12.7444 64.5027 13.8187 64.5027C14.4832 64.5027 15.1356 64.1048 15.405 63.5344L15.4284 63.4859H17.7632L17.7355 63.5925C17.2651 65.4277 15.8009 66.5226 13.8187 66.5226V66.5217ZM13.8187 58.2013C11.5324 58.2013 9.80837 59.9594 9.80837 62.2913C9.80837 64.6232 11.5324 66.351 13.8187 66.351C15.6796 66.351 17.0632 65.3454 17.5414 63.6558H15.5349C15.2257 64.2574 14.5282 64.6727 13.8187 64.6727C12.6509 64.6727 11.7005 63.6116 11.7005 62.3069C11.7005 61.0022 12.6509 59.8943 13.8187 59.8943C14.6132 59.8943 15.2361 60.3902 15.5176 60.8965H17.5258C17.0441 59.206 15.6666 58.2013 13.8187 58.2013Z" fill="white" stroke="white" stroke-width="0.10052" stroke-miterlimit="10"/>
<path d="M20.5783 63.0775C20.8399 64.0485 21.6101 64.6492 22.5648 64.6492C23.2423 64.6492 23.9042 64.3562 24.243 63.7251H26.414C25.9523 65.3427 24.5505 66.4368 22.5796 66.4368C20.347 66.4368 18.5146 64.5877 18.5146 62.2921C18.5146 59.9966 20.347 58.1172 22.5796 58.1172C24.8122 58.1172 26.8602 59.9351 26.5682 63.0784H20.5783V63.0775ZM24.5514 61.4131C24.3053 60.489 23.5352 59.903 22.5648 59.903C21.5945 59.903 20.9014 60.4881 20.6095 61.4131H24.5514Z" fill="white" stroke="white" stroke-width="0.10052" stroke-miterlimit="10"/>
<path d="M22.5804 66.5217C20.2915 66.5217 18.4297 64.6241 18.4297 62.2913C18.4297 59.9585 20.2915 58.0305 22.5804 58.0305C23.7638 58.0305 24.8268 58.483 25.5745 59.304C26.4235 60.2368 26.7969 61.544 26.654 63.0854L26.647 63.1625H20.6935C20.9707 64.0294 21.6785 64.5634 22.5656 64.5634C23.2743 64.5634 23.8738 64.2349 24.1693 63.6844L24.1935 63.6393H26.5283L26.4972 63.7485C26.0085 65.4598 24.508 66.5226 22.5812 66.5226L22.5804 66.5217ZM22.5804 58.2013C20.3859 58.2013 18.6004 60.0365 18.6004 62.2913C18.6004 64.5461 20.3859 66.351 22.5804 66.351C24.3867 66.351 25.8015 65.38 26.2996 63.8101H24.294C23.9605 64.39 23.3185 64.7342 22.5656 64.7342C21.5615 64.7342 20.7688 64.1083 20.4968 63.0992L20.4673 62.9917H26.4911C26.6106 61.5336 26.2511 60.2992 25.4489 59.4184C24.7333 58.633 23.7153 58.2004 22.5804 58.2004V58.2013ZM24.6622 61.4981H20.4925L20.528 61.3871C20.8347 60.4188 21.6153 59.8181 22.5648 59.8181C23.5671 59.8181 24.3789 60.4353 24.6336 61.3915L24.6622 61.499V61.4981ZM20.7281 61.3273H24.437C24.171 60.4977 23.4632 59.988 22.5648 59.988C21.7288 59.988 21.0348 60.4977 20.729 61.3273H20.7281Z" fill="white" stroke="white" stroke-width="0.10052" stroke-miterlimit="10"/>
<path d="M35.0686 62.014H33.0362V61.6135C33.0362 61.1515 32.8976 60.0418 31.5582 60.0418C30.6494 60.0418 30.0178 60.7197 30.0178 61.6135V66.2514H27.9854V58.3159H29.926V59.0865C30.4345 58.4858 31.1267 58.1156 31.974 58.1156C33.8376 58.1156 35.0695 59.5174 35.0695 61.6135V62.014H35.0686Z" fill="white" stroke="white" stroke-width="0.10052" stroke-miterlimit="10"/>
<path d="M30.1025 66.3371H27.8994V58.2308H30.0107V58.8653C30.5435 58.3183 31.2175 58.0305 31.973 58.0305C33.8755 58.0305 35.1534 59.4704 35.1534 61.6134V62.0997H32.9502V61.6134C32.9502 61.1669 32.8142 60.1275 31.5571 60.1275C30.7142 60.1275 30.1025 60.7526 30.1025 61.6134V66.3362V66.3371ZM28.0701 66.1663H29.9319V61.6143C29.9319 60.6537 30.6154 59.9568 31.5571 59.9568C32.9684 59.9568 33.1209 61.1158 33.1209 61.6143V61.9298H34.9827V61.6143C34.9827 59.5736 33.7733 58.2022 31.973 58.2022C31.1959 58.2022 30.5106 58.5272 29.9908 59.1427L29.84 59.3205V58.4024H28.0701V66.1672V66.1663Z" fill="white" stroke="white" stroke-width="0.10052" stroke-miterlimit="10"/>
<path d="M44.122 66.2512H42.1822V65.4042C41.5663 66.0509 40.719 66.4211 39.7495 66.4211C37.6859 66.4211 35.9766 64.6336 35.9766 62.2912C35.9766 59.9489 37.6859 58.1466 39.7495 58.1466C40.7198 58.1466 41.5663 58.5159 42.1822 59.1635V58.3157H44.122V66.2512ZM40.0571 60.026C38.9326 60.026 38.0246 61.0126 38.0246 62.3068C38.0246 63.6011 38.9334 64.5408 40.0571 64.5408C41.1807 64.5408 42.0895 63.5387 42.0895 62.3068C42.0895 61.075 41.1807 60.026 40.0571 60.026Z" fill="white" stroke="white" stroke-width="0.10052" stroke-miterlimit="10"/>
<path d="M39.7495 66.506C37.5862 66.506 35.8916 64.6544 35.8916 62.2912C35.8916 59.9281 37.5862 58.0616 39.7495 58.0616C40.6461 58.0616 41.4718 58.3789 42.0973 58.9597V58.2307H44.2077V66.337H42.0973V65.6088C41.4718 66.1896 40.6461 66.5069 39.7495 66.5069V66.506ZM39.7495 58.2316C37.6815 58.2316 36.0623 60.0148 36.0623 62.2903C36.0623 64.5659 37.6823 66.3344 39.7495 66.3344C40.6704 66.3344 41.5125 65.9824 42.1207 65.3435L42.2679 65.1892V66.1645H44.037V58.3997H42.2679V59.3759L42.1207 59.2215C41.5134 58.5826 40.6713 58.2316 39.7495 58.2316ZM40.057 64.6258C38.8692 64.6258 37.9388 63.6072 37.9388 62.3059C37.9388 61.0047 38.8692 59.9402 40.057 59.9402C41.2448 59.9402 42.1752 61.0013 42.1752 62.3059C42.1752 63.6106 41.2249 64.6258 40.057 64.6258ZM40.057 60.111C38.9654 60.111 38.1095 61.075 38.1095 62.3059C38.1095 63.5369 38.9645 64.455 40.057 64.455C41.1495 64.455 42.0046 63.491 42.0046 62.3059C42.0046 61.1209 41.1313 60.111 40.057 60.111Z" fill="white" stroke="white" stroke-width="0.10052" stroke-miterlimit="10"/>
<path d="M58.1498 66.2514H56.1174V61.6135C56.1174 61.1515 55.9632 60.0418 54.6394 60.0418C53.7306 60.0418 53.0999 60.7197 53.0999 61.6135V66.2514H51.0518V61.6135C51.0518 61.1515 50.9132 60.0418 49.5738 60.0418C48.6806 60.0418 48.049 60.7197 48.049 61.6135V66.2514H46.001V58.3159H47.9563V59.0865C48.4493 58.4858 49.1424 58.1156 50.0044 58.1156C50.9903 58.1156 51.822 58.5317 52.3756 59.24C52.9448 58.5464 53.7765 58.1156 54.7936 58.1156C56.9187 58.1156 58.1507 59.533 58.1507 61.6135V66.2514H58.1498Z" fill="white" stroke="white" stroke-width="0.10052" stroke-miterlimit="10"/>
<path d="M58.2354 66.3371H56.0323V61.6143C56.0323 61.1678 55.8963 60.1284 54.6392 60.1284C53.7962 60.1284 53.1846 60.7534 53.1846 61.6143V66.3371H50.9659V61.6143C50.9659 61.1678 50.8299 60.1284 49.5728 60.1284C48.7385 60.1284 48.1338 60.7534 48.1338 61.6143V66.3371H45.915V58.2308H48.0411V58.861C48.5617 58.3166 49.2358 58.0305 50.0042 58.0305C50.9572 58.0305 51.795 58.412 52.3772 59.1063C52.9862 58.4111 53.8396 58.0305 54.7934 58.0305C56.9168 58.0305 58.2354 59.4037 58.2354 61.6134V66.3362V66.3371ZM56.203 66.1663H58.0647V61.6143C58.0647 59.5094 56.8111 58.2022 54.7934 58.2022C53.856 58.2022 53.0209 58.5905 52.4421 59.2953L52.3746 59.3777L52.3087 59.2936C51.7577 58.5897 50.9399 58.2022 50.0042 58.2022C49.2115 58.2022 48.5262 58.5272 48.022 59.1419L47.8704 59.3265V58.4033H46.0857V66.168H47.9631V61.616C47.9631 60.6555 48.6406 59.9585 49.5728 59.9585C51.0239 59.9585 51.1365 61.2268 51.1365 61.616V66.168H53.0139V61.616C53.0139 60.6555 53.6975 59.9585 54.6392 59.9585C56.0903 59.9585 56.203 61.2268 56.203 61.616V66.168V66.1663Z" fill="white" stroke="white" stroke-width="0.10052" stroke-miterlimit="10"/>
<path d="M62.0149 57.453H59.9824V55.558H62.0149V57.453ZM62.0149 66.2511H59.9824V58.3156H62.0149V66.2511Z" fill="white" stroke="white" stroke-width="0.10052" stroke-miterlimit="10"/>
<path d="M62.0996 66.3372H59.8965V58.2309H62.0996V66.3372ZM60.0672 66.1664H61.9298V58.4016H60.0672V66.1664ZM62.0996 57.5391H59.8965V55.4733H62.0996V57.5391ZM60.0672 57.3683H61.9298V55.644H60.0672V57.3683Z" fill="white" stroke="white" stroke-width="0.10052" stroke-miterlimit="10"/>
<path d="M67.557 66.436C65.1702 66.436 63.4609 64.587 63.4609 62.2914C63.4609 59.9959 65.1702 58.1156 67.557 58.1156C69.4665 58.1156 70.9142 59.194 71.3759 60.9815H69.2048C68.9276 60.4423 68.296 59.9794 67.557 59.9794C66.4325 59.9794 65.5246 61.0275 65.5246 62.3062C65.5246 63.5848 66.4334 64.5869 67.557 64.5869C68.3116 64.5869 68.9579 64.1249 69.2196 63.5701H71.3915C70.9297 65.3732 69.4821 66.436 67.557 66.436Z" fill="white" stroke="white" stroke-width="0.10052" stroke-miterlimit="10"/>
<path d="M67.5578 66.5217C65.1737 66.5217 63.376 64.703 63.376 62.2913C63.376 59.8796 65.1737 58.0305 67.5578 58.0305C69.4967 58.0305 70.9921 59.1531 71.459 60.9606L71.4868 61.0672H69.1528L69.1294 61.0213C68.8851 60.5454 68.3046 60.066 67.5578 60.066C66.4836 60.066 65.6103 61.0716 65.6103 62.3078C65.6103 63.544 66.4836 64.5027 67.5578 64.5027C68.2232 64.5027 68.8747 64.1048 69.1433 63.5344L69.1667 63.4859H71.5023L71.4755 63.5925C71.0051 65.4277 69.5409 66.5226 67.5587 66.5226L67.5578 66.5217ZM67.5578 58.2013C65.2715 58.2013 63.5466 59.9594 63.5466 62.2913C63.5466 64.6232 65.2707 66.351 67.5578 66.351C69.4188 66.351 70.8023 65.3454 71.2806 63.6558H69.2732C68.9639 64.2574 68.2674 64.6727 67.5578 64.6727C66.39 64.6727 65.4396 63.6116 65.4396 62.3069C65.4396 61.0022 66.39 59.8943 67.5578 59.8943C68.3523 59.8943 68.9752 60.3902 69.2568 60.8965H71.265C70.7833 59.206 69.4049 58.2013 67.5578 58.2013Z" fill="white" stroke="white" stroke-width="0.10052" stroke-miterlimit="10"/>
<path d="M75.9331 66.436C73.9163 66.436 72.4227 65.3732 72.1758 63.6628H74.2394C74.5167 64.3408 75.3328 64.5869 75.9331 64.5869C76.7492 64.5869 77.3652 64.3408 77.3652 63.8787C77.3652 63.4166 77.088 63.2467 75.7018 63.0309C74.2853 62.815 72.3906 62.4301 72.3906 60.6582C72.3906 59.4099 73.484 58.1156 75.7789 58.1156C77.5957 58.1156 78.9507 59.1021 79.2132 60.5966H77.1036C76.9806 60.2274 76.5344 59.9343 75.7798 59.9343C74.8407 59.9343 74.4552 60.2733 74.4552 60.5663C74.4552 60.9824 75.0399 61.1211 76.0258 61.2746C77.9968 61.5979 79.4133 62.0296 79.4133 63.7547C79.4133 65.3264 77.9665 66.436 75.9331 66.436Z" fill="white" stroke="white" stroke-width="0.10052" stroke-miterlimit="10"/>
<path d="M75.9334 66.5217C73.8489 66.5217 72.3406 65.4043 72.092 63.6749L72.0781 63.5769H74.2977L74.3194 63.6298C74.5654 64.2314 75.3079 64.501 75.9343 64.501C76.7521 64.501 77.2814 64.2565 77.2814 63.8777C77.2814 63.5266 77.1246 63.3376 75.6899 63.1148C74.5082 62.9345 72.3068 62.5999 72.3068 60.6581C72.3068 59.3924 73.3941 58.0305 75.78 58.0305C77.6453 58.0305 79.0263 59.0318 79.2983 60.5818L79.3156 60.6815H77.0423L77.0233 60.6234C76.8994 60.2506 76.4229 60.0192 75.78 60.0192C74.9284 60.0192 74.5412 60.3026 74.5412 60.5653C74.5412 60.8947 75.0454 61.0343 76.04 61.1895C77.9329 61.4998 79.4993 61.9073 79.4993 63.7546C79.4993 65.3835 78.0334 66.5209 75.9343 66.5209L75.9334 66.5217ZM72.2765 63.7485C72.5546 65.3332 73.9789 66.351 75.9334 66.351C77.8879 66.351 79.3286 65.2838 79.3286 63.7555C79.3286 62.2271 78.1634 61.7122 76.0122 61.3594C75.0506 61.2094 74.3705 61.0646 74.3705 60.5662C74.3705 60.209 74.8063 59.8484 75.78 59.8484C76.4775 59.8484 76.9886 60.0946 77.1636 60.5107H79.1112C78.8131 59.1037 77.5179 58.2004 75.7809 58.2004C73.5119 58.2004 72.4784 59.4739 72.4784 60.6572C72.4784 62.235 74.0352 62.6892 75.7168 62.9458C77.096 63.1599 77.4521 63.3524 77.4521 63.8777C77.4521 64.3675 76.8708 64.6718 75.9343 64.6718C75.3165 64.6718 74.4987 64.4282 74.1842 63.7477H72.2765V63.7485Z" fill="white" stroke="white" stroke-width="0.10052" stroke-miterlimit="10"/>
<path d="M29.7344 73.0352C29.6564 72.9346 29.5473 72.8497 29.4061 72.782C29.2648 72.7144 29.1219 72.6806 28.9781 72.6806C28.8923 72.6806 28.8074 72.691 28.7216 72.7127C28.6367 72.7344 28.5588 72.7673 28.4886 72.8115C28.4184 72.8566 28.3612 72.9147 28.3171 72.9866C28.272 73.0586 28.2503 73.1453 28.2503 73.2458C28.2503 73.3386 28.2694 73.4183 28.3084 73.4842C28.3474 73.5501 28.4002 73.6065 28.4687 73.6533C28.5362 73.7001 28.6194 73.7408 28.7156 73.7755C28.8126 73.8102 28.9192 73.8457 29.0353 73.8804C29.1669 73.9229 29.3038 73.9714 29.445 74.026C29.5863 74.0798 29.7162 74.1517 29.8349 74.241C29.9527 74.3303 30.0506 74.443 30.126 74.5791C30.2014 74.7152 30.2395 74.8834 30.2395 75.0854C30.2395 75.3064 30.1988 75.4998 30.1173 75.6645C30.0359 75.8292 29.9276 75.9661 29.7916 76.0745C29.6556 76.1829 29.497 76.2652 29.3142 76.319C29.1314 76.3736 28.94 76.4005 28.7381 76.4005C28.4704 76.4005 28.2088 76.351 27.9523 76.2522C27.6967 76.1534 27.4871 76.0069 27.3242 75.8127L27.8475 75.3238C27.948 75.4633 28.0831 75.5743 28.2521 75.6558C28.421 75.7373 28.5865 75.778 28.7494 75.778C28.8343 75.778 28.9218 75.7676 29.011 75.746C29.1002 75.7243 29.1808 75.6887 29.2527 75.6385C29.3246 75.5882 29.3827 75.5249 29.4277 75.4495C29.4719 75.3741 29.4944 75.2796 29.4944 75.1669C29.4944 75.0542 29.4693 74.9684 29.4191 74.8964C29.3688 74.8244 29.3004 74.7629 29.2155 74.71C29.1297 74.658 29.0292 74.6121 28.9131 74.573C28.797 74.534 28.6749 74.4933 28.5466 74.4508C28.4228 74.4118 28.298 74.365 28.1741 74.3112C28.0502 74.2566 27.9385 74.1855 27.8397 74.0954C27.7409 74.0061 27.6604 73.8969 27.598 73.7668C27.5356 73.6368 27.5053 73.4747 27.5053 73.2805C27.5053 73.0707 27.5486 72.8904 27.6361 72.7387C27.7236 72.5879 27.838 72.4622 27.9792 72.3633C28.1204 72.2645 28.2815 72.1908 28.4617 72.1423C28.6419 72.0937 28.8256 72.0695 29.0119 72.0695C29.2215 72.0695 29.4338 72.1067 29.6486 72.1804C29.8635 72.2541 30.0515 72.3651 30.21 72.5124L29.7327 73.036L29.7344 73.0352Z" fill="white" stroke="white" stroke-width="0.10052" stroke-miterlimit="10"/>
<path d="M31.2061 72.1732H31.9394V76.2953H31.2061V72.1732Z" fill="white" stroke="white" stroke-width="0.10052" stroke-miterlimit="10"/>
<path d="M33.0791 72.1732H34.0511L35.9649 75.2585H35.9762V72.1732H36.7091V76.2953H35.7778L33.8233 73.1103H33.812V76.2953H33.0791V72.1732Z" fill="white" stroke="white" stroke-width="0.10052" stroke-miterlimit="10"/>
<path d="M40.8232 73.139C40.7149 72.9916 40.5728 72.8841 40.3987 72.8156C40.2237 72.748 40.0539 72.7142 39.8867 72.7142C39.6735 72.7142 39.4795 72.7532 39.3045 72.8304C39.1295 72.9075 38.9796 73.015 38.854 73.1502C38.7284 73.2863 38.6313 73.445 38.5629 73.6279C38.4953 73.8108 38.4615 74.0085 38.4615 74.2217C38.4615 74.4471 38.4944 74.6526 38.5603 74.8389C38.6261 75.0253 38.7206 75.1857 38.8427 75.3192C38.9649 75.4536 39.1113 75.5576 39.2819 75.6304C39.4526 75.7041 39.6441 75.7414 39.8581 75.7414C40.0721 75.7414 40.2748 75.6972 40.4455 75.6105C40.6161 75.5229 40.7539 75.4076 40.8587 75.2637L41.4461 75.6772C41.2633 75.9061 41.0406 76.0838 40.7773 76.2095C40.513 76.3352 40.2055 76.3985 39.852 76.3985C39.5297 76.3985 39.2343 76.3447 38.9649 76.239C38.6954 76.1323 38.4632 75.9824 38.2692 75.7908C38.0751 75.5983 37.9235 75.3695 37.8152 75.1033C37.7069 74.8372 37.6523 74.5433 37.6523 74.2217C37.6523 73.9001 37.7095 73.5941 37.8239 73.328C37.9382 73.0618 38.095 72.8364 38.2952 72.65C38.4953 72.4637 38.7309 72.3198 39.0021 72.2192C39.2733 72.1186 39.5687 72.0684 39.8867 72.0684C40.0183 72.0684 40.1561 72.0814 40.2999 72.1065C40.4437 72.1316 40.5815 72.1706 40.7132 72.2227C40.8448 72.2755 40.9687 72.3406 41.0857 72.4177C41.2018 72.4957 41.3005 72.5885 41.382 72.6969L40.8232 73.139Z" fill="white" stroke="white" stroke-width="0.10052" stroke-miterlimit="10"/>
<path d="M42.1318 72.1732H44.8608V72.8139H42.8648V73.8619H44.756V74.4792H42.8648V75.6434H44.9648V76.2953H42.1318V72.1732Z" fill="white" stroke="white" stroke-width="0.10052" stroke-miterlimit="10"/>
<path d="M48.7704 73.0228L47.956 73.692L47.5488 73.2092L48.8345 72.1732H49.4687V76.2953H48.7704V73.0236V73.0228Z" fill="white" stroke="white" stroke-width="0.10052" stroke-miterlimit="10"/>
<path d="M51.9065 76.2944L52.9652 74.7634L52.9591 74.7573C52.9011 74.7842 52.83 74.8042 52.7469 74.8154C52.6637 74.8267 52.5866 74.8328 52.5173 74.8328C52.3345 74.8328 52.1647 74.799 52.0053 74.7313C51.8458 74.6637 51.7064 74.5701 51.5859 74.4522C51.4655 74.3343 51.372 74.1939 51.3035 74.0326C51.2359 73.8714 51.2021 73.698 51.2021 73.5116C51.2021 73.294 51.2411 73.0964 51.3182 72.9178C51.3953 72.7392 51.501 72.5866 51.6353 72.461C51.7696 72.3353 51.9282 72.2373 52.1127 72.1697C52.2972 72.1021 52.4939 72.0674 52.7035 72.0674C52.9132 72.0674 53.1159 72.1029 53.2996 72.1749C53.4841 72.2468 53.6435 72.3465 53.7795 72.4748C53.9156 72.6031 54.0213 72.7531 54.0966 72.9256C54.172 73.0981 54.2101 73.2836 54.2101 73.4813C54.2101 73.5974 54.2006 73.7075 54.1815 73.8098C54.1616 73.913 54.1339 74.0118 54.0975 74.1063C54.0602 74.2017 54.0161 74.2979 53.9641 74.3941C53.9121 74.4912 53.8523 74.5918 53.7865 74.6967L52.7564 76.2917H51.9065V76.2944ZM53.5006 73.4648C53.5006 73.3565 53.4824 73.2533 53.4451 73.1562C53.4079 73.0591 53.355 72.9733 53.2849 72.897C53.2147 72.8216 53.1315 72.7609 53.0345 72.7167C52.9375 72.6725 52.8292 72.6499 52.7087 72.6499C52.4722 72.6499 52.2808 72.7262 52.1361 72.8797C51.9905 73.0331 51.9178 73.2316 51.9178 73.4761C51.9178 73.5922 51.9359 73.6997 51.9732 73.7986C52.0105 73.8974 52.0633 73.9823 52.1335 74.0517C52.2037 74.1219 52.286 74.1765 52.3804 74.2173C52.4757 74.258 52.5814 74.278 52.6975 74.278C52.8136 74.278 52.9219 74.2589 53.0206 74.2199C53.1194 74.1809 53.2052 74.1263 53.2762 74.0543C53.3481 73.9823 53.4035 73.8965 53.4417 73.7951C53.4806 73.6945 53.4997 73.5836 53.4997 73.4631L53.5006 73.4648Z" fill="white" stroke="white" stroke-width="0.10052" stroke-miterlimit="10"/>
<path d="M56.4825 72.0684C56.661 72.0684 56.8291 72.0935 56.9876 72.1438C57.1462 72.1941 57.2848 72.2686 57.4026 72.3648C57.5204 72.4619 57.6131 72.579 57.6816 72.7168C57.7491 72.8546 57.7829 73.0107 57.7829 73.1858C57.7829 73.4268 57.7231 73.6262 57.6045 73.7857C57.4849 73.9452 57.3333 74.0553 57.1488 74.1177V74.1298C57.257 74.1567 57.3584 74.2009 57.4511 74.2607C57.5447 74.3214 57.6261 74.3942 57.6954 74.4818C57.7647 74.5693 57.8202 74.6673 57.8609 74.7757C57.9016 74.884 57.9224 75.0028 57.9224 75.1311C57.9224 75.3365 57.8843 75.5186 57.8089 75.6755C57.7335 75.8324 57.6304 75.9659 57.5005 76.0743C57.3705 76.1826 57.2181 76.265 57.0439 76.3187C56.8698 76.3733 56.6835 76.4002 56.4851 76.4002C56.2867 76.4002 56.1013 76.3733 55.9263 76.3187C55.7522 76.265 55.5997 76.1826 55.4698 76.0743C55.3398 75.9659 55.2367 75.8324 55.1613 75.6755C55.086 75.5186 55.0479 75.3365 55.0479 75.1311C55.0479 74.9993 55.0686 74.8771 55.112 74.7644C55.1544 74.6517 55.2116 74.5529 55.2835 74.4679C55.3554 74.383 55.4377 74.3119 55.5313 74.2555C55.624 74.1992 55.721 74.1576 55.8224 74.1307V74.1186C55.6361 74.0527 55.4828 73.946 55.3623 73.7987C55.2419 73.6513 55.1821 73.4571 55.1821 73.2161C55.1821 73.0419 55.2159 72.8832 55.2835 72.7419C55.3511 72.6006 55.4438 72.4801 55.5625 72.3813C55.6803 72.2825 55.818 72.2053 55.9748 72.1516C56.1317 72.097 56.3015 72.0701 56.4825 72.0701V72.0684ZM56.4851 74.4202C56.3846 74.4202 56.2902 74.4376 56.2027 74.4731C56.1152 74.5078 56.0398 74.5555 55.9757 74.6162C55.9116 74.6768 55.8614 74.7505 55.8241 74.8381C55.7868 74.9256 55.7687 75.0219 55.7687 75.1276C55.7687 75.3461 55.8362 75.5151 55.9722 75.6365C56.1083 75.7579 56.2789 75.8177 56.4843 75.8177C56.6896 75.8177 56.8551 75.757 56.9902 75.6365C57.1262 75.516 57.1938 75.3461 57.1938 75.1276C57.1938 75.0262 57.1756 74.9317 57.1384 74.8441C57.1011 74.7566 57.0509 74.6812 56.9876 74.6188C56.9235 74.5563 56.8481 74.5078 56.7606 74.4723C56.6731 74.4367 56.5813 74.4194 56.4843 74.4194L56.4851 74.4202ZM56.4851 72.6509C56.311 72.6509 56.168 72.7029 56.0571 72.8069C55.9471 72.911 55.8917 73.0523 55.8917 73.23C55.8917 73.3956 55.9454 73.5369 56.0519 73.653C56.1585 73.7692 56.3032 73.8264 56.4851 73.8264C56.5666 73.8264 56.6437 73.8108 56.7182 73.7805C56.7918 73.7493 56.8559 73.7068 56.9105 73.653C56.9642 73.5993 57.0075 73.5351 57.0387 73.4623C57.0699 73.3886 57.0855 73.3115 57.0855 73.2309C57.0855 73.1416 57.069 73.0618 57.0361 72.9907C57.0032 72.9188 56.9582 72.8581 56.9018 72.8078C56.8455 72.7575 56.7814 72.7194 56.7095 72.6917C56.6376 72.6648 56.5631 72.6518 56.4851 72.6518V72.6509Z" fill="white" stroke="white" stroke-width="0.10052" stroke-miterlimit="10"/>
<path d="M61.4313 72.8017H59.7497L59.709 73.6929C59.7748 73.6738 59.8537 73.6599 59.9446 73.6521C60.0356 73.6443 60.1179 73.6409 60.1924 73.6409C60.3943 73.6409 60.5814 73.6703 60.7538 73.7284C60.9262 73.7865 61.077 73.8706 61.2043 73.9816C61.3325 74.0916 61.4322 74.2278 61.5041 74.389C61.576 74.5502 61.6115 74.7358 61.6115 74.9447C61.6115 75.1735 61.5716 75.3781 61.4919 75.5593C61.4122 75.7396 61.3048 75.8922 61.1688 76.0162C61.0328 76.1401 60.8742 76.2355 60.6914 76.3014C60.5086 76.3672 60.3154 76.4002 60.1092 76.4002C59.7636 76.4002 59.4733 76.3196 59.2368 76.1583C59.0003 75.9971 58.827 75.7769 58.7188 75.4978L59.3529 75.2646C59.411 75.4275 59.508 75.5584 59.644 75.6573C59.78 75.7561 59.9412 75.8055 60.1274 75.8055C60.2323 75.8055 60.331 75.7882 60.4237 75.7535C60.5164 75.7188 60.5979 75.6677 60.668 75.6018C60.7373 75.5359 60.7928 75.4535 60.8335 75.3547C60.8742 75.2559 60.895 75.1441 60.895 75.0201C60.895 74.8606 60.8682 74.7288 60.8136 74.6239C60.759 74.519 60.6888 74.4349 60.6013 74.3708C60.5138 74.3066 60.4159 74.2624 60.3076 74.2373C60.1993 74.2121 60.0885 74.1991 59.9758 74.1991C59.8979 74.1991 59.8155 74.2052 59.7289 74.2165C59.6414 74.2278 59.5565 74.2442 59.4733 74.2659C59.3902 74.2876 59.3087 74.3118 59.229 74.3387C59.1493 74.3656 59.0792 74.3951 59.0168 74.4263L59.0869 72.1732H61.4313V72.8017Z" fill="white" stroke="white" stroke-width="0.10052" stroke-miterlimit="10"/>
<path d="M9.44336 73.4428V75.2164H21.8486V73.4428H9.44336Z" fill="white" stroke="white" stroke-width="0.10052" stroke-miterlimit="10"/>
<path d="M66.8145 73.4428V75.2164H79.2197V73.4428H66.8145Z" fill="white" stroke="white" stroke-width="0.10052" stroke-miterlimit="10"/>
</g>
<path d="M87.3822 0.563354H0.563477V87.4364H87.3822V0.563354Z" stroke="white" stroke-width="1.30676" stroke-miterlimit="10"/>
</g>
<defs>
<filter id="filter0_d_4019_1021" x="9.092" y="10.4763" width="72.1666" height="67.688" filterUnits="userSpaceOnUse" color-interpolation-filters="sRGB">
<feFlood flood-opacity="0" result="BackgroundImageFix"/>
<feColorMatrix in="SourceAlpha" type="matrix" values="0 0 0 0 0 0 0 0 0 0 0 0 0 0 0 0 0 0 127 0" result="hardAlpha"/>
<feOffset dx="0.703638" dy="0.703638"/>
<feGaussianBlur stdDeviation="0.502598"/>
<feColorMatrix type="matrix" values="0 0 0 0 0.968627 0 0 0 0 0.972549 0 0 0 0 0.976471 0 0 0 0.75 0"/>
<feBlend mode="normal" in2="BackgroundImageFix" result="effect1_dropShadow_4019_1021"/>
<feBlend mode="normal" in="SourceGraphic" in2="effect1_dropShadow_4019_1021" result="shape"/>
</filter>
<clipPath id="clip0_4019_1021">
<rect width="87.945" height="88" fill="white"/>
</clipPath>
</defs>
</svg>
