<svg width="16" height="16" viewBox="0 0 16 16" fill="none" xmlns="http://www.w3.org/2000/svg">
<path fill-rule="evenodd" clip-rule="evenodd" d="M5.7376 9.0672L8.0016 10.6152L10.184 9.1096L15.076 13.936C14.9469 13.9781 14.8104 13.9995 14.6664 14H1.3336C1.1576 14 0.9896 13.9656 0.8352 13.904L5.7376 9.0672ZM16 5.1008V12.6664C16 12.864 15.9568 13.0512 15.88 13.22L11.0848 8.4888L16 5.1008ZM0 5.1432L4.8336 8.4488L0.0848 13.1352C0.0291702 12.9851 0.000463194 12.8264 0 12.6664L0 5.1432ZM14.6664 2C15.4024 2 16 2.5968 16 3.3336V3.8024L7.9984 9.3184L0 3.848V3.3336C0 2.5976 0.5968 2 1.3336 2H14.6664Z" fill="white"/>
</svg>
