<svg width="49" height="58" viewBox="0 0 49 58" fill="none" xmlns="http://www.w3.org/2000/svg">
<path d="M47.3612 29.3267H1.5V56.2542H47.3612V29.3267Z" stroke="#C76E00" stroke-width="3" stroke-linejoin="round"/>
<path d="M23.8632 38.5464H24.9973C28.8077 38.5464 31.8923 41.6704 31.8923 45.4954V56.2542H16.9531V45.4954C16.9531 41.6552 20.0529 38.5464 23.8482 38.5464H23.8632Z" stroke="#C76E00" stroke-width="3" stroke-linejoin="round"/>
<path d="M24.4229 11.8779C13.8838 11.8779 5.06839 19.3451 2.78516 29.342H46.0608C43.7775 19.3451 34.9621 11.8779 24.4229 11.8779Z" stroke="#C76E00" stroke-width="3" stroke-linejoin="round"/>
<path d="M31.9685 12.9293C31.5451 9.08906 28.3545 6.10217 24.4232 6.10217C20.4918 6.10217 17.3164 9.08906 16.8779 12.9293C19.2368 12.0607 21.777 11.5883 24.4232 11.5883C27.0693 11.5883 29.6096 12.0607 31.9685 12.9293Z" stroke="#C76E00" stroke-width="3" stroke-miterlimit="10"/>
<path d="M24.4238 6.1022V1.5" stroke="#C76E00" stroke-width="3" stroke-linecap="round" stroke-linejoin="round"/>
</svg>
