<svg width="430" height="668" viewBox="0 0 430 668" fill="none" xmlns="http://www.w3.org/2000/svg">
<g opacity="0.2">
<path d="M76.5015 475.435L77.0978 475.69C77.1946 475.597 77.2905 475.546 77.3977 475.463C77.102 475.479 76.7967 475.441 76.5015 475.435Z" fill="#C76E00"/>
<path d="M107.573 324.503L106.273 323.949C106.65 324.125 107.069 324.324 107.573 324.503Z" fill="#C76E00"/>
<path d="M144.947 348.733C148.881 351.316 153.159 350.998 157.356 349.908C157.916 349.39 158.721 349.321 159.675 348.674C161.089 347.708 162.424 346.487 163.608 344.893C163.999 344.372 164.62 343.464 164.936 342.413C167.03 335.403 164.2 328.274 157.186 325.271C154.586 324.162 151.956 324.015 148.966 323.967C148.49 323.968 147.921 324.391 147.161 324.333C142.961 326.069 138.824 328.927 137.774 333.96C136.513 340.003 139.958 345.463 144.936 348.743L144.947 348.733ZM147.161 328.108C151.361 326.351 155.624 327.83 159.25 330.545C161.552 332.271 162.483 335.44 162.298 337.9C162.055 341.077 160.38 343.476 157.782 345.497C153.745 348.631 147.858 347.469 144.095 343.641C141.525 341.032 140.643 338.023 141.133 335.189C141.693 331.954 144.049 329.378 147.161 328.087L147.161 328.108Z" fill="#C76E00"/>
<path d="M105.664 329.806C102.875 328.609 100.055 328.458 96.853 328.406C96.3457 328.396 95.734 328.86 94.9316 328.802C90.4336 330.658 85.9963 333.721 84.8645 339.123C83.5 345.598 87.2012 351.454 92.5451 354.963C96.7617 357.731 101.346 357.388 105.841 356.219C106.434 355.67 107.302 355.581 108.32 354.893C109.842 353.866 111.263 352.541 112.534 350.842C112.947 350.28 113.632 349.31 113.96 348.185C116.191 340.67 113.17 333.02 105.653 329.816L105.664 329.806ZM111.169 343.362C110.922 346.772 109.117 349.337 106.325 351.502C101.998 354.874 95.68 353.608 91.6479 349.522C88.9012 346.73 87.9392 343.507 88.4749 340.462C89.0716 337.006 91.6107 334.234 94.9259 332.851C99.4352 330.962 103.992 332.553 107.889 335.463C110.358 337.32 111.359 340.712 111.159 343.351L111.169 343.362Z" fill="#C76E00"/>
<path d="M3.38402 443.875C5.36218 443.279 6.46218 442.18 6.94809 440.054C9.65665 428.14 -0.378036 413.194 -8.93418 404.769C-4.9071 404.816 -1.364 404.209 1.29112 401.45C4.36736 398.243 4.51364 393.499 2.12307 389.805C-1.2214 384.622 -6.77296 381.996 -12.8672 381.157L-40.618 377.333C-45.6579 376.642 -50.4707 375.691 -55.5509 375.972C-60.5465 376.254 -63.5934 380.655 -63.2768 385.514C-62.9614 390.436 -61.9846 395.055 -61.2556 399.911C-60.4214 405.33 -59.8362 410.511 -59.4364 415.974C-59.1139 420.537 -58.6726 424.965 -57.852 429.464C-56.9643 434.313 -54.037 438.674 -50.0814 441.278C-46.3451 443.741 -42.204 443.368 -38.57 440.828C-35.2145 438.473 -34.1913 434.296 -34.1109 429.678C-24.5257 437.923 -18.1082 443.282 -5.92842 444.865C-2.71201 445.277 0.310446 444.797 3.36286 443.874L3.38402 443.875ZM-21.9954 435.594C-30.3118 430.567 -35.4099 421.554 -37.3657 422.086C-41.0965 423.102 -33.4031 435.073 -41.8526 438.945C-45.7468 440.74 -50.6365 437.789 -52.7108 433.604C-54.8456 429.269 -55.4809 424.489 -55.7859 419.577C-56.4526 408.337 -58.3328 397.516 -59.8486 386.449C-60.1361 384.402 -59.3858 382.271 -58.4122 381.148C-57.0709 379.61 -55.2287 378.938 -53.0454 379.203L-19.3098 383.515C-14.2691 384.164 -9.5781 384.859 -5.16664 387.399C-0.45224 390.124 1.9675 396.631 -1.17751 399.572C-5.88383 403.951 -14.1738 399.189 -15.0771 401.571C-15.8792 403.649 -13.7019 405.288 -12.3091 406.499C-3.47519 414.243 3.70489 424.365 4.03829 436.424C4.11843 439.333 2.40163 441.149 -0.564108 441.429C-8.06341 442.148 -15.2561 439.649 -21.9846 435.583L-21.9954 435.594Z" fill="#C76E00"/>
<path d="M20.9301 440.45C20.8565 440.374 20.7939 440.287 20.7422 440.189C20.7308 440.221 20.7829 440.297 20.9301 440.45Z" fill="#C76E00"/>
<path d="M30.3223 482.464C33.132 484.2 34.4461 489.946 38.005 492.828C42.4944 490.876 26.9536 469.383 23.2602 469.036C22.2517 475.148 28.5162 477.544 29.0302 480.969C29.6104 481.033 29.6016 482.016 30.3223 482.464Z" fill="#C76E00"/>
<path d="M-31.3118 552.232C-34.9646 556.262 -34.8183 561.72 -32.1037 566.14C-26.8478 574.648 -14.812 573.881 -6.15291 570.637C-5.51915 574.424 -4.30597 577.778 -1.173 579.742C5.68763 584.075 14.1105 575.645 17.8231 570.728C27.4943 557.968 32.7098 540.616 33.0038 524.615C33.225 511.774 31.5423 498.981 25.6807 487.405C22.6786 481.478 19.4477 480.727 20.5019 483.032C24.0707 490.777 27.4369 498.614 28.7611 507.066C29.5783 512.273 29.5564 517.147 29.5861 522.613C29.6388 532.288 27.8199 541.439 24.8194 550.462C22.5937 557.184 18.9142 563.106 14.9827 568.939C12.2823 572.924 5.99853 578.488 1.35739 576.874C-4.08193 574.991 -1.29308 568.66 -2.88149 567.181C-3.44217 566.662 -4.27885 566.202 -5.21717 566.606C-11.8289 569.499 -21.8593 571.511 -27.5478 566.177C-31.4407 562.537 -31.8712 556.481 -27.7241 553.117C-25.9945 551.723 -21.1903 550.962 -21.6489 549.018C-22.3809 545.927 -35.7696 544.532 -33.1831 530.765C-32.9107 529.28 -31.4451 526.792 -29.7347 526.911C-26.4089 527.135 -21.1157 537.515 -8.01974 535.521C1.44986 534.069 10.159 527.749 14.8408 519.246C18.8976 511.883 19.0206 497.042 18.3819 488.678C18.0383 484.114 17.3211 473.295 11.8179 471.432C11.9478 474.5 12.9098 477.184 13.5831 480.041C14.8806 485.553 15.22 490.867 15.3219 496.43C15.385 499.667 15.0113 502.535 14.8528 505.756C14.2242 518.346 5.70239 529.11 -6.65969 531.954C-14.041 533.658 -20.9677 531.069 -25.5836 524.952C-26.6755 523.493 -28.4338 522.591 -29.9125 522.52C-31.5815 522.445 -33.2733 523.532 -34.351 525.107C-40.1513 533.503 -35.7923 543.538 -27.9351 548.799C-29.0347 550.416 -30.2955 551.089 -31.3221 552.221L-31.3118 552.232Z" fill="#C76E00"/>
<path d="M37.1712 578.025C38.6734 579.587 41.5566 580.278 43.6292 579.716C54.4596 576.811 55.4197 564.566 56.6228 555.011C56.2556 545.743 55.9597 536.613 54.2846 527.192C53.6189 523.415 52.8467 519.679 51.968 515.982C51.9584 515.929 51.9382 515.886 51.9287 515.833C49.8659 507.303 47.0472 499.044 42.4961 491.247C41.4209 492.695 41.708 494.762 42.4062 496.351C46.0674 504.776 48.4899 513.292 50.0552 522.383L51.5803 531.368C53.2675 541.254 55.9206 570.803 44.9165 575.555C43.0506 576.354 41.1376 576.327 39.9698 575.5C38.2392 574.261 37.3603 572.721 37.358 570.691C37.3838 559.718 45.1142 546.729 44.8017 523.411C44.7012 516.167 42.6161 503.407 38.4876 496.697C37.3793 497.68 37.879 499.149 38.2233 500.456C42.6704 517.29 42.9822 529.369 38.8492 546.51L34.4052 564.945C33.2888 569.564 33.5859 574.338 37.1712 578.025Z" fill="#C76E00"/>
<path d="M142.299 483.677C140.731 479.544 136.61 477.264 132.351 477.19C119.774 476.985 113.177 482.892 91.141 482.014C82.8589 481.681 74.4753 481.136 66.3808 477.72C56.3257 473.473 50.8736 470.627 41.8303 464.391C39.5771 462.846 37.5743 460.935 34.689 460.889C35.3177 465.468 38.5791 467.89 42.3864 469.435C45.7217 470.79 48.6015 472.729 51.8662 474.442C63.7849 480.693 76.5148 484.94 90.0283 485.364C97.4455 485.595 104.599 485.271 111.868 483.881L127.256 480.949C130.8 480.279 134.897 479.968 137.814 482.722C140.025 484.806 139.399 488.641 137.246 490.629C130.764 496.591 115.32 497.048 106.704 495.958C98.8786 494.959 87.8158 493.567 80.4278 490.779L68.349 486.217C64.1409 484.622 47.0163 476.451 44.7653 474.26L40.4798 471.226C38.2695 468.582 32.9919 466.004 32.1435 466.674C31.3916 467.273 31.5068 467.867 32.3799 468.624C34.9575 470.874 37.55 472.902 40.2574 475.006C45.9008 479.41 57.8713 485.175 64.7151 488.217C70.6786 490.861 76.4582 493.185 82.8432 494.822C87.0824 495.91 91.2697 497.483 95.4675 497.989C110.054 499.746 113.58 501.105 128.73 498.401C136.39 497.029 145.023 490.846 142.299 483.677Z" fill="#C76E00"/>
<path d="M106.669 571.37C113.189 573.708 120.18 574.1 126.886 572.836C128.871 572.463 130.338 570.97 130.515 568.933C131.475 557.787 128.393 546.774 121.455 537.809L127.638 531.472C129.321 529.75 129.844 527.318 130.944 524.622C131.325 521.913 134.87 512.637 132.239 510.418C129.878 508.436 126.71 508.765 124.197 510.249C119.394 513.083 114.463 514.36 108.721 514.426C90.4478 514.659 72.6223 507.182 59.5976 494.281C58.1564 492.846 56.6831 491.422 54.994 490.765C53.1054 490.03 53.9601 494.413 53.9269 494.486C53.7379 494.958 52.8954 494.794 52.5008 494.427L45.8696 488.111C45.1949 487.474 44.1899 487.507 43.7452 488.08C43.3112 488.642 43.4417 489.533 44.0513 490.253L48.9274 496.037C51.2414 498.789 54.083 500.516 55.893 503.628C58.5832 508.216 61.5783 512.346 63.4785 517.32C67.6302 528.217 70.0118 539.344 69.5396 550.975C69.3684 555.369 68.2666 559.249 66.8517 563.45C65.9758 566.055 65.4876 569.904 68.5361 571.328C73.093 573.458 80.364 573.062 85.1177 571.644C90.0098 570.175 91.5669 565.195 94.2198 564.158C98.2724 566.67 102.019 569.703 106.659 571.36L106.669 571.37ZM82.7105 568.795C78.876 569.702 74.3077 569.76 70.5995 568.017C68.0541 566.814 73.1599 558.256 72.9779 549.245C72.7295 536.628 70.585 524.195 64.9091 512.855C63.0577 509.161 61.307 505.722 58.9716 502.452C57.387 500.242 55.0281 498.695 54.7391 495.655C56.8266 495.95 57.9061 497.504 59.2135 498.756C60.8426 500.321 62.7816 501.173 64.5308 502.54C76.2864 511.705 90.2578 517.33 105.176 517.835C113.026 518.106 120.153 516.956 126.688 512.581C127.417 512.088 129.612 512.258 129.677 513.253C129.842 516.164 128.776 518.765 128.118 521.575C125.003 534.813 119.2 532.035 117.631 536.032C115.45 541.571 127.153 541.062 127.292 566.744C127.295 568.193 126.502 569.805 124.85 569.921C98.3976 571.588 96.2946 558.12 92.7706 558.833C89.1405 559.565 91.1864 566.805 82.7424 568.785L82.7105 568.795Z" fill="#C76E00"/>
<path d="M55.1011 455.305C44.2429 454.256 37.6419 449.094 33.1714 447.938C32.7508 447.824 32.1746 448.626 32.0213 448.898C31.8675 449.191 32.3324 449.74 32.7157 450.138L41.8894 459.422C43.2541 459.375 44.2755 460.653 45.4297 461.638C46.6982 462.72 48.2207 463.247 49.5891 464.088C55.3031 467.594 61.3325 470.113 67.9016 471.532C71.4388 472.299 74.6436 473.303 78.3296 473.492C86.5673 473.929 94.9389 474.01 102.951 472.465C109.998 471.103 117.029 468.926 123.91 466.313C128.448 464.584 132.428 462.209 136.535 459.795C141.519 456.87 148.727 449.505 147.025 443.594C145.551 438.416 140.007 437.049 134.244 437.115C134.51 434.308 135.69 432.365 136.234 430.018C137.403 424.85 137.895 419.732 136.154 414.75C133.852 408.171 126.722 404.055 120.208 406.856C117.958 407.816 117.028 410.493 114.611 411.344C111.413 404.61 105.186 399.815 97.8834 399.66C94.6392 399.586 91.9414 401.827 90.2797 404.606C89.088 406.602 89.2274 409.724 90.9529 411.756C96.6566 418.465 98.4263 427.92 93.7623 436.053C89.0549 444.249 81.3031 450.81 72.2068 453.707C66.632 455.479 60.778 455.861 55.0692 455.315L55.1011 455.305ZM94.5078 441.682C97.7205 437.992 99.1971 433.337 99.7673 428.538C101.189 416.493 91.9365 410.665 93.3476 406.115C93.8783 404.402 95.7263 403.434 97.4935 403.353C103.822 403.055 108.908 407.267 111.086 413.199C111.568 414.498 112.348 416.734 113.881 416.753C115.646 416.778 116.598 414.576 117.51 413.389C120.776 409.129 125.767 408.022 130.169 411.545C132.043 413.041 133.427 416.314 133.588 418.897C134.561 433.326 128.153 436.086 129.029 439.37C129.187 439.944 129.816 440.77 130.599 440.743C134.313 440.552 142.051 439.542 143.628 444.288C144.067 445.608 144.01 447.985 142.765 449.43C140.439 452.123 138.043 455.152 134.802 457.086C120.767 465.437 104.94 469.745 88.6306 470.618C79.6451 471.108 71.1622 469.164 62.6064 466.628C56.2682 464.219 49.9354 462.075 44.7471 456.571C55.0005 458.802 64.6062 460.641 74.9256 456.298C82.5478 453.097 89.0023 447.991 94.4971 441.692L94.5078 441.682Z" fill="#C76E00"/>
<path d="M8.07263 226.244C6.22814 224.347 -5.57443 227.233 -8.8129 227.941C-16.585 229.628 -23.3154 233.714 -29.8867 238.31C-30.3243 232.613 -33.687 227.821 -39.0825 226.933C-42.2123 226.417 -45.225 228.546 -47.3538 230.883C-51.4927 235.442 -52.9587 241.165 -53.9754 247.16L-60.4386 285.452C-60.9283 288.308 -60.3799 291.596 -57.8325 293.232C-55.7861 294.541 -53.0716 294.668 -50.4834 294.233L-21.0463 289.199C-14.9573 288.156 -9.26907 287.602 -3.49077 285.157C-0.836201 284.036 4.77735 279.22 4.70151 274.482C4.61619 269.152 -0.36869 264.592 -6.49196 264.155C-5.38889 261.29 -2.97301 259.942 -1.17458 257.736C3.17997 252.43 5.84825 246.319 7.46887 239.722C8.34198 236.187 8.65351 232.715 9.14659 229.151C9.30542 228.066 8.72616 226.881 8.10456 226.234L8.07263 226.244ZM-11.5982 263.61C-12.3289 264.209 -12.5317 265.378 -12.5118 265.981C-12.3823 268.532 -7.36331 266.527 -2.52991 268.578C-0.181385 269.576 1.23667 271.655 1.24351 273.991C1.2619 281.646 -8.00762 283.673 -13.8629 284.657L-22.4443 286.106C-30.6225 287.477 -38.5856 288.663 -46.6856 290.354C-49.9551 291.03 -53.1786 290.977 -56.3199 289.974C-57.3909 285.84 -56.4506 282.116 -55.7324 277.859L-51.4976 252.865C-50.2055 245.236 -49.1846 233.659 -40.9375 230.935C-38.3836 230.097 -35.522 231.348 -34.4994 233.641C-33.2841 236.351 -33.3884 238.96 -33.6671 241.841C-33.7758 243.065 -32.8253 245.801 -31.3619 245.037C-26.8219 242.663 -23.6569 232.798 2.16002 229.067C3.08257 228.926 4.0913 229.242 4.58196 229.558C5.58443 230.191 5.1521 231.208 5.06745 232.285C4.03069 244.666 -2.02234 255.69 -11.6197 263.631L-11.5982 263.61Z" fill="#C76E00"/>
<path d="M-2.39597 144.049C0.347442 145.932 2.51273 147.645 4.05169 150.562C5.18333 152.688 6.61464 154.629 7.30612 157.096C8.83781 162.528 10.0272 168.166 9.7353 173.858C9.52522 178.083 9.32632 182.276 8.05323 186.258L2.08621 204.727C4.41782 204.973 5.38481 203.65 6.20099 201.932C13.935 185.539 16.6494 164.205 6.53978 148.232C5.14539 146.026 3.04808 144.082 1.01997 142.382C-5.47005 136.947 -14.859 135.917 -22.2397 139.736C-27.0142 142.211 -29.6215 147.372 -32.2527 146.77C-36.5574 145.787 -38.0353 141.381 -36.5231 137.604C-32.2978 127.052 -22.3898 126.422 -23.6402 122.814C-24.1503 121.334 -29.795 121.826 -32.294 116.659C-33.1476 114.909 -32.57 112.425 -31.1451 110.931C-27.0107 106.604 -21.3721 104.812 -15.5741 104.587C-4.22096 104.124 -2.03954 110.923 0.155487 108.978C2.12463 107.23 -1.50416 102.528 0.882483 98.9066C5.05785 95.1828 11.4604 96.4719 15.4465 100.208C25.2248 109.387 26.5384 129.648 26.1481 142.486C25.8888 150.822 24.4852 158.745 21.6866 166.64C19.907 171.648 18.3007 176.448 15.6081 181.11C13.955 183.985 12.3687 187.231 12.7555 190.675C12.9523 191.419 14.6959 190.385 15.0362 189.747C19.3582 181.797 23.2882 173.893 25.8162 165.242C28.4114 156.401 29.8179 147.792 29.6811 138.633C29.4816 126.218 28.2192 112.481 21.4942 101.797C20.6845 100.502 19.4231 99.5995 18.4099 98.4377C14.5631 94.0696 8.67986 92.1776 3.22865 93.5821C-1.54246 94.8097 -4.13176 98.5224 -3.20927 103.753C-8.61492 100.697 -14.1784 100.82 -19.8629 101.723C-28.2732 103.069 -39.4051 109.478 -35.3456 118.079C-34.1278 120.662 -32.4192 122.482 -29.4876 123.935C-34.3548 129.506 -41.1839 133.231 -40.2965 141.854C-39.9147 145.551 -38.045 148.316 -34.6385 149.81C-31.798 151.061 -28.5807 150.352 -26.468 147.761C-20.5202 140.467 -10.0518 138.76 -2.3537 144.05L-2.39597 144.049Z" fill="#C76E00"/>
<path d="M29.584 193.658L33.8718 187.981C39.9511 179.918 43.407 170.851 46.8062 161.446C50.8099 150.339 53.0401 139.092 52.3731 127.333C52.1372 123.205 51.978 119.481 51.0214 115.444C49.5288 109.103 45.6487 96.2239 37.7594 96.3434C35.1791 96.3771 32.985 97.74 31.6226 99.8171C30.0098 102.259 29.7194 105.193 30.3947 107.944L33.4766 120.554C35.6876 129.605 35.3698 138.765 33.9097 147.945C32.9448 153.994 32.4379 159.873 30.6316 165.694L23.8221 188.29C22.9244 188.78 23.0433 189.724 22.6938 190.827C22.3667 191.867 21.2526 192.606 21.3694 194.194C22.9389 193.95 23.5254 192.619 23.5641 191.193C24.7382 190.624 24.8092 189.166 25.5516 187.976C28.6292 183.088 33.404 168.794 34.6897 162.56C36.9568 151.589 38.6773 140.458 38.0744 129.198C37.6876 122.001 35.291 115.388 33.7889 108.455C33.2172 105.811 33.0563 102.71 35.1568 100.732C37.0634 98.941 40.6349 100.111 42.1068 102.138C46.4094 108.059 47.9156 114.781 48.6544 121.826C50.0706 135.27 48.9444 141.993 45.3567 155.063C41.8486 167.85 36.3401 179.677 28.0562 190.171C24.3914 194.814 17.5178 200.8 15.5523 203.975C13.9366 206.565 12.3337 209.039 10.8751 211.707C13.2486 215.729 25.6907 199.164 26.6585 197.798L29.5736 193.648L29.584 193.658Z" fill="#C76E00"/>
<path d="M134.719 197.032C132.954 193.794 130.249 191.563 126.986 189.786C118.524 185.147 109.339 183.941 99.6684 184.342C82.591 185.042 66.028 189.685 50.5859 197.003C48.4195 198.028 46.7049 198.661 44.7835 200.134L37.537 205.733C35.6047 207.217 23.1698 214.298 23.4811 217.815C25.8385 217.29 27.5622 215.654 29.5417 214.995C32.5215 213.996 35.1165 212.144 38.3136 210.854L60.4151 201.986C66.745 199.446 68.9589 199.765 74.8688 198.687C76.2824 199.38 93.1566 195.579 111.81 203.421C117.462 205.805 128.791 212.456 134.051 206.28C136.378 203.545 136.239 199.842 134.709 197.021L134.719 197.032ZM116.439 201.916C104.324 196.476 91.3937 194.371 78.1701 195.865C75.7754 196.135 73.2822 196.044 71.3156 197.126C70.5613 196.773 69.7122 196.946 68.7971 197.246L59.8906 200.168C50.9948 203.08 48.2017 205.869 40.0877 207.739C43.4436 205.363 46.5284 203.33 49.9626 201.273C52.2521 199.901 57.9039 197.972 59.9667 196.3C71.8014 191.786 83.8924 188.747 96.7579 187.721C102.56 187.264 107.88 187.189 113.604 188.55C118.013 189.598 122.542 190.47 126.272 193.271C129.387 195.606 134.458 200.621 131.665 203.971C128.99 207.185 119.949 203.518 116.428 201.926L116.439 201.916Z" fill="#C76E00"/>
<path d="M119.774 212.457C113.121 209.398 106.064 208.075 98.986 206.709C80.9761 203.225 59.9598 205.845 44.2087 215.43C43.3955 215.922 42.8939 216.694 43.3676 217.338C43.7385 217.832 44.5458 217.636 45.3058 218.233C40.2192 220.448 27.4807 224.69 25.6037 229.812C25.2464 230.778 27.5647 231.162 28.2303 230.646C35.1022 225.284 44.3183 222.209 53.0004 221.556C64.3507 220.701 75.2168 225.102 82.7663 233.645C85.8689 237.152 88.1989 240.698 88.8463 245.404C89.8904 253.048 86.3506 259.395 79.665 262.816C76.8774 264.252 77.2922 268.415 78.6211 270.724C81.1467 275.077 85.6942 276.615 90.4023 276.443C98.115 276.162 102 271.597 106.304 265.635C108.374 267.356 109.744 269.73 112.024 271.023C115.808 273.17 120.135 272.494 123.729 270.408C133.781 264.579 132.048 250.59 127.371 241.131C130.508 240.209 133.656 239.256 135.86 236.868C144.233 227.74 126.888 215.716 119.753 212.436L119.774 212.457ZM127.603 257.829C127.305 261.1 126.162 263.34 123.905 265.759C120.751 269.144 116.344 270.146 112.208 267.03C109.259 264.826 110.467 259.891 106.974 259.558C104.209 259.292 104.029 266.266 96.1489 271.313C91.7908 274.113 86.7015 273.78 83.0117 270.568C81.9098 269.616 80.6617 267.498 81.6589 266.249C83.9792 263.313 87.2617 261.443 89.3072 258.502C96.269 248.574 91.0809 236.081 82.7891 228.729C78.2555 224.337 72.5958 221.297 66.5328 219.412C60.3541 217.493 54.2519 218.134 47.4083 217.767C56.584 211.91 66.8159 209.871 77.0795 208.899C83.1063 208.331 88.6046 208.83 94.6275 209.53C107.654 211.045 126.525 216.481 133.658 228.409C135.143 230.881 134.901 234.037 132.595 235.715C127.651 239.286 124.869 235.595 122.383 238.358C120.588 240.352 128.75 245.197 127.591 257.86L127.603 257.829Z" fill="#C76E00"/>
<path d="M-95.9805 463.401L-99.6914 435.491C-100.364 430.435 -101.4 425.604 -101.151 420.513C-100.936 416.013 -89.9393 412.181 -86.0424 398.979C-84.9094 395.132 -85.2829 391.012 -86.6684 387.284C-87.1002 386.123 -88.5076 385.652 -88.7445 384.262C-81.846 381.839 -75.5355 379.215 -70.1967 374.393C-61.1231 366.21 -58.367 364.223 -54.0313 352.362C-52.7437 352.472 -51.9651 353.735 -50.8229 354.254C-38.4657 359.71 -26.8659 349.408 -20.3195 339.631C-13.7468 338.725 -7.58789 338.962 -0.991765 339.547L48.3155 343.922C54.1938 344.45 59.7419 344.57 65.4853 343.901C68.5687 343.549 70.4927 341.948 72.8576 339.965C74.4811 338.591 78.2833 337.175 78.1857 334.615C78.0021 329.98 73.1363 328.5 69.5212 327.932C64.4307 327.123 60.01 326.127 54.8503 325.613C43.3386 324.466 31.9101 324.463 20.3348 325.472C12.678 326.135 5.51025 326.66 -2.17299 326.519L-15.6372 326.275C-19.2515 326.204 -21.0372 325.08 -23.6633 322.607C-28.6047 317.985 -35.0501 314.581 -41.3523 312.49C-45.9843 310.951 -50.6079 312.202 -53.8441 316.018C-59.2045 302.613 -68.5126 292.111 -81.7932 286.299C-76.9381 282.42 -75.5858 277.097 -76.2811 271.607C-78.1966 256.673 -91.6184 254.812 -91.6701 244.556L-91.7677 227.501C-91.7827 223.969 -91.7074 220.683 -91.6172 217.175L-91.4301 210.359L-90.6374 178.701C-90.4914 172.899 -90.575 167.485 -91.2807 161.984C-91.4096 161.009 -92.3188 160.473 -92.3834 159.456C-90.8111 156.39 -95.2518 152.116 -97.452 150.561C-100.882 148.135 -104.083 156.023 -104.671 156.899C-105.673 158.402 -108.053 158.989 -108.693 160.89C-110.478 166.173 -110.597 179.185 -110.237 185.06L-108.832 207.162C-108.445 213.238 -107.819 219.023 -107.282 225.039L-106.14 237.917C-105.802 241.719 -105.495 245.446 -106.131 249.272C-106.418 250.958 -108.329 251.903 -109.384 252.855C-109.502 252.969 -109.6 253.126 -109.739 253.197C-112.894 258.262 -116.946 260.561 -120.069 267.192C-122.804 272.953 -121.351 279.663 -116.125 283.805L-124.366 286.751C-137.899 291.59 -147.193 303.491 -152.636 316.811C-161.249 308.067 -175.222 316.482 -181.322 323.403C-184.814 327.363 -189.225 329.094 -194.361 328.433L-203.978 327.186L-228.804 324.614L-245.621 322.824C-253.818 321.954 -262.358 322.886 -270.738 323.207C-274.398 323.346 -276.301 325.465 -278.971 327.39C-281.159 328.975 -284.525 330.262 -283.889 333.922C-283.452 336.425 -280.824 338.814 -278.363 339.475C-276.376 340.011 -274.271 338.879 -274.116 336.905C-273.832 333.253 -275.67 329.379 -274.874 328.158C-272.313 324.265 -240.455 326.753 -234.557 327.366L-206.851 330.238L-191.554 331.913C-187.798 332.326 -184.306 331.062 -181.825 328.013C-179.701 325.391 -176.828 323.915 -174.375 321.764C-170.373 318.248 -165.756 315.717 -160.138 316.579C-158.314 316.858 -155.48 317.886 -154.952 320.053C-154.052 323.771 -156.073 328.14 -159.109 330.374C-160.912 331.713 -163.344 332.31 -164.287 334.544C-165.752 338.046 -153.027 340.411 -154.68 350.274C-155.302 353.962 -162.817 353.846 -165.672 352.796C-187.599 344.741 -177.747 333.528 -198.385 336.822C-212.872 339.137 -243.86 340.768 -258.317 339.384L-272.921 337.997C-273.301 337.968 -273.726 338.605 -273.847 338.845C-274.045 339.201 -273.516 339.729 -273.002 339.962C-268.571 342.026 -264.145 342.229 -259.426 342.544C-254.833 342.857 -250.591 343.3 -245.887 343.318C-231.278 343.395 -216.992 342.185 -202.448 340.727C-198.761 340.356 -195.306 340.435 -191.742 339.87C-185.814 338.919 -182.838 346.717 -177.664 350.244C-170.937 355.991 -160.115 359.439 -151.875 353.86C-146.585 366.524 -136.898 376.061 -124.327 381.954C-126.653 384.107 -128.794 386.518 -128.623 389.609C-127.692 406.775 -113.184 413.605 -112.3 420.262C-111.234 428.381 -111.423 436.359 -112.397 444.491L-115.304 468.645C-115.86 473.264 -115.692 477.581 -115.646 482.223C-115.579 490.661 -113.886 498.655 -111.975 506.834C-111.342 509.542 -111.515 511.928 -108.868 513.862C-107.597 514.796 -106.271 515.657 -104.712 515.424C-100.598 514.786 -100.738 509.571 -97.8267 509.903C-95.9657 507.202 -95.0715 504.206 -94.866 500.753C-94.0787 488.156 -94.2923 475.92 -95.9589 463.38L-95.9805 463.401ZM-48.2243 315.717C-42.7719 314.788 -37.0533 316.984 -32.5672 320.032C-28.363 322.895 -24.235 325.334 -21.1632 329.328C-16.9733 330.235 -13.1053 329.772 -8.99534 329.906C-0.669726 330.175 7.29449 330.004 15.5986 329.217C27.9809 328.033 37.4674 327.332 49.8743 328.655C54.0837 329.108 58.151 329.262 62.3123 330.01C64.377 330.389 66.2971 330.056 68.5508 329.963C66.9962 334.817 70.2361 337.26 68.8662 339.178C67.0839 341.638 53.1821 341.068 49.6358 340.766L35.3556 339.544L25.001 338.695C10.2451 337.474 -4.25059 335.92 -19.0356 335.639C-21.1704 335.597 -22.0366 336.637 -23.3049 338.23L-26.7402 342.486C-37.3501 355.672 -51.1382 353.624 -51.7739 348.326C-52.7972 339.626 -45.0721 339.249 -42.1515 334.285C-44.7986 329.655 -49.0051 329.593 -51.0099 322.418C-51.6521 320.132 -51.1101 316.231 -48.2144 315.749L-48.2243 315.717ZM-50.6658 329.635C-49.89 329.967 -46.2714 334.119 -46.2781 334.457C-46.3047 334.732 -50.2238 337.795 -50.5956 337.882C-51.5198 338.107 -51.4286 337.771 -51.1455 336.814C-51.0037 336.595 -51.1756 336.201 -51.0757 335.959L-50.655 329.624L-50.6658 329.635ZM-99.4168 155.311C-98.8565 154.772 -97.9687 154.79 -97.43 155.35C-96.8913 155.911 -96.9088 156.798 -97.4691 157.337C-98.0295 157.876 -98.9172 157.858 -99.456 157.298C-99.9947 156.737 -99.9772 155.85 -99.4168 155.311ZM-112.142 262.474C-107.117 258.556 -103.59 253.942 -101.593 248.621L-101.313 245.677C-102.643 228.397 -104.098 211.03 -105.647 193.566C-106.053 185.184 -106.087 176.758 -105.87 168.399C-105.738 163.317 -104.269 160.142 -99.0039 162.794C-96.8497 163.46 -95.4799 163.159 -94.905 161.881C-94.2523 162.02 -93.866 161.732 -93.2584 162.019C-93.8799 164.047 -94.8415 166.174 -93.8093 167.981L-94.8252 168.564L-96.2356 240.174C-96.3223 245.648 -96.1242 251.16 -91.9089 255.07C-85.2635 261.206 -77.2836 270.435 -81.7968 280.04C-84.3788 285.529 -90.7458 280.287 -92.9072 276.766C-94.7327 271.222 -97.106 269.336 -100.006 271.108C-108.853 290.312 -125.217 277.346 -112.153 262.485L-112.142 262.474ZM-92.8961 283.184L-102.846 282.195C-100.986 280.054 -99.5077 278.55 -98.1696 276.102L-92.9069 283.194L-92.8961 283.184ZM-160.183 334.434C-158.482 333.421 -157.041 332.741 -155.62 331.416C-154.851 332.647 -155.433 333.745 -155.658 334.957C-155.918 336.389 -155.093 337.442 -155.692 339.407C-157.574 338.334 -159.18 336.642 -160.194 334.445L-160.183 334.434ZM-138.444 368.133C-157.185 348.639 -156.575 317.632 -137.08 298.891C-117.586 280.15 -86.5791 280.76 -67.8379 300.255C-49.0967 319.749 -49.7073 350.756 -69.2016 369.497C-88.6959 388.238 -119.703 387.627 -138.444 368.133ZM-107.035 391.81C-109.227 389.853 -110.489 387.915 -112.448 385.36L-101.741 386.015C-103.185 388.481 -105.088 389.565 -107.035 391.81ZM-109.69 505.134L-111.106 494.925C-113.616 476.85 -112.064 464.617 -109.391 447.035C-108.213 439.245 -108.561 431.722 -108.323 423.924C-107.993 413.591 -115.743 411.482 -120.986 402.319C-123.224 398.416 -125.259 394.337 -125.147 389.751C-125.1 387.923 -124.236 385.889 -122.612 385.033C-116.052 381.567 -109.6 395.893 -106.751 395.643C-104.739 395.471 -103.026 389.531 -97.5598 386.848C-95.5741 385.872 -93.5181 385.616 -91.865 386.495C-90.0129 387.472 -88.7329 389.58 -88.642 391.939C-88.4229 397.991 -91.6041 403.31 -94.9453 408.16C-99.5379 414.815 -105.288 414.204 -104.681 422.579C-104.234 428.889 -103.157 434.862 -102.34 441.148L-99.7015 461.234C-97.9819 474.304 -97.1053 487.229 -98.2317 500.401C-98.4507 502.934 -98.6938 505.615 -99.9103 507.801C-100.963 509.704 -103.377 502.922 -109.69 505.155L-109.69 505.134Z" fill="#C76E00"/>
<path d="M-200.616 -112.09C-201.312 -111.131 -201.945 -110.107 -202.495 -109.019C-202.66 -108.694 -202.804 -108.369 -202.948 -108.023C-203.037 -107.835 -203.125 -107.646 -203.203 -107.447C-204.602 -104.049 -205.276 -100.394 -205.248 -96.4602C-206.13 -94.0988 -208.223 -92.4802 -211.529 -91.6043L-214.739 -89.0985C-214.944 -88.9017 -215.351 -88.6348 -215.461 -88.4044C-224.625 -79.3659 -223.555 -63.9517 -210.732 -59.5865L-206.606 -58.0991C-204.79 -57.4396 -203.885 -56.1531 -203.902 -54.2293L-203.326 -53.4145C-203.504 -52.9951 -203.411 -52.8558 -202.995 -53.0274C-203.332 -52.5794 -203.128 -52.1948 -202.862 -51.7666C-199.8 -46.7057 -191.928 -46.4977 -184.978 -47.7881C-182.357 -48.2757 -179.869 -48.9879 -177.803 -49.7295C-177.005 -49.9992 -176.228 -50.2694 -175.461 -50.5503C-174.396 -50.9522 -173.395 -51.3342 -172.457 -51.7175C-168.652 -53.2813 -166.13 -54.6271 -166.13 -54.6271C-165.97 -54.7191 -165.82 -54.8008 -165.66 -54.8927C-155.969 -60.0409 -148.444 -66.3629 -142.617 -72.898C-140.152 -75.6617 -137.993 -78.4631 -136.089 -81.2272C-134.619 -83.3867 -133.319 -85.5073 -132.147 -87.5881C-132.125 -87.6088 -132.115 -87.6192 -132.103 -87.6507C-124.575 -101.13 -123.073 -112.444 -123.06 -112.56C-123.073 -116.737 -123.903 -120.189 -126.544 -113.316C-129.689 -99.6343 -131.221 -98.0998 -137.308 -85.8607C-140.49 -79.4638 -151.783 -68.0673 -157.995 -63.4639C-167.501 -56.4197 -183.494 -49.609 -195.469 -51.3673C-203.196 -52.5027 -196.973 -59.2732 -203.558 -60.9887C-210.647 -62.8411 -218.156 -66.4249 -217.648 -75.0419C-217.218 -82.4022 -212.002 -87.9768 -205.145 -90.4214C-202.484 -91.3628 -200.597 -93.1969 -200.942 -96.0793C-202.059 -105.394 -197.741 -112.594 -189.383 -116.69C-187.248 -106.445 -187.493 -104.219 -180.625 -97.0324C-172.897 -88.951 -163.427 -86.6923 -152.794 -89.7392C-140.142 -93.3594 -132.712 -109.357 -129.194 -121.054C-127.418 -126.929 -135.371 -124.115 -139.147 -128.302C-145.831 -135.708 -146.685 -146.022 -142.737 -154.856C-140.735 -159.331 -138.67 -163.287 -135.497 -167.104C-129.053 -174.896 -125.662 -179.069 -117.577 -185.887C-115.416 -187.716 -113.196 -188.793 -111.028 -190.939C-109.767 -192.172 -106.447 -193.83 -104.828 -192.793C-102.166 -191.102 -100.298 -188.75 -97.8185 -186.904C-94.3072 -184.287 -91.789 -180.632 -88.4738 -177.723C-81.6974 -171.796 -74.3867 -162.941 -70.7363 -154.506C-66.4083 -144.504 -68.5385 -131.362 -77.9409 -125.268C-81.7962 -122.764 -87.7148 -123.399 -88.2943 -121.888C-89.6776 -118.215 -82.7948 -106.418 -79.9061 -102.788C-70.2698 -90.6934 -55.7683 -85.682 -41.9664 -93.4556C-35.4772 -97.1021 -31.8989 -103.259 -30.3972 -110.26C-29.8039 -113.007 -29.475 -115.75 -28.231 -118.252C-25.8256 -118.532 -24.1771 -116.882 -22.4113 -115.822C-13.8652 -110.642 -10.3728 -101.164 -12.8536 -91.6875C-13.3789 -89.7103 -9.88608 -88.838 -8.4915 -88.7894C-4.22364 -88.6208 -0.402952 -88.2918 3.29862 -86.2101C8.3599 -83.3828 11.219 -77.7127 9.62666 -72.0139C8.3187 -67.335 4.61706 -64.0459 0.324123 -61.868C-5.95488 -58.6932 -11.403 -59.5934 -12.4057 -56.9912C-12.7179 -56.1727 -9.83348 -50.7135 -13.8271 -49.2381C-24.3811 -45.3333 -38.8653 -50.1541 -47.8307 -56.0502C-55.1368 -60.8459 -61.8113 -66.0415 -67.2278 -72.8404C-73.7685 -81.0676 -79.3502 -89.6776 -83.0379 -99.4449C-84.2237 -102.577 -85.3362 -105.136 -87.6461 -107.56C-88.2884 -108.228 -88.4604 -112.915 -90.422 -112.626C-90.8886 -112.551 -91.2364 -112.071 -91.4072 -111.451C-92.5751 -106.906 -91.9223 -102.474 -91.0814 -97.9329C-88.6552 -84.7756 -82.5907 -75.4477 -74.9047 -64.7136C-66.2308 -52.6067 -49.5757 -39.3805 -35.8911 -33.1482C-31.9409 -31.3472 -22.8505 -26.9604 -22.7776 -22.6138C-22.6893 -17.4316 -33.1209 -15.9878 -38.2665 -16.6812C-45.9422 -17.7416 -51.8766 -21.3262 -57.4967 -26.3741C-62.2131 -30.6113 -66.2899 -35.1108 -70.0459 -40.3334C-72.7108 -44.0545 -75.5523 -47.3984 -77.7787 -51.3751C-85.2333 -64.7372 -91.2526 -78.5046 -95.2009 -93.2883C-97.2786 -101.058 -97.8797 -108.65 -98.9508 -116.536C-99.0522 -117.289 -99.3315 -118.14 -99.7592 -118.434C-100.26 -118.761 -101.88 -118.117 -102.024 -117.231C-103.429 -108.727 -97.3835 -90.8997 -95.4907 -82.3306C-94.1872 -78.7315 -92.8095 -75.1415 -91.3684 -71.5503C-90.9018 -71.0865 -90.2521 -69.7205 -90.403 -69.0363C-82.1926 -50.574 -69.8388 -29.3765 -52.448 -18.0812C-44.003 -12.597 -31.4404 -10.0554 -22.6949 -16.0785C-15.1711 -21.2587 -19.7513 -28.1151 -25.7702 -31.7014L-27.1826 -32.4587C-27.3815 -32.5578 -27.5908 -32.6676 -27.7794 -32.7559C-27.7794 -32.7559 -27.7897 -32.7667 -27.7893 -32.7878L-33.8982 -36.1009L-36.4191 -37.4721L-43.3345 -41.1712L-43.6586 -41.3573L-46.8069 -43.0791C-58.2915 -50.9702 -69.1663 -60.8368 -76.7246 -72.6891C-76.7656 -72.7534 -76.817 -72.8284 -76.858 -72.8926L-79.2075 -77.0621L-80.9545 -80.1519L-81.4447 -81.0284L-84.5922 -87.6241L-86.41 -91.413C-86.6114 -91.9245 -86.7817 -92.4036 -86.9416 -92.8719C-88.1875 -96.713 -87.9171 -99.171 -87.7645 -99.9398C-87.7292 -100.119 -87.7064 -100.203 -87.7064 -100.203C-83.964 -91.608 -79.2737 -83.9036 -76.1119 -79.105C-76.0299 -78.9765 -75.9582 -78.8588 -75.8654 -78.7407C-74.2841 -76.3625 -73.1313 -74.7751 -72.7194 -74.2172C-68.3852 -68.8246 -63.6976 -63.6682 -58.4889 -59.1993C-55.5222 -56.8467 -52.7058 -54.9093 -50.1891 -53.3268C-49.7817 -53.0756 -49.4058 -52.8356 -49.0192 -52.606C-47.8178 -51.874 -46.6993 -51.2282 -45.6848 -50.669C-45.6537 -50.6367 -45.6011 -50.6251 -45.5592 -50.6031C-43.0698 -49.2431 -41.2571 -48.4145 -40.4183 -48.0597C-31.9239 -44.5515 -21.9702 -42.1353 -13.5584 -45.7016C-9.1553 -47.5708 -7.15795 -49.6776 -7.37592 -54.7143C1.56416 -57.731 12.2571 -62.7854 13.6335 -73.0873C14.4505 -79.1397 11.6112 -84.2069 7.21847 -87.6977C7.20811 -87.7084 7.19776 -87.7192 7.18739 -87.73C6.88612 -88.0002 6.53182 -88.2609 6.13481 -88.5013C4.45395 -89.5811 2.21895 -90.4392 1.36855 -90.7414C-1.1752 -91.4893 -3.76454 -92.0688 -6.39991 -92.4591C-7.88273 -92.8583 -8.63193 -94.0043 -8.66824 -95.9186C-8.71588 -96.1838 -8.74196 -96.4698 -8.69303 -96.8071C-8.39859 -98.8735 -8.49418 -100.461 -8.6321 -101.511C-8.6321 -101.511 -8.64246 -101.521 -8.6636 -101.522C-9.80628 -110.065 -17.6538 -117.97 -24.9417 -122.078C-28.664 -124.181 -30.6641 -123.544 -32.1511 -119.439L-34.4119 -108.785L-35.5274 -106.364C-37.4049 -100.682 -42.2085 -97.8056 -47.1886 -95.0914L-49.7027 -94.126C-66.2217 -89.567 -79.9491 -104.364 -84.4034 -119.221C-72.9942 -120.92 -65.5251 -130.838 -65.1823 -141.805C-65.1971 -142.123 -65.1901 -142.482 -65.1817 -142.905C-65.1689 -143.021 -65.1668 -143.126 -65.1643 -143.253C-65.1456 -143.665 -65.1273 -144.056 -65.1199 -144.436C-65.1111 -144.88 -65.1028 -145.303 -65.1156 -145.726C-65.1688 -148.391 -65.5827 -150.461 -66.05 -151.961C-66.4076 -153.131 -66.7933 -153.942 -67.0585 -154.434C-67.0905 -154.424 -67.1327 -154.424 -67.1646 -154.415C-70.7818 -164.54 -77.7433 -171.803 -85.016 -179.368C-88.269 -182.751 -100.908 -195.359 -104.071 -196.881C-107.58 -198.567 -113.188 -194.544 -116.056 -192.243C-126.455 -183.863 -137.366 -172.586 -143.94 -160.853C-146.296 -156.639 -148.095 -151.716 -148.424 -146.859C-148.508 -145.783 -148.512 -144.535 -148.528 -143.711C-148.528 -143.711 -148.507 -143.689 -148.497 -143.679C-149.119 -133.023 -143.51 -124.73 -133.488 -120.928C-136.381 -108.795 -143.923 -95.7175 -156.64 -92.5743C-156.788 -92.5349 -156.958 -92.4959 -157.118 -92.4462C-157.309 -92.4077 -157.553 -92.3808 -157.839 -92.3336C-159.175 -92.1484 -161.441 -91.9394 -163.784 -92.1547C-163.9 -92.1675 -164.027 -92.17 -164.153 -92.1936C-165.481 -92.4312 -166.775 -92.7633 -168.003 -93.1787C-176.28 -95.9425 -182.399 -102.501 -184.552 -111.255C-184.796 -120.913 -187.307 -123.848 -192.065 -120.062C-192.096 -120.073 -192.118 -120.074 -192.149 -120.085C-192.256 -120.023 -192.374 -119.931 -192.492 -119.859C-192.813 -119.633 -193.189 -119.376 -193.618 -119.067C-195.919 -117.622 -198.147 -115.604 -199.682 -113.361C-200.007 -112.966 -200.322 -112.56 -200.626 -112.122L-200.616 -112.09Z" fill="#C76E00"/>
<path d="M-13.0989 772.336C-12.4034 771.377 -11.77 770.353 -11.22 769.265C-11.055 768.94 -10.9112 768.615 -10.7669 768.269C-10.6786 768.081 -10.5903 767.892 -10.5124 767.693C-9.11333 764.295 -8.43877 760.64 -8.46702 756.706C-7.58531 754.345 -5.49184 752.726 -2.18663 751.85L1.02385 749.345C1.2286 749.148 1.63561 748.881 1.74587 748.65C10.9103 739.612 9.83945 724.198 -2.98327 719.833L-7.10885 718.345C-8.92485 717.686 -9.82988 716.399 -9.81313 714.475L-10.3891 713.661C-10.2117 713.241 -10.3041 713.102 -10.7198 713.273C-10.3832 712.825 -10.5871 712.441 -10.8535 712.013C-13.915 706.952 -21.7872 706.744 -28.7374 708.034C-31.3584 708.522 -33.8463 709.234 -35.9119 709.976C-36.7102 710.245 -37.4872 710.515 -38.254 710.796C-39.3191 711.198 -40.3204 711.58 -41.2583 711.964C-45.0634 713.527 -47.585 714.873 -47.585 714.873C-47.7454 714.965 -47.895 715.047 -48.0554 715.139C-57.7458 720.287 -65.2708 726.609 -71.098 733.144C-73.5629 735.908 -75.722 738.709 -77.6265 741.473C-79.0963 743.633 -80.3962 745.753 -81.5684 747.834C-81.5899 747.855 -81.6007 747.865 -81.6119 747.897C-89.1405 761.376 -90.6426 772.69 -90.6555 772.806C-90.6426 776.983 -89.8119 780.435 -87.1813 773.551C-84.0362 759.87 -82.5047 758.335 -76.4172 746.096C-73.2359 739.699 -61.9423 728.303 -55.7303 723.699C-46.2245 716.655 -30.232 709.844 -18.2566 711.603C-10.5295 712.738 -16.7525 719.508 -10.168 721.224C-3.07882 723.076 4.43087 726.66 3.92284 735.277C3.49243 742.638 -1.72377 748.212 -8.58044 750.657C-11.242 751.598 -13.1283 753.432 -12.7834 756.315C-11.6664 765.63 -15.9843 772.829 -24.3534 776.914C-26.488 766.67 -26.2433 764.444 -33.1111 757.257C-40.8388 749.175 -50.3094 746.917 -60.9417 749.964C-73.5939 753.584 -81.0241 769.581 -84.5424 781.279C-86.318 787.154 -78.3651 784.34 -74.5887 788.527C-67.9049 795.932 -67.0508 806.246 -70.9991 815.081C-73.0008 819.556 -75.0663 823.511 -78.2392 827.329C-84.6831 835.121 -88.0744 839.293 -96.159 846.112C-98.32 847.94 -100.54 849.017 -102.708 851.163C-103.969 852.396 -107.289 854.054 -108.908 853.018C-111.57 851.327 -113.438 848.975 -115.917 847.129C-119.429 844.512 -121.947 840.857 -125.262 837.948C-132.038 832.021 -139.349 823.165 -143.01 814.72C-147.338 804.718 -145.208 791.576 -135.805 785.481C-131.95 782.978 -126.032 783.612 -125.452 782.101C-124.069 778.428 -130.951 766.632 -133.84 763.001C-143.476 750.907 -157.978 745.896 -171.78 753.669C-178.269 757.316 -181.847 763.472 -183.349 770.473C-183.942 773.221 -184.271 775.963 -185.515 778.466C-187.921 778.746 -189.569 777.096 -191.335 776.036C-199.881 770.856 -203.374 761.378 -200.893 751.901C-200.367 749.924 -203.86 749.052 -205.255 749.003C-209.523 748.834 -213.343 748.506 -217.045 746.424C-222.106 743.597 -224.965 737.926 -223.373 732.228C-222.065 727.549 -218.363 724.26 -214.07 722.082C-207.791 718.907 -202.343 719.807 -201.341 717.205C-201.028 716.386 -203.913 710.927 -199.919 709.452C-189.365 705.547 -174.881 710.368 -165.916 716.264C-158.61 721.06 -151.935 726.255 -146.519 733.054C-139.978 741.281 -134.396 749.891 -130.708 759.659C-129.523 762.79 -128.41 765.349 -126.1 767.774C-125.458 768.442 -125.286 773.129 -123.324 772.84C-122.858 772.764 -122.51 772.285 -122.339 771.664C-121.171 767.12 -121.824 762.688 -122.665 758.147C-125.091 744.989 -131.156 735.661 -138.842 724.927C-147.515 712.82 -164.171 699.594 -177.855 693.362C-181.805 691.561 -190.896 687.174 -190.969 682.827C-191.057 677.645 -180.625 676.202 -175.48 676.895C-167.804 677.955 -161.87 681.54 -156.25 686.588C-151.533 690.825 -147.456 695.325 -143.7 700.547C-141.035 704.268 -138.194 707.612 -135.968 711.589C-128.513 724.951 -122.494 738.718 -118.545 753.502C-116.468 761.271 -115.867 768.863 -114.796 776.75C-114.694 777.503 -114.415 778.354 -113.987 778.648C-113.486 778.975 -111.866 778.33 -111.722 777.445C-110.318 768.941 -116.363 751.113 -118.256 742.544C-119.559 738.945 -120.937 735.355 -122.378 731.764C-122.844 731.3 -123.494 729.934 -123.343 729.25C-131.554 710.788 -143.907 689.59 -161.298 678.295C-169.743 672.811 -182.306 670.269 -191.051 676.292C-198.575 681.472 -193.995 688.329 -187.976 691.915L-186.564 692.672C-186.365 692.771 -186.155 692.881 -185.967 692.97C-185.967 692.97 -185.946 692.991 -185.957 693.001L-179.848 696.315L-177.327 697.686L-170.412 701.385L-170.088 701.571L-166.939 703.293C-155.455 711.184 -144.58 721.05 -137.022 732.903C-136.981 732.967 -136.929 733.042 -136.888 733.106L-134.539 737.276L-132.792 740.366L-132.302 741.242L-129.154 747.838L-127.336 751.627C-127.135 752.138 -126.965 752.617 -126.805 753.086C-125.559 756.927 -125.829 759.385 -125.982 760.153C-126.017 760.332 -126.04 760.417 -126.04 760.417C-129.782 751.822 -134.473 744.117 -137.634 739.319C-137.716 739.19 -137.788 739.072 -137.881 738.954C-139.462 736.576 -140.615 734.989 -141.027 734.431C-145.361 729.038 -150.049 723.882 -155.257 719.413C-158.224 717.06 -161.04 715.123 -163.557 713.541C-163.965 713.289 -164.34 713.049 -164.727 712.82C-165.929 712.088 -167.047 711.442 -168.061 710.883C-168.093 710.85 -168.145 710.839 -168.187 710.817C-170.676 709.457 -172.489 708.628 -173.328 708.273C-181.822 704.765 -191.776 702.349 -200.188 705.915C-204.591 707.784 -206.588 709.891 -206.37 714.928C-215.31 717.945 -226.003 722.999 -227.38 733.301C-228.197 739.353 -225.358 744.421 -220.965 747.911C-220.954 747.922 -220.944 747.933 -220.934 747.944C-220.632 748.214 -220.278 748.475 -219.881 748.715C-218.2 749.795 -215.965 750.653 -215.115 750.955C-212.571 751.703 -209.982 752.283 -207.346 752.673C-205.864 753.072 -205.114 754.218 -205.078 756.132C-205.03 756.398 -205.004 756.684 -205.053 757.021C-205.348 759.087 -205.252 760.675 -205.114 761.724C-205.114 761.724 -205.104 761.735 -205.083 761.736C-203.94 770.279 -196.093 778.183 -188.805 782.291C-185.082 784.395 -183.082 783.757 -181.595 779.653L-179.334 768.998L-178.219 766.578C-176.341 760.895 -171.538 758.019 -166.558 755.305L-164.044 754.34C-147.525 749.781 -133.797 764.577 -129.343 779.434C-140.752 781.134 -148.221 791.052 -148.564 802.019C-148.549 802.336 -148.556 802.696 -148.565 803.118C-148.577 803.234 -148.579 803.34 -148.582 803.467C-148.601 803.879 -148.619 804.27 -148.626 804.65C-148.635 805.094 -148.643 805.517 -148.631 805.94C-148.577 808.605 -148.164 810.675 -147.696 812.175C-147.339 813.345 -146.953 814.156 -146.688 814.647C-146.656 814.637 -146.614 814.638 -146.582 814.628C-142.965 824.754 -136.003 832.016 -128.73 839.581C-125.477 842.965 -112.838 855.573 -109.675 857.094C-106.167 858.781 -100.558 854.758 -97.6901 852.457C-87.2911 844.077 -76.3804 832.8 -69.806 821.067C-67.45 816.853 -65.651 811.93 -65.3227 807.073C-65.2381 805.996 -65.2346 804.749 -65.2184 803.925C-65.2184 803.925 -65.2392 803.903 -65.2495 803.892C-64.6273 793.237 -70.2364 784.944 -80.258 781.141C-77.3654 769.008 -69.8235 755.931 -57.1067 752.788C-56.9579 752.749 -56.788 752.71 -56.6284 752.66C-56.4373 752.621 -56.1936 752.594 -55.9073 752.547C-54.5715 752.362 -52.305 752.153 -49.9622 752.368C-49.8462 752.381 -49.7193 752.384 -49.5929 752.407C-48.2655 752.645 -46.9717 752.977 -45.7429 753.392C-37.4664 756.156 -31.3474 762.715 -29.1939 771.469C-28.9507 781.126 -26.4394 784.062 -21.6814 780.276C-21.6499 780.287 -21.6287 780.287 -21.5972 780.299C-21.4903 780.237 -21.3722 780.144 -21.2544 780.073C-20.9328 779.846 -20.5577 779.59 -20.1287 779.281C-17.8272 777.835 -15.5991 775.818 -14.0642 773.575C-13.7392 773.18 -13.4247 772.773 -13.12 772.335L-13.0989 772.336Z" fill="#C76E00"/>
<path d="M-73.4103 556.307C-73.2206 556.871 -73.0308 557.435 -72.8622 557.999C-72.3737 560.038 -71.7717 562.217 -71.0247 564.547C-70.7799 565.535 -70.5669 566.533 -70.354 567.531C-70.2268 567.513 -70.1215 567.536 -70.0055 567.549C-69.7548 568.241 -69.4938 568.944 -69.2224 569.658C-69.2878 569.762 -69.3426 569.856 -69.4184 569.95C-68.8308 570.712 -68.6457 571.509 -68.1899 572.522L-63.5772 582.561C-63.3642 583.02 -62.9913 583.408 -62.9064 583.928C-62.889 584.118 -62.6606 584.334 -62.5579 584.484C-62.2189 584.988 -62.0544 585.763 -61.5547 586.153C-60.3889 587.085 -57.7788 591.979 -55.597 594.464C-50.9019 599.779 -46.1372 604.779 -40.9679 609.638C-39.6289 610.901 -38.2299 611.796 -37.133 613.001C-36.6262 613.572 -35.7911 614.117 -35.1231 614.553L-28.6417 618.814C-25.3744 620.401 -22.0234 622.032 -18.8457 623.87C-16.4313 625.282 -13.6413 625.876 -11.1158 627.015C17.0183 635.53 39.5983 633.5 65.9431 620.677C66.9979 619.725 68.4418 619.415 69.5986 618.656C75.4367 614.785 81.131 610.7 86.2742 605.61C88.7216 603.195 94.3996 606.923 96.6594 608.13C97.5413 608.444 98.6279 608.56 99.3341 609.209C102.69 610.068 106.111 610.822 109.388 611.923C109.997 612.125 110.685 612.065 111.282 612.341C116.982 612.834 122.626 613.96 128.556 613.484C131.68 613.239 134.606 612.832 137.501 612.889C138.558 612.91 139.701 612.329 140.818 612.521C143.312 611.47 146.143 611.071 148.842 610.903C148.981 610.831 149.08 610.632 149.24 610.583L155.018 608.677C163.435 605.893 165.271 598.571 167.491 591.087C168.363 588.134 170.067 578.885 169.745 576.458C169.597 575.397 169.798 574.334 170.288 573.571C170.075 573.113 170.363 572.463 170.33 571.997C169.866 564.936 169.488 557.856 167.448 550.838C166.647 548.063 165.406 545.565 165.173 542.906C165.121 542.335 164.188 541.365 164.56 540.759C163.943 539.837 163.073 537.854 164.267 536.831C173.364 529.06 183.086 514.778 188.428 504.438C188.602 503.648 189.223 502.18 189.847 501.622C189.894 500.311 190.515 498.865 191.103 497.449C193.842 491.001 195.724 484.526 197.135 477.861C197.211 477.725 197.413 477.655 197.469 477.519C196.928 477.603 198.33 470.283 198.659 470.258C198.587 469.622 198.788 469.077 198.81 468.474C198.965 463.308 199.235 458.175 199.105 452.992C199.094 452.463 198.902 452.005 199.071 451.448C198.125 448.522 198.251 445.31 197.857 442.247C197.784 441.654 197.476 441.203 197.541 440.56C196.124 436.842 195.049 432.92 194.195 429.034C194.04 428.333 193.386 427.696 193.539 426.927L188.027 414.745C187.354 414.066 186.222 412.458 186.358 411.456C184.88 410.307 184.369 408.33 183.11 406.741L174.355 395.541C169.9 389.85 158.373 380.383 152.149 376.454C151.052 375.767 150.124 375.146 149.261 374.399L148.876 374.064C148.137 374.546 147.594 373.679 146.841 373.284L136.899 368.098C136.282 367.779 135.193 367.229 134.53 367.079C131.074 365.943 126.32 364.707 123.114 363.228C122.578 363.037 121.976 362.994 121.418 362.888C120.26 362.674 119.083 362.313 117.872 362.025L98.4794 360.596C98.2978 360.688 98.074 360.779 97.8187 360.858C74.2049 361.704 42.6723 377.586 36.8713 402.116C33.1006 418.037 44.3418 436.676 61.7732 435.179C74.9155 434.053 85.5949 418.416 75.4152 407.611C68.3526 400.114 59.3529 402.4 55.4547 411.373C54.4704 411.967 53.7779 411.7 53.0224 410.871C50.9637 408.578 55.2111 401.198 56.8702 399.084C76.9416 373.588 111.278 371.04 137.717 387.218C161.336 401.67 181.986 426.816 181.818 456.235C181.653 484.492 164.862 509.323 143.081 525.535C139.032 527.104 137.574 529.211 138.717 531.845C146.463 543.267 150.883 555.608 150.791 569.403C150.752 574.582 149.487 585.69 145.934 589.479C144.044 591.503 138.79 592.552 135.861 593.086C119.287 596.143 100.967 590.739 87.5761 580.844C86.4154 579.119 85.1663 578.661 83.8288 579.47C58.9494 616.659 1.68393 623.958 -31.2972 593.145C-46.8588 578.619 -59.1275 560.616 -57.7467 538.283C-56.5714 519.403 -47.1745 501.246 -32.1162 489.796C-30.1305 488.281 -24.4457 484.682 -24.461 488.678C-29.9258 493.455 -33.2227 499.279 -28.0764 505.84C-17.7626 518.962 6.96823 498.442 -2.59018 482.396C-10.7468 468.713 -27.5898 467.176 -40.7534 474.212C-63.6504 486.437 -75.0279 514.441 -74.4143 539.646C-74.4881 540.174 -74.5648 540.849 -74.6241 541.715L-75.3355 543.477C-75.2822 545.603 -74.362 547.725 -74.6813 549.981C-74.5346 550.047 -74.4094 550.134 -74.295 550.232C-74.0867 552.001 -73.7553 553.964 -73.3009 556.119C-73.3548 556.171 -73.3672 556.266 -73.4319 556.328L-73.4103 556.307ZM-71.4126 526.808C-70.1912 516.323 -67.2574 507.468 -61.8557 498.377C-55.6992 488 -48.0898 480.083 -36.9426 475.048C-31.2252 472.475 -24.8909 471.321 -18.7433 473.208C-14.1618 474.63 -9.61113 477.077 -6.71039 480.634C-0.81607 487.865 -2.19151 497.046 -8.83918 502.836C-12.862 506.33 -17.2644 508.696 -22.6291 506.782C-25.4638 505.775 -27.617 503.449 -28.0975 500.469C-29.0017 494.848 -22.4793 490.05 -17.9937 488.827C-17.2179 488.62 -16.4718 487.779 -16.3428 487.136C-15.8163 484.556 -24.6095 481.19 -33.6552 487.958C-37.8508 491.1 -41.8331 494.68 -45.0984 498.897C-55.9691 512.977 -61.6824 530.372 -59.9044 547.988C-58.7371 559.577 -52.1747 572.615 -45.2262 581.612C-35.8038 593.828 -20.8785 605.773 -6.13868 610.493C7.5929 614.876 21.7616 615.853 35.8419 613.265C48.097 611.022 60.7097 604.578 70.2926 596.838C74.6329 593.329 78.2866 589.256 82.2311 585.444C83.2333 584.48 83.9367 583.659 85.1037 583.449C86.7056 583.174 87.4523 583.908 88.8932 584.824C100.263 592.121 113.459 596.314 126.95 596.262C131.761 596.241 146.409 594.891 148.404 590.754C154.146 578.846 154.465 565.891 151.213 553.341C149.356 546.168 146.892 539.745 142.605 533.581C142.029 532.745 141.599 531.542 141.666 530.814C141.75 529.78 142.414 528.809 143.39 528.099C152.035 521.82 159.568 514.515 166.267 506.147C170.234 501.193 172.946 496.055 175.745 490.317C181.937 477.583 185.081 463.404 183.69 449.231C181.717 429.168 169.947 410.002 154.922 397.241C152.624 395.282 150.612 393.276 148.247 391.507C134.983 381.635 119.893 374.307 103.036 374.546C86.4442 374.759 71.1073 381.022 59.4465 392.813C55.7249 396.577 52.2752 400.495 50.8554 405.489C49.5147 410.22 50.6158 414.967 54.0271 418.365C55.6964 420.036 58.0839 420.665 59.5835 418.601C58.8243 417.423 57.8737 416.844 57.2857 415.564C57.1962 410.445 61.6938 405.396 67.0246 405.807C73.4533 406.304 77.3025 412.163 77.1532 418.133C76.9535 426.122 66.2938 435.934 55.0616 432.404C47.1709 429.912 40.3172 422.546 38.8997 414.536C36.3804 400.203 45.9436 385.411 57.0089 377.551C69.2646 368.838 83.3015 364.156 98.1497 363.381C103.547 363.107 108.337 363.085 113.619 364.33C123.132 366.569 131.989 369.397 140.877 373.854C155.492 381.183 168.029 392.002 177.728 405.197C189.579 421.299 195.694 439.868 195.662 459.764C195.647 471.806 193.195 483.038 188.914 494.287C185.491 503.28 181.665 511.811 175.574 519.366L170.784 525.319C167.858 528.941 165.303 532.02 161.084 534.21C159.385 535.096 158.59 537.332 159.534 538.831C162.157 543.048 164.855 554.223 165.769 559.337C168.169 572.747 166.284 586.317 161.29 598.895C159.932 602.314 157.772 604.122 154.458 605.442C149.45 607.436 144.347 608.34 138.958 609.228C131.258 610.514 123.598 610.268 115.82 609.554C108.992 608.923 96.2257 605.458 90.6597 601.415C89.5027 600.578 89.0166 599.49 87.683 599.57C86.2013 599.646 85.6824 600.767 84.7809 601.986C81.8152 606.02 77.8177 608.764 73.7726 611.782C62.0445 620.548 48.3614 625.511 33.8638 627.816C8.09249 631.918 -19.2958 624.179 -39.1209 607.116C-43.5911 603.264 -47.5052 599.085 -51.3387 594.58C-54.0356 591.408 -56.1228 587.878 -58.4139 584.502C-64.3533 575.801 -68.6415 562.713 -70.6133 552.249C-72.2214 543.718 -72.4395 535.467 -71.4454 526.86L-71.4126 526.808Z" fill="#C76E00"/>
<path d="M-61.927 76.6494C-64.2107 78.8034 -66.17 81.1225 -67.8362 83.5953C-68.1918 83.9371 -68.4136 84.4614 -68.8625 84.7063C-73.0376 90.0264 -76.5194 96.1109 -79.2415 102.274C-79.3962 103.148 -80.0345 103.886 -80.3255 104.705C-82.1165 107.609 -83.0394 110.984 -83.7496 114.301C-83.6192 116.27 -84.801 118.297 -85.2922 120.159L-85.908 123.509C-86.9305 124.43 -87.0856 126.404 -85.8594 126.946C-86.2009 127.108 -86.4686 127.283 -86.4939 127.494C-86.7282 129.191 -86.9511 132.454 -86.9803 134.472C-86.6827 134.394 -86.5377 135.084 -86.3579 136.155C-86.4566 150.827 -82.575 165.24 -75.9017 178.544C-67.9972 194.294 -53.1021 210.456 -33.9668 206.72C-21.8999 204.368 -11.9572 191.782 -16.5261 178.984C-18.9906 172.064 -24.7948 167.234 -31.6337 166.095C-36.0491 165.363 -39.8823 166.747 -43.2146 169.536C-48.0411 173.574 -48.59 180.509 -44.0772 184.88C-43.8285 185.139 -44.0391 185.631 -44.1377 185.809C-45.104 187.63 -54.1867 178.031 -55.4647 176.357C-60.7934 169.39 -64.3655 161.274 -66.5973 152.741C-69.8028 140.499 -68.8878 127.862 -64.1954 116.134C-62.5493 112.001 -60.2376 108.431 -58.2468 104.506C-56.289 100.654 -53.2178 97.7011 -50.9294 94.2362C-49.3381 91.8148 -47.3011 90.3748 -45.5329 88.6334L-39.722 82.9226C-29.3399 72.7134 -15.3586 64.9539 -0.449451 63.2283C24.2297 60.3629 52.5274 70.7736 69.2661 89.4144C71.9767 92.428 74.5675 95.0798 76.7849 98.4432C78.2012 100.607 81.8562 100.224 83.5584 98.6083C85.3357 96.9412 86.9844 95.8953 89.0497 94.6356C106.417 84.0354 126.351 86.4579 144.897 92.7647C146.253 95.8574 147.436 98.6189 147.945 101.737C150.132 115.249 150.807 130.36 142.214 142.021C140.303 144.605 138.536 146.843 136.147 148.953C134.286 150.597 135.134 153.659 137.121 154.776C139.631 156.179 141.371 158.011 143.47 159.87C157.28 172.057 165.707 185.999 169.685 204.092C174.411 225.531 170.377 247.843 158.038 266.154C153.628 272.696 142.722 282.663 136.482 288.122C131.028 292.888 117.903 299.036 110.631 301.135C100.466 304.064 88.2877 304.553 77.8391 302.032C65.1178 298.959 51.6837 291.283 46.6657 277.673C53.5781 282.059 60.9257 280.988 65.9583 275.072C68.924 271.578 70.0408 266.937 68.4709 262.371C67.4314 259.327 65.9107 256.02 63.6137 253.479C60.313 249.83 55.662 247.106 50.8202 246.556C44.7127 245.854 39.0844 248.735 34.6181 252.739C22.8334 263.301 26.1989 279.765 33.1915 291.892C42.2795 307.665 56.7814 318.026 74.6247 321.38C79.9124 322.372 85.0431 322.748 90.7503 323.378C90.7925 323.379 90.8241 323.39 90.8663 323.391C90.8448 323.412 90.8232 323.432 90.7913 323.442L91.4905 323.372L107.616 321.596C108.48 321.761 109.106 321.097 109.872 320.879C117.931 318.564 125.998 316.386 133.558 312.063C134.21 311.685 134.798 311.39 135.31 311.707L139.687 308.991C152.862 300.825 167.751 287.258 176.025 274.057L178.197 270.579C179.916 266.501 181.921 262.417 184.144 258.496C184.083 257.85 184.71 257.122 184.807 256.49C185.466 252.581 187.072 248.859 188.019 244.776C188.701 241.818 188.95 238.863 189.934 236.155C190.437 234.759 190.234 233.253 190.653 231.856C190.638 229.403 190.402 226.85 191.136 224.507C191.294 224.002 191.248 223.61 191.237 223.103L190.744 210.575C190.357 200.683 185.732 186.446 182.597 177.62L180.831 174.424C179.126 171.335 173.81 162.677 171.554 159.641C170.257 157.882 168.314 156.659 167.996 154.602C167.882 154.484 167.757 154.354 167.676 154.205C167.236 153.445 165.628 152.399 165.799 151.239C166.884 147.708 168.387 144.397 170.054 141.322C170.054 140.804 170.3 140.132 170.416 139.605C171.434 134.625 172.271 129.672 172.878 124.631C173.055 123.175 172.965 121.81 172.899 120.36C173.419 108.995 170.68 97.7552 167.824 87.0633C167.214 84.7677 164.568 75.264 162.832 74.2994C162.581 74.1676 162.393 74.0582 162.125 74.2538C161.409 74.0705 160.243 73.6987 159.715 73.1491C154.748 71.9729 139.554 67.2122 134.18 66.8631L128.108 66.4792C124.244 66.234 120.556 66.1507 116.728 66.1599C111.157 66.1665 98.4029 68.4949 92.5944 70.3258C92.1472 70.4862 91.6901 70.6146 91.2532 70.7857L84.2121 73.4698C83.4558 73.7615 82.9282 73.7088 82.3629 73.4228C79.5793 71.9725 77.8501 69.0522 75.282 66.8555L70.3746 62.6568L66.8032 60.4086C63.6909 58.4654 60.696 56.4717 57.4279 54.9272C52.4735 52.5778 47.7275 50.3804 42.8717 48.3923C41.6235 47.892 40.1614 47.5143 38.8452 47.2452C36.7581 46.3901 34.6069 45.5759 32.3362 45.4572C31.3805 45.1318 29.9482 44.8498 28.9544 44.8514C23.3028 43.5454 17.6367 42.9792 11.9659 43.1847C10.9842 43.1125 10.1097 43.497 9.05951 43.138C6.70178 43.1444 4.3204 43.2772 1.98625 43.6964C1.01315 43.7196 -0.149392 44.2359 -1.12744 43.9734C-8.37436 44.7611 -15.9372 46.5574 -22.672 49.2581C-23.1387 49.8727 -24.506 50.0466 -25.1761 50.2554C-30.0882 52.1991 -34.6228 54.8375 -39.1371 57.5185C-40.8351 58.9228 -42.7922 60.0578 -44.603 61.2802L-45.366 61.3709C-49.7432 65.1436 -54.12 68.8951 -58.5067 72.6147L-58.7351 73.4772C-59.6474 74.7067 -60.6732 75.7966 -61.9382 76.6809L-61.927 76.6494ZM-37.5488 60.6157C-23.0672 51.6079 -7.19214 47.0045 9.85659 46.6849C33.6105 46.2435 59.6442 55.6581 76.6827 72.4969C78.4663 74.2659 79.4205 76.8114 81.1988 78.316C82.9355 79.7775 84.68 78.1625 86.1887 77.2513C96.696 70.8823 112.714 69.2103 124.876 69.5449C133.467 69.7882 141.534 71.3426 149.792 74.0003C153.217 75.1038 157.866 75.2377 160.349 77.9931C163.287 81.2438 163.645 86.1458 164.888 90.156C167.472 98.5166 168.739 106.629 169.214 115.297C169.759 125.204 169.134 134.907 165.221 144.102C162.704 150.047 160.132 149.637 160.322 152.379C160.377 153.321 165.664 157.03 169.319 162.039L172.191 165.976C180.333 177.163 184.44 190.343 186.58 204.066C189.17 220.694 187.205 241.038 180.86 256.698C176.649 267.05 171.149 276.298 163.772 284.779C160.288 288.792 156.682 292.632 152.433 295.805L144.922 301.408C140.222 304.91 135.59 307.663 130.203 310.084C117.489 315.775 116.735 315.94 103.132 318.442C88.7761 321.087 73.9614 319.093 60.5847 313.332C52.2818 309.765 44.5154 303.11 39.4085 295.619C32.4009 285.332 26.3244 270.707 33.5947 259.073C35.5159 256.002 37.4942 253.789 40.6673 252.108C45.6569 249.446 51.7128 248.477 56.6476 251.82C60.1427 254.183 63.4016 257.27 64.8161 261.136C66.4113 265.492 65.9956 270.495 62.6724 273.897C59.8349 276.791 55.0248 277.848 51.3874 276.265C47.1525 274.426 46.7364 269.248 44.4404 269.341C43.4246 269.384 43.0707 270.18 42.8144 271.381C42.0544 275.077 43.4993 278.478 45.0303 281.796C47.596 287.333 53.0318 292.621 57.8965 296.3C64.1052 300.99 70.7231 304.229 78.538 305.736C88.8175 307.714 99.6173 307.43 109.767 304.744C135.22 298.003 157.963 277.508 168.586 253.464C170.71 248.664 171.863 243.781 173.139 238.615C175.505 229.062 175.285 219.3 174.029 209.496C172.197 195.187 166.555 182.135 157.804 170.683C153.146 164.586 148.492 159.314 142.301 154.794C141.196 153.99 140.208 152.617 140.065 151.324C139.646 147.373 148.28 144.297 151.36 129.123C153.971 116.245 152.647 102.94 148.094 90.4172C134.873 85.3359 121.664 82.8767 107.77 84.5801C102.291 85.2439 97.3213 86.9116 92.3059 89.2656C88.7951 90.9197 85.3941 92.3646 82.2599 94.7556C78.4066 97.6928 75.4217 89.8211 68.2682 83.7174C63.5063 79.6485 58.9213 75.7205 53.5393 72.5379C42.796 66.1944 33.2833 62.3174 20.9213 60.3295C9.26539 58.4507 -2.37908 58.6759 -13.6882 62.8089C-29.7784 68.6768 -40.7415 77.7855 -52.0526 90.6089C-64.002 104.17 -72.5825 122.207 -71.8857 140.51C-71.2573 156.91 -62.4783 176.567 -49.6897 186.958C-44.2787 191.357 -35.9039 192.886 -35.6633 189.793C-35.6085 189.159 -36.344 187.855 -37.2139 187.468C-42.0452 185.311 -45.3168 180.183 -43.1517 174.929C-41.2979 170.451 -36.1397 168.353 -31.3634 169.547C-22.3578 171.796 -16.9092 181.26 -19.3813 190.293C-20.3386 193.805 -22.8395 196.79 -25.5883 198.935C-34.726 206.082 -45.9132 204.561 -54.8306 198.909C-62.6128 193.596 -69.067 185.265 -73.2873 176.777C-78.2459 166.054 -81.6673 155.119 -82.6125 143.524C-83.0902 137.721 -83.4304 132.449 -82.6296 126.682C-80.6577 112.448 -75.617 99.1417 -66.6501 87.784C-58.193 77.0824 -49.065 67.7471 -37.5911 60.6149L-37.5488 60.6157Z" fill="#C76E00"/>
</g>
</svg>
