<svg width="85" height="49" viewBox="0 0 85 49" fill="none" xmlns="http://www.w3.org/2000/svg">
<path d="M23.4248 28.9591H24.5589C28.3693 28.9591 31.4539 32.0589 31.4539 35.8542V46.5294H16.5146V35.8542C16.5146 32.0437 19.6144 28.9591 23.4097 28.9591H23.4248Z" stroke="#C76E00" stroke-width="3" stroke-linejoin="round"/>
<path d="M52.3803 28.9591H55.3742C62.2995 28.9591 67.9244 34.584 67.9244 41.5093V46.5294H39.8301V41.5093C39.8301 34.584 45.455 28.9591 52.3803 28.9591Z" stroke="#C76E00" stroke-width="3" stroke-linejoin="round"/>
<path d="M82.5622 19.4332L76.8768 1.5L6.62595 1.7268L1.5 19.66L82.5622 19.4332Z" stroke="#C76E00" stroke-width="3" stroke-linejoin="round"/>
<path d="M1.65039 20.1139C1.65039 22.8659 4.59899 25.0886 8.22796 25.0886C11.8569 25.0886 14.8054 22.8659 14.8054 20.1139C14.8054 20.0081 14.7752 19.9174 14.7752 19.8115H1.68066C1.68066 19.9174 1.65039 20.0081 1.65039 20.1139Z" stroke="#C76E00" stroke-width="3" stroke-linejoin="round"/>
<path d="M15.1689 20.1139C15.1689 22.8659 18.1175 25.0886 21.7465 25.0886C25.3755 25.0886 28.324 22.8659 28.324 20.1139C28.324 20.0081 28.2937 19.9174 28.2937 19.8115H15.1992C15.1992 19.9174 15.1689 20.0081 15.1689 20.1139Z" stroke="#C76E00" stroke-width="3" stroke-linejoin="round"/>
<path d="M28.6865 20.1139C28.6865 22.8659 31.6351 25.0886 35.2641 25.0886C38.8931 25.0886 41.8416 22.8659 41.8416 20.1139C41.8416 20.0081 41.8113 19.9174 41.8113 19.8115H28.7168C28.7168 19.9174 28.6865 20.0081 28.6865 20.1139Z" stroke="#C76E00" stroke-width="3" stroke-linejoin="round"/>
<path d="M42.2197 20.1139C42.2197 22.8659 45.1682 25.0886 48.7972 25.0886C52.4262 25.0886 55.3748 22.8659 55.3748 20.1139C55.3748 20.0081 55.3445 19.9174 55.3445 19.8115H42.25C42.25 19.9174 42.2197 20.0081 42.2197 20.1139Z" stroke="#C76E00" stroke-width="3" stroke-linejoin="round"/>
<path d="M55.7363 20.1139C55.7363 22.8659 58.6848 25.0886 62.3138 25.0886C65.9428 25.0886 68.8914 22.8659 68.8914 20.1139C68.8914 20.0081 68.8611 19.9174 68.8611 19.8115H55.7666C55.7666 19.9174 55.7363 20.0081 55.7363 20.1139Z" stroke="#C76E00" stroke-width="3" stroke-linejoin="round"/>
<path d="M69.2997 19.8115C69.2997 19.9174 69.2695 20.0081 69.2695 20.1139C69.2695 22.8659 72.218 25.0886 75.847 25.0886C79.476 25.0886 82.4246 22.8659 82.4246 20.1139C82.4246 20.0081 82.3943 19.9174 82.3943 19.8115H69.3148H69.2997Z" stroke="#C76E00" stroke-width="3" stroke-linejoin="round"/>
<path d="M69.2552 20.1138C69.2552 20.0079 69.2855 19.9172 69.2855 19.8114H68.8469C68.8469 19.9172 68.8772 20.0079 68.8772 20.1138C68.8772 22.8658 65.9287 25.0885 62.2997 25.0885C58.6708 25.0885 55.7222 22.8658 55.7222 20.1138C55.7222 20.0079 55.7524 19.9172 55.7524 19.8114H55.3139C55.3139 19.9172 55.3441 20.0079 55.3441 20.1138C55.3441 22.8658 52.3956 25.0885 48.7667 25.0885C45.1377 25.0885 42.1891 22.8658 42.1891 20.1138C42.1891 20.0079 42.2194 19.9172 42.2194 19.8114H41.7809C41.7809 19.9172 41.8111 20.0079 41.8111 20.1138C41.8111 22.8658 38.8626 25.0885 35.2336 25.0885C31.6046 25.0885 28.6561 22.8658 28.6561 20.1138C28.6561 20.0079 28.6863 19.9172 28.6863 19.8114H28.2478C28.2478 19.9172 28.2781 20.0079 28.2781 20.1138C28.2781 22.8658 25.3295 25.0885 21.7005 25.0885C18.0715 25.0885 15.123 22.8658 15.123 20.1138C15.123 20.0079 15.1532 19.9172 15.1532 19.8114H14.7299C14.7299 19.9172 14.7602 20.0079 14.7602 20.1138C14.7602 22.8658 11.8116 25.0885 8.18258 25.0885C7.6836 25.0885 7.21484 25.0432 6.74609 24.9676V46.5448H77.2389V24.9676C76.7702 25.0432 76.3015 25.0885 75.8025 25.0885C72.1736 25.0885 69.225 22.8658 69.225 20.1138H69.2552Z" stroke="#C76E00" stroke-width="3" stroke-linejoin="round"/>
<path d="M14.7764 19.8114L18.1785 1.68164" stroke="#C76E00" stroke-width="3" stroke-linejoin="round"/>
<path d="M28.293 19.8114L30.3645 1.68164" stroke="#C76E00" stroke-width="3" stroke-linejoin="round"/>
<path d="M41.8574 20.1137L41.7969 1.60596" stroke="#C76E00" stroke-width="3" stroke-linejoin="round"/>
<path d="M55.3745 20.1136L53.4238 1.5" stroke="#C76E00" stroke-width="3" stroke-linejoin="round"/>
<path d="M68.8922 20.1137L65.2783 1.60596" stroke="#C76E00" stroke-width="3" stroke-linejoin="round"/>
</svg>
