<svg width="25" height="25" viewBox="0 0 25 25" fill="none" xmlns="http://www.w3.org/2000/svg">
<g clip-path="url(#clip0_2452_1143)">
<path d="M21.3415 17.7944L15.7141 15.3783C15.5294 15.2992 15.3252 15.2771 15.1278 15.315C14.9305 15.3528 14.749 15.4489 14.6067 15.5908L12.2571 17.9062C11.0301 17.1683 9.89002 16.2947 8.85846 15.3018C7.86686 14.2711 6.99304 13.1333 6.25313 11.9093L8.56853 9.56366C8.70991 9.42103 8.80539 9.23936 8.8427 9.04203C8.88002 8.84469 8.85746 8.64071 8.77792 8.4563L6.36185 2.82887C6.26684 2.60784 6.09582 2.42814 5.87975 2.32233C5.66369 2.21651 5.41688 2.19157 5.18401 2.25203L0.75455 3.42282C0.533056 3.47988 0.337599 3.61068 0.200363 3.79366C0.0631269 3.97664 -0.00770624 4.2009 -0.000472712 4.42951C0.28148 9.57749 2.42241 14.4481 6.02461 18.1367C9.71417 21.7403 14.587 23.881 19.7368 24.1608C19.9653 24.1681 20.1895 24.0974 20.3724 23.9603C20.5554 23.8233 20.6863 23.6281 20.7435 23.4067L21.9133 18.9773C21.9754 18.7443 21.9519 18.4968 21.847 18.2797C21.742 18.0626 21.5627 17.8904 21.3415 17.7944Z" fill="#C76E00"/>
<path d="M18.1204 10.067C18.1204 10.334 18.2265 10.5901 18.4153 10.7789C18.604 10.9677 18.8601 11.0737 19.1271 11.0737C19.3941 11.0737 19.6501 10.9677 19.8389 10.7789C20.0277 10.5901 20.1338 10.334 20.1338 10.067C20.1322 8.46557 19.4953 6.93016 18.3629 5.79775C17.2305 4.66534 15.6951 4.02845 14.0936 4.02686C13.8266 4.02686 13.5706 4.13292 13.3818 4.32171C13.193 4.5105 13.0869 4.76656 13.0869 5.03355C13.0869 5.30054 13.193 5.5566 13.3818 5.74539C13.5706 5.93419 13.8266 6.04025 14.0936 6.04025C15.1616 6.04025 16.1858 6.4645 16.941 7.21967C17.6961 7.97484 18.1204 8.99906 18.1204 10.067Z" fill="#C76E00"/>
<path d="M14.0936 0C13.8266 0 13.5706 0.106062 13.3818 0.294855C13.193 0.483647 13.0869 0.739704 13.0869 1.0067C13.0869 1.27369 13.193 1.52975 13.3818 1.71854C13.5706 1.90733 13.8266 2.01339 14.0936 2.01339C16.2288 2.01579 18.2759 2.86506 19.7857 4.37488C21.2955 5.8847 22.1448 7.93176 22.1472 10.067C22.1472 10.334 22.2532 10.59 22.442 10.7788C22.6308 10.9676 22.8869 11.0737 23.1539 11.0737C23.4209 11.0737 23.6769 10.9676 23.8657 10.7788C24.0545 10.59 24.1606 10.334 24.1606 10.067C24.1576 7.39794 23.0961 4.83907 21.2088 2.95178C19.3215 1.0645 16.7626 0.00293109 14.0936 0Z" fill="#C76E00"/>
</g>
<defs>
<clipPath id="clip0_2452_1143">
<rect width="24.1607" height="24.1607" fill="white"/>
</clipPath>
</defs>
</svg>
