<svg width="13" height="13" viewBox="0 0 13 13" fill="none" xmlns="http://www.w3.org/2000/svg">
<path d="M10.6634 13H10.9037C11.1051 12.9935 11.2935 12.8895 11.4104 12.7206L12.8848 10.596C12.9823 10.4531 13.0212 10.2777 12.9888 10.1022C12.9728 10.0167 12.9399 9.93529 12.8919 9.86275C12.844 9.7902 12.7819 9.72803 12.7095 9.67993L9.52022 7.55534C9.25391 7.37992 8.89666 7.4189 8.68231 7.6528L7.46117 8.97173C6.96752 8.67936 6.1426 8.15308 5.49306 7.50336C4.84352 6.85364 4.31739 6.0285 4.0251 5.54121L5.34367 4.31973C5.5775 4.10532 5.62297 3.74798 5.4411 3.48159L3.3171 0.291463C3.21966 0.148524 3.07027 0.0445686 2.90139 0.0120826C2.72601 -0.0204034 2.55064 0.0120826 2.40774 0.116038L0.283737 1.58441C0.114856 1.70136 0.0109291 1.88978 0.00443368 2.09119C-0.0150526 2.55249 -0.0994928 6.66522 3.11574 9.87484C6.01269 12.7726 9.63714 12.9935 10.6634 12.9935V13Z" fill="#C76E00"/>
</svg>
