<svg width="1600" height="1310" viewBox="0 0 1600 1310" fill="none" xmlns="http://www.w3.org/2000/svg">
<g opacity="0.1">
<path d="M956.78 1083.64C976.489 1070.73 993.183 1058.97 1008.84 1042.76C1017.77 1033.51 1024.53 1021.37 1025.04 1008.32C1025.92 986.081 1009.88 968.057 987.724 964.029C960.809 959.138 931.536 974.378 920.519 999.213C912.024 1018.37 921.513 1039.24 941.057 1044.83C959.095 1050 978.978 1043.79 990.639 1028.91C995.269 1022.99 995.891 1016.21 992.736 1011.29C983.99 997.62 971.837 1007.24 963.659 1002.68C970.865 996.2 980.081 994.268 988.641 995.709C999.32 997.499 1005.02 1008.24 1003.55 1018.69C999.898 1044.4 966.629 1061.05 939.43 1055.06C921.775 1051.18 910.081 1037.74 908.814 1020.04C907.384 1000.08 916.905 984.76 930.335 970.088C911.107 978.09 899.053 994.224 888.341 1010.11C876.855 1027.14 862.639 1039.94 842.603 1048.13C849.864 1058.57 857.037 1068.37 865.183 1078.08C869.179 1082.84 875.577 1085.41 877.805 1092.13C862.661 1088.3 842.286 1066.71 838.181 1050.15L820.58 1055.37C823.495 1072.86 827.076 1088.7 832.186 1105.17C833.737 1110.18 839.054 1113.74 836.707 1120.39C819.815 1103.36 813.362 1080.16 813.701 1056.58L803.459 1056.82L803.23 1126.6L802.684 1151.34C802.662 1152.49 802.476 1154.38 802.367 1155.18C802.258 1155.98 799.146 1155.98 799.048 1155.18C798.939 1154.38 798.764 1152.51 798.731 1151.33L798.109 1123.63L797.967 1057.74C795.772 1056.15 789.843 1055.98 787.78 1057.39C787.834 1080.75 781.25 1103.98 764.687 1120.32C762.416 1113.86 767.689 1110.14 769.229 1105.16C774.339 1088.69 777.931 1072.79 780.879 1055.29L763.311 1050.15C758.736 1067.15 739.268 1087.69 723.698 1092.23C725.87 1085.01 732.815 1082.44 736.964 1077.33C744.716 1067.8 751.792 1058.2 758.78 1048.19C739.977 1040.1 725.739 1028.72 714.843 1012.41C701.107 991.877 684.139 972.326 660.391 962.675C674.596 973.996 686.978 985.109 690.952 1002.78C694.01 1016.4 693.507 1031.08 684.095 1041.95C672.521 1055.33 654.342 1058.85 637.385 1054.92C619.817 1050.85 603.995 1039.9 598.7 1022.64C595.293 1011.54 600.141 998.711 611.562 996.015C620.406 993.93 630.32 995.873 637.8 1002.77C629.436 1007.03 617.163 997.925 608.669 1011.25C605.491 1016.24 606.299 1022.97 610.383 1028.38C621.727 1043.46 641.971 1050.14 660.434 1044.79C679.924 1039.16 689.38 1018.35 680.896 999.202C669.879 974.334 640.617 959.16 613.68 964.018C591.035 968.101 574.799 986.998 576.436 1009.65C577.375 1022.65 584.342 1034.37 593.317 1043.57C608.843 1059.5 626.193 1071.49 645.225 1084.02C700.79 1120.63 753.67 1165.39 797.541 1214.47C798.622 1215.68 800.282 1217.7 800.839 1218.8C801.319 1217.8 802.487 1216.15 803.874 1214.59C846.774 1166.16 901.717 1119.74 956.813 1083.64H956.78Z" fill="#EAC5B5"/>
<path d="M764.348 832.112C764.283 828.728 762.372 824.296 759.871 821.73L662.553 822.036L596.254 823.401C599.246 830.278 603.613 836.359 608.69 842.013C627.842 863.366 649.101 881.27 675.797 894.02C686.126 887.372 677.195 870.55 686.836 866.663C692.666 864.316 700.277 865.397 706.173 866.794C733.514 873.246 705.452 906.749 731.373 917.284C738.492 920.177 744.891 921.88 752.054 923.343C770.867 927.185 765.418 892.066 765.254 882.809L764.348 832.112Z" fill="white"/>
<path d="M301.863 793.194C329.312 816.316 362.789 842.406 400.426 833.16C423.934 827.385 442.431 809.493 450.205 786.939C458.612 762.54 441.11 736.264 419.032 724.463C403.309 716.057 385.402 720.675 374.494 734.495C365.661 745.685 363.488 760.979 372.048 772.66C376.263 778.413 387.378 781.448 391.014 774.417L400.186 756.634C403.593 763.512 401.409 768.653 400.208 774.81C398.919 781.426 394.443 786.338 387.094 786.579C375.663 786.95 365.148 780.149 360.868 769.461C353.508 751.078 359.645 731.111 376.143 719.736L364.067 702.891L349.534 712.247L324.923 727.596C323.285 728.622 319.769 728.262 316.625 726.657C327.871 711.767 342.437 701.407 360.049 696.625L351.183 676.004L319.704 684.104C312.345 685.992 279.534 693.951 275.297 691.058C274.38 690.435 276.029 687.281 277.11 686.757C299.308 675.873 323.831 670.371 348.977 669.836C349.774 663.362 349.796 657.565 349.075 651.201C323.962 649.684 300.76 645.393 278.376 634.608C277.372 634.116 275.559 632.195 274.992 631.311C274.282 630.208 278.333 627.785 279.698 628.079L318.929 636.431L351.063 644.695L360.125 624.051C349.272 623.527 315.326 600.777 318.132 593.004C318.547 591.858 322.281 591.716 323.58 592.502L344.424 605.165L363.816 617.861L376.165 601.039C357.264 588.146 351.194 561.87 365.737 543.519C372.616 534.829 388.252 529.96 396.026 538.181C401.922 544.414 403.363 555.178 400.393 563.573C396.637 558.464 394.705 553.344 392.423 548.191C389.584 541.805 382.29 540.561 376.438 544.152C362.746 552.558 362.724 578.354 381.122 592.84C390.534 600.253 403.025 602.6 414.522 598.146C440.509 588.07 462.357 555.364 446.951 525.506C437.616 507.407 421.871 493.117 401.889 487.942C360.693 477.266 326.059 507.166 296.098 532.318L205.832 608.069C183.569 626.759 159.602 644.498 133.255 660.207C162.55 677.434 189.116 698.219 214.054 719.234L301.863 793.216V793.194Z" fill="#EAC5B5"/>
<path d="M1297.31 526.303C1283.32 514.568 1269.56 504.219 1253.68 495.54C1216.2 475.05 1173.4 486.992 1153.62 525.463C1137.94 555.975 1160.93 589.14 1187.08 598.463C1198.34 602.48 1210.15 600.024 1219.43 592.808C1236.91 579.227 1238.27 554.152 1225.05 544.72C1219.7 540.899 1211.85 540.975 1208.73 547.242C1206.1 552.536 1204.08 557.929 1200.27 563.562C1197.09 554.96 1198.73 543.421 1205.14 537.558C1213.27 530.124 1228.14 535.091 1234.8 543.497C1248.99 561.357 1243.92 587.426 1224.56 600.853L1236.64 617.949L1252.74 607.283L1276.16 592.851C1277.61 591.967 1281.41 591.76 1282.33 592.906C1283.26 594.052 1281.86 597.469 1280.7 598.681C1269.25 610.569 1256.26 620.209 1240.44 624.029L1249.5 644.629L1281.7 636.354L1320.9 628.101C1322.01 627.861 1324.63 629.16 1325.28 630.001C1325.93 630.841 1324.08 633.636 1323.1 634.116C1300.57 645.164 1276.83 649.694 1251.58 651.114C1250.65 657.86 1250.65 664.083 1251.88 669.945C1277.2 670.174 1302.03 676.288 1323.25 686.68C1324.32 687.204 1325.33 689.071 1325.63 689.857C1326.02 690.916 1322.04 692.695 1320.46 692.368L1281.94 684.355L1249.53 675.884L1240.59 696.418C1257.58 701.712 1272.24 710.85 1283.11 725.871C1284.28 727.487 1277.92 728.928 1276.28 727.912L1251.95 712.793L1236.56 702.891L1224.46 719.408C1241.54 731.755 1248.43 754.222 1237.7 773.315C1232.87 781.906 1223.13 786.808 1213.48 786.589C1199.14 786.251 1196.61 765.378 1200.13 756.754L1210.08 775.127C1213.81 781.994 1225.18 777.758 1229.09 771.863C1237.37 759.374 1234.38 743.883 1224.72 732.869C1213.62 720.227 1196.52 716.406 1181.5 724.43C1159.88 735.98 1142.33 761.863 1150.03 785.836C1157.84 810.148 1178.43 829.241 1203.78 833.924C1240.58 840.725 1272.59 815.071 1299.49 792.517L1396.19 711.428C1418 693.143 1441.82 675.152 1467.58 660.382C1442.23 645.339 1418.72 628.047 1397.11 609.936L1297.29 526.292L1297.31 526.303Z" fill="#EAC5B5"/>
<path d="M752.054 391.701C744.891 393.164 738.492 394.856 731.373 397.76C705.452 408.294 733.514 441.798 706.173 448.249C700.277 449.636 692.677 450.727 686.836 448.38C677.195 444.494 686.126 427.671 675.797 421.023C649.101 433.774 627.831 451.688 608.69 473.03C603.613 478.685 599.246 484.776 596.254 491.643L662.553 493.008L759.871 493.313C762.383 490.748 764.283 486.316 764.348 482.932L765.254 432.235C765.418 422.977 770.867 387.858 752.054 391.701Z" fill="white"/>
<path d="M647.113 235.134C628.726 247.208 612.948 258.354 597.466 272.644C575.978 292.479 566.904 322.205 588.632 343.526C603.766 358.361 625.352 361.036 644.744 353.613C661.384 347.248 675.589 336.059 681.682 319.291C688.168 301.442 680.077 282.076 661.854 276.126C632.362 266.476 602.193 290.22 607.303 306.529C613.582 326.55 647.845 310.077 636.948 318.941C630.102 324.509 615.099 328.799 605.415 321.605C593.022 312.391 596.832 293.571 607.293 282.447C622.666 266.094 646.786 259.926 667.772 267.305C682.796 272.6 691.629 285.165 692.579 300.863C693.856 322.096 683.058 339.41 666.898 353.187C671.975 351.418 676.703 348.94 680.885 345.807C716.775 318.941 713.619 291.289 758.626 272.425C748.603 256.694 737.892 243.322 724.134 231.095L725.532 228.082C742.521 237.645 757.84 251.116 762.928 270.471L780.901 265.209L773.924 231.291C772.002 221.958 768.202 213.344 764.239 204.862L763.332 202.919C756.748 188.858 791.939 223.224 787.168 263.681C791.677 264.489 794.986 264.336 797.967 263.113L798.251 191.424L798.556 173.149C798.6 170.562 798.851 166.73 799.517 164.645C799.812 163.728 802.88 166.283 802.891 167.385L803.164 192.701L803.426 263.135C806.363 264.314 809.431 264.478 814.236 263.648C809.344 223.923 844.568 188.531 838.126 202.93L837.252 204.895C826.508 228.922 825.504 238.878 820.558 265.133L838.497 270.493C842.603 255.177 852.102 244.555 864.145 235.658C868.425 232.503 872.564 228.267 878.482 229.272C864.364 243.223 852.397 256.553 842.81 272.589C861.83 280.22 876.309 292.523 887.238 308.996C892.752 317.315 914.328 347.303 924.264 343.744C913.443 330.065 907.121 315.175 909.098 298.178C910.746 284.03 919.045 272.895 932.66 267.709C954.443 259.424 980.081 266.225 995.4 283.986C1002.44 292.152 1005.87 302.916 1002.34 312.97C999.461 321.212 990.628 326.856 981.729 325.317C975.757 324.28 968.114 322.664 964.489 318.832C963.855 318.155 966.17 315.95 967.12 316.092C976.27 317.435 990.148 318.799 994.144 306.442C999.265 290.558 969.216 266.323 939.517 276.115C921.185 282.163 912.526 302.097 920.289 320.612C930.673 345.381 959.564 360.774 986.261 356.735C1010.07 353.132 1027.23 333.417 1024.88 309.826C1023.37 294.706 1014.13 281.912 1003.27 271.967C987.254 257.273 971.477 246.411 952.532 233.955C899.424 199.022 845.507 152.768 803.928 106.077C802.531 104.505 801.1 102.169 800.98 101.285C800.609 102.453 798.611 104.898 796.908 106.798C754.576 154.012 701.096 199.688 647.135 235.112L647.113 235.134Z" fill="#EAC5B5"/>
<path d="M937.312 422.082C926.983 428.73 935.914 445.564 926.273 449.439C920.443 451.786 912.832 450.705 906.936 449.308C879.596 442.856 907.657 409.353 881.736 398.819C874.617 395.926 868.218 394.223 861.056 392.76C842.243 388.917 847.691 424.036 847.855 433.293L848.761 483.99C848.827 487.375 850.737 491.807 853.238 494.372L950.546 494.066L1016.84 492.702C1013.85 485.824 1009.49 479.744 1004.41 474.089C985.256 452.736 963.997 434.833 937.301 422.082H937.312Z" fill="white"/>
<path d="M853.248 822.811C850.737 825.376 848.826 829.809 848.772 833.193L847.866 883.89C847.702 893.147 842.253 928.266 861.066 924.423C868.229 922.96 874.627 921.268 881.746 918.365C907.667 907.83 879.606 874.327 906.947 867.875C912.843 866.489 920.442 865.397 926.284 867.744C935.925 871.63 926.994 888.453 937.323 895.101C964.019 882.351 985.289 864.436 1004.43 843.094C1009.51 837.439 1013.87 831.348 1016.87 824.481L950.567 823.117L853.259 822.811H853.248Z" fill="white"/>
<path d="M1186.04 896.586C1168.82 910.93 1143.25 915.395 1121.75 907.852C1106.73 902.579 1096.94 888.038 1096.82 872.788C1096.69 856.031 1108.34 843.411 1123.51 838.04C1132.23 834.95 1142.72 835.038 1150.4 841.293C1162.45 851.096 1162.74 870.146 1153.46 882.165C1148.75 888.257 1140.9 890.254 1134.56 886.259C1124.95 880.189 1132 870.572 1129.61 871.565C1121.93 874.785 1124.68 884.949 1126.26 887.078C1132.19 895.058 1142.14 896.695 1150.81 891.051C1167.82 879.971 1170.65 854.328 1157.04 838.957C1149.47 830.409 1138.44 829.689 1127.87 832.167C1107.84 836.861 1090.96 852.548 1091.38 874.119C1091.9 901.76 1116.6 919.118 1144.17 916.596C1111.01 925.843 1119.91 953.145 1091.58 974.214C1095.54 967.293 1100.11 960.765 1102.76 953.211C1108.53 936.781 1103 919.697 1090.65 908.114C1079.34 897.514 1064.78 893.955 1050.02 899.042C1037.04 903.518 1027.15 915.133 1024.61 930.1C1022.29 943.735 1026.26 958.298 1038.56 965.787C1047.43 971.19 1059 970.219 1067.58 964.007C1074.44 959.04 1080.22 950.11 1079.08 940.056C1078.38 933.954 1073.3 928.637 1068.36 928.091C1062.69 927.469 1055.82 929.019 1054.19 935.613C1060.79 933.823 1069.17 931.574 1072.22 938.331C1076.49 947.763 1068.98 957.981 1060.88 961.344C1051.69 965.164 1042.03 962.632 1035.67 953.898C1025.37 939.761 1028.84 917.426 1044.01 907.546C1058.29 898.245 1076.34 902.383 1087.97 913.649C1099.97 925.286 1104.06 942.49 1095.99 957.872C1089.28 970.688 1078.87 983.559 1065.43 989.781L1034.35 1004.19C1031.9 968.101 1003.93 949.259 970.079 953.112C967.262 952.468 966.192 952.108 969.38 951.115C1085.68 884.076 1151.26 756.7 1138.17 623.877C1127.69 517.494 1067.15 424.178 975.593 369.54C972.525 368.536 972.263 368.208 975.451 368.121C1008.31 368.831 1032.36 348.809 1034.28 316.169L1065.78 330.797C1078.05 336.495 1087.73 348.493 1094.6 359.901C1104 375.501 1101.02 393.721 1088.55 406.264C1077.3 417.563 1059.78 422.126 1045.34 413.72C1029.72 404.626 1025.45 383.251 1034.41 368.241C1039.8 359.224 1049.36 355.534 1058.86 358.46C1067.15 361.014 1074.74 369.103 1073.17 379.54C1072.76 382.302 1068.82 386.712 1066.34 386.548L1053.95 385.73C1056.97 390.926 1063.51 393.775 1069.56 392.181C1074.19 390.959 1078.92 385.478 1079.17 379.485C1079.58 369.529 1074.4 360.796 1066.95 356.025C1059.44 351.222 1050.03 349.224 1041.4 353.143C1018.95 363.361 1020.11 395.784 1034.41 411.351C1044.56 422.388 1060.85 426.187 1074.84 421.765C1089.33 417.18 1099.61 404.757 1103.34 392.007C1107.84 376.647 1102.86 362.073 1093.21 349.705L1094.24 348.231C1104.59 357.368 1109.54 366.494 1115.21 377.236C1124.87 395.544 1123.64 394.812 1143.76 404.157C1123.43 402.083 1103.69 410.903 1094.92 429.986C1089.41 441.994 1089.9 454.767 1096.7 466.273C1110.19 489.078 1144.57 497.09 1157.57 481.098C1169.53 466.371 1168.07 444.483 1154.21 431.852C1148.37 426.525 1140.35 424.407 1133.24 427.66C1129.41 429.407 1125.63 433.195 1124.91 436.339C1123.91 440.695 1125.27 445.498 1128.01 449.483L1130.38 447.824C1126.12 440.597 1133.87 433.861 1136.78 432.911C1141.23 431.449 1146.94 432.147 1150.71 435.575C1162.6 446.383 1163.25 466.72 1151.71 477.954C1143.64 485.814 1132.47 485.661 1122.79 482.211C1108.58 477.146 1098.41 465.323 1096.98 451.513C1095.4 436.339 1103.23 422.824 1116.54 414.932C1127.21 408.611 1140.18 408.305 1152.5 409.713C1196.56 414.746 1214.07 465.607 1221.49 478.216C1222.55 478.325 1223.62 478.456 1224.67 478.598C1224.58 478.292 1224.51 477.997 1224.42 477.746C1216.94 455.705 1199.17 424.396 1178.12 412.192C1146.54 393.862 1132.22 404.528 1119.94 376.625C1109.62 353.187 1091.5 336.834 1067.58 327.26C1056.5 322.817 1044.76 318.527 1034.12 311.867C1029.3 279.74 999.505 256.618 973.442 238.988C952.609 224.883 932.562 211.696 912.472 196.391C878.929 170.857 848.936 142.997 819.466 112.944C815.022 108.413 806.429 102.104 802.181 99.167L801.057 100.935C801.057 101.034 801.013 101.154 800.98 101.274C801.101 102.158 802.531 104.494 803.929 106.066C845.507 152.757 899.424 199 952.533 233.944C971.466 246.4 987.254 257.262 1003.27 271.956C1014.13 281.912 1023.38 294.706 1024.88 309.815C1027.23 333.406 1010.07 353.121 986.261 356.724C959.564 360.763 930.673 345.371 920.29 320.601C912.526 302.086 921.185 282.152 939.518 276.104C969.217 266.301 999.265 290.547 994.144 306.431C990.159 318.789 976.27 317.424 967.12 316.081C966.159 315.939 963.845 318.144 964.489 318.821C968.114 322.664 975.757 324.28 981.729 325.306C990.617 326.845 999.451 321.201 1002.34 312.959C1005.87 302.894 1002.44 292.13 995.4 283.975C980.081 266.214 954.443 259.402 932.661 267.699C919.056 272.873 910.747 284.019 909.098 298.167C907.122 315.164 913.455 330.055 924.264 343.733C914.328 347.292 892.753 317.304 887.239 308.985C876.309 292.512 861.831 280.198 842.81 272.578C852.408 256.531 864.364 243.202 878.482 229.261C872.564 228.257 868.415 232.492 864.145 235.647C852.102 244.544 842.603 255.177 838.497 270.482L820.558 265.122C825.515 238.857 826.508 228.901 837.253 204.884L838.126 202.919C844.568 188.52 809.333 223.912 814.236 263.638C809.432 264.467 806.374 264.303 803.426 263.124L803.164 192.69L802.891 167.374C802.88 166.272 799.812 163.717 799.517 164.634C798.851 166.73 798.589 170.551 798.556 173.138L798.251 191.413L797.967 263.103C794.986 264.325 791.678 264.478 787.168 263.67C791.94 223.213 756.749 188.847 763.333 202.908L764.239 204.851C768.202 213.334 772.013 221.936 773.924 231.281L780.901 265.199L762.929 270.46C757.841 251.105 742.522 237.634 725.532 228.071L724.134 231.084C737.881 243.311 748.592 256.684 758.627 272.415C713.62 291.279 716.775 318.941 680.885 345.796C676.703 348.919 671.975 351.408 666.898 353.176C683.058 339.41 693.857 322.085 692.579 300.852C691.64 285.154 682.796 272.589 667.772 267.295C646.797 259.904 622.666 266.083 607.293 282.436C596.843 293.549 593.033 312.38 605.415 321.594C615.089 328.788 630.102 324.498 636.948 318.93C647.834 310.066 613.582 326.528 607.304 306.518C602.194 290.209 632.362 266.476 661.854 276.115C680.066 282.076 688.168 301.442 681.682 319.28C675.59 336.059 661.384 347.237 644.744 353.602C625.352 361.014 603.766 358.351 588.633 343.515C566.893 322.195 575.978 292.468 597.466 272.633C612.938 258.343 628.715 247.197 647.113 235.123C701.085 199.699 754.554 154.023 796.886 106.809C798.589 104.909 800.587 102.464 800.959 101.296C800.937 101.121 800.959 101.001 801.035 100.957C801.035 95.237 781.097 113.85 780.508 114.45C752.49 142.932 724.036 169.307 692.295 193.847C670.043 211.063 647.561 225.626 624.468 241.433C601.342 257.262 570.802 281.541 567.811 311.474C556.99 318.297 545.591 322.675 533.842 327.293C480.417 348.307 484.097 388.994 466.255 395.183L442.278 403.502C408.572 415.205 388.863 446.514 377.519 478.357C378.589 478.226 379.659 478.106 380.74 478.019C390.381 461.753 406.017 413.371 451.406 409.451C462.783 408.469 474.979 409.091 484.861 414.921C497.778 422.551 505.497 435.619 504.536 450.171C503.63 463.958 494.218 475.792 480.613 481.447C470.088 485.824 457.509 486.239 448.993 477.277C437.877 465.585 439.133 445.029 451.417 435.051C456.636 430.804 463.285 431.274 468.21 435.215C472.009 438.261 472.271 443.26 471.835 449.625C476.803 446.819 477.633 440.793 476.366 436.11C475.569 433.162 471.889 429.331 468.133 427.639C460.632 424.254 452.421 426.722 446.339 432.584C432.353 446.088 431.719 470.77 446.874 483.892C456.024 491.807 469.171 490.289 479.904 486.37C496.85 480.181 510.214 465.41 510.061 446.677C509.843 420.335 486.368 401.952 459.999 404.059C456.166 404.364 459.3 403.131 461.178 402.105C487.263 395.172 484.304 365.828 507.539 348.242C508.063 346.735 507.932 348.919 507.834 350.392C490.08 371.407 493.312 400.795 515.87 416.536C527.291 424.506 541.453 426.045 555.134 419.844C565.594 415.106 573.827 405.019 576.535 391.504C578.948 379.463 576.393 366.385 567.134 357.848C558.519 349.901 546.934 349.366 537.085 354.453C527.804 359.246 521.111 369.256 522.345 380.762C522.978 386.603 527.968 391.668 533.002 392.421C538.133 393.186 546.213 391.024 546.41 385.227C538.526 388.109 529.671 387.323 528.241 379.343C526.483 369.464 534.312 360.894 542.468 358.449C552.033 355.589 561.521 359.169 566.937 368.241C576.316 383.961 571.13 406.515 554.108 414.746C539.422 421.853 522.858 416.678 512.452 405.882C501.829 394.867 497.461 378.819 504.831 363.853C511.273 350.753 522.105 337.194 535.622 330.841L567.112 316.027C568.247 326.125 570.366 337.063 576.436 345.392C591.308 365.828 616.443 371.942 640.573 365.566C643.259 365.501 643.652 365.621 640.879 366.462C608.09 385.708 578.456 408.578 553.518 437.114C441.011 565.844 440.705 753.097 553.463 881.968C581.328 913.812 614.958 938.375 652.125 958.396C636.664 953.767 622.164 950.34 606.867 954.412C583.675 960.579 567.767 979.345 567.439 1004.45L535.928 989.825C522.53 983.603 512.125 970.732 505.388 957.905C497.505 942.883 501.25 926.039 512.693 914.402C524.321 902.579 542.774 898.082 557.383 907.579C572.2 917.218 575.858 938.801 566.369 953.003C560.167 962.293 549.958 965.47 540.568 961.431C532.729 958.058 525.468 948.768 528.765 939.237C531.309 931.88 540.186 933.495 547.261 935.679C545.329 928.67 537.893 927.065 531.757 928.375C527.608 929.26 522.891 934.62 522.301 940.023C521.177 950.198 526.953 959.073 533.831 964.04C542.02 969.957 553.3 971.169 561.882 966.387C574.449 959.368 578.893 945.001 576.971 931.366C574.766 915.756 564.83 903.747 551.312 899.042C536.758 893.977 521.941 897.59 510.749 908.103C502.102 916.225 496.904 926.661 496.38 938.735C495.769 952.49 502.964 963.276 510.422 974.826C481.64 953.593 490.309 925.679 457.215 916.629C485.363 919.118 510.498 900.876 510.007 872.711C509.635 851.675 493.05 836.806 473.614 832.178C463.034 829.656 451.886 830.398 444.352 838.935C431.261 853.793 433.292 877.842 448.916 890.003C454.343 894.228 461.997 895.625 467.806 893.005C472.151 891.04 476.038 886.783 476.683 883.191C477.36 879.425 476.541 873.464 471.813 870.888C472.271 877.777 472.009 882.94 467.238 886.03C462.325 889.217 455.751 889.315 450.827 884.971C439.253 874.763 438.03 854.917 448.774 843.334C456.68 834.809 468.919 834.601 479.096 838.466C493.585 843.968 504.755 856.685 504.58 872.58C504.329 895.385 485.221 910.494 463.668 911.334C417.82 913.125 393.613 877.624 376.219 842.144C375.226 842.003 374.243 841.861 373.26 841.686C384.179 873.071 407.982 904.861 440.487 916.269L466.79 925.493C483.463 931.345 481.312 972.926 534.29 993.373C545.678 997.773 556.477 1002.31 567.581 1008.51C570.453 1026.84 579.734 1041.55 593.175 1053.99C607.107 1066.9 621.727 1077.67 637.942 1088.2C689.467 1121.61 735.839 1159.83 778.379 1204.14C778.99 1204.77 798.884 1223.56 800.86 1220.39C800.708 1220.19 800.598 1219.94 800.566 1219.58C800.555 1219.41 800.642 1219.13 800.806 1218.78C800.249 1217.67 798.589 1215.66 797.508 1214.45C753.626 1165.38 700.757 1120.61 645.192 1084C626.16 1071.47 608.81 1059.47 593.284 1043.55C584.309 1034.34 577.354 1022.63 576.404 1009.63C574.766 986.965 590.991 968.079 613.647 963.996C640.584 959.138 669.846 974.313 680.863 999.181C689.347 1018.33 679.892 1039.14 660.402 1044.77C641.938 1050.11 621.695 1043.43 610.35 1028.36C606.266 1022.94 605.458 1016.22 608.636 1011.23C617.12 997.904 629.392 1007.01 637.767 1002.75C630.288 995.851 620.373 993.908 611.529 995.993C600.108 998.69 595.26 1011.51 598.667 1022.62C603.963 1039.88 619.784 1050.83 637.352 1054.9C654.309 1058.83 672.489 1055.3 684.062 1041.93C693.474 1031.06 693.977 1016.37 690.919 1002.76C686.945 985.087 674.574 973.974 660.358 962.654C684.106 972.315 701.074 991.856 714.81 1012.39C725.718 1028.7 739.945 1040.07 758.747 1048.16C751.759 1058.17 744.683 1067.78 736.931 1077.31C732.782 1082.41 725.849 1084.99 723.665 1092.21C739.224 1087.67 758.703 1067.13 763.278 1050.13L780.846 1055.27C777.898 1072.77 774.306 1088.66 769.196 1105.14C767.656 1110.11 762.383 1113.84 764.654 1120.3C781.207 1103.96 787.802 1080.73 787.747 1057.37C789.811 1055.95 795.739 1056.13 797.934 1057.72L798.076 1123.61L798.698 1151.3C798.72 1152.48 798.906 1154.36 799.015 1155.16C799.124 1155.96 802.225 1155.96 802.334 1155.16C802.444 1154.36 802.629 1152.47 802.651 1151.32L803.197 1126.58L803.426 1056.8L813.668 1056.56C813.33 1080.14 819.783 1103.33 836.674 1120.37C839.021 1113.73 833.704 1110.17 832.153 1105.15C827.043 1088.68 823.462 1072.84 820.547 1055.35L838.148 1050.13C842.253 1066.69 862.628 1088.28 877.772 1092.1C875.534 1085.38 869.146 1082.81 865.15 1078.05C857.005 1068.34 849.831 1058.55 842.57 1048.11C862.606 1039.92 876.822 1027.11 888.309 1010.09C899.02 994.203 911.074 978.068 930.302 970.066C916.883 984.738 907.362 1000.05 908.781 1020.02C910.048 1037.73 921.753 1051.17 939.397 1055.04C966.596 1061.02 999.865 1044.38 1003.51 1018.67C1004.99 1008.23 999.287 997.489 988.608 995.687C980.048 994.246 970.833 996.179 963.626 1002.66C971.804 1007.22 983.957 997.598 992.703 1011.27C995.858 1016.19 995.236 1022.98 990.606 1028.89C978.956 1043.76 959.062 1049.98 941.024 1044.81C921.48 1039.22 911.991 1018.35 920.486 999.192C931.492 974.356 960.765 959.117 987.691 964.007C1009.85 968.036 1025.88 986.059 1025.01 1008.3C1024.5 1021.36 1017.74 1033.49 1008.81 1042.74C993.151 1058.95 976.456 1070.71 956.747 1083.62C901.651 1119.73 846.708 1166.14 803.808 1214.57C802.422 1216.13 801.264 1217.78 800.773 1218.78C800.871 1218.98 800.948 1219.15 800.959 1219.28C801.024 1219.78 800.959 1220.13 800.817 1220.37C803.372 1223.56 821.846 1205.29 822.96 1204.14C864.331 1161.15 909.12 1123.74 959.04 1091.11C987.746 1072.36 1029.97 1044.57 1033.76 1008.49C1044.89 1002.31 1055.69 997.751 1067.08 993.34C1120.06 972.872 1117.85 931.345 1134.57 925.471L1160.85 916.236C1177.39 910.428 1190.88 900.843 1201.57 886.75C1207.75 878.606 1223.39 849.306 1224.77 842.057C1223.94 842.177 1223.1 842.297 1222.27 842.396C1216.91 850.288 1204.68 880.975 1185.99 896.553L1186.04 896.586ZM723.861 309.979C750.274 273.08 800.817 263.474 841.02 280.624C855.694 286.89 867.541 296.409 876.931 309.095L896.465 335.469C881.419 332.03 859.003 326.921 846.042 325.732L833.18 324.553C815.754 322.948 798.666 322.719 781.796 324.411L761.52 326.441L751.038 328.177C734.07 330.982 718.271 335.011 700.288 340.207C708.673 330.087 716.327 320.502 723.872 309.979H723.861ZM881.124 1005.73C862.737 1034.14 831.706 1048.9 797.77 1048.01C765.56 1047.17 736.931 1032 719.69 1004.87C713.27 994.771 705.212 986.889 696.564 977.358C716.382 982.915 734.485 987.904 753.953 990.851L767.449 992.893L787.419 994.072C799.474 994.781 810.513 994.705 822.567 993.974L840.343 992.893L857.43 990.327C872.302 988.089 886.278 984.039 901.138 980.764C893.877 989.203 886.966 996.681 881.113 1005.73H881.124ZM804.365 986.408C623.289 986.408 476.497 839.645 476.497 658.603C476.497 477.561 623.289 330.797 804.365 330.797C985.442 330.797 1132.23 477.561 1132.23 658.603C1132.23 839.645 985.442 986.408 804.365 986.408Z" fill="#AB6520"/>
<path d="M375.39 840.441C375.663 841.009 375.946 841.588 376.23 842.155C386.942 843.662 398.122 843.116 409.805 839.699C442.42 830.169 474.674 792.201 459.169 755.455C446.776 726.1 413.256 701.265 380.489 717.094C348.497 666.419 348.475 653.646 380.707 603.473C395.12 610.034 409.871 610.46 424.011 603.113C449.877 589.675 471.638 557.765 460.195 527.985C449.724 500.715 424.185 480.399 394.705 477.975C389.955 477.582 385.315 477.626 380.773 478.019C379.997 479.329 379.266 480.432 378.556 481.283C378.163 481.753 377.191 479.395 377.431 478.718C377.475 478.598 377.519 478.478 377.562 478.368C344.61 482.473 317.062 505.464 291.796 526.533L186.135 614.663C168.632 629.259 147.406 640.961 133.255 660.131C133.255 660.131 133.277 660.142 133.288 660.153C159.635 644.454 183.602 626.704 205.865 608.015L296.13 532.264C326.102 507.112 360.726 477.222 401.922 487.888C421.903 493.062 437.637 507.352 446.984 525.452C462.39 555.309 440.531 588.026 414.555 598.091C403.058 602.545 390.567 600.198 381.155 592.786C362.768 578.3 362.778 552.503 376.471 544.098C382.323 540.506 389.617 541.751 392.456 548.137C394.749 553.289 396.681 558.398 400.426 563.518C403.396 555.123 401.955 544.371 396.059 538.126C388.285 529.906 372.66 534.775 365.77 543.464C351.237 561.815 357.308 588.092 376.198 600.984L363.848 617.807L344.457 605.111L323.613 592.448C322.314 591.662 318.579 591.803 318.164 592.95C315.358 600.722 349.305 623.473 360.158 623.997L351.095 644.64L318.961 636.376L279.73 628.025C278.355 627.73 274.315 630.154 275.024 631.256C275.592 632.141 277.405 634.073 278.409 634.553C300.793 645.339 323.995 649.618 349.108 651.146C349.829 657.511 349.807 663.308 349.01 669.781C323.864 670.316 299.34 675.818 277.143 686.702C276.062 687.237 274.413 690.381 275.33 691.003C279.567 693.896 312.377 685.938 319.737 684.049L351.215 675.949L360.081 696.571C342.47 701.363 327.893 711.723 316.658 726.602C319.802 728.207 323.318 728.557 324.956 727.541L349.567 712.192L364.1 702.837L376.176 719.681C359.688 731.056 353.541 751.023 360.9 769.407C365.181 780.105 375.695 786.895 387.127 786.524C394.476 786.284 398.952 781.371 400.241 774.756C401.442 768.61 403.625 763.457 400.219 756.58L391.047 774.363C387.422 781.404 376.296 778.358 372.081 772.605C363.521 760.935 365.694 745.63 374.527 734.441C385.435 720.62 403.342 716.002 419.065 724.408C441.131 736.209 458.645 762.486 450.238 786.884C442.463 809.438 423.967 827.341 400.459 833.105C362.811 842.352 329.334 816.272 301.895 793.139L214.087 719.157C189.148 698.143 162.583 677.346 133.288 660.131C133.288 660.131 133.288 660.131 133.277 660.131C147.974 679.311 168.818 691.462 186.331 706.068L296.01 797.528C319.005 816.709 344.468 836.544 373.304 841.653C373.239 841.479 373.173 841.304 373.118 841.129L375.422 840.398L375.39 840.441Z" fill="#AB6520"/>
<path d="M375.389 840.441L373.085 841.173C373.151 841.347 373.216 841.522 373.271 841.697C374.254 841.871 375.247 842.024 376.23 842.155C375.946 841.588 375.662 841.009 375.389 840.441Z" fill="black"/>
<path d="M378.545 481.294C379.255 480.442 379.986 479.34 380.761 478.03C379.68 478.117 378.61 478.237 377.54 478.368C377.497 478.488 377.453 478.608 377.409 478.718C377.169 479.394 378.141 481.752 378.534 481.283L378.545 481.294Z" fill="black"/>
<path d="M1467.64 660.415C1467.64 660.415 1467.61 660.404 1467.59 660.393C1441.82 675.163 1418.01 693.154 1396.21 711.439L1299.5 792.528C1272.61 815.071 1240.59 840.725 1203.8 833.935C1178.44 829.252 1157.84 810.159 1150.04 785.847C1142.36 761.874 1159.89 736.002 1181.51 724.441C1196.53 716.417 1213.62 720.238 1224.73 732.88C1234.4 743.894 1237.39 759.385 1229.11 771.874C1225.2 777.769 1213.82 782.004 1210.1 775.138L1200.14 756.765C1196.62 765.389 1199.15 786.262 1213.49 786.6C1223.14 786.83 1232.87 781.917 1237.71 773.326C1248.44 754.233 1241.55 731.755 1224.48 719.419L1236.57 702.902L1251.96 712.804L1276.3 727.923C1277.92 728.939 1284.29 727.498 1283.12 725.882C1272.24 710.861 1257.59 701.734 1240.6 696.429L1249.54 675.895L1281.95 684.366L1320.47 692.379C1322.06 692.706 1326.03 690.927 1325.64 689.868C1325.34 689.082 1324.33 687.215 1323.26 686.691C1302.04 676.309 1277.2 670.196 1251.89 669.956C1250.66 664.094 1250.65 657.871 1251.59 651.125C1276.85 649.705 1300.58 645.186 1323.12 634.127C1324.09 633.647 1325.94 630.852 1325.29 630.012C1324.63 629.171 1322.02 627.872 1320.91 628.112L1281.71 636.365L1249.51 644.64L1240.45 624.04C1256.27 620.22 1269.26 610.58 1280.71 598.692C1281.88 597.48 1283.27 594.074 1282.34 592.917C1281.42 591.771 1277.62 591.967 1276.18 592.862L1252.75 607.294L1236.65 617.96L1224.57 600.864C1243.94 587.437 1249 561.379 1234.82 543.508C1228.14 535.113 1213.28 530.135 1205.15 537.569C1198.74 543.432 1197.1 554.96 1200.28 563.573C1204.09 557.94 1206.11 552.536 1208.74 547.253C1211.86 540.986 1219.71 540.91 1225.06 544.731C1238.28 554.152 1236.92 579.238 1219.44 592.819C1210.16 600.035 1198.35 602.48 1187.09 598.473C1160.94 589.151 1137.96 555.975 1153.63 525.474C1173.41 486.993 1216.21 475.061 1253.69 495.551C1269.57 504.23 1283.32 514.579 1297.33 526.314L1397.14 609.958C1418.75 628.069 1442.26 645.361 1467.61 660.404C1467.61 660.404 1467.61 660.404 1467.63 660.404C1453.65 641.442 1432.59 629.75 1415.3 615.34L1308.87 526.598C1283.86 505.758 1256.87 483.248 1224.67 478.641C1224.89 479.438 1225.07 480.279 1225.1 480.563C1225.14 480.956 1223.98 481.141 1223.61 480.934C1223.01 480.584 1222.31 479.657 1221.49 478.259C1216.5 477.735 1211.39 477.637 1206.14 478.063C1176.16 480.453 1150.15 501.151 1140.01 529.175C1129.1 559.305 1152.48 592.164 1179.35 604.467C1192.89 610.657 1206.51 609.488 1219.9 603.517C1252.01 653.668 1252.21 666.386 1220.1 717.094C1186.96 701.199 1152.96 726.712 1141.03 756.503C1125.99 794.122 1160.5 833.116 1195.39 840.955C1204.73 843.061 1213.7 843.422 1222.34 842.439C1222.97 841.511 1223.5 840.878 1223.95 840.638C1224.86 840.147 1225.11 840.736 1224.85 842.101C1254.86 837.767 1280.86 817.407 1304.62 797.583L1414.29 706.112C1431.81 691.494 1452.96 679.475 1467.78 660.295C1467.72 660.327 1467.67 660.36 1467.63 660.382C1467.63 660.382 1467.65 660.404 1467.65 660.415H1467.64Z" fill="#AB6520"/>
<path d="M1223.94 840.627C1223.5 840.867 1222.96 841.5 1222.32 842.428C1223.16 842.33 1223.99 842.21 1224.82 842.09C1225.09 840.725 1224.84 840.147 1223.93 840.627H1223.94Z" fill="black"/>
<path d="M1223.6 480.912C1223.97 481.13 1225.13 480.945 1225.09 480.541C1225.05 480.246 1224.88 479.405 1224.66 478.619C1223.61 478.467 1222.54 478.347 1221.48 478.237C1222.3 479.635 1223 480.574 1223.6 480.912Z" fill="black"/>
<path d="M438.74 605.995C453.098 595.166 466.921 580.723 468.908 561.794C460.446 572.001 456.723 584.467 446.721 592.24L415.559 616.442C398.013 630.066 387.236 649.269 392.652 671.965C397.936 694.093 422.875 710.424 440.476 723.273C452.061 731.722 459.737 743.436 466.037 756.623C467.478 757.464 468.657 758.37 468.624 757.682C467.98 741.831 451.307 723.437 438.325 714.147C427.341 706.287 417.71 698.896 408.975 689.104C394.268 672.609 394.18 648.013 408.822 631.726C417.907 621.617 427.963 614.117 438.74 605.995Z" fill="#AB6520"/>
<path d="M1187.53 627.021C1206.3 644.378 1208 671.888 1190.17 690.839C1170.67 711.559 1133.49 727.672 1131.88 759.047C1140.93 746.362 1146.24 733.294 1158.85 724.168C1177.47 710.686 1202.62 694.071 1207.93 671.965C1213.38 649.291 1202.56 630.001 1185.03 616.442L1154.63 592.917C1144.38 584.981 1140.28 572.415 1131.79 561.848C1134.41 591.629 1166.4 607.48 1187.54 627.032L1187.53 627.021Z" fill="#AB6520"/>
<path d="M985.966 451.666C978.999 444.898 939.823 412.803 931.678 422.366C926.207 428.796 930.935 436.285 925.858 446.404C917.134 448.871 904.752 448.959 899.413 440.367C894.03 431.71 905.746 406.1 885.917 397.181C877.466 393.382 868.076 390.871 858.719 389.594C850.988 388.535 844.131 394.965 844.153 403.011L844.426 484.951C844.459 493.815 850.857 497.603 858.719 497.56L952.019 496.981L1017.64 495.726C1023.25 486.359 993.598 459.089 985.955 451.666H985.966ZM1016.85 492.702L950.556 494.066L853.248 494.372C850.737 491.807 848.826 487.375 848.772 483.99L847.865 433.293C847.702 424.036 842.253 388.917 861.066 392.76C868.229 394.223 874.627 395.915 881.746 398.819C907.667 409.353 879.606 442.856 906.947 449.308C912.843 450.695 920.442 451.786 926.284 449.439C935.925 445.553 926.993 428.73 937.323 422.082C964.019 434.833 985.289 452.747 1004.43 474.089C1009.51 479.744 1013.87 485.835 1016.87 492.702H1016.85Z" fill="black"/>
<path d="M952.03 820.213L858.73 819.634C850.868 819.59 844.47 823.379 844.437 832.243L844.164 914.183C844.142 922.229 850.999 928.648 858.73 927.6C868.087 926.323 877.477 923.812 885.928 920.013C905.757 911.094 894.041 885.494 899.424 876.827C904.763 868.235 917.145 868.322 925.869 870.79C930.946 880.909 926.219 888.398 931.689 894.828C939.834 904.391 979 872.296 985.977 865.528C993.62 858.115 1023.26 830.846 1017.66 821.468L952.041 820.213H952.03ZM1004.42 843.105C985.267 864.458 964.008 882.361 937.312 895.112C926.983 888.464 935.914 871.63 926.273 867.755C920.443 865.408 912.832 866.489 906.936 867.886C879.595 874.338 907.657 907.841 881.736 918.375C874.617 921.268 868.218 922.971 861.055 924.434C842.242 928.277 847.691 893.158 847.855 883.901L848.761 833.204C848.826 829.819 850.737 825.387 853.238 822.822L950.545 823.128L1016.84 824.492C1013.85 831.37 1009.48 837.45 1004.41 843.105H1004.42Z" fill="black"/>
<path d="M754.39 388.524C745.033 389.801 735.643 392.312 727.192 396.111C707.363 405.03 719.079 430.63 713.696 439.298C708.357 447.889 695.975 447.802 687.251 445.335C682.174 435.215 686.901 427.726 681.431 421.296C673.286 411.733 634.12 443.828 627.143 450.596C619.5 458.009 589.856 485.279 595.457 494.656L661.079 495.911L754.379 496.49C762.241 496.534 768.639 492.746 768.672 483.881L768.945 401.941C768.967 393.895 762.11 387.476 754.379 388.524H754.39ZM765.254 432.235L764.348 482.932C764.283 486.316 762.372 490.748 759.871 493.313L662.553 493.008L596.254 491.643C599.246 484.765 603.613 478.685 608.69 473.03C627.842 451.677 649.101 433.774 675.797 421.023C686.126 427.671 677.195 444.494 686.836 448.38C692.667 450.727 700.277 449.647 706.173 448.249C733.514 441.797 705.452 408.294 731.373 397.76C738.492 394.867 744.891 393.164 752.054 391.701C770.867 387.858 765.418 422.977 765.254 432.235Z" fill="black"/>
<path d="M754.39 818.553L661.089 819.132L595.468 820.387C589.855 829.754 619.511 857.024 627.154 864.447C634.12 871.215 673.296 903.31 681.442 893.747C686.912 887.318 682.184 879.829 687.261 869.709C695.986 867.242 708.367 867.154 713.707 875.746C719.09 884.403 707.374 910.013 727.202 918.932C735.653 922.731 745.044 925.242 754.401 926.519C762.131 927.578 768.988 921.148 768.966 913.103L768.694 831.162C768.661 822.298 762.262 818.51 754.401 818.553H754.39ZM752.053 923.343C744.891 921.88 738.492 920.188 731.373 917.284C705.452 906.749 733.513 873.246 706.173 866.794C700.277 865.408 692.677 864.316 686.836 866.663C677.194 870.55 686.126 887.372 675.797 894.02C649.1 881.27 627.831 863.355 608.69 842.013C603.613 836.359 599.245 830.267 596.254 823.4L662.552 822.036L759.871 821.73C762.382 824.296 764.282 828.728 764.348 832.112L765.254 882.809C765.418 892.066 770.866 927.185 752.053 923.343Z" fill="black"/>
<path d="M804.365 330.786C623.289 330.786 476.497 477.55 476.497 658.591C476.497 839.633 623.289 986.397 804.365 986.397C985.442 986.397 1132.23 839.633 1132.23 658.591C1132.23 477.55 985.442 330.786 804.365 330.786ZM804.889 945.634C646.327 945.634 517.792 817.123 517.792 658.591C517.792 500.06 646.327 371.549 804.889 371.549C963.451 371.549 1091.99 500.06 1091.99 658.591C1091.99 817.123 963.451 945.634 804.889 945.634Z" fill="#EAC5B5"/>
<path d="M754.39 388.524C745.033 389.801 735.643 392.312 727.192 396.111C707.363 405.03 719.079 430.63 713.696 439.298C708.357 447.889 695.975 447.802 687.251 445.335C682.174 435.215 686.901 427.726 681.431 421.296C673.286 411.733 634.12 443.828 627.143 450.596C619.5 458.009 589.856 485.279 595.457 494.656L661.079 495.911L754.379 496.49C762.241 496.534 768.639 492.746 768.672 483.881L768.945 401.941C768.967 393.895 762.11 387.476 754.379 388.524H754.39Z" fill="#EAC5B5" stroke="#AB6520" stroke-width="5" stroke-miterlimit="10"/>
<path d="M754.39 818.553L661.089 819.132L595.468 820.387C589.855 829.754 619.511 857.024 627.154 864.447C634.12 871.215 673.296 903.31 681.442 893.747C686.912 887.318 682.184 879.829 687.261 869.709C695.986 867.242 708.367 867.154 713.707 875.746C719.09 884.403 707.374 910.013 727.202 918.932C735.653 922.731 745.044 925.242 754.401 926.519C762.131 927.578 768.988 921.148 768.966 913.103L768.694 831.162C768.661 822.298 762.262 818.51 754.401 818.553H754.39Z" fill="#EAC5B5" stroke="#AB6520" stroke-width="5" stroke-miterlimit="10"/>
<path d="M952.03 820.213L858.73 819.634C850.868 819.59 844.47 823.379 844.437 832.243L844.164 914.183C844.142 922.229 850.999 928.648 858.73 927.6C868.087 926.323 877.477 923.812 885.928 920.013C905.757 911.094 894.041 885.494 899.424 876.827C904.763 868.235 917.145 868.322 925.869 870.79C930.946 880.909 926.219 888.398 931.689 894.828C939.834 904.391 979 872.296 985.977 865.528C993.62 858.115 1023.26 830.846 1017.66 821.468L952.041 820.213H952.03Z" fill="#EAC5B5" stroke="#AB6520" stroke-width="5" stroke-miterlimit="10"/>
<path d="M858.729 497.56L952.03 496.981L1017.65 495.726C1023.26 486.359 993.609 459.089 985.966 451.666C978.999 444.898 939.823 412.803 931.678 422.366C926.207 428.796 930.935 436.285 925.858 446.404C917.134 448.871 904.752 448.959 899.413 440.367C894.03 431.71 905.746 406.1 885.917 397.181C877.466 393.382 868.076 390.871 858.719 389.594C850.988 388.535 844.131 394.965 844.153 403.011L844.426 484.951C844.459 493.815 850.857 497.603 858.719 497.56H858.729Z" fill="#EAC5B5" stroke="#AB6520" stroke-width="5" stroke-miterlimit="10"/>
<path d="M1053.62 638.57H555.604V676.473H1053.62V638.57Z" fill="#EAC5B5" stroke="#AB6520" stroke-width="5" stroke-miterlimit="10"/>
<path d="M912.352 557.329H696.87V595.231H912.352V557.329Z" fill="#EAC5B5" stroke="#AB6520" stroke-width="5" stroke-miterlimit="10"/>
<path d="M912.352 720.762H696.87V758.665H912.352V720.762Z" fill="#EAC5B5" stroke="#AB6520" stroke-width="5" stroke-miterlimit="10"/>
<path d="M563.781 507.156H782.32C783.783 505.693 783.467 380.304 783.467 380.304H827.065V507.931H1049.71" stroke="#AB6520" stroke-width="5" stroke-miterlimit="10"/>
<path d="M1047.53 811.239H828.987C827.524 812.702 827.84 938.091 827.84 938.091H784.242V810.464H561.598" stroke="#AB6520" stroke-width="5" stroke-miterlimit="10"/>
<path d="M951.801 595.22H1084.91C1082.04 582.23 1078.28 569.577 1073.72 557.318H951.801V595.22Z" fill="#EAC5B5" stroke="#AB6520" stroke-width="5" stroke-miterlimit="10"/>
<path d="M657.421 557.329H535.502C530.938 569.588 527.182 582.24 524.31 595.231H657.421V557.329Z" fill="#EAC5B5" stroke="#AB6520" stroke-width="5" stroke-miterlimit="10"/>
<path d="M951.801 758.665H1073.36C1077.98 746.405 1081.78 733.753 1084.7 720.762H951.801V758.665Z" fill="#EAC5B5" stroke="#AB6520" stroke-width="5" stroke-miterlimit="10"/>
<path d="M657.421 720.762H524.518C527.444 733.753 531.244 746.405 535.862 758.665H657.421V720.762Z" fill="#EAC5B5" stroke="#AB6520" stroke-width="5" stroke-miterlimit="10"/>
<path d="M804.562 946.399C963.122 946.399 1091.66 817.885 1091.66 659.356C1091.66 500.826 963.122 372.313 804.562 372.313C646.002 372.313 517.464 500.826 517.464 659.356C517.464 817.885 646.002 946.399 804.562 946.399Z" stroke="#AB6520" stroke-width="5" stroke-miterlimit="10"/>
</g>
</svg>
