<svg width="734" height="1011" viewBox="0 0 734 1011" fill="none" xmlns="http://www.w3.org/2000/svg">
<g opacity="0.2">
<path d="M794.587 836.308C809.794 826.341 822.676 817.267 834.758 804.756C841.649 797.62 846.864 788.251 847.26 778.175C847.934 761.013 835.558 747.104 818.464 743.995C797.696 740.22 775.109 751.982 766.608 771.149C760.053 785.935 767.374 802.043 782.455 806.357C796.373 810.342 811.715 805.548 820.713 794.065C824.285 789.498 824.765 784.266 822.331 780.467C815.582 769.919 806.205 777.341 799.895 773.828C805.455 768.823 812.566 767.332 819.171 768.444C827.411 769.826 831.809 778.116 830.671 786.179C827.857 806.02 802.186 818.868 781.2 814.251C767.577 811.252 758.553 800.88 757.576 787.224C756.472 771.814 763.819 759.994 774.182 748.671C759.345 754.846 750.044 767.298 741.779 779.557C732.916 792.7 721.947 802.582 706.487 808.901C712.09 816.955 717.625 824.521 723.91 832.011C726.993 835.684 731.93 837.672 733.649 842.854C721.964 839.905 706.243 823.24 703.075 810.46L689.494 814.487C691.743 827.984 694.507 840.208 698.449 852.922C699.646 856.789 703.749 859.535 701.937 864.666C688.904 851.523 683.925 833.62 684.186 815.422L676.283 815.607L676.106 869.46L675.685 888.551C675.668 889.444 675.525 890.902 675.441 891.517C675.357 892.132 672.955 892.132 672.88 891.517C672.795 890.902 672.661 889.453 672.635 888.543L672.155 867.168L672.045 816.315C670.352 815.093 665.777 814.959 664.185 816.045C664.227 834.075 659.147 852.003 646.366 864.616C644.614 859.628 648.683 856.755 649.871 852.913C653.814 840.2 656.586 827.933 658.86 814.428L645.305 810.46C641.774 823.577 626.753 839.433 614.739 842.938C616.415 837.361 621.774 835.381 624.975 831.438C630.957 824.083 636.416 816.669 641.808 808.943C627.3 802.7 616.314 793.921 607.906 781.334C597.307 765.487 584.215 750.398 565.891 742.95C576.851 751.687 586.405 760.264 589.472 773.904C591.831 784.41 591.444 795.741 584.181 804.133C575.251 814.453 561.223 817.174 548.139 814.141C534.583 810.999 522.375 802.549 518.289 789.229C515.661 780.66 519.401 770.761 528.214 768.68C535.038 767.071 542.688 768.571 548.459 773.895C542.006 777.181 532.536 770.155 525.981 780.441C523.53 784.292 524.153 789.481 527.304 793.66C536.058 805.295 551.678 810.451 565.924 806.323C580.963 801.976 588.259 785.918 581.713 771.14C573.212 751.948 550.633 740.237 529.848 743.986C512.375 747.137 499.847 761.721 501.111 779.203C501.835 789.237 507.21 798.277 514.136 805.379C526.116 817.671 539.503 826.931 554.188 836.602C597.063 864.851 637.865 899.394 671.717 937.273C672.551 938.208 673.832 939.767 674.261 940.617C674.632 939.842 675.533 938.57 676.603 937.365C709.705 899.992 752.1 864.169 794.612 836.308H794.587Z" fill="#EAC5B5"/>
<path d="M646.105 642.187C646.054 639.575 644.58 636.155 642.65 634.175L567.558 634.411L516.402 635.464C518.71 640.772 522.08 645.465 525.998 649.829C540.775 666.308 557.179 680.125 577.778 689.965C585.748 684.835 578.856 671.852 586.296 668.852C590.795 667.041 596.667 667.875 601.216 668.953C622.313 673.933 600.66 699.789 620.661 707.919C626.154 710.152 631.091 711.466 636.618 712.595C651.134 715.561 646.93 688.457 646.804 681.313L646.105 642.187Z" fill="white"/>
<path d="M289.247 612.152C310.428 629.996 336.259 650.132 365.3 642.996C383.439 638.539 397.711 624.731 403.709 607.324C410.197 588.495 396.691 568.216 379.656 559.108C367.524 552.621 353.707 556.185 345.29 566.851C338.475 575.486 336.798 587.29 343.403 596.305C346.655 600.745 355.232 603.087 358.037 597.661L365.114 583.937C367.743 589.244 366.058 593.213 365.131 597.964C364.137 603.07 360.683 606.861 355.013 607.046C346.192 607.333 338.079 602.084 334.776 593.836C329.098 579.648 333.832 564.239 346.563 555.46L337.245 542.46L326.031 549.681L307.041 561.526C305.777 562.318 303.064 562.04 300.638 560.802C309.316 549.31 320.555 541.315 334.144 537.624L327.303 521.71L303.014 527.961C297.335 529.418 272.018 535.56 268.749 533.328C268.042 532.848 269.314 530.413 270.148 530.008C287.276 521.609 306.198 517.362 325.601 516.95C326.216 511.954 326.233 507.48 325.677 502.568C306.299 501.397 288.396 498.086 271.125 489.762C270.35 489.383 268.951 487.9 268.513 487.218C267.966 486.367 271.091 484.496 272.145 484.724L302.416 491.169L327.21 497.547L334.203 481.615C325.829 481.211 299.635 463.653 301.801 457.654C302.121 456.77 305.002 456.66 306.005 457.267L322.088 467.04L337.051 476.838L346.579 463.855C331.996 453.905 327.311 433.626 338.534 419.464C343.841 412.758 355.906 409 361.904 415.344C366.454 420.155 367.566 428.462 365.274 434.941C362.376 430.998 360.885 427.046 359.124 423.07C356.934 418.141 351.306 417.181 346.79 419.952C336.225 426.44 336.208 446.348 350.404 457.528C357.667 463.249 367.305 465.06 376.176 461.623C396.228 453.846 413.086 428.605 401.199 405.563C393.995 391.594 381.846 380.566 366.429 376.572C334.641 368.333 307.917 391.409 284.799 410.82L215.149 469.281C197.971 483.704 179.478 497.395 159.148 509.519C181.753 522.813 202.251 538.855 221.493 555.073L289.247 612.169V612.152Z" fill="#EAC5B5"/>
<path d="M636.618 302.298C631.091 303.426 626.154 304.732 620.661 306.973C600.66 315.104 622.313 340.96 601.216 345.939C596.667 347.009 590.803 347.852 586.296 346.04C578.856 343.041 585.748 330.058 577.778 324.927C557.179 334.768 540.767 348.593 525.998 365.064C522.08 369.428 518.71 374.129 516.402 379.428L567.558 380.482L642.65 380.717C644.588 378.738 646.054 375.317 646.105 372.705L646.804 333.58C646.93 326.435 651.134 299.332 636.618 302.298Z" fill="white"/>
<path d="M555.645 181.466C541.458 190.784 529.284 199.386 517.337 210.414C500.757 225.723 493.755 248.664 510.521 265.118C522.198 276.568 538.854 278.632 553.817 272.903C566.657 267.991 577.618 259.355 582.319 246.415C587.323 232.64 581.081 217.694 567.019 213.102C544.263 205.654 520.985 223.979 524.928 236.566C529.772 252.017 556.21 239.304 547.802 246.145C542.519 250.442 530.943 253.753 523.47 248.201C513.908 241.09 516.848 226.565 524.919 217.98C536.782 205.359 555.393 200.599 571.586 206.295C583.178 210.381 589.994 220.078 590.727 232.193C591.713 248.58 583.381 261.942 570.912 272.574C574.829 271.209 578.477 269.297 581.704 266.879C609.397 246.145 606.962 224.804 641.69 210.246C633.956 198.106 625.691 187.785 615.075 178.349L616.154 176.024C629.263 183.404 641.083 193.8 645.009 208.738L658.877 204.677L653.493 178.501C652.011 171.297 649.079 164.65 646.02 158.104L645.321 156.604C640.241 145.753 667.395 172.274 663.713 203.498C667.192 204.121 669.745 204.003 672.045 203.059L672.264 147.732L672.5 133.629C672.534 131.632 672.728 128.675 673.242 127.066C673.469 126.358 675.836 128.33 675.845 129.181L676.056 148.718L676.258 203.076C678.524 203.986 680.891 204.113 684.598 203.472C680.824 172.814 708.003 145.5 703.032 156.612L702.358 158.129C694.068 176.672 693.293 184.356 689.477 204.618L703.319 208.755C706.487 196.934 713.816 188.737 723.109 181.871C726.412 179.436 729.605 176.167 734.171 176.942C723.278 187.709 714.044 197.996 706.647 210.372C721.323 216.261 732.495 225.756 740.928 238.47C745.183 244.89 761.83 268.033 769.497 265.286C761.148 254.73 756.27 243.238 757.795 230.121C759.067 219.202 765.47 210.608 775.976 206.606C792.784 200.212 812.566 205.461 824.386 219.168C829.82 225.47 832.466 233.777 829.744 241.536C827.52 247.897 820.704 252.253 813.838 251.065C809.229 250.265 803.332 249.018 800.535 246.061C800.046 245.538 801.832 243.836 802.565 243.946C809.625 244.982 820.334 246.035 823.417 236.498C827.368 224.24 804.183 205.536 781.267 213.094C767.121 217.761 760.44 233.145 766.431 247.434C774.443 266.55 796.735 278.429 817.334 275.312C835.709 272.532 848.945 257.316 847.134 239.11C845.971 227.441 838.835 217.567 830.461 209.892C818.101 198.552 805.927 190.169 791.31 180.556C750.33 153.596 708.728 117.9 676.645 81.8658C675.567 80.6526 674.463 78.8497 674.371 78.1672C674.084 79.0687 672.542 80.9559 671.228 82.4219C638.564 118.86 597.299 154.11 555.662 181.449L555.645 181.466Z" fill="#EAC5B5"/>
<path d="M779.565 325.744C771.595 330.875 778.487 343.866 771.048 346.857C766.549 348.669 760.676 347.835 756.127 346.756C735.031 341.777 756.683 315.921 736.682 307.791C731.189 305.558 726.252 304.244 720.725 303.115C706.209 300.149 710.413 327.252 710.539 334.397L711.238 373.522C711.289 376.134 712.763 379.555 714.693 381.535L789.776 381.299L840.933 380.246C838.624 374.938 835.254 370.245 831.337 365.881C816.559 349.402 800.156 335.585 779.557 325.744H779.565Z" fill="white"/>
<path d="M714.701 635.009C712.763 636.989 711.289 640.409 711.247 643.021L710.548 682.147C710.421 689.291 706.217 716.395 720.733 713.429C726.26 712.3 731.197 710.994 736.69 708.753C756.691 700.623 735.039 674.767 756.135 669.787C760.685 668.717 766.548 667.875 771.056 669.686C778.495 672.686 771.603 685.669 779.574 690.799C800.173 680.959 816.585 667.134 831.354 650.663C835.271 646.299 838.641 641.597 840.95 636.298L789.793 635.245L714.709 635.009H714.701Z" fill="white"/>
<path d="M971.487 691.945C958.201 703.016 938.469 706.462 921.881 700.64C910.288 696.571 902.739 685.349 902.646 673.579C902.545 660.646 911.535 650.907 923.237 646.762C929.969 644.378 938.057 644.445 943.988 649.273C953.281 656.838 953.508 671.54 946.347 680.816C942.716 685.517 936.658 687.059 931.763 683.975C924.349 679.291 929.792 671.869 927.947 672.635C922.015 675.121 924.138 682.964 925.36 684.607C929.935 690.766 937.61 692.03 944.299 687.674C957.426 679.122 959.608 659.332 949.11 647.47C943.272 640.873 934.754 640.317 926.599 642.229C911.147 645.852 898.122 657.959 898.442 674.607C898.847 695.939 917.904 709.335 939.177 707.388C913.59 714.524 920.457 735.595 898.602 751.855C901.652 746.514 905.182 741.476 907.229 735.646C911.678 722.966 907.415 709.781 897.886 700.842C889.158 692.661 877.919 689.915 866.528 693.841C856.519 697.295 848.886 706.259 846.923 717.81C845.137 728.333 848.196 739.572 857.691 745.351C864.532 749.522 873.462 748.772 880.084 743.978C885.375 740.145 889.832 733.253 888.956 725.494C888.417 720.784 884.499 716.681 880.682 716.26C876.31 715.78 871.01 716.976 869.747 722.065C874.844 720.683 881.306 718.947 883.665 724.162C886.959 731.442 881.163 739.328 874.911 741.922C867.817 744.871 860.37 742.917 855.458 736.177C847.513 725.266 850.192 708.029 861.895 700.404C872.915 693.226 886.841 696.419 895.814 705.114C905.073 714.095 908.232 727.372 902.006 739.243C896.825 749.134 888.796 759.067 878.424 763.87L854.438 774.991C852.551 747.138 830.966 732.596 804.849 735.57C802.675 735.073 801.85 734.795 804.31 734.028C894.044 682.29 944.653 583.987 934.552 481.48C926.464 399.379 879.747 327.362 809.104 285.195C806.736 284.42 806.534 284.167 808.994 284.099C834.345 284.647 852.905 269.196 854.388 244.005L878.694 255.294C888.164 259.692 895.628 268.951 900.928 277.755C908.182 289.795 905.882 303.856 896.26 313.536C887.582 322.256 874.06 325.778 862.922 319.291C850.866 312.273 847.572 295.777 854.489 284.192C858.643 277.233 866.023 274.385 873.353 276.643C879.747 278.615 885.603 284.858 884.398 292.912C884.078 295.044 881.036 298.447 879.124 298.321L869.561 297.689C871.895 301.699 876.942 303.898 881.609 302.668C885.181 301.725 888.829 297.495 889.023 292.87C889.343 285.186 885.341 278.446 879.596 274.765C873.799 271.058 866.537 269.516 859.881 272.54C842.559 280.426 843.452 305.448 854.489 317.462C862.316 325.98 874.886 328.912 885.687 325.5C896.867 321.961 904.795 312.374 907.676 302.533C911.147 290.679 907.305 279.432 899.858 269.886L900.65 268.749C908.637 275.801 912.461 282.844 916.834 291.134C924.29 305.263 923.338 304.699 938.865 311.91C923.178 310.31 907.946 317.117 901.18 331.844C896.926 341.111 897.305 350.969 902.554 359.849C912.959 377.448 939.489 383.632 949.515 371.29C958.748 359.924 957.619 343.032 946.928 333.285C942.421 329.173 936.228 327.539 930.744 330.049C927.786 331.397 924.871 334.321 924.315 336.747C923.549 340.109 924.593 343.816 926.708 346.891L928.536 345.61C925.251 340.033 931.232 334.835 933.473 334.102C936.911 332.973 941.317 333.512 944.224 336.158C953.398 344.498 953.904 360.194 944.999 368.863C938.773 374.929 930.154 374.811 922.681 372.149C911.72 368.24 903.868 359.116 902.764 348.458C901.551 336.747 907.592 326.317 917.862 320.226C926.093 315.348 936.102 315.112 945.605 316.199C979.6 320.083 993.114 359.335 998.843 369.066C999.66 369.15 1000.49 369.251 1001.29 369.36C1001.23 369.125 1001.17 368.897 1001.1 368.703C995.33 351.693 981.614 327.53 965.379 318.111C941.005 303.966 929.96 312.197 920.482 290.663C912.521 272.574 898.535 259.953 880.084 252.565C871.533 249.136 862.476 245.825 854.262 240.685C850.546 215.891 827.554 198.046 807.444 184.44C791.369 173.555 775.901 163.378 760.399 151.566C734.517 131.86 711.374 110.359 688.634 87.1651C685.205 83.6687 678.575 78.799 675.298 76.5327L674.43 77.8976C674.43 77.9734 674.396 78.0661 674.371 78.1587C674.464 78.8412 675.567 80.6441 676.646 81.8573C708.728 117.891 750.331 153.579 791.31 180.548C805.919 190.161 818.101 198.544 830.461 209.884C838.835 217.567 845.98 227.441 847.134 239.102C848.945 257.308 835.71 272.523 817.335 275.304C796.736 278.421 774.443 266.542 766.431 247.425C760.441 233.137 767.122 217.753 781.267 213.085C804.183 205.519 827.369 224.231 823.418 236.49C820.342 246.027 809.626 244.974 802.566 243.937C801.824 243.828 800.038 245.53 800.535 246.052C803.332 249.018 809.23 250.265 813.838 251.057C820.696 252.245 827.512 247.889 829.745 241.528C832.466 233.76 829.821 225.453 824.387 219.16C812.566 205.452 792.784 200.195 775.976 206.598C765.479 210.591 759.067 219.193 757.795 230.112C756.27 243.23 761.157 254.721 769.498 265.278C761.831 268.025 745.183 244.881 740.928 238.461C732.495 225.748 721.323 216.245 706.647 210.364C714.053 197.979 723.278 187.692 734.172 176.933C729.605 176.158 726.404 179.427 723.11 181.862C713.817 188.728 706.487 196.934 703.319 208.746L689.477 204.61C693.302 184.339 694.069 176.655 702.359 158.12L703.033 156.604C708.004 145.491 680.816 172.805 684.599 203.464C680.892 204.104 678.533 203.978 676.258 203.068L676.056 148.71L675.845 129.172C675.837 128.321 673.469 126.35 673.242 127.057C672.728 128.675 672.526 131.624 672.501 133.621L672.265 147.724L672.046 203.051C669.746 203.995 667.193 204.112 663.713 203.489C667.395 172.266 640.241 145.744 645.322 156.595L646.021 158.095C649.079 164.641 652.019 171.28 653.494 178.492L658.877 204.669L645.01 208.729C641.084 193.792 629.263 183.395 616.154 176.015L615.076 178.34C625.683 187.776 633.948 198.097 641.69 210.237C606.963 224.796 609.397 246.145 581.704 266.87C578.478 269.28 574.83 271.201 570.912 272.566C583.381 261.942 591.713 248.571 590.727 232.185C590.003 220.069 583.179 210.372 571.586 206.286C555.401 200.582 536.782 205.351 524.92 217.972C516.857 226.548 513.917 241.081 523.471 248.192C530.935 253.744 542.52 250.433 547.802 246.136C556.202 239.295 529.773 252 524.928 236.557C520.985 223.97 544.264 205.654 567.02 213.094C581.072 217.694 587.324 232.64 582.319 246.406C577.618 259.355 566.657 267.982 553.818 272.894C538.855 278.615 522.199 276.559 510.522 265.11C493.747 248.655 500.757 225.714 517.337 210.406C529.276 199.378 541.45 190.776 555.646 181.458C597.291 154.119 638.548 118.868 671.212 82.4302C672.526 80.9643 674.068 79.0771 674.354 78.1756C674.337 78.0408 674.354 77.9481 674.413 77.9144C674.413 73.4997 659.029 87.8643 658.574 88.3277C636.956 110.309 615 130.663 590.508 149.603C573.338 162.889 555.991 174.128 538.172 186.327C520.328 198.544 496.764 217.281 494.455 240.382C486.106 245.648 477.31 249.026 468.245 252.59C427.021 268.808 429.861 300.208 416.094 304.985L397.593 311.405C371.585 320.436 356.378 344.599 347.624 369.175C348.45 369.074 349.275 368.981 350.11 368.914C357.549 356.361 369.613 319.021 404.636 315.997C413.415 315.238 422.826 315.718 430.45 320.217C440.417 326.106 446.374 336.191 445.632 347.422C444.933 358.063 437.671 367.195 427.173 371.559C419.051 374.938 409.346 375.258 402.774 368.341C394.198 359.318 395.166 343.454 404.645 335.753C408.672 332.476 413.803 332.838 417.602 335.88C420.534 338.23 420.736 342.089 420.399 347C424.233 344.835 424.873 340.185 423.896 336.57C423.281 334.296 420.441 331.338 417.543 330.033C411.755 327.421 405.42 329.325 400.727 333.849C389.935 344.271 389.446 363.32 401.14 373.447C408.2 379.555 418.344 378.384 426.625 375.359C439.701 370.582 450.013 359.183 449.895 344.726C449.727 324.396 431.613 310.209 411.267 311.835C408.309 312.07 410.727 311.118 412.176 310.326C432.304 304.977 430.021 282.33 447.949 268.758C448.353 267.595 448.252 269.28 448.177 270.417C434.477 286.635 436.971 309.315 454.377 321.464C463.19 327.615 474.117 328.803 484.674 324.017C492.745 320.361 499.097 312.576 501.187 302.146C503.049 292.853 501.077 282.76 493.933 276.172C487.285 270.038 478.346 269.625 470.747 273.551C463.586 277.25 458.421 284.976 459.373 293.856C459.862 298.363 463.712 302.272 467.596 302.854C471.556 303.443 477.79 301.775 477.942 297.301C471.859 299.526 465.027 298.919 463.923 292.76C462.566 285.136 468.607 278.522 474.901 276.635C482.281 274.428 489.602 277.191 493.781 284.192C501.018 296.324 497.016 313.73 483.882 320.083C472.55 325.567 459.769 321.574 451.74 313.242C443.543 304.741 440.173 292.356 445.86 280.805C450.83 270.695 459.188 260.231 469.618 255.328L493.916 243.895C494.792 251.688 496.426 260.13 501.111 266.559C512.586 282.33 531.98 287.048 550.599 282.128C552.672 282.077 552.975 282.17 550.835 282.819C525.535 297.672 502.669 315.323 483.427 337.345C396.616 436.693 396.38 581.207 483.385 680.664C504.885 705.24 530.834 724.196 559.513 739.648C547.583 736.075 536.395 733.43 524.591 736.573C506.697 741.333 494.421 755.815 494.169 775.193L469.854 763.903C459.517 759.101 451.488 749.168 446.289 739.268C440.206 727.676 443.096 714.676 451.926 705.695C460.898 696.571 475.137 693.1 486.409 700.429C497.842 707.869 500.664 724.525 493.343 735.486C488.558 742.655 480.68 745.107 473.435 741.99C467.386 739.386 461.783 732.217 464.327 724.862C466.29 719.183 473.14 720.43 478.599 722.115C477.108 716.706 471.371 715.468 466.636 716.479C463.434 717.161 459.795 721.298 459.34 725.468C458.472 733.32 462.929 740.17 468.236 744.003C474.555 748.57 483.258 749.505 489.88 745.815C499.577 740.397 503.006 729.31 501.524 718.787C499.822 706.74 492.155 697.472 481.725 693.841C470.494 689.932 459.062 692.72 450.426 700.834C443.753 707.102 439.743 715.156 439.339 724.474C438.867 735.09 444.419 743.414 450.173 752.327C427.965 735.941 434.654 714.398 409.118 707.414C430.838 709.334 450.232 695.256 449.853 673.52C449.567 657.285 436.769 645.81 421.773 642.238C413.609 640.292 405.007 640.865 399.194 647.453C389.092 658.919 390.659 677.48 402.715 686.865C406.902 690.126 412.808 691.204 417.29 689.182C420.644 687.665 423.643 684.38 424.14 681.608C424.662 678.701 424.03 674.101 420.382 672.113C420.736 677.429 420.534 681.414 416.852 683.798C413.061 686.258 407.989 686.334 404.19 682.981C395.259 675.104 394.315 659.787 402.606 650.848C408.705 644.268 418.15 644.108 426.002 647.091C437.182 651.337 445.801 661.152 445.666 673.419C445.472 691.018 430.728 702.679 414.097 703.327C378.721 704.709 360.043 677.311 346.622 649.93C345.855 649.82 345.097 649.711 344.338 649.576C352.763 673.798 371.13 698.331 396.211 707.136L416.507 714.255C429.372 718.771 427.712 750.861 468.59 766.641C477.378 770.037 485.71 773.541 494.278 778.327C496.494 792.472 503.655 803.821 514.026 813.425C524.777 823.384 536.058 831.699 548.569 839.821C588.326 865.61 624.107 895.106 656.931 929.303C657.403 929.792 672.753 944.291 674.278 941.839C674.16 941.688 674.076 941.494 674.051 941.216C674.042 941.089 674.11 940.87 674.236 940.601C673.806 939.741 672.526 938.191 671.692 937.256C637.832 899.386 597.038 864.835 554.163 836.586C539.478 826.914 526.091 817.655 514.111 805.363C507.185 798.26 501.818 789.22 501.086 779.186C499.822 761.696 512.341 747.121 529.823 743.97C550.608 740.221 573.187 751.931 581.687 771.123C588.234 785.901 580.938 801.959 565.899 806.306C551.652 810.426 536.032 805.27 527.279 793.643C524.128 789.456 523.504 784.275 525.956 780.425C532.502 770.138 541.972 777.164 548.434 773.878C542.663 768.554 535.013 767.054 528.189 768.663C519.376 770.744 515.636 780.635 518.264 789.212C522.35 802.532 534.558 810.982 548.114 814.125C561.198 817.158 575.226 814.436 584.156 804.116C591.418 795.724 591.806 784.393 589.447 773.887C586.38 760.247 576.835 751.67 565.865 742.933C584.19 750.39 597.282 765.47 607.881 781.318C616.297 793.905 627.275 802.684 641.783 808.926C636.391 816.652 630.932 824.066 624.95 831.421C621.748 835.356 616.398 837.344 614.714 842.921C626.719 839.417 641.749 823.561 645.279 810.443L658.835 814.411C656.56 827.916 653.789 840.183 649.846 852.896C648.658 856.73 644.589 859.611 646.341 864.599C659.113 851.987 664.202 834.058 664.16 816.029C665.752 814.933 670.327 815.077 672.02 816.298L672.13 867.152L672.61 888.526C672.627 889.436 672.77 890.885 672.854 891.5C672.939 892.115 675.331 892.115 675.416 891.5C675.5 890.885 675.643 889.427 675.66 888.534L676.081 869.443L676.258 815.591L684.161 815.405C683.9 833.603 688.879 851.498 701.912 864.649C703.724 859.527 699.621 856.78 698.424 852.905C694.481 840.192 691.718 827.967 689.469 814.47L703.05 810.443C706.217 823.224 721.938 839.888 733.624 842.837C731.897 837.647 726.968 835.667 723.885 831.994C717.6 824.496 712.064 816.939 706.462 808.884C721.922 802.566 732.891 792.675 741.754 779.54C750.019 767.282 759.32 754.83 774.157 748.654C763.802 759.977 756.456 771.797 757.551 787.207C758.528 800.872 767.56 811.243 781.175 814.234C802.161 818.851 827.832 806.003 830.646 786.162C831.784 778.108 827.386 769.818 819.146 768.427C812.541 767.315 805.43 768.807 799.87 773.811C806.18 777.324 815.557 769.902 822.306 780.45C824.74 784.25 824.26 789.49 820.688 794.048C811.698 805.531 796.348 810.325 782.43 806.34C767.349 802.026 760.028 785.918 766.583 771.132C775.075 751.965 797.662 740.204 818.438 743.978C835.533 747.087 847.909 760.997 847.235 778.158C846.839 788.243 841.624 797.603 834.732 804.739C822.651 817.25 809.769 826.324 794.562 836.291C752.049 864.161 709.655 899.975 676.553 937.349C675.483 938.553 674.59 939.826 674.211 940.601C674.287 940.752 674.346 940.887 674.354 940.988C674.405 941.376 674.354 941.646 674.245 941.831C676.216 944.291 690.471 930.188 691.33 929.303C723.253 896.125 757.812 867.253 796.331 842.07C818.481 827.596 851.06 806.155 853.984 778.31C862.577 773.541 870.909 770.02 879.697 766.616C920.575 750.819 918.873 718.771 931.772 714.238L952.051 707.11C964.814 702.628 975.219 695.231 983.467 684.354C988.236 678.069 1000.31 655.457 1001.37 649.862C1000.73 649.955 1000.08 650.048 999.441 650.124C995.305 656.215 985.869 679.898 971.445 691.92L971.487 691.945ZM614.865 239.228C635.245 210.751 674.245 203.337 705.265 216.573C716.589 221.409 725.73 228.756 732.975 238.545L748.048 258.9C736.438 256.246 719.141 252.303 709.141 251.385L699.216 250.475C685.77 249.237 672.585 249.06 659.568 250.366L643.923 251.933L635.835 253.272C622.743 255.438 610.552 258.546 596.676 262.557C603.146 254.747 609.052 247.35 614.874 239.228H614.865ZM736.21 776.178C722.023 798.1 698.079 809.491 671.894 808.809C647.04 808.16 624.95 796.449 611.647 775.513C606.693 767.72 600.475 761.637 593.803 754.282C609.094 758.57 623.063 762.42 638.084 764.695L648.498 766.271L663.907 767.181C673.208 767.728 681.726 767.669 691.027 767.105L704.743 766.271L717.928 764.291C729.403 762.564 740.187 759.438 751.653 756.91C746.051 763.423 740.718 769.194 736.202 776.178H736.21ZM676.983 761.266C537.262 761.266 423.997 648 423.997 508.28C423.997 368.56 537.262 255.294 676.983 255.294C816.703 255.294 929.969 368.56 929.969 508.28C929.969 648 816.703 761.266 676.983 761.266Z" fill="#AB6520"/>
<path d="M345.981 648.616C346.192 649.054 346.411 649.5 346.63 649.938C354.895 651.101 363.522 650.68 372.537 648.043C397.702 640.688 422.59 611.385 410.626 583.027C401.064 560.372 375.199 541.205 349.916 553.421C325.23 514.313 325.214 504.455 350.084 465.734C361.205 470.797 372.587 471.126 383.498 465.456C403.457 455.085 420.248 430.459 411.418 407.475C403.339 386.43 383.633 370.751 360.885 368.88C357.22 368.577 353.64 368.611 350.135 368.914C349.537 369.925 348.972 370.776 348.424 371.433C348.121 371.795 347.371 369.976 347.557 369.453C347.59 369.36 347.624 369.268 347.658 369.184C322.231 372.351 300.975 390.094 281.479 406.355L199.951 474.37C186.445 485.634 170.067 494.666 159.148 509.46C159.148 509.46 159.165 509.468 159.174 509.477C179.503 497.361 197.996 483.662 215.175 469.239L284.824 410.778C307.951 391.367 334.666 368.299 366.454 376.53C381.872 380.524 394.012 391.552 401.224 405.521C413.112 428.563 396.245 453.813 376.202 461.581C367.33 465.018 357.692 463.207 350.43 457.486C336.242 446.306 336.25 426.398 346.815 419.91C351.331 417.139 356.959 418.099 359.15 423.028C360.919 427.004 362.41 430.947 365.3 434.899C367.591 428.42 366.479 420.121 361.93 415.302C355.931 408.958 343.875 412.716 338.559 419.422C327.345 433.584 332.029 453.863 346.605 463.813L337.076 476.796L322.113 466.998L306.03 457.225C305.027 456.618 302.146 456.728 301.826 457.612C299.661 463.611 325.854 481.169 334.228 481.573L327.236 497.505L302.441 491.127L272.17 484.682C271.108 484.454 267.991 486.325 268.539 487.176C268.977 487.858 270.375 489.349 271.15 489.72C288.422 498.044 306.325 501.347 325.702 502.526C326.258 507.438 326.241 511.911 325.626 516.908C306.224 517.32 287.301 521.567 270.173 529.966C269.339 530.379 268.067 532.805 268.775 533.286C272.043 535.518 297.361 529.376 303.039 527.919L327.328 521.668L334.169 537.582C320.58 541.281 309.332 549.276 300.663 560.76C303.09 561.998 305.802 562.268 307.066 561.484L326.056 549.639L337.27 542.418L346.588 555.418C333.866 564.197 329.123 579.606 334.801 593.794C338.104 602.051 346.217 607.291 355.038 607.004C360.708 606.819 364.162 603.028 365.157 597.922C366.083 593.179 367.768 589.202 365.14 583.895L358.063 597.619C355.266 603.053 346.681 600.703 343.428 596.263C336.823 587.256 338.5 575.444 345.316 566.809C353.732 556.143 367.549 552.579 379.681 559.066C396.708 568.174 410.222 588.453 403.735 607.282C397.736 624.689 383.464 638.506 365.325 642.954C336.276 650.09 310.445 629.963 289.273 612.11L221.519 555.014C202.276 538.796 181.778 522.746 159.174 509.46C159.174 509.46 159.174 509.46 159.165 509.46C170.505 524.263 186.589 533.64 200.102 544.912L284.731 615.497C302.475 630.3 322.122 645.608 344.372 649.551C344.322 649.416 344.271 649.281 344.229 649.146L346.007 648.582L345.981 648.616Z" fill="#AB6520"/>
<path d="M345.981 648.615L344.203 649.18C344.254 649.315 344.304 649.45 344.346 649.584C345.105 649.719 345.871 649.837 346.63 649.938C346.41 649.5 346.191 649.054 345.981 648.615Z" fill="black"/>
<path d="M348.416 371.441C348.964 370.784 349.528 369.933 350.126 368.922C349.292 368.99 348.467 369.082 347.641 369.184C347.607 369.276 347.574 369.369 347.54 369.453C347.354 369.975 348.104 371.795 348.408 371.433L348.416 371.441Z" fill="black"/>
<path d="M394.863 467.68C405.942 459.323 416.608 448.176 418.141 433.567C411.612 441.445 408.739 451.066 401.021 457.065L376.976 475.743C363.437 486.257 355.122 501.077 359.301 518.592C363.378 535.67 382.621 548.274 396.202 558.19C405.141 564.711 411.064 573.751 415.925 583.928C417.037 584.577 417.947 585.276 417.922 584.746C417.425 572.512 404.56 558.316 394.543 551.147C386.067 545.081 378.636 539.377 371.896 531.82C360.548 519.09 360.48 500.108 371.778 487.538C378.788 479.736 386.547 473.948 394.863 467.68Z" fill="#AB6520"/>
<path d="M817.107 348.576C811.732 343.352 781.503 318.583 775.218 325.963C770.997 330.926 774.645 336.705 770.727 344.515C763.996 346.419 754.442 346.487 750.322 339.856C746.169 333.175 755.209 313.41 739.909 306.527C733.388 303.595 726.142 301.657 718.922 300.671C712.957 299.854 707.666 304.816 707.683 311.026L707.894 374.264C707.919 381.105 712.856 384.028 718.922 383.995L790.914 383.548L841.548 382.579C845.878 375.351 822.996 354.305 817.099 348.576H817.107ZM840.941 380.245L789.785 381.299L714.701 381.534C712.763 379.555 711.289 376.134 711.247 373.522L710.548 334.397C710.421 327.252 706.217 300.149 720.733 303.115C726.26 304.244 731.197 305.549 736.69 307.79C756.691 315.921 735.039 341.777 756.135 346.756C760.685 347.826 766.549 348.669 771.056 346.857C778.495 343.858 771.604 330.875 779.574 325.744C800.173 335.585 816.585 349.41 831.354 365.881C835.271 370.245 838.641 374.946 840.95 380.245H840.941Z" fill="black"/>
<path d="M790.922 633.004L718.93 632.557C712.864 632.524 707.927 635.447 707.902 642.288L707.691 705.526C707.675 711.736 712.966 716.689 718.93 715.881C726.151 714.895 733.396 712.957 739.917 710.025C755.217 703.142 746.177 683.385 750.33 676.696C754.45 670.066 764.004 670.133 770.736 672.037C774.653 679.847 771.005 685.626 775.226 690.589C781.511 697.969 811.732 673.2 817.115 667.976C823.013 662.256 845.887 641.21 841.565 633.973L790.93 633.004H790.922ZM831.345 650.671C816.568 667.15 800.164 680.967 779.565 690.808C771.595 685.677 778.487 672.686 771.047 669.695C766.549 667.883 760.676 668.718 756.127 669.796C735.031 674.775 756.683 700.631 736.682 708.762C731.189 710.994 726.252 712.308 720.725 713.437C706.209 716.403 710.413 689.3 710.539 682.155L711.238 643.03C711.289 640.418 712.763 636.997 714.693 635.018L789.776 635.253L840.933 636.307C838.624 641.614 835.254 646.307 831.337 650.671H831.345Z" fill="black"/>
<path d="M638.421 299.846C631.201 300.832 623.955 302.769 617.434 305.701C602.135 312.584 611.175 332.341 607.021 339.03C602.901 345.661 593.347 345.594 586.616 343.69C582.698 335.88 586.346 330.1 582.125 325.138C575.84 317.757 545.62 342.527 540.236 347.75C534.339 353.471 511.465 374.517 515.787 381.754L566.421 382.723L638.413 383.169C644.479 383.203 649.416 380.279 649.441 373.438L649.652 310.2C649.668 303.991 644.378 299.037 638.413 299.846H638.421ZM646.804 333.58L646.105 372.705C646.054 375.317 644.58 378.738 642.65 380.717L567.558 380.481L516.402 379.428C518.71 374.121 522.08 369.428 525.998 365.064C540.775 348.584 557.179 334.767 577.778 324.927C585.748 330.058 578.856 343.041 586.296 346.04C590.795 347.851 596.667 347.017 601.216 345.939C622.313 340.96 600.66 315.103 620.661 306.973C626.154 304.741 631.091 303.426 636.618 302.297C651.134 299.332 646.93 326.435 646.804 333.58Z" fill="black"/>
<path d="M638.421 631.723L566.43 632.17L515.795 633.139C511.465 640.367 534.347 661.413 540.245 667.142C545.62 672.366 575.849 697.135 582.134 689.755C586.355 684.793 582.707 679.013 586.624 671.203C593.356 669.299 602.91 669.232 607.03 675.862C611.183 682.543 602.143 702.308 617.443 709.191C623.964 712.123 631.21 714.061 638.43 715.047C644.395 715.864 649.686 710.902 649.669 704.692L649.458 641.454C649.433 634.613 644.496 631.69 638.43 631.723H638.421ZM636.618 712.595C631.092 711.466 626.155 710.16 620.661 707.919C600.661 699.789 622.313 673.933 601.217 668.954C596.667 667.884 590.803 667.041 586.296 668.852C578.857 671.852 585.748 684.835 577.778 689.965C557.179 680.125 540.767 666.3 525.998 649.829C522.081 645.465 518.711 640.763 516.402 635.464L567.559 634.411L642.651 634.175C644.588 636.155 646.054 639.576 646.105 642.187L646.804 681.313C646.931 688.457 651.135 715.561 636.618 712.595Z" fill="black"/>
<path d="M676.982 255.286C537.262 255.286 423.997 368.552 423.997 508.272C423.997 647.992 537.262 761.258 676.982 761.258C816.703 761.258 929.968 647.992 929.968 508.272C929.968 368.552 816.703 255.286 676.982 255.286ZM677.387 729.799C555.039 729.799 455.86 630.62 455.86 508.272C455.86 385.924 555.039 286.745 677.387 286.745C799.735 286.745 898.914 385.924 898.914 508.272C898.914 630.62 799.735 729.799 677.387 729.799Z" fill="#EAC5B5"/>
<path d="M638.421 299.846C631.201 300.832 623.955 302.769 617.434 305.701C602.135 312.584 611.175 332.341 607.021 339.03C602.901 345.661 593.347 345.594 586.616 343.69C582.698 335.88 586.346 330.1 582.125 325.138C575.84 317.757 545.62 342.527 540.236 347.75C534.339 353.471 511.465 374.517 515.787 381.754L566.421 382.723L638.413 383.169C644.479 383.203 649.416 380.279 649.441 373.438L649.652 310.2C649.668 303.991 644.378 299.037 638.413 299.846H638.421Z" fill="#EAC5B5" stroke="#AB6520" stroke-width="5" stroke-miterlimit="10"/>
<path d="M638.421 631.723L566.43 632.17L515.795 633.139C511.465 640.367 534.347 661.413 540.245 667.142C545.62 672.366 575.849 697.135 582.134 689.755C586.355 684.793 582.707 679.013 586.624 671.203C593.356 669.299 602.91 669.232 607.03 675.862C611.183 682.543 602.143 702.308 617.443 709.191C623.964 712.123 631.21 714.061 638.43 715.047C644.395 715.864 649.686 710.902 649.669 704.692L649.458 641.454C649.433 634.613 644.496 631.69 638.43 631.723H638.421Z" fill="#EAC5B5" stroke="#AB6520" stroke-width="5" stroke-miterlimit="10"/>
<path d="M790.922 633.004L718.93 632.557C712.864 632.524 707.927 635.447 707.902 642.288L707.691 705.526C707.675 711.736 712.966 716.689 718.93 715.881C726.151 714.895 733.396 712.957 739.917 710.025C755.217 703.142 746.177 683.385 750.33 676.696C754.45 670.066 764.004 670.133 770.736 672.037C774.653 679.847 771.005 685.626 775.226 690.589C781.511 697.969 811.732 673.2 817.115 667.976C823.013 662.256 845.887 641.21 841.565 633.973L790.93 633.004H790.922Z" fill="#EAC5B5" stroke="#AB6520" stroke-width="5" stroke-miterlimit="10"/>
<path d="M718.931 383.995L790.922 383.548L841.556 382.579C845.887 375.351 823.005 354.305 817.107 348.576C811.732 343.352 781.503 318.583 775.218 325.963C770.997 330.926 774.645 336.705 770.727 344.515C763.996 346.419 754.442 346.487 750.322 339.856C746.169 333.175 755.209 313.41 739.909 306.527C733.388 303.595 726.142 301.657 718.922 300.671C712.957 299.854 707.666 304.816 707.683 311.026L707.894 374.264C707.919 381.105 712.856 384.028 718.922 383.995H718.931Z" fill="#EAC5B5" stroke="#AB6520" stroke-width="5" stroke-miterlimit="10"/>
<path d="M869.308 492.82H485.036V522.072H869.308V492.82Z" fill="#EAC5B5" stroke="#AB6520" stroke-width="5" stroke-miterlimit="10"/>
<path d="M760.305 430.122H594.038V459.373H760.305V430.122Z" fill="#EAC5B5" stroke="#AB6520" stroke-width="5" stroke-miterlimit="10"/>
<path d="M760.305 556.252H594.038V585.504H760.305V556.252Z" fill="#EAC5B5" stroke="#AB6520" stroke-width="5" stroke-miterlimit="10"/>
<path d="M491.346 391.4H659.973C661.101 390.271 660.857 293.502 660.857 293.502H694.498V391.998H866.292" stroke="#AB6520" stroke-width="5" stroke-miterlimit="10"/>
<path d="M864.607 626.079H695.981C694.852 627.208 695.096 723.977 695.096 723.977H661.455V625.48H489.661" stroke="#AB6520" stroke-width="5" stroke-miterlimit="10"/>
<path d="M563.599 430.122H469.525C466.004 439.583 463.105 449.347 460.89 459.373H563.599V430.122Z" fill="#EAC5B5" stroke="#AB6520" stroke-width="5" stroke-miterlimit="10"/>
<path d="M563.599 556.252H461.05C463.308 566.278 466.24 576.043 469.803 585.504H563.599V556.252Z" fill="#EAC5B5" stroke="#AB6520" stroke-width="5" stroke-miterlimit="10"/>
<path d="M677.134 730.388C799.48 730.388 898.661 631.207 898.661 508.861C898.661 386.515 799.48 287.334 677.134 287.334C554.788 287.334 455.607 386.515 455.607 508.861C455.607 631.207 554.788 730.388 677.134 730.388Z" stroke="#AB6520" stroke-width="5" stroke-miterlimit="10"/>
</g>
</svg>
