<svg width="547" height="790" viewBox="0 0 547 790" fill="none" xmlns="http://www.w3.org/2000/svg">
<g opacity="0.2">
<path d="M114.697 653.495C126.576 645.707 136.639 638.616 146.077 628.84C151.46 623.264 155.534 615.943 155.843 608.07C156.37 594.659 146.702 583.79 133.348 581.361C117.126 578.412 99.4814 587.602 92.8409 602.579C87.7207 614.133 93.4398 626.72 105.22 630.091C116.092 633.205 128.077 629.459 135.106 620.486C137.896 616.918 138.271 612.829 136.369 609.86C131.098 601.618 123.773 607.418 118.843 604.673C123.187 600.762 128.742 599.597 133.901 600.466C140.338 601.545 143.773 608.024 142.885 614.324C140.687 629.828 120.634 639.867 104.24 636.259C93.5977 633.916 86.5492 625.812 85.7858 615.14C84.9237 603.099 90.6625 593.863 98.7574 585.015C87.1679 589.84 79.9022 599.57 73.446 609.149C66.5225 619.419 57.9537 627.141 45.8771 632.079C50.2536 638.373 54.5775 644.284 59.4871 650.137C61.8959 653.007 65.7525 654.561 67.095 658.61C57.9669 656.306 45.6862 643.284 43.2117 633.297L32.6027 636.444C34.3599 646.99 36.5186 656.543 39.5986 666.477C40.5331 669.499 43.7382 671.645 42.3232 675.654C32.142 665.384 28.2525 651.394 28.4565 637.174L22.2833 637.319L22.1451 679.4L21.8161 694.318C21.8029 695.016 21.691 696.155 21.6252 696.635C21.5594 697.116 19.6837 697.116 19.6245 696.635C19.5587 696.155 19.4534 695.022 19.4336 694.311L19.0585 677.609L18.9729 637.872C17.6501 636.918 14.0765 636.812 12.8326 637.662C12.8655 651.75 8.89706 665.759 -1.08669 675.615C-2.45559 671.717 0.723137 669.472 1.65109 666.47C4.73112 656.536 6.89638 646.951 8.67332 636.398L-1.91593 633.297C-4.67348 643.547 -16.4079 655.937 -25.7927 658.676C-24.4831 654.318 -20.2974 652.77 -17.7965 649.689C-13.1238 643.942 -8.85917 638.149 -4.64717 632.112C-15.9801 627.234 -24.562 620.374 -31.1301 610.538C-39.4093 598.155 -49.6366 586.364 -63.9508 580.545C-55.3886 587.372 -47.9255 594.073 -45.5299 604.732C-43.6871 612.941 -43.9899 621.796 -49.6629 628.353C-56.639 636.417 -67.5968 638.544 -77.8175 636.174C-88.4067 633.718 -97.943 627.115 -101.135 616.707C-103.188 610.012 -100.266 602.276 -93.3821 600.65C-88.0513 599.393 -82.0756 600.565 -77.5674 604.725C-82.6086 607.293 -90.006 601.802 -95.1262 609.841C-97.0413 612.849 -96.5543 616.904 -94.0929 620.17C-87.255 629.261 -75.0534 633.29 -63.9245 630.064C-52.177 626.667 -46.4776 614.12 -51.5912 602.572C-58.2317 587.576 -75.8694 578.425 -92.1054 581.354C-105.755 583.817 -115.541 595.212 -114.554 608.873C-113.988 616.713 -109.789 623.777 -104.379 629.327C-95.0209 638.932 -84.5633 646.167 -73.0922 653.725C-39.6002 675.799 -7.7272 702.791 18.7163 732.389C19.3678 733.12 20.3682 734.338 20.7038 735.003C20.9934 734.397 21.6976 733.403 22.5334 732.462C48.3912 703.258 81.508 675.266 114.717 653.495H114.697Z" fill="#EAC5B5"/>
<path d="M-1.29053 501.808C-1.33002 499.767 -2.48176 497.094 -3.98887 495.547L-62.6476 495.732L-102.609 496.555C-100.806 500.702 -98.1731 504.369 -95.1128 507.779C-83.5693 520.656 -70.7557 531.453 -54.6645 539.142C-48.4386 535.133 -53.8221 524.988 -48.0108 522.644C-44.4964 521.229 -39.9093 521.881 -36.3555 522.723C-19.876 526.614 -36.7898 546.818 -21.1659 553.171C-16.8749 554.916 -13.0183 555.943 -8.70102 556.825C2.63847 559.142 -0.645592 537.964 -0.744316 532.381L-1.29053 501.808Z" fill="white"/>
<path d="M319.953 317.389C311.516 310.312 303.224 304.071 293.655 298.837C271.061 286.48 245.263 293.682 233.344 316.882C223.893 335.283 237.747 355.283 253.509 360.905C260.294 363.328 267.415 361.846 273.009 357.495C283.546 349.305 284.362 334.183 276.398 328.495C273.174 326.191 268.442 326.237 266.56 330.016C264.973 333.209 263.756 336.461 261.459 339.858C259.544 334.67 260.531 327.712 264.394 324.176C269.297 319.693 278.261 322.689 282.276 327.758C290.825 338.528 287.771 354.249 276.102 362.347L283.381 372.656L293.088 366.224L307.205 357.521C308.074 356.988 310.364 356.863 310.924 357.554C311.483 358.245 310.641 360.306 309.937 361.037C303.039 368.206 295.208 374.019 285.671 376.323L291.134 388.746L310.542 383.756L334.169 378.779C334.84 378.634 336.419 379.417 336.808 379.924C337.203 380.431 336.084 382.116 335.498 382.406C321.914 389.068 307.607 391.8 292.384 392.656C291.825 396.725 291.825 400.477 292.569 404.013C307.831 404.151 322.796 407.838 335.584 414.105C336.229 414.421 336.841 415.547 337.018 416.021C337.255 416.659 334.86 417.732 333.905 417.535L310.687 412.703L291.154 407.594L285.764 419.977C296.004 423.17 304.843 428.68 311.391 437.739C312.095 438.713 308.265 439.582 307.278 438.97L292.608 429.852L283.335 423.881L276.043 433.842C286.336 441.287 290.489 454.836 284.02 466.35C281.111 471.531 275.24 474.487 269.422 474.355C260.781 474.151 259.254 461.564 261.373 456.363L267.376 467.443C269.62 471.584 276.477 469.03 278.834 465.475C283.822 457.943 282.019 448.602 276.194 441.959C269.508 434.335 259.202 432.031 250.146 436.87C237.115 443.835 226.539 459.444 231.179 473.901C235.884 488.562 248.297 500.077 263.578 502.901C285.757 507.002 305.053 491.531 321.263 477.93L379.553 429.029C392.696 418.002 407.056 407.153 422.581 398.246C407.3 389.174 393.13 378.746 380.106 367.824L319.94 317.382L319.953 317.389Z" fill="#EAC5B5"/>
<path d="M-8.70102 236.216C-13.0183 237.099 -16.8749 238.119 -21.1659 239.87C-36.7898 246.223 -19.876 266.427 -36.3555 270.318C-39.9093 271.154 -44.4898 271.813 -48.0108 270.397C-53.8221 268.053 -48.4386 257.909 -54.6645 253.899C-70.7557 261.589 -83.5759 272.392 -95.1128 285.262C-98.1731 288.672 -100.806 292.346 -102.609 296.487L-62.6476 297.31L-3.98887 297.494C-2.47517 295.947 -1.33002 293.274 -1.29053 291.233L-0.744316 260.66C-0.645592 255.078 2.63847 233.899 -8.70102 236.216Z" fill="white"/>
<path d="M-71.9533 141.798C-83.0361 149.079 -92.5461 155.801 -101.878 164.419C-114.83 176.381 -120.299 194.307 -107.202 207.164C-98.0809 216.111 -85.0698 217.724 -73.3815 213.247C-63.3517 209.409 -54.7894 202.661 -51.1171 192.549C-47.2078 181.786 -52.0845 170.107 -63.0686 166.519C-80.8446 160.699 -99.0286 175.018 -95.9486 184.853C-92.1644 196.927 -71.5124 186.993 -78.0805 192.339C-82.2069 195.696 -91.2495 198.283 -97.0871 193.945C-104.557 188.389 -102.26 177.039 -95.9552 170.331C-86.6888 160.469 -72.1508 156.749 -59.5016 161.199C-50.4458 164.392 -45.1216 171.97 -44.549 181.437C-43.779 194.241 -50.2878 204.682 -60.0281 212.99C-56.9678 211.924 -54.1181 210.43 -51.5975 208.54C-29.965 192.339 -31.8669 175.663 -4.73901 164.287C-10.7806 154.8 -17.2368 146.736 -25.5292 139.363L-24.6868 137.545C-14.4464 143.312 -5.21286 151.436 -2.146 163.109L8.68671 159.935L4.48129 139.481C3.32299 133.852 1.03271 128.658 -1.35628 123.543L-1.9025 122.371C-5.87099 113.892 15.3403 134.616 12.4643 159.014C15.1824 159.501 17.1765 159.409 18.9732 158.671L19.1443 115.439L19.3286 104.418C19.3549 102.858 19.5063 100.547 19.9077 99.2898C20.0854 98.7368 21.9348 100.277 21.9414 100.942L22.1059 116.209L22.2638 158.685C24.0342 159.396 25.8835 159.494 28.7793 158.994C25.8309 135.037 47.062 113.694 43.1791 122.377L42.6525 123.562C36.1766 138.052 35.5711 144.056 32.5898 159.889L43.4028 163.122C45.8774 153.885 51.603 147.48 58.8622 142.114C61.442 140.212 63.9363 137.657 67.5033 138.263C58.9938 146.677 51.7807 154.715 46.0024 164.386C57.4669 168.987 66.1937 176.407 72.7815 186.341C76.1051 191.358 89.1096 209.442 95.0985 207.296C88.5765 199.047 84.766 190.067 85.9572 179.817C86.951 171.285 91.9527 164.57 100.16 161.443C113.289 156.446 128.742 160.548 137.975 171.259C142.22 176.183 144.287 182.674 142.161 188.738C140.424 193.708 135.099 197.111 129.736 196.183C126.136 195.558 121.529 194.583 119.344 192.273C118.962 191.865 120.357 190.535 120.93 190.62C126.445 191.43 134.81 192.253 137.219 184.801C140.305 175.222 122.194 160.607 104.293 166.512C93.2426 170.159 88.0237 182.181 92.703 193.346C98.9617 208.283 116.376 217.566 132.467 215.13C146.821 212.958 157.16 201.068 155.745 186.841C154.837 177.724 149.262 170.008 142.72 164.011C133.066 155.149 123.556 148.599 112.137 141.087C80.1262 120.021 47.628 92.1271 22.5666 63.9702C21.7242 63.0222 20.862 61.6133 20.7896 61.0801C20.5659 61.7845 19.3615 63.2592 18.3349 64.4047C-7.18066 92.8776 -39.4156 120.422 -71.9402 141.785L-71.9533 141.798Z" fill="#EAC5B5"/>
<path d="M102.963 254.538C96.7374 258.547 102.121 268.699 96.3097 271.036C92.7953 272.451 88.2081 271.799 84.6543 270.957C68.1748 267.066 85.0886 246.862 69.4648 240.509C65.1738 238.764 61.3172 237.737 56.9999 236.855C45.6604 234.538 48.9444 255.716 49.0431 261.299L49.5894 291.872C49.6289 293.913 50.7806 296.586 52.2877 298.133L110.94 297.948L150.901 297.126C149.098 292.978 146.465 289.311 143.405 285.901C131.862 273.024 119.048 262.227 102.957 254.538H102.963Z" fill="white"/>
<path d="M52.294 496.199C50.7804 497.746 49.6286 500.419 49.5957 502.46L49.0495 533.033C48.9508 538.615 45.6667 559.794 57.0062 557.477C61.3235 556.594 65.1801 555.574 69.4711 553.823C85.095 547.47 68.1812 527.266 84.6606 523.375C88.2145 522.539 92.7951 521.881 96.316 523.296C102.127 525.64 96.7438 535.785 102.97 539.794C119.061 532.104 131.881 521.301 143.418 508.431C146.478 505.021 149.111 501.347 150.914 497.206L110.953 496.383L52.3006 496.199H52.294Z" fill="white"/>
<path d="M252.884 540.689C242.505 549.34 227.092 552.032 214.134 547.483C205.078 544.303 199.181 535.534 199.109 526.338C199.03 516.232 206.052 508.622 215.193 505.383C220.452 503.52 226.77 503.572 231.403 507.345C238.662 513.256 238.84 524.744 233.246 531.993C230.409 535.666 225.677 536.871 221.853 534.461C216.062 530.801 220.314 525.001 218.872 525.6C214.239 527.542 215.897 533.671 216.852 534.955C220.425 539.767 226.421 540.755 231.646 537.351C241.9 530.669 243.605 515.205 235.404 505.936C230.844 500.781 224.19 500.346 217.819 501.841C205.749 504.672 195.575 514.132 195.825 527.141C196.141 543.81 211.027 554.277 227.645 552.756C207.658 558.333 213.021 574.797 195.95 587.503C198.332 583.329 201.09 579.393 202.689 574.837C206.164 564.929 202.834 554.626 195.39 547.641C188.572 541.249 179.793 539.103 170.895 542.17C163.076 544.87 157.114 551.874 155.58 560.9C154.185 569.123 156.574 577.905 163.991 582.421C169.335 585.68 176.311 585.094 181.484 581.348C185.617 578.352 189.099 572.967 188.414 566.904C187.993 563.224 184.933 560.018 181.951 559.689C178.536 559.313 174.396 560.248 173.409 564.225C177.391 563.145 182.438 561.789 184.281 565.864C186.854 571.552 182.327 577.714 177.443 579.742C171.902 582.046 166.084 580.518 162.247 575.252C156.041 566.726 158.134 553.257 167.275 547.299C175.883 541.69 186.762 544.185 193.771 550.979C201.004 557.997 203.472 568.372 198.609 577.648C194.561 585.377 188.289 593.139 180.188 596.891L161.451 605.581C159.977 583.817 143.115 572.454 122.714 574.778C121.016 574.389 120.371 574.172 122.292 573.573C192.389 533.145 231.923 456.33 224.032 376.231C217.714 312.076 181.221 255.802 126.037 222.852C124.188 222.247 124.03 222.049 125.952 221.997C145.755 222.424 160.253 210.351 161.411 190.666L180.398 199.488C187.796 202.925 193.627 210.16 197.766 217.039C203.433 226.447 201.636 237.434 194.12 244.999C187.341 251.812 176.779 254.564 168.078 249.495C158.66 244.011 156.087 231.121 161.49 222.069C164.735 216.631 170.5 214.406 176.226 216.17C181.221 217.711 185.795 222.589 184.854 228.883C184.604 230.548 182.228 233.208 180.734 233.109L173.264 232.615C175.087 235.749 179.029 237.467 182.675 236.506C185.466 235.769 188.315 232.464 188.467 228.85C188.717 222.846 185.591 217.579 181.102 214.702C176.575 211.806 170.901 210.601 165.702 212.964C152.171 219.126 152.869 238.679 161.49 248.067C167.604 254.722 177.423 257.013 185.861 254.347C194.594 251.582 200.787 244.09 203.038 236.401C205.749 227.138 202.748 218.349 196.93 210.89L197.549 210.002C203.788 215.512 206.776 221.016 210.192 227.494C216.016 238.534 215.272 238.093 227.402 243.728C215.147 242.477 203.248 247.797 197.964 259.304C194.64 266.546 194.936 274.248 199.036 281.187C207.164 294.94 227.889 299.772 235.72 290.128C242.933 281.247 242.051 268.047 233.7 260.43C230.179 257.217 225.342 255.94 221.057 257.902C218.747 258.955 216.47 261.24 216.036 263.136C215.437 265.763 216.253 268.659 217.905 271.062L219.333 270.061C216.766 265.703 221.439 261.641 223.189 261.069C225.875 260.186 229.317 260.608 231.587 262.675C238.754 269.192 239.149 281.457 232.193 288.231C227.329 292.971 220.597 292.879 214.759 290.799C206.197 287.744 200.063 280.615 199.201 272.287C198.253 263.136 202.972 254.986 210.994 250.226C217.424 246.414 225.243 246.23 232.667 247.079C259.222 250.114 269.778 280.786 274.253 288.389C274.892 288.455 275.537 288.534 276.169 288.62C276.116 288.436 276.07 288.258 276.017 288.106C271.509 274.815 260.795 255.934 248.113 248.573C229.073 237.52 220.445 243.952 213.041 227.125C206.822 212.991 195.897 203.129 181.484 197.355C174.804 194.676 167.729 192.088 161.313 188.073C158.41 168.698 140.45 154.754 124.741 144.122C112.184 135.617 100.1 127.664 87.9909 118.434C67.7733 103.036 49.6946 86.2351 31.9318 68.1111C29.2532 65.3791 24.0738 61.5739 21.5136 59.803L20.8358 60.8695C20.8358 60.9287 20.8095 61.0011 20.7897 61.0736C20.8621 61.6068 21.7243 63.0157 22.5667 63.9637C47.6281 92.1206 80.1263 120.008 112.137 141.081C123.549 148.592 133.066 155.143 142.721 164.004C149.262 170.008 154.843 177.724 155.745 186.835C157.16 201.062 146.821 212.951 132.467 215.124C116.376 217.559 98.9618 208.277 92.7031 193.339C88.0238 182.174 93.2427 170.153 104.293 166.506C122.194 160.594 140.305 175.215 137.219 184.794C134.816 192.246 126.445 191.424 120.93 190.614C120.351 190.528 118.956 191.858 119.344 192.266C121.529 194.584 126.136 195.558 129.736 196.177C135.093 197.105 140.417 193.701 142.161 188.731C144.287 182.661 142.22 176.17 137.975 171.252C128.742 160.541 113.289 156.433 100.16 161.436C91.9593 164.557 86.951 171.279 85.9573 179.811C84.7661 190.061 88.5832 199.04 95.0986 207.289C89.1097 209.436 76.1051 191.351 72.7816 186.335C66.1938 176.4 57.467 168.974 46.0025 164.379C51.7874 154.702 58.9939 146.663 67.5034 138.257C63.9364 137.651 61.4355 140.205 58.8622 142.108C51.6031 147.473 45.8774 153.885 43.4029 163.115L32.5899 159.883C35.5778 144.043 36.1767 138.039 42.6526 123.556L43.1792 122.371C47.0621 113.688 25.8244 135.031 28.7794 158.987C25.8836 159.488 24.0409 159.389 22.2639 158.678L22.106 116.202L21.9414 100.936C21.9349 100.271 20.0855 98.7302 19.9078 99.2832C19.5064 100.547 19.3484 102.851 19.3287 104.412L19.1444 115.432L18.9733 158.665C17.1766 159.402 15.1825 159.494 12.4644 159.007C15.3404 134.609 -5.8709 113.885 -1.9024 122.364L-1.35619 123.536C1.03281 128.651 3.32965 133.839 4.48137 139.474L8.6868 159.929L-2.1459 163.102C-5.21277 151.43 -14.4463 143.306 -24.6867 137.539L-25.5291 139.356C-17.2433 146.729 -10.7871 154.794 -4.73892 164.28C-31.8668 175.656 -29.9649 192.339 -51.5974 208.534C-54.1181 210.416 -56.9677 211.917 -60.028 212.984C-50.2878 204.682 -43.7789 194.235 -44.5489 181.43C-45.1149 171.963 -50.4457 164.386 -59.5015 161.193C-72.1441 156.736 -86.6887 160.462 -95.9551 170.324C-102.253 177.026 -104.55 188.382 -97.087 193.938C-91.256 198.277 -82.2068 195.69 -78.0804 192.332C-71.5189 186.986 -92.1643 196.914 -95.9485 184.847C-99.0285 175.011 -80.8445 160.699 -63.0685 166.512C-52.091 170.107 -47.2077 181.786 -51.117 192.543C-54.7894 202.661 -63.3516 209.403 -73.3814 213.241C-85.0697 217.711 -98.0808 216.104 -107.202 207.158C-120.306 194.3 -114.83 176.374 -101.878 164.412C-92.5526 155.795 -83.0426 149.073 -71.9532 141.792C-39.4221 120.429 -7.19374 92.8842 18.3218 64.4113C19.3484 63.2658 20.5528 61.7911 20.7766 61.0867C20.7634 60.9814 20.7766 60.909 20.8226 60.8826C20.8226 57.433 8.80527 68.6576 8.44989 69.0196C-8.43761 86.1956 -25.5883 102.101 -44.72 116.9C-58.1326 127.282 -71.6834 136.064 -85.6027 145.597C-99.5418 155.143 -117.95 169.784 -119.753 187.836C-126.275 191.95 -133.146 194.59 -140.227 197.375C-172.429 210.048 -170.211 234.584 -180.965 238.317L-195.417 243.333C-215.734 250.39 -227.613 269.271 -234.451 288.475C-233.806 288.396 -233.161 288.324 -232.509 288.271C-226.698 278.462 -217.274 249.285 -189.916 246.921C-183.058 246.329 -175.707 246.704 -169.751 250.219C-161.965 254.821 -157.312 262.701 -157.891 271.477C-158.437 279.792 -164.11 286.928 -172.311 290.338C-178.655 292.978 -186.237 293.228 -191.37 287.823C-198.07 280.773 -197.313 268.376 -189.909 262.359C-186.763 259.798 -182.755 260.081 -179.787 262.458C-177.497 264.294 -177.339 267.31 -177.602 271.148C-174.608 269.456 -174.107 265.822 -174.871 262.998C-175.351 261.22 -177.569 258.909 -179.833 257.889C-184.354 255.848 -189.304 257.336 -192.969 260.871C-201.4 269.015 -201.782 283.9 -192.647 291.813C-187.132 296.586 -179.208 295.671 -172.739 293.307C-162.524 289.574 -154.469 280.667 -154.561 269.37C-154.693 253.485 -168.842 242.398 -184.736 243.669C-187.046 243.853 -185.157 243.109 -184.025 242.49C-168.303 238.31 -170.086 220.614 -156.081 210.008C-155.765 209.1 -155.844 210.416 -155.904 211.305C-166.605 223.978 -164.657 241.7 -151.06 251.194C-144.176 255.999 -135.64 256.928 -127.394 253.188C-121.089 250.331 -116.127 244.248 -114.494 236.098C-113.04 228.837 -114.58 220.95 -120.161 215.802C-125.353 211.009 -132.336 210.686 -138.272 213.754C-143.867 216.644 -147.901 222.681 -147.157 229.62C-146.775 233.142 -143.768 236.197 -140.734 236.651C-137.641 237.112 -132.771 235.808 -132.652 232.313C-137.404 234.051 -142.741 233.577 -143.603 228.764C-144.663 222.806 -139.944 217.638 -135.028 216.164C-129.263 214.439 -123.544 216.598 -120.279 222.069C-114.626 231.549 -117.752 245.15 -128.012 250.114C-136.864 254.4 -146.848 251.279 -153.12 244.768C-159.523 238.126 -162.156 228.448 -157.714 219.422C-153.831 211.522 -147.302 203.346 -139.154 199.514L-120.174 190.581C-119.49 196.67 -118.213 203.267 -114.554 208.29C-105.59 220.614 -90.44 224.301 -75.8954 220.456C-74.2764 220.417 -74.0395 220.489 -75.7111 220.996C-95.4746 232.602 -113.336 246.394 -128.368 263.603C-196.181 341.234 -196.365 454.158 -128.401 531.874C-111.605 551.078 -91.335 565.89 -68.9325 577.964C-78.2515 575.173 -86.9914 573.106 -96.2117 575.561C-110.19 579.281 -119.779 590.597 -119.977 605.739L-138.97 596.917C-147.045 593.165 -153.317 585.403 -157.378 577.668C-162.13 568.609 -159.872 558.451 -152.975 551.433C-145.966 544.303 -134.844 541.591 -126.038 547.319C-117.107 553.132 -114.902 566.147 -120.622 574.712C-124.36 580.314 -130.513 582.23 -136.173 579.794C-140.898 577.76 -145.275 572.158 -143.287 566.41C-141.754 561.973 -136.403 562.947 -132.139 564.264C-133.304 560.038 -137.785 559.07 -141.484 559.86C-143.985 560.393 -146.828 563.625 -147.183 566.884C-147.861 573.02 -144.38 578.372 -140.234 581.368C-135.298 584.936 -128.499 585.667 -123.326 582.783C-115.751 578.55 -113.073 569.886 -114.231 561.664C-115.561 552.249 -121.55 545.008 -129.697 542.17C-138.47 539.116 -147.401 541.295 -154.146 547.635C-159.359 552.533 -162.492 558.826 -162.807 566.107C-163.176 574.402 -158.839 580.907 -154.344 587.872C-171.692 575.067 -166.467 558.234 -186.414 552.776C-169.448 554.277 -154.298 543.276 -154.594 526.291C-154.818 513.605 -164.815 504.639 -176.529 501.847C-182.907 500.327 -189.626 500.774 -194.167 505.923C-202.058 514.883 -200.834 529.386 -191.416 536.719C-188.145 539.267 -183.532 540.11 -180.031 538.53C-177.411 537.345 -175.068 534.777 -174.68 532.611C-174.272 530.34 -174.766 526.746 -177.615 525.192C-177.339 529.346 -177.497 532.46 -180.373 534.323C-183.334 536.245 -187.296 536.305 -190.264 533.684C-197.24 527.529 -197.978 515.561 -191.502 508.576C-186.737 503.434 -179.359 503.309 -173.226 505.639C-164.492 508.957 -157.76 516.627 -157.865 526.212C-158.016 539.965 -169.533 549.076 -182.525 549.583C-210.159 550.663 -224.75 529.254 -235.234 507.858C-235.833 507.772 -236.425 507.687 -237.018 507.582C-230.436 526.509 -216.089 545.679 -196.497 552.559L-180.643 558.122C-170.593 561.651 -171.89 586.726 -139.957 599.057C-133.093 601.71 -126.584 604.449 -119.891 608.188C-118.16 619.242 -112.566 628.109 -104.465 635.614C-96.0669 643.396 -87.2547 649.893 -77.4815 656.24C-46.4246 676.391 -18.474 699.44 7.16653 726.161C7.53508 726.543 19.5262 737.873 20.7173 735.957C20.6252 735.839 20.5594 735.688 20.5396 735.47C20.5331 735.372 20.5857 735.2 20.6844 734.99C20.3488 734.318 19.3484 733.107 18.6969 732.376C-7.75314 702.784 -39.6196 675.786 -73.1115 653.712C-84.5827 646.154 -95.0403 638.919 -104.399 629.314C-109.809 623.764 -114.001 616.7 -114.573 608.86C-115.561 595.193 -105.781 583.803 -92.1248 581.341C-75.8888 578.412 -58.2511 587.563 -51.6106 602.559C-46.497 614.107 -52.1963 626.654 -63.9439 630.051C-75.0728 633.271 -87.2744 629.242 -94.1123 620.157C-96.5737 616.885 -97.0607 612.836 -95.1456 609.827C-90.0319 601.789 -82.6346 607.28 -77.5868 604.712C-82.0949 600.551 -88.0707 599.38 -93.4016 600.637C-100.286 602.263 -103.208 609.992 -101.154 616.694C-97.9623 627.102 -88.4261 633.705 -77.8369 636.161C-67.6162 638.531 -56.6584 636.404 -49.6823 628.34C-44.0093 621.783 -43.7065 612.928 -45.5493 604.719C-47.9448 594.06 -55.4014 587.358 -63.9702 580.531C-49.656 586.358 -39.4287 598.142 -31.1495 610.525C-24.5748 620.361 -15.9995 627.221 -4.66653 632.099C-8.87854 638.136 -13.1432 643.929 -17.8159 649.676C-20.3167 652.751 -24.4958 654.304 -25.8121 658.663C-16.4338 655.924 -4.69289 643.534 -1.93535 633.284L8.6539 636.384C6.87697 646.938 4.71175 656.523 1.63171 666.457C0.703766 669.453 -2.47501 671.704 -1.10611 675.601C8.87108 665.746 12.8462 651.737 12.8133 637.648C14.0571 636.793 17.6307 636.905 18.9536 637.859L19.0391 677.596L19.4142 694.298C19.4274 695.009 19.5393 696.141 19.6051 696.622C19.6709 697.103 21.54 697.103 21.6058 696.622C21.6716 696.141 21.7835 695.003 21.7966 694.305L22.1257 679.387L22.2639 637.306L28.4371 637.161C28.2331 651.381 32.1227 665.364 42.3038 675.641C43.7188 671.638 40.5137 669.492 39.5792 666.464C36.4992 656.529 34.3405 646.977 32.5833 636.431L43.1923 633.284C45.6668 643.271 57.9475 656.293 67.0757 658.597C65.7265 654.541 61.8765 652.994 59.4677 650.124C54.5581 644.265 50.2343 638.359 45.8577 632.066C57.9343 627.128 66.5031 619.4 73.4265 609.136C79.8828 599.557 87.1485 589.827 98.7381 585.002C90.6497 593.85 84.9108 603.086 85.7664 615.127C86.5298 625.805 93.5849 633.909 104.22 636.246C120.614 639.854 140.667 629.814 142.865 614.311C143.754 608.017 140.318 601.539 133.882 600.453C128.722 599.584 123.168 600.749 118.824 604.659C123.753 607.405 131.078 601.605 136.35 609.847C138.252 612.816 137.877 616.911 135.086 620.473C128.064 629.446 116.073 633.192 105.201 630.078C93.4204 626.707 87.7013 614.12 92.8215 602.566C99.4554 587.589 117.1 578.398 133.329 581.348C146.682 583.777 156.35 594.646 155.824 608.056C155.514 615.937 151.441 623.251 146.057 628.827C136.62 638.603 126.557 645.693 114.678 653.481C81.4688 675.259 48.352 703.245 22.4943 732.448C21.6585 733.39 20.9608 734.384 20.6647 734.99C20.7239 735.108 20.77 735.214 20.7766 735.293C20.816 735.595 20.7766 735.806 20.691 735.951C22.231 737.873 33.3665 726.853 34.0378 726.161C58.9742 700.236 85.9704 677.675 116.06 657.998C133.362 646.687 158.812 629.933 161.095 608.175C167.808 604.449 174.317 601.697 181.181 599.037C213.114 586.693 211.784 561.651 221.86 558.109L237.701 552.539C247.672 549.037 255.8 543.257 262.243 534.758C265.968 529.846 275.398 512.177 276.228 507.805C275.728 507.878 275.221 507.95 274.721 508.009C271.489 512.769 264.118 531.275 252.851 540.669L252.884 540.689ZM-25.6936 186.934C-9.77361 164.682 20.691 158.889 44.9232 169.231C53.7684 173.01 60.909 178.751 66.5689 186.4L78.3428 202.306C69.2738 200.232 55.7625 197.151 47.9506 196.433L40.1978 195.722C29.6942 194.755 19.3945 194.617 9.22647 195.637L-2.99492 196.861L-9.3129 197.908C-19.5402 199.6 -29.0633 202.029 -39.9026 205.163C-34.8482 199.06 -30.2347 193.28 -25.6871 186.934H-25.6936ZM69.0961 606.509C58.0133 623.639 39.3094 632.54 18.8548 632.007C-0.559845 631.5 -17.8159 622.349 -28.2077 605.989C-32.0775 599.9 -36.9344 595.146 -42.1468 589.399C-30.2018 592.75 -19.2901 595.759 -7.55573 597.536L0.57869 598.767L12.6158 599.478C19.8815 599.906 26.5352 599.86 33.8009 599.419L44.5151 598.767L54.8148 597.22C63.7785 595.871 72.2025 593.428 81.1595 591.453C76.783 596.542 72.6171 601.052 69.0895 606.509H69.0961ZM22.8299 594.857C-86.3135 594.857 -174.792 506.35 -174.792 397.172C-174.792 287.994 -86.3135 199.488 22.8299 199.488C131.973 199.488 220.452 287.994 220.452 397.172C220.452 506.35 131.973 594.857 22.8299 594.857Z" fill="#AB6520"/>
<path d="M422.614 398.265C422.614 398.265 422.601 398.259 422.588 398.252C407.056 407.159 392.702 418.009 379.56 429.036L321.27 477.937C305.06 491.531 285.764 507.002 263.585 502.907C248.303 500.083 235.885 488.569 231.185 473.908C226.552 459.451 237.122 443.848 250.153 436.877C259.208 432.038 269.508 434.342 276.201 441.966C282.032 448.608 283.836 457.95 278.84 465.481C276.484 469.036 269.627 471.591 267.382 467.45L261.38 456.37C259.261 461.571 260.788 474.158 269.429 474.362C275.247 474.5 281.111 471.538 284.026 466.357C290.496 454.843 286.343 441.287 276.05 433.848L283.342 423.888L292.615 429.859L307.284 438.977C308.265 439.589 312.102 438.72 311.398 437.746C304.843 428.687 296.011 423.183 285.77 419.984L291.16 407.601L310.694 412.709L333.912 417.541C334.866 417.739 337.262 416.666 337.025 416.027C336.847 415.553 336.235 414.427 335.59 414.111C322.803 407.851 307.831 404.164 292.575 404.019C291.832 400.484 291.825 396.731 292.391 392.663C307.62 391.807 321.921 389.082 335.505 382.413C336.091 382.123 337.209 380.438 336.815 379.931C336.42 379.424 334.847 378.64 334.175 378.785L310.549 383.762L291.141 388.752L285.678 376.33C295.215 374.026 303.046 368.212 309.943 361.043C310.648 360.312 311.49 358.258 310.931 357.561C310.371 356.869 308.081 356.988 307.212 357.528L293.095 366.231L283.388 372.663L276.109 362.353C287.784 354.256 290.831 338.541 282.282 327.764C278.261 322.702 269.304 319.7 264.401 324.183C260.538 327.718 259.551 334.67 261.466 339.865C263.763 336.468 264.98 333.209 266.566 330.023C268.449 326.244 273.18 326.198 276.405 328.502C284.369 334.183 283.552 349.312 273.016 357.501C267.422 361.853 260.301 363.328 253.516 360.912C237.754 355.289 223.9 335.283 233.351 316.889C245.269 293.683 271.068 286.487 293.661 298.844C303.23 304.078 311.516 310.319 319.96 317.396L380.126 367.837C393.15 378.759 407.319 389.187 422.601 398.259C422.601 398.259 422.601 398.259 422.608 398.259C414.184 386.824 401.488 379.773 391.07 371.083L326.916 317.567C311.845 304.999 295.576 291.424 276.168 288.646C276.3 289.127 276.405 289.634 276.425 289.805C276.451 290.042 275.754 290.154 275.53 290.029C275.168 289.818 274.747 289.259 274.253 288.416C271.246 288.1 268.166 288.041 265 288.297C246.928 289.739 231.251 302.221 225.137 319.121C218.563 337.291 232.653 357.106 248.85 364.526C257.01 368.259 265.224 367.554 273.292 363.953C292.648 394.197 292.766 401.866 273.411 432.446C253.437 422.861 232.943 438.246 225.756 456.212C216.687 478.898 237.49 502.414 258.517 507.141C264.151 508.411 269.554 508.628 274.76 508.036C275.142 507.476 275.464 507.094 275.734 506.95C276.28 506.653 276.432 507.009 276.274 507.832C294.366 505.218 310.035 492.94 324.356 480.985L390.458 425.823C401.021 417.008 413.769 409.76 422.7 398.193C422.667 398.213 422.634 398.232 422.608 398.246C422.608 398.246 422.621 398.259 422.621 398.265H422.614Z" fill="#AB6520"/>
<path d="M275.728 506.943C275.464 507.088 275.135 507.47 274.753 508.029C275.26 507.97 275.76 507.898 276.261 507.825C276.419 507.002 276.267 506.653 275.721 506.943H275.728Z" fill="black"/>
<path d="M275.523 290.016C275.747 290.147 276.445 290.035 276.418 289.792C276.399 289.614 276.293 289.107 276.162 288.633C275.53 288.541 274.885 288.468 274.247 288.403C274.74 289.245 275.161 289.811 275.523 290.016Z" fill="black"/>
<path d="M253.779 378.127C265.092 388.594 266.119 405.184 255.372 416.613C243.617 429.108 221.208 438.825 220.241 457.746C225.69 450.096 228.895 442.216 236.497 436.712C247.718 428.582 262.874 418.562 266.079 405.231C269.363 391.557 262.841 379.924 252.272 371.748L233.95 357.561C227.77 352.775 225.302 345.197 220.182 338.824C221.761 356.784 241.044 366.343 253.785 378.134L253.779 378.127Z" fill="#AB6520"/>
<path d="M132.289 272.379C128.09 268.297 104.476 248.942 99.5669 254.709C96.2697 258.587 99.1193 263.103 96.0591 269.206C90.8006 270.693 83.3375 270.746 80.1193 265.565C76.8747 260.344 83.9364 244.9 71.9848 239.521C66.8909 237.23 61.2311 235.716 55.591 234.946C50.9314 234.307 46.7984 238.185 46.8116 243.037L46.9761 292.451C46.9958 297.797 50.8525 300.081 55.591 300.055L111.828 299.706L151.381 298.949C154.764 293.301 136.889 276.855 132.282 272.379H132.289ZM150.907 297.126L110.946 297.948L52.2937 298.133C50.7801 296.586 49.6284 293.913 49.5955 291.872L49.0492 261.299C48.9505 255.716 45.6664 234.538 57.0059 236.855C61.3232 237.737 65.1798 238.758 69.4708 240.509C85.0947 246.862 68.1809 267.066 84.6603 270.957C88.2142 271.793 92.7948 272.451 96.3157 271.036C102.127 268.692 96.7435 258.547 102.969 254.538C119.061 262.227 131.881 273.031 143.418 285.901C146.478 289.311 149.111 292.985 150.914 297.126H150.907Z" fill="black"/>
<path d="M111.835 494.632L55.5978 494.283C50.8593 494.257 47.0027 496.541 46.9829 501.887L46.8184 551.301C46.8052 556.153 50.9383 560.024 55.5978 559.392C61.2379 558.622 66.8978 557.108 71.9917 554.817C83.9432 549.438 76.8815 534 80.1261 528.773C83.3443 523.592 90.8075 523.645 96.0659 525.133C99.1262 531.235 96.2765 535.752 99.5737 539.629C104.483 545.396 128.09 526.041 132.296 521.96C136.903 517.489 154.771 501.044 151.394 495.389L111.841 494.632H111.835ZM143.411 508.437C131.868 521.314 119.054 532.111 102.963 539.8C96.7372 535.791 102.121 525.64 96.3094 523.303C92.795 521.887 88.2079 522.539 84.654 523.382C68.1745 527.272 85.0884 547.477 69.4645 553.829C65.1735 555.574 61.3169 556.601 56.9996 557.483C45.6601 559.801 48.9441 538.622 49.0429 533.039L49.5891 502.466C49.6286 500.425 50.7803 497.753 52.2874 496.206L110.939 496.39L150.901 497.213C149.098 501.36 146.465 505.027 143.405 508.437H143.411Z" fill="black"/>
<path d="M-7.29242 234.301C-12.9325 235.071 -18.5924 236.585 -23.6863 238.876C-35.6379 244.255 -28.5762 259.693 -31.8207 264.92C-35.039 270.101 -42.5021 270.048 -47.7605 268.56C-50.8208 262.458 -47.9711 257.941 -51.2683 254.064C-56.1779 248.297 -79.7849 267.652 -83.9903 271.734C-88.5972 276.204 -106.465 292.649 -103.089 298.304L-63.5358 299.061L-7.299 299.41C-2.56051 299.436 1.29608 297.152 1.31583 291.806L1.48035 242.392C1.49352 237.54 -2.63948 233.669 -7.299 234.301H-7.29242ZM-0.74411 260.66L-1.29032 291.233C-1.32981 293.274 -2.48155 295.947 -3.98866 297.494L-62.6473 297.31L-102.609 296.487C-100.805 292.339 -98.1729 288.672 -95.1126 285.262C-83.5691 272.385 -70.7554 261.589 -54.6643 253.899C-48.4384 257.909 -53.8218 268.053 -48.0106 270.397C-44.4962 271.813 -39.9091 271.161 -36.3552 270.318C-19.8758 266.427 -36.7896 246.223 -21.1657 239.87C-16.8747 238.126 -13.0181 237.099 -8.70081 236.216C2.63868 233.899 -0.645386 255.078 -0.74411 260.66Z" fill="black"/>
<path d="M-7.29267 493.632L-63.5295 493.98L-103.083 494.738C-106.466 500.386 -88.5909 516.831 -83.984 521.308C-79.7852 525.39 -56.1716 544.745 -51.262 538.978C-47.9648 535.1 -50.8145 530.584 -47.7542 524.481C-42.4958 522.993 -35.0326 522.941 -31.8144 528.122C-28.5699 533.342 -35.6315 548.787 -23.68 554.165C-18.5861 556.456 -12.9262 557.97 -7.28608 558.741C-2.62656 559.379 1.50645 555.502 1.49329 550.65L1.32875 501.235C1.30901 495.89 -2.54758 493.605 -7.28608 493.632H-7.29267ZM-8.70107 556.825C-13.0184 555.943 -16.875 554.922 -21.166 553.171C-36.7898 546.818 -19.876 526.614 -36.3555 522.723C-39.9094 521.887 -44.4899 521.229 -48.0109 522.644C-53.8221 524.988 -48.4387 535.133 -54.6645 539.142C-70.7557 531.453 -83.5759 520.65 -95.1129 507.779C-98.1732 504.369 -100.806 500.695 -102.609 496.555L-62.6476 495.732L-3.98891 495.547C-2.47522 497.094 -1.33006 499.767 -1.29057 501.808L-0.744354 532.381C-0.645638 537.964 2.63843 559.142 -8.70107 556.825Z" fill="black"/>
<path d="M22.8298 199.482C-86.3137 199.482 -174.792 287.988 -174.792 397.166C-174.792 506.344 -86.3137 594.85 22.8298 594.85C131.973 594.85 220.452 506.344 220.452 397.166C220.452 287.988 131.973 199.482 22.8298 199.482ZM23.1457 570.268C-72.4272 570.268 -149.902 492.769 -149.902 397.166C-149.902 301.563 -72.4272 224.064 23.1457 224.064C118.719 224.064 196.193 301.563 196.193 397.166C196.193 492.769 118.719 570.268 23.1457 570.268Z" fill="#EAC5B5"/>
<path d="M-7.29242 234.301C-12.9325 235.071 -18.5924 236.585 -23.6863 238.876C-35.6379 244.255 -28.5762 259.693 -31.8207 264.92C-35.039 270.101 -42.5021 270.048 -47.7605 268.56C-50.8208 262.458 -47.9711 257.941 -51.2683 254.064C-56.1779 248.297 -79.7849 267.652 -83.9903 271.734C-88.5972 276.204 -106.465 292.649 -103.089 298.304L-63.5358 299.061L-7.299 299.41C-2.56051 299.436 1.29608 297.152 1.31583 291.806L1.48035 242.392C1.49352 237.54 -2.63948 233.669 -7.299 234.301H-7.29242Z" fill="#EAC5B5" stroke="#AB6520" stroke-width="5" stroke-miterlimit="10"/>
<path d="M-7.29267 493.632L-63.5295 493.98L-103.083 494.738C-106.466 500.386 -88.5909 516.831 -83.984 521.308C-79.7852 525.39 -56.1716 544.745 -51.262 538.978C-47.9648 535.1 -50.8145 530.584 -47.7542 524.481C-42.4958 522.993 -35.0326 522.941 -31.8144 528.122C-28.5699 533.342 -35.6315 548.787 -23.68 554.165C-18.5861 556.456 -12.9262 557.97 -7.28608 558.741C-2.62656 559.379 1.50645 555.502 1.49329 550.65L1.32875 501.235C1.30901 495.89 -2.54758 493.605 -7.28608 493.632H-7.29267Z" fill="#EAC5B5" stroke="#AB6520" stroke-width="5" stroke-miterlimit="10"/>
<path d="M111.835 494.632L55.5978 494.283C50.8593 494.257 47.0027 496.541 46.9829 501.887L46.8184 551.301C46.8052 556.153 50.9383 560.024 55.5978 559.392C61.2379 558.622 66.8978 557.108 71.9917 554.817C83.9432 549.438 76.8815 534 80.1261 528.773C83.3443 523.592 90.8075 523.645 96.0659 525.133C99.1262 531.235 96.2765 535.752 99.5737 539.629C104.483 545.396 128.09 526.041 132.296 521.96C136.903 517.489 154.771 501.044 151.394 495.389L111.841 494.632H111.835Z" fill="#EAC5B5" stroke="#AB6520" stroke-width="5" stroke-miterlimit="10"/>
<path d="M55.5975 300.055L111.834 299.706L151.388 298.949C154.77 293.301 136.896 276.855 132.289 272.379C128.09 268.297 104.476 248.942 99.5669 254.709C96.2697 258.587 99.1193 263.103 96.0591 269.206C90.8006 270.693 83.3375 270.746 80.1193 265.565C76.8747 260.344 83.9364 244.9 71.9848 239.521C66.8909 237.23 61.2311 235.716 55.591 234.946C50.9314 234.307 46.7984 238.185 46.8116 243.037L46.9761 292.451C46.9958 297.797 50.8525 300.081 55.591 300.055H55.5975Z" fill="#EAC5B5" stroke="#AB6520" stroke-width="5" stroke-miterlimit="10"/>
<path d="M173.066 385.092H-127.111V407.949H173.066V385.092Z" fill="#EAC5B5" stroke="#AB6520" stroke-width="5" stroke-miterlimit="10"/>
<path d="M87.9181 336.099H-41.9629V358.956H87.9181V336.099Z" fill="#EAC5B5" stroke="#AB6520" stroke-width="5" stroke-miterlimit="10"/>
<path d="M87.9181 434.658H-41.9629V457.515H87.9181V434.658Z" fill="#EAC5B5" stroke="#AB6520" stroke-width="5" stroke-miterlimit="10"/>
<path d="M-122.182 305.842H9.54205C10.4239 304.96 10.2331 229.344 10.2331 229.344H36.512V306.309H170.71" stroke="#AB6520" stroke-width="5" stroke-miterlimit="10"/>
<path d="M169.394 489.221H37.6707C36.7888 490.103 36.9796 565.719 36.9796 565.719H10.7007V488.753H-123.498" stroke="#AB6520" stroke-width="5" stroke-miterlimit="10"/>
<path d="M111.696 358.95H191.928C190.197 351.115 187.933 343.485 185.183 336.092H111.696V358.95Z" fill="#EAC5B5" stroke="#AB6520" stroke-width="5" stroke-miterlimit="10"/>
<path d="M111.696 457.515H184.965C187.749 450.122 190.04 442.492 191.803 434.658H111.696V457.515Z" fill="#EAC5B5" stroke="#AB6520" stroke-width="5" stroke-miterlimit="10"/>
<path d="M22.9482 570.729C118.52 570.729 195.996 493.229 195.996 397.627C195.996 302.025 118.52 224.525 22.9482 224.525C-72.6232 224.525 -150.099 302.025 -150.099 397.627C-150.099 493.229 -72.6232 570.729 22.9482 570.729Z" stroke="#AB6520" stroke-width="5" stroke-miterlimit="10"/>
</g>
</svg>
