<svg width="22" height="22" viewBox="0 0 22 22" fill="none" xmlns="http://www.w3.org/2000/svg">
<path d="M11 22C4.91765 22 0 17.0824 0 11C0 4.91765 4.91765 0 11 0C17.0824 0 22 4.91765 22 11C22 17.0824 17.0824 22 11 22ZM11 1.29412C5.62941 1.29412 1.29412 5.62941 1.29412 11C1.29412 16.3706 5.62941 20.7059 11 20.7059C16.3706 20.7059 20.7059 16.3706 20.7059 11C20.7059 5.62941 16.3706 1.29412 11 1.29412Z" fill="#BBBBBB"/>
<path d="M5.17627 10.3525H16.8233V11.6467H5.17627V10.3525Z" fill="#BBBBBB"/>
<path d="M10.3525 5.17627H11.6467V16.8233H10.3525V5.17627Z" fill="#BBBBBB"/>
</svg>
