<svg width="70" height="70" viewBox="0 0 70 70" fill="none" xmlns="http://www.w3.org/2000/svg">
<circle cx="35" cy="35" r="35" fill="#AB6520" fill-opacity="0.1"/>
<path d="M46.6033 23L47.4078 24.2174C41.8659 27.7536 39.095 31.2899 39.095 34.8261C39.095 36.6232 39.8994 37.6667 41.5084 37.9565L45.2626 34.5652C46.4544 34.971 47.527 35.7246 48.4804 36.8261C49.4935 37.8696 50 39.2319 50 40.913C50 42.5942 49.3147 44.0435 47.9441 45.2609C46.5736 46.4203 44.7561 47 42.4916 47C40.2868 47 38.4395 46.2754 36.9497 44.8261C35.5196 43.3188 34.8045 41.2609 34.8045 38.6522C34.8045 32.971 38.7374 27.7536 46.6033 23ZM29.7989 23L30.6034 24.2174C25.0615 27.7536 22.2905 31.2899 22.2905 34.8261C22.2905 36.6232 23.095 37.6667 24.7039 37.9565L28.4581 34.5652C29.6499 34.971 30.7225 35.7246 31.676 36.8261C32.689 37.8696 33.1955 39.2319 33.1955 40.913C33.1955 42.5942 32.5102 44.0435 31.1397 45.2609C29.7691 46.4203 27.9516 47 25.6872 47C23.4823 47 21.635 46.2754 20.1453 44.8261C18.7151 43.3188 18 41.2609 18 38.6522C18 32.971 21.933 27.7536 29.7989 23Z" fill="#C76E00"/>
</svg>
