<svg width="49" height="57" viewBox="0 0 49 57" fill="none" xmlns="http://www.w3.org/2000/svg">
<path d="M47.3758 10.6027H1.51465V55.0122H47.3758V10.6027Z" stroke="#C76E00" stroke-width="3" stroke-linejoin="round"/>
<path d="M23.8789 37.442H25.013C28.8234 37.442 31.908 40.5418 31.908 44.3371V55.0123H16.9688V44.3371C16.9688 40.5266 20.0685 37.442 23.8638 37.442H23.8789Z" stroke="#C76E00" stroke-width="3" stroke-linejoin="round"/>
<path d="M8.41018 1.5H40.4661C44.2766 1.5 47.3612 4.59975 47.3612 8.39505V10.5875H1.5V8.39505C1.5 4.58463 4.59975 1.5 8.39505 1.5H8.41018Z" stroke="#C76E00" stroke-width="3" stroke-linejoin="round"/>
<path d="M13.1724 17.4373H6.74609V25.9502H13.1724V17.4373Z" stroke="#C76E00" stroke-width="3" stroke-linejoin="round"/>
<path d="M27.6587 17.4373H21.2324V25.9502H27.6587V17.4373Z" stroke="#C76E00" stroke-width="3" stroke-linejoin="round"/>
<path d="M42.1587 17.4373H35.7324V25.9502H42.1587V17.4373Z" stroke="#C76E00" stroke-width="3" stroke-linejoin="round"/>
<path d="M42.1587 30.4258H35.7324V38.9387H42.1587V30.4258Z" stroke="#C76E00" stroke-width="3" stroke-linejoin="round"/>
<path d="M13.1724 30.4258H6.74609V38.9387H13.1724V30.4258Z" stroke="#C76E00" stroke-width="3" stroke-linejoin="round"/>
</svg>
