<svg width="100" height="100" viewBox="0 0 100 100" fill="none" xmlns="http://www.w3.org/2000/svg">
<path d="M51.4736 13.1105C51.0829 12.7199 50.5531 12.5005 50.0006 12.5005C49.4482 12.5005 48.9184 12.7199 48.5277 13.1105L39.4507 22.1855C40.0465 23.7709 41.7027 25 43.7507 25C45.7986 25 47.4569 23.7688 48.0506 22.1875C48.1998 21.7909 48.4664 21.4492 48.8148 21.208C49.1632 20.9668 49.5769 20.8375 50.0006 20.8375C50.4244 20.8375 50.8381 20.9668 51.1865 21.208C51.5349 21.4492 51.8015 21.7909 51.9507 22.1875C52.5444 23.7688 54.2006 25 56.2506 25C58.3006 25 59.9569 23.7688 60.5506 22.1875L51.4736 13.1105ZM63.6298 25.2667C62.0715 27.6375 59.3194 29.1667 56.2506 29.1667C53.9165 29.177 51.6718 28.2693 50.0006 26.6396C48.3295 28.2693 46.0848 29.177 43.7507 29.1667C40.6819 29.1667 37.9298 27.6375 36.3715 25.2646L23.8944 37.7438C24.0625 37.8313 24.2194 37.9452 24.3652 38.0855C25.2819 38.973 26.6819 39.5834 28.3069 39.5834C31.4465 39.5834 33.4548 37.4438 33.4548 35.4167C33.4548 34.8642 33.6743 34.3343 34.065 33.9436C34.4557 33.5529 34.9856 33.3334 35.5382 33.3334C36.0907 33.3334 36.6206 33.5529 37.0113 33.9436C37.402 34.3343 37.6215 34.8642 37.6215 35.4167C37.6215 37.4438 39.6319 39.5834 42.7694 39.5834C45.9069 39.5834 47.9173 37.4438 47.9173 35.4167C47.9173 34.8642 48.1368 34.3343 48.5275 33.9436C48.9182 33.5529 49.4481 33.3334 50.0006 33.3334C50.5532 33.3334 51.0831 33.5529 51.4738 33.9436C51.8645 34.3343 52.084 34.8642 52.084 35.4167C52.084 37.4438 54.0923 39.5834 57.2319 39.5834C60.3694 39.5834 62.3777 37.4438 62.3777 35.4167C62.3777 34.8642 62.5972 34.3343 62.9879 33.9436C63.3786 33.5529 63.9085 33.3334 64.4611 33.3334C65.0136 33.3334 65.5435 33.5529 65.9342 33.9436C66.3249 34.3343 66.5444 34.8642 66.5444 35.4167C66.5444 37.4438 68.5548 39.5834 71.6944 39.5834C73.3194 39.5834 74.7173 38.973 75.6361 38.0834C75.7819 37.9459 75.9388 37.8327 76.1069 37.7438L63.6298 25.2667ZM15.1944 46.4438L21.0777 40.5605C21.1777 40.7493 21.3083 40.923 21.4694 41.0813C23.1986 42.7521 25.6507 43.75 28.3069 43.75C31.1069 43.75 33.7798 42.598 35.5382 40.6834C37.2965 42.598 39.9694 43.75 42.7694 43.75C45.5694 43.75 48.2423 42.598 50.0006 40.6834C51.759 42.598 54.4319 43.75 57.2319 43.75C60.0319 43.75 62.7048 42.598 64.4611 40.6834C66.2215 42.598 68.8944 43.75 71.6944 43.75C74.3527 43.75 76.8027 42.75 78.5319 41.0834C78.689 40.9314 78.8211 40.7556 78.9236 40.5625L84.8069 46.4438C85.1976 46.8344 85.4172 47.3642 85.4173 47.9167C85.4173 51.1459 82.3902 54.1667 78.1256 54.1667C75.8131 54.1667 73.9215 53.6375 72.6736 52.7855C71.5027 51.9834 70.834 50.8709 70.834 49.3063C70.834 48.7538 70.6145 48.2239 70.2238 47.8331C69.8331 47.4425 69.3032 47.223 68.7506 47.223C68.1981 47.223 67.6682 47.4425 67.2775 47.8331C66.8868 48.2239 66.6673 48.7538 66.6673 49.3063C66.6673 50.8709 65.9986 51.9834 64.8277 52.7855C63.5798 53.6396 61.6881 54.1667 59.3756 54.1667C57.0631 54.1667 55.1715 53.6375 53.9236 52.7855C52.7527 51.9834 52.084 50.8709 52.084 49.3063C52.084 48.7538 51.8645 48.2239 51.4738 47.8331C51.0831 47.4425 50.5532 47.223 50.0006 47.223C49.4481 47.223 48.9182 47.4425 48.5275 47.8331C48.1368 48.2239 47.9173 48.7538 47.9173 49.3063C47.9173 50.8709 47.2486 51.9834 46.0777 52.7855C44.8298 53.6396 42.9382 54.1667 40.6257 54.1667C38.3132 54.1667 36.4215 53.6375 35.1736 52.7855C34.0027 51.9834 33.334 50.8709 33.334 49.3063C33.334 48.7538 33.1145 48.2239 32.7238 47.8331C32.3331 47.4425 31.8032 47.223 31.2507 47.223C30.6981 47.223 30.1682 47.4425 29.7775 47.8331C29.3868 48.2239 29.1673 48.7538 29.1673 49.3063C29.1673 50.8709 28.4986 51.9834 27.3277 52.7855C26.0798 53.6396 24.1882 54.1667 21.8757 54.1667C17.6111 54.1667 14.584 51.1459 14.584 47.9167C14.5841 47.3642 14.8037 46.8344 15.1944 46.4438ZM21.8757 82.4292V58.3334C24.7423 58.3334 27.5361 57.6917 29.6819 56.223C30.2652 55.8243 30.7882 55.3702 31.2507 54.8605C31.7132 55.3716 32.2361 55.8257 32.8194 56.223C34.9652 57.6917 37.759 58.3334 40.6257 58.3334C43.4923 58.3334 46.2861 57.6917 48.4319 56.223C49.0152 55.8243 49.5382 55.3702 50.0006 54.8605C50.4632 55.3702 50.9861 55.8243 51.5694 56.223C53.7152 57.6917 56.509 58.3334 59.3756 58.3334C62.2423 58.3334 65.0361 57.6917 67.1819 56.223C67.7652 55.8243 68.2882 55.3702 68.7506 54.8605C69.2132 55.3702 69.7361 55.8243 70.3194 56.223C72.4652 57.6917 75.259 58.3334 78.1256 58.3334V82.4292C78.1256 83.9542 76.9944 84.825 76.3402 85.2084C75.6027 85.6459 74.684 85.948 73.7861 86.175C71.9569 86.6396 69.6048 86.9292 67.3631 87.1188C64.4288 87.3473 61.4875 87.4737 58.5444 87.498L58.3902 87.5H58.3361L58.334 85.4167V73.4646C58.334 69.4813 55.009 65.625 50.0006 65.625C44.9923 65.625 41.6673 69.4792 41.6673 73.4646V87.5H41.4569L40.8819 87.4938C38.1306 87.4581 35.3813 87.333 32.6382 87.1188C30.3965 86.9313 28.0444 86.6396 26.2152 86.175C25.3173 85.948 24.3986 85.6459 23.6611 85.2084C23.0069 84.823 21.8757 83.9542 21.8757 82.4292Z" fill="black"/>
</svg>
