<svg width="16" height="16" viewBox="0 0 16 16" fill="none" xmlns="http://www.w3.org/2000/svg">
<g clip-path="url(#clip0_2600_3016)">
<path d="M15.4 9.3C15.5839 8.09702 15.4904 6.86791 15.1264 5.70666C14.7624 4.5454 14.1377 3.48276 13.3 2.6C10.8 -0.1 6.9 0.4 6.5 0.5C5.88034 0.182577 5.19613 0.0115239 4.5 0C3.31271 0.0198116 2.17959 0.500278 1.33994 1.33994C0.500278 2.17959 0.0198116 3.31271 0 4.5C0.0193105 5.27104 0.225186 6.02592 0.6 6.7C0.346178 8.11021 0.484543 9.56305 1 10.9C1.79822 12.6784 3.22162 14.1018 5 14.9C6.36409 15.4432 7.84766 15.6157 9.3 15.4C9.96562 15.7952 10.7259 16.0025 11.5 16C12.6873 15.9802 13.8204 15.4997 14.6601 14.6601C15.4997 13.8204 15.9802 12.6873 16 11.5C15.9807 10.729 15.7748 9.97408 15.4 9.3ZM8 12.6C5.3 12.6 4.1 11.3 4.1 10.3C4.1 10.0613 4.19482 9.83239 4.3636 9.6636C4.53239 9.49482 4.76131 9.4 5 9.4C6.1 9.4 5.9 11 8 11C9.1 11 9.7 10.4 9.7 9.8C9.7 8.6 8.3 8.8 6.4 8.3C4.5 7.8 4.2 6.8 4.2 5.8C4.2 3.8 6.1 3 7.9 3C9.6 3 11.5 3.9 11.5 5.1C11.4729 5.33842 11.3524 5.55641 11.1651 5.70631C10.9777 5.85622 10.7386 5.92585 10.5 5.9C9.5 5.9 9.7 4.5 7.7 4.5C6.7 4.5 6.2 4.9 6.2 5.6C6.2 6.5 8 6.7 9.4 7C11.3 7.5 11.8 8.6 11.8 9.6C11.9 11.4 10.6 12.6 8 12.6Z" fill="#2E2F2A"/>
</g>
<defs>
<clipPath id="clip0_2600_3016">
<rect width="16" height="16" fill="white"/>
</clipPath>
</defs>
</svg>
