<svg width="16" height="16" viewBox="0 0 16 16" fill="none" xmlns="http://www.w3.org/2000/svg">
<g clip-path="url(#clip0_2600_3013)">
<path d="M15.9683 1.68422C15.9557 1.62517 15.9276 1.57057 15.8868 1.52608C15.846 1.48158 15.794 1.44883 15.7363 1.43122C15.526 1.3893 15.3084 1.40484 15.1063 1.47622C15.1063 1.47622 1.08725 6.51422 0.286252 7.07222C0.114252 7.19322 0.056252 7.26222 0.027252 7.34422C-0.110748 7.74422 0.320252 7.91722 0.320252 7.91722L3.93325 9.09422C3.99426 9.10522 4.05701 9.10145 4.11625 9.08322C4.93825 8.56422 12.3863 3.86122 12.8163 3.70322C12.8843 3.68322 12.9343 3.70322 12.9163 3.75222C12.7443 4.35222 6.31025 10.0712 6.27525 10.1062C6.25818 10.1205 6.2448 10.1387 6.23627 10.1592C6.22774 10.1798 6.2243 10.2021 6.22625 10.2242L5.88925 13.7522C5.88925 13.7522 5.74725 14.8522 6.84525 13.7522C7.62425 12.9732 8.37225 12.3272 8.74525 12.0142C9.98725 12.8722 11.3243 13.8202 11.9013 14.3142C11.9979 14.4083 12.1125 14.4819 12.2383 14.5305C12.3641 14.5792 12.4985 14.6018 12.6333 14.5972C12.7992 14.5767 12.955 14.5062 13.0801 14.3952C13.2051 14.2841 13.2934 14.1376 13.3333 13.9752C13.3333 13.9752 15.8943 3.70022 15.9793 2.31722C15.9873 2.18222 16.0003 2.10022 16.0003 2.00022C16.0039 1.89392 15.9931 1.78762 15.9683 1.68422Z" fill="#2E2F2A"/>
</g>
<defs>
<clipPath id="clip0_2600_3013">
<rect width="16" height="16" fill="white"/>
</clipPath>
</defs>
</svg>
