<svg width="102" height="110" viewBox="0 0 102 110" fill="none" xmlns="http://www.w3.org/2000/svg">
<path d="M50.0313 14.4602C45.8004 10.9258 41.6422 7.80897 36.8437 5.19516C25.5141 -0.976082 12.5773 2.62079 6.60058 14.2071C1.86149 23.3965 8.80843 33.3849 16.7124 36.1927C20.1149 37.4026 23.6858 36.6629 26.4909 34.4896C31.7746 30.3996 32.1838 22.8475 28.1905 20.0068C26.5734 18.8561 24.2006 18.8791 23.2567 20.7663C22.4614 22.3609 21.8508 23.985 20.6991 25.6816C19.7387 23.0908 20.2337 19.6155 22.1709 17.85C24.6296 15.611 29.1245 17.1069 31.1376 19.6385C35.4246 25.0174 33.8933 32.8687 28.042 36.9128L31.692 42.0615L36.5598 38.8493L43.6388 34.5028C44.0744 34.2365 45.2229 34.174 45.5034 34.5192C45.7839 34.8644 45.3615 35.8935 45.0084 36.2585C41.5498 39.8389 37.6225 42.7421 32.8405 43.8928L35.5797 50.0969L45.312 47.6047L57.1597 45.1191C57.4964 45.0468 58.2884 45.4381 58.4831 45.6912C58.6811 45.9444 58.1201 46.7861 57.8264 46.9307C51.0148 50.258 43.8401 51.6225 36.2067 52.0499C35.9262 54.0817 35.9262 55.9558 36.2991 57.7214C43.9523 57.7904 51.457 59.6316 57.8693 62.7616C58.1927 62.9194 58.4996 63.4816 58.5887 63.7183C58.7075 64.0373 57.5063 64.5732 57.0277 64.4745L45.3846 62.0613L35.5896 59.5099L32.8867 65.6943C38.0219 67.2889 42.454 70.0408 45.7377 74.5649C46.0909 75.0515 44.1701 75.4854 43.6751 75.1797L36.3189 70.6261L31.6689 67.644L28.0123 72.6185C33.1739 76.337 35.2563 83.1033 32.0122 88.8537C30.5535 91.4412 27.6097 92.9175 24.6923 92.8517C20.3591 92.7498 19.5935 86.4635 20.6562 83.8661L23.6659 89.3995C24.7913 91.4675 28.2301 90.1919 29.4116 88.4165C31.9132 84.6552 31.0089 79.9898 28.0882 76.6724C24.7352 72.8651 19.5671 71.7143 15.026 74.1309C8.49157 77.6094 3.18816 85.4048 5.5148 92.6249C7.87445 99.9468 14.0986 105.697 21.7617 107.108C32.8834 109.156 42.5596 101.43 50.688 94.637L79.918 70.2151C86.5085 64.708 93.7095 59.2896 101.495 54.8412C93.8316 50.3106 86.7263 45.1027 80.1952 39.6482L50.0247 14.4569L50.0313 14.4602Z" fill="#EAC5B5"/>
<path d="M101.511 55C101.511 55 101.505 54.9967 101.498 54.9934C93.7094 59.4418 86.5117 64.8601 79.9212 70.3672L50.6913 94.7891C42.5629 101.578 32.8866 109.305 21.7649 107.26C14.1019 105.849 7.87437 100.099 5.51802 92.777C3.19467 85.557 8.49479 77.7648 15.0292 74.283C19.5703 71.8665 24.7351 73.0172 28.0914 76.8245C31.0154 80.1419 31.9197 84.8073 29.4148 88.5686C28.2334 90.344 24.7945 91.6197 23.6692 89.5517L20.6594 84.0182C19.5967 86.6156 20.3623 92.9019 24.6955 93.0039C27.6129 93.0729 30.5534 91.5934 32.0154 89.0059C35.2595 83.2555 33.1771 76.4859 28.0156 72.7706L31.6722 67.7962L36.3221 70.7782L43.6783 75.3318C44.1701 75.6376 46.0941 75.2036 45.741 74.717C42.4539 70.193 38.025 67.4444 32.8899 65.8465L35.5928 59.6621L45.3878 62.2134L57.0309 64.6267C57.5095 64.7253 58.7107 64.1894 58.5919 63.8705C58.5028 63.6338 58.1959 63.0716 57.8725 62.9138C51.4602 59.787 43.9522 57.9459 36.3024 57.8735C35.9294 56.108 35.9261 54.2339 36.2099 52.202C43.8466 51.7746 51.018 50.4135 57.8296 47.0829C58.1233 46.9382 58.6844 46.0965 58.4864 45.8434C58.2883 45.5902 57.4996 45.199 57.163 45.2713L45.3152 47.7569L35.5829 50.2491L32.8438 44.045C37.6258 42.8942 41.553 39.9911 45.0116 36.4106C45.3647 36.0457 45.7872 35.0199 45.5066 34.6714C45.2261 34.3262 44.0777 34.3853 43.642 34.6549L36.5631 39.0014L31.6952 42.2136L28.0452 37.0649C33.8998 33.0209 35.4278 25.1729 31.1408 19.7907C29.1244 17.2624 24.6328 15.7631 22.1742 18.0021C20.2369 19.7677 19.7419 23.2396 20.7023 25.8337C21.854 24.1372 22.4646 22.5097 23.2599 20.9184C24.2038 19.0312 26.5766 19.0082 28.1937 20.1589C32.187 22.9963 31.7778 30.5517 26.4941 34.6418C23.6889 36.815 20.1182 37.5515 16.7156 36.3449C8.81164 33.5371 1.8647 23.5454 6.6038 14.3592C12.5805 2.76968 25.5173 -0.823909 36.8469 5.34733C41.6454 7.96114 45.8004 11.078 50.0345 14.6124L80.205 39.8037C86.7361 45.2582 93.8415 50.4661 101.505 54.9967C101.505 54.9967 101.505 54.9967 101.508 54.9967C97.2836 49.2857 90.9175 45.7645 85.6932 41.4246L53.5228 14.6979C45.9654 8.42144 37.8072 1.64196 28.0749 0.254499C28.1409 0.49451 28.1937 0.747665 28.2036 0.833148C28.2168 0.95151 27.867 1.0074 27.7548 0.944933C27.5733 0.839723 27.3621 0.560264 27.1146 0.139423C25.6064 -0.0183922 24.0619 -0.0479802 22.4745 0.0802448C13.4121 0.800277 5.551 7.03397 2.48511 15.4738C-0.811799 24.5482 6.25395 34.4445 14.3758 38.1499C18.468 40.0141 22.5867 39.6623 26.6327 37.8639C36.3387 52.9681 36.3981 56.7984 26.6922 72.0703C16.676 67.2833 6.39918 74.9669 2.79535 83.9393C-1.75234 95.2692 8.67963 107.013 19.2238 109.374C22.0488 110.008 24.7582 110.117 27.3687 109.821C27.5601 109.542 27.7218 109.351 27.8571 109.279C28.131 109.131 28.207 109.308 28.1277 109.719C37.2 108.414 45.0578 102.282 52.239 96.3114L85.3863 68.7628C90.6832 64.3604 97.0757 60.7405 101.554 54.9638C101.538 54.9737 101.521 54.9835 101.508 54.9901C101.508 54.9901 101.514 54.9967 101.514 55H101.511Z" fill="#AB6520"/>
<path d="M16.8475 44.702C22.5206 49.9296 23.0354 58.215 17.6462 63.9226C11.752 70.1629 0.514821 75.0157 0.0296906 84.4649C2.76226 80.6444 4.36945 76.7089 8.18119 73.9603C13.808 69.8999 21.4084 64.8958 23.0156 58.238C24.6624 51.4092 21.3919 45.5996 16.0918 41.5161L6.90401 34.4309C3.80511 32.0406 2.56756 28.2563 0 25.0737C0.79205 34.0429 10.4616 38.8168 16.8508 44.7053L16.8475 44.702Z" fill="#AB6520"/>
</svg>
