<svg width="102" height="110" viewBox="0 0 102 110" fill="none" xmlns="http://www.w3.org/2000/svg">
<path d="M73.1854 109.248C73.2679 109.419 73.3537 109.593 73.4395 109.764C76.677 110.218 80.0564 110.053 83.5877 109.024C93.4454 106.154 103.194 94.7191 98.5079 83.6523C94.7622 74.8113 84.6305 67.3315 74.7266 72.0989C65.057 56.8368 65.0504 52.99 74.7926 37.8792C79.1489 39.8552 83.6075 39.9834 87.8812 37.7707C95.6994 33.7234 102.277 24.1131 98.8181 15.144C95.6532 6.93099 87.934 0.812363 79.0235 0.0824676C77.5879 -0.0358939 76.1853 -0.0227398 74.8124 0.0956217C74.5781 0.49016 74.357 0.822227 74.1425 1.07868C74.0237 1.22005 73.7299 0.509882 73.8025 0.306037C73.8157 0.269871 73.8289 0.233713 73.8421 0.200834C63.8821 1.43705 55.5557 8.3612 47.919 14.7067L15.9829 41.2492C10.6927 45.6451 4.27707 49.1696 0 54.943C0 54.943 0.00660001 54.9463 0.00990022 54.9496C7.9733 50.2217 15.2173 44.8757 21.9464 39.247L49.2292 16.4328C58.2883 8.85766 68.7532 -0.144386 81.2049 3.06781C87.2443 4.62624 91.9999 8.92999 94.8249 14.3812C99.4815 23.3734 92.8744 33.227 85.0232 36.2583C81.5481 37.5998 77.7727 36.8929 74.9279 34.6605C69.3704 30.2975 69.3737 22.5284 73.5121 19.9968C75.281 18.9151 77.4856 19.2899 78.3436 21.2133C79.0367 22.7651 79.6208 24.3038 80.7528 25.8458C81.6504 23.3175 81.2148 20.079 79.4327 18.1984C77.0829 15.7226 72.3604 17.189 70.2779 19.8061C65.8853 25.3329 67.7203 33.2467 73.4296 37.1296L69.6971 42.1961L63.8359 38.3724L57.5358 34.5585C57.1431 34.3218 56.0144 34.3645 55.889 34.7098C55.0409 37.0507 65.3012 43.9025 68.5816 44.0603L65.8424 50.2776L56.1299 47.7887L44.2723 45.2735C43.8565 45.1848 42.6354 45.9147 42.8499 46.2467C43.0215 46.513 43.5693 47.095 43.873 47.2397C50.6384 50.488 57.6513 51.7768 65.2418 52.2371C65.4596 54.1539 65.453 55.8998 65.2121 57.8494C57.6117 58.0105 50.1995 59.6676 43.4901 62.9456C43.1634 63.1067 42.6651 64.0536 42.9423 64.241C44.2228 65.1122 54.1399 62.7154 56.3642 62.1466L65.8787 59.7071L68.5585 65.9178C63.2353 67.3611 58.8295 70.4813 55.4336 74.9626C56.384 75.4459 57.4467 75.5511 57.9417 75.2453L65.3804 70.6226L69.773 67.805L73.423 72.8781C68.4397 76.304 66.5817 82.3174 68.806 87.8541C70.0997 91.0761 73.2778 93.1212 76.7331 93.0094C78.9542 92.937 80.3073 91.4575 80.6967 89.4651C81.0597 87.6141 81.7197 86.0622 80.6901 83.9909L77.9179 89.3468C76.8222 91.4674 73.4593 90.5501 72.1854 88.8174C69.5981 85.3027 70.2548 80.6932 72.9247 77.3232C76.2216 73.1608 81.6339 71.7701 86.3862 74.3017C93.056 77.8558 98.3495 85.7696 95.8083 93.1179C93.4586 99.9105 87.868 105.303 80.7627 107.039C69.3836 109.823 59.2651 101.969 50.9717 95.0018L24.4314 72.7203C16.8938 66.3912 8.86436 60.1279 0.00990022 54.943C0.00990022 54.943 0.00990203 54.943 0.00660182 54.943C4.44868 60.7197 10.7488 64.3791 16.0423 68.7782L49.1929 96.3235C56.1431 102.1 63.8392 108.074 72.5551 109.613C72.5353 109.56 72.5155 109.508 72.499 109.455L73.1953 109.235L73.1854 109.248Z" fill="#AB6520"/>
<path d="M50.9618 94.8161C59.2585 101.78 69.377 109.638 80.7528 106.853C87.8581 105.114 93.4487 99.7248 95.7984 92.9321C98.3396 85.5839 93.0494 77.6701 86.3763 74.1159C81.624 71.5843 76.2117 72.9751 72.9148 77.1374C70.2449 80.5075 69.5882 85.1137 72.1756 88.6317C73.4494 90.3644 76.809 91.2784 77.908 89.161L80.6802 83.8051C81.7098 85.8765 81.0498 87.425 80.6868 89.2794C80.2974 91.2718 78.9443 92.7513 76.7232 92.8236C73.2679 92.9354 70.0898 90.8871 68.7961 87.6683C66.5718 82.1316 68.4265 76.1182 73.4131 72.6923L69.7631 67.6192L65.3705 70.4369L57.9319 75.0595C57.4368 75.3686 56.3742 75.2601 55.4237 74.7768C58.8229 70.2922 63.2254 67.1721 68.5486 65.732L65.8689 59.5213L56.3544 61.9609C54.13 62.5297 44.2129 64.9265 42.9324 64.0552C42.6552 63.8678 43.1535 62.9176 43.4802 62.7598C50.1896 59.4819 57.6018 57.8248 65.2022 57.6637C65.4431 55.714 65.4497 53.9682 65.2319 52.0514C57.6414 51.5944 50.6285 50.3023 43.8631 47.0539C43.5594 46.9059 43.0116 46.3273 42.84 46.061C42.6255 45.7289 43.8499 44.999 44.2624 45.0878L56.12 47.603L65.8326 50.0918L68.5717 43.8746C65.2913 43.7168 55.031 36.865 55.8791 34.524C56.0045 34.1788 57.1332 34.1361 57.5259 34.3728L63.826 38.1866L69.6872 42.0104L73.4197 36.9439C67.7071 33.0609 65.8722 25.1472 70.268 19.6203C72.3472 17.0032 77.0731 15.5369 79.4228 18.0126C81.2049 19.8899 81.6405 23.1317 80.7429 25.6601C79.6076 24.1214 79.0235 22.5794 78.3337 21.0275C77.4757 19.1042 75.2711 18.7293 73.5022 19.811C69.3638 22.3427 69.3572 30.1118 74.918 34.4747C77.7628 36.7071 81.5382 37.414 85.0134 36.0726C92.8679 33.0379 99.4716 23.1876 94.815 14.1954C91.9933 8.74424 87.2344 4.44048 81.195 2.88205C68.7433 -0.333433 58.2751 8.6719 49.2193 16.247L21.9365 39.0612C15.2074 44.69 7.9634 50.0327 0 54.7638C8.85446 59.952 16.8839 66.212 24.4215 72.5411L50.9618 94.8226V94.8161Z" fill="#EAC5B5"/>
<path d="M92.3332 39.1234C96.673 35.8619 100.851 31.5121 101.452 25.811C98.894 28.8851 97.7686 32.6398 94.7457 34.9808L85.3269 42.2699C80.0234 46.3731 76.7661 52.1563 78.403 58.9917C80.0003 65.6561 87.538 70.5747 92.8579 74.4445C96.3595 76.9892 98.6795 80.5171 100.584 84.4888C101.019 84.7419 101.376 85.0148 101.366 84.8077C101.171 80.0338 96.1317 74.4938 92.2078 71.6958C88.8878 69.3286 85.977 67.1028 83.3368 64.1536C78.8915 59.1857 78.8651 51.7782 83.2906 46.8728C86.0364 43.8283 89.0759 41.5695 92.3332 39.1234Z" fill="#AB6520"/>
</svg>
